<svg xmlns="http://www.w3.org/2000/svg" xmlns:xlink="http://www.w3.org/1999/xlink" width="500" zoomAndPan="magnify" viewBox="0 0 375 374.999991" height="500" preserveAspectRatio="xMidYMid meet" version="1.0"><defs><g/></defs><rect x="-37.5" width="450" fill="#ffffff" y="-37.499999" height="449.999989" fill-opacity="1"/><rect x="-37.5" width="450" fill="#ffffff" y="-37.499999" height="449.999989" fill-opacity="1"/><rect x="-37.5" width="450" fill="#ffffff" y="-37.499999" height="449.999989" fill-opacity="1"/><g fill="#ffc83b" fill-opacity="1"><g transform="translate(77.356763, 170.25519)"><g><path d="M 9.359375 1.484375 C 7.492188 1.484375 5.972656 1.1875 4.796875 0.59375 C 3.628906 0.0078125 2.71875 -0.828125 2.0625 -1.921875 C 1.40625 -3.015625 0.960938 -4.359375 0.734375 -5.953125 C 0.515625 -7.554688 0.40625 -9.359375 0.40625 -11.359375 C 0.40625 -13.117188 0.523438 -14.769531 0.765625 -16.3125 C 1.003906 -17.863281 1.441406 -19.222656 2.078125 -20.390625 C 2.722656 -21.566406 3.609375 -22.492188 4.734375 -23.171875 C 5.867188 -23.859375 7.34375 -24.203125 9.15625 -24.203125 C 11.238281 -24.203125 12.878906 -23.84375 14.078125 -23.125 C 15.273438 -22.40625 16.101562 -21.070312 16.5625 -19.125 C 16.71875 -18.40625 16.84375 -17.5625 16.9375 -16.59375 C 17.03125 -15.632812 17.078125 -14.835938 17.078125 -14.203125 C 17.078125 -13.128906 16.742188 -12.382812 16.078125 -11.96875 C 15.410156 -11.5625 14.570312 -11.359375 13.5625 -11.359375 C 12.914062 -11.359375 12.378906 -11.484375 11.953125 -11.734375 C 11.523438 -11.992188 11.234375 -12.457031 11.078125 -13.125 C 10.992188 -13.46875 10.957031 -13.898438 10.96875 -14.421875 C 10.988281 -14.941406 10.976562 -15.441406 10.9375 -15.921875 C 10.894531 -16.398438 10.78125 -16.8125 10.59375 -17.15625 C 10.40625 -17.507812 10.085938 -17.6875 9.640625 -17.6875 C 8.972656 -17.6875 8.457031 -17.410156 8.09375 -16.859375 C 7.738281 -16.316406 7.472656 -15.675781 7.296875 -14.9375 C 7.128906 -14.207031 7.023438 -13.460938 6.984375 -12.703125 C 6.941406 -11.941406 6.921875 -11.347656 6.921875 -10.921875 C 6.921875 -10.460938 6.929688 -9.898438 6.953125 -9.234375 C 6.984375 -8.566406 7.082031 -7.921875 7.25 -7.296875 C 7.425781 -6.671875 7.691406 -6.128906 8.046875 -5.671875 C 8.410156 -5.222656 8.925781 -5 9.59375 -5 C 10.257812 -5 10.734375 -5.09375 11.015625 -5.28125 C 11.296875 -5.46875 11.492188 -5.691406 11.609375 -5.953125 C 11.734375 -6.222656 11.816406 -6.523438 11.859375 -6.859375 C 11.898438 -7.191406 11.992188 -7.488281 12.140625 -7.75 C 12.285156 -8.019531 12.535156 -8.25 12.890625 -8.4375 C 13.253906 -8.625 13.8125 -8.71875 14.5625 -8.71875 C 15.625 -8.71875 16.316406 -8.4375 16.640625 -7.875 C 16.960938 -7.320312 17.125 -6.5625 17.125 -5.59375 C 17.125 -4.425781 16.925781 -3.398438 16.53125 -2.515625 C 16.144531 -1.640625 15.613281 -0.898438 14.9375 -0.296875 C 14.257812 0.296875 13.445312 0.738281 12.5 1.03125 C 11.550781 1.332031 10.503906 1.484375 9.359375 1.484375 Z M 12.203125 -22.15625 C 12.097656 -22.101562 12.015625 -21.992188 11.953125 -21.828125 C 11.898438 -21.671875 11.914062 -21.515625 12 -21.359375 C 12.132812 -21.117188 12.28125 -20.84375 12.4375 -20.53125 C 12.601562 -20.226562 12.789062 -19.929688 13 -19.640625 C 13.132812 -19.453125 13.226562 -19.25 13.28125 -19.03125 C 13.332031 -18.820312 13.390625 -18.628906 13.453125 -18.453125 C 13.523438 -18.285156 13.617188 -18.140625 13.734375 -18.015625 C 13.859375 -17.898438 14.039062 -17.84375 14.28125 -17.84375 C 14.601562 -17.863281 14.8125 -18.097656 14.90625 -18.546875 C 15 -19.003906 14.910156 -19.539062 14.640625 -20.15625 C 14.316406 -20.90625 13.898438 -21.472656 13.390625 -21.859375 C 12.890625 -22.242188 12.492188 -22.34375 12.203125 -22.15625 Z M 14.203125 -16.71875 C 14.171875 -16.507812 14.195312 -16.3125 14.28125 -16.125 C 14.363281 -15.9375 14.46875 -15.816406 14.59375 -15.765625 C 14.8125 -15.648438 15.019531 -15.671875 15.21875 -15.828125 C 15.414062 -15.992188 15.53125 -16.210938 15.5625 -16.484375 C 15.613281 -16.910156 15.46875 -17.1875 15.125 -17.3125 C 14.582031 -17.582031 14.273438 -17.382812 14.203125 -16.71875 Z M 14.203125 -16.71875 "/></g></g></g><g fill="#ffc83b" fill-opacity="1"><g transform="translate(94.835026, 170.25519)"><g><path d="M 3.875 0.765625 C 2.570312 0.765625 1.632812 0.5 1.0625 -0.03125 C 0.488281 -0.570312 0.203125 -1.441406 0.203125 -2.640625 C 0.203125 -3.015625 0.253906 -3.539062 0.359375 -4.21875 C 0.460938 -4.894531 0.59375 -5.664062 0.75 -6.53125 C 0.914062 -7.40625 1.113281 -8.332031 1.34375 -9.3125 C 1.570312 -10.300781 1.8125 -11.28125 2.0625 -12.25 C 2.3125 -13.226562 2.5625 -14.15625 2.8125 -15.03125 C 3.070312 -15.914062 3.320312 -16.675781 3.5625 -17.3125 C 4.007812 -18.570312 4.441406 -19.609375 4.859375 -20.421875 C 5.273438 -21.234375 5.722656 -21.882812 6.203125 -22.375 C 6.679688 -22.875 7.210938 -23.222656 7.796875 -23.421875 C 8.390625 -23.617188 9.082031 -23.71875 9.875 -23.71875 C 10.96875 -23.71875 11.894531 -23.5625 12.65625 -23.25 C 13.414062 -22.945312 14.082031 -22.367188 14.65625 -21.515625 C 15.226562 -20.660156 15.722656 -19.492188 16.140625 -18.015625 C 16.554688 -16.535156 16.945312 -14.609375 17.3125 -12.234375 C 17.445312 -11.410156 17.59375 -10.445312 17.75 -9.34375 C 17.914062 -8.238281 18.070312 -7.148438 18.21875 -6.078125 C 18.363281 -5.015625 18.488281 -4.054688 18.59375 -3.203125 C 18.707031 -2.347656 18.765625 -1.75 18.765625 -1.40625 C 18.765625 0.28125 17.585938 1.125 15.234375 1.125 C 14.410156 1.125 13.78125 0.992188 13.34375 0.734375 C 12.90625 0.484375 12.5625 0.132812 12.3125 -0.3125 C 12.070312 -0.769531 11.890625 -1.3125 11.765625 -1.9375 C 11.648438 -2.5625 11.5 -3.265625 11.3125 -4.046875 L 7.046875 -4.046875 C 6.960938 -3.535156 6.882812 -2.992188 6.8125 -2.421875 C 6.75 -1.847656 6.617188 -1.328125 6.421875 -0.859375 C 6.222656 -0.390625 5.925781 -0.00390625 5.53125 0.296875 C 5.144531 0.609375 4.59375 0.765625 3.875 0.765625 Z M 12.359375 -20.796875 C 12.117188 -20.660156 12.003906 -20.363281 12.015625 -19.90625 C 12.035156 -19.457031 12.164062 -18.890625 12.40625 -18.203125 C 12.957031 -16.648438 13.554688 -16.019531 14.203125 -16.3125 C 14.785156 -16.613281 14.851562 -17.390625 14.40625 -18.640625 C 14.101562 -19.410156 13.757812 -20.003906 13.375 -20.421875 C 12.988281 -20.835938 12.648438 -20.960938 12.359375 -20.796875 Z M 14.15625 -15.203125 C 13.96875 -14.742188 13.992188 -14.394531 14.234375 -14.15625 C 14.347656 -14.050781 14.46875 -14 14.59375 -14 C 14.757812 -14 14.921875 -14.050781 15.078125 -14.15625 C 15.234375 -14.257812 15.34375 -14.394531 15.40625 -14.5625 C 15.53125 -14.9375 15.460938 -15.253906 15.203125 -15.515625 C 15.066406 -15.648438 14.921875 -15.71875 14.765625 -15.71875 C 14.523438 -15.71875 14.320312 -15.546875 14.15625 -15.203125 Z M 10.640625 -9.875 C 10.671875 -10.300781 10.671875 -10.832031 10.640625 -11.46875 C 10.609375 -12.113281 10.550781 -12.726562 10.46875 -13.3125 C 10.394531 -13.90625 10.304688 -14.414062 10.203125 -14.84375 C 10.097656 -15.269531 9.976562 -15.484375 9.84375 -15.484375 C 9.707031 -15.484375 9.546875 -15.300781 9.359375 -14.9375 C 9.171875 -14.582031 8.988281 -14.125 8.8125 -13.5625 C 8.644531 -13 8.492188 -12.390625 8.359375 -11.734375 C 8.222656 -11.085938 8.144531 -10.46875 8.125 -9.875 Z M 10.640625 -9.875 "/></g></g></g><g fill="#ffc83b" fill-opacity="1"><g transform="translate(113.793147, 170.25519)"><g><path d="M 1.125 -11.84375 L 1.125 -12.875 L 1.15625 -14.921875 L 1.15625 -15.953125 C 1.15625 -16.921875 1.195312 -17.859375 1.28125 -18.765625 C 1.363281 -19.671875 1.515625 -20.484375 1.734375 -21.203125 C 1.960938 -21.921875 2.273438 -22.492188 2.671875 -22.921875 C 3.078125 -23.347656 3.585938 -23.5625 4.203125 -23.5625 C 4.628906 -23.5625 5.113281 -23.570312 5.65625 -23.59375 C 6.207031 -23.625 6.789062 -23.640625 7.40625 -23.640625 C 9.050781 -23.640625 10.492188 -23.539062 11.734375 -23.34375 C 12.972656 -23.144531 14 -22.742188 14.8125 -22.140625 C 15.632812 -21.535156 16.242188 -20.679688 16.640625 -19.578125 C 17.035156 -18.472656 17.234375 -17.015625 17.234375 -15.203125 C 17.234375 -14.503906 17.171875 -13.78125 17.046875 -13.03125 C 16.929688 -12.289062 16.734375 -11.5625 16.453125 -10.84375 C 16.179688 -10.125 15.8125 -9.445312 15.34375 -8.8125 C 14.875 -8.1875 14.28125 -7.648438 13.5625 -7.203125 C 13.9375 -6.796875 14.328125 -6.441406 14.734375 -6.140625 C 15.148438 -5.835938 15.546875 -5.65625 15.921875 -5.59375 C 16.242188 -5.570312 16.550781 -5.519531 16.84375 -5.4375 C 17.132812 -5.351562 17.398438 -5.210938 17.640625 -5.015625 C 17.878906 -4.816406 18.066406 -4.546875 18.203125 -4.203125 C 18.335938 -3.859375 18.40625 -3.390625 18.40625 -2.796875 C 18.40625 -0.179688 17.148438 1.125 14.640625 1.125 C 14.210938 1.125 13.796875 1.085938 13.390625 1.015625 C 12.992188 0.953125 12.609375 0.800781 12.234375 0.5625 C 11.921875 0.34375 11.554688 -0.03125 11.140625 -0.5625 C 10.722656 -1.09375 10.304688 -1.679688 9.890625 -2.328125 C 9.484375 -2.984375 9.09375 -3.648438 8.71875 -4.328125 C 8.34375 -5.015625 8.023438 -5.613281 7.765625 -6.125 L 7.640625 -6.125 L 7.640625 -5.796875 C 7.640625 -5.609375 7.648438 -5.359375 7.671875 -5.046875 C 7.703125 -4.742188 7.726562 -4.429688 7.75 -4.109375 C 7.78125 -3.796875 7.804688 -3.492188 7.828125 -3.203125 C 7.859375 -2.910156 7.875 -2.65625 7.875 -2.4375 C 7.875 -1.875 7.851562 -1.359375 7.8125 -0.890625 C 7.78125 -0.429688 7.675781 -0.0390625 7.5 0.28125 C 7.320312 0.601562 7.035156 0.847656 6.640625 1.015625 C 6.242188 1.191406 5.679688 1.28125 4.953125 1.28125 C 4.472656 1.28125 4 1.238281 3.53125 1.15625 C 3.070312 1.082031 2.660156 0.929688 2.296875 0.703125 C 1.941406 0.472656 1.65625 0.171875 1.4375 -0.203125 C 1.226562 -0.578125 1.125 -1.054688 1.125 -1.640625 Z M 11.796875 -21.640625 C 11.660156 -21.585938 11.550781 -21.488281 11.46875 -21.34375 C 11.394531 -21.195312 11.382812 -21.039062 11.4375 -20.875 C 11.488281 -20.75 11.59375 -20.601562 11.75 -20.4375 C 11.914062 -20.28125 12.113281 -20.09375 12.34375 -19.875 C 12.570312 -19.664062 12.789062 -19.425781 13 -19.15625 C 13.207031 -18.894531 13.394531 -18.585938 13.5625 -18.234375 C 13.644531 -18.046875 13.695312 -17.84375 13.71875 -17.625 C 13.75 -17.414062 13.796875 -17.21875 13.859375 -17.03125 C 13.921875 -16.851562 14.003906 -16.695312 14.109375 -16.5625 C 14.222656 -16.425781 14.375 -16.34375 14.5625 -16.3125 C 14.9375 -16.257812 15.175781 -16.453125 15.28125 -16.890625 C 15.382812 -17.335938 15.367188 -17.828125 15.234375 -18.359375 C 15.109375 -18.867188 14.894531 -19.34375 14.59375 -19.78125 C 14.300781 -20.21875 13.988281 -20.585938 13.65625 -20.890625 C 13.320312 -21.203125 12.984375 -21.429688 12.640625 -21.578125 C 12.296875 -21.722656 12.015625 -21.742188 11.796875 -21.640625 Z M 7.953125 -11.3125 C 8.597656 -11.34375 9.160156 -11.40625 9.640625 -11.5 C 10.117188 -11.59375 10.503906 -11.757812 10.796875 -12 C 11.085938 -12.238281 11.304688 -12.554688 11.453125 -12.953125 C 11.609375 -13.359375 11.6875 -13.894531 11.6875 -14.5625 C 11.6875 -15.363281 11.476562 -16.066406 11.0625 -16.671875 C 10.644531 -17.285156 10 -17.59375 9.125 -17.59375 C 8.90625 -17.59375 8.695312 -17.59375 8.5 -17.59375 C 8.300781 -17.59375 8.09375 -17.582031 7.875 -17.5625 C 8.007812 -16.414062 8.054688 -15.375 8.015625 -14.4375 C 7.972656 -13.507812 7.953125 -12.46875 7.953125 -11.3125 Z M 14.40625 -15.28125 C 14.269531 -14.851562 14.332031 -14.546875 14.59375 -14.359375 C 14.757812 -14.222656 14.945312 -14.210938 15.15625 -14.328125 C 15.375 -14.453125 15.507812 -14.609375 15.5625 -14.796875 C 15.613281 -14.960938 15.613281 -15.125 15.5625 -15.28125 C 15.507812 -15.4375 15.414062 -15.554688 15.28125 -15.640625 C 15.09375 -15.773438 14.910156 -15.804688 14.734375 -15.734375 C 14.566406 -15.671875 14.457031 -15.519531 14.40625 -15.28125 Z M 16.640625 -4.765625 C 16.367188 -4.765625 16.179688 -4.695312 16.078125 -4.5625 C 15.972656 -4.425781 15.960938 -4.253906 16.046875 -4.046875 C 16.148438 -3.804688 16.238281 -3.457031 16.3125 -3 C 16.394531 -2.539062 16.4375 -2.222656 16.4375 -2.046875 C 16.4375 -1.910156 16.492188 -1.816406 16.609375 -1.765625 C 16.734375 -1.710938 16.847656 -1.6875 16.953125 -1.6875 C 17.328125 -1.6875 17.515625 -2.097656 17.515625 -2.921875 C 17.515625 -2.972656 17.5 -3.097656 17.46875 -3.296875 C 17.445312 -3.492188 17.398438 -3.695312 17.328125 -3.90625 C 17.265625 -4.125 17.179688 -4.320312 17.078125 -4.5 C 16.972656 -4.675781 16.828125 -4.765625 16.640625 -4.765625 Z M 16.640625 -4.765625 "/></g></g></g><g fill="#ffc83b" fill-opacity="1"><g transform="translate(132.351309, 170.25519)"><g><path d="M 1.125 -11.84375 L 1.125 -12.875 L 1.15625 -14.921875 L 1.15625 -15.953125 C 1.15625 -16.921875 1.195312 -17.859375 1.28125 -18.765625 C 1.363281 -19.671875 1.515625 -20.484375 1.734375 -21.203125 C 1.960938 -21.921875 2.273438 -22.492188 2.671875 -22.921875 C 3.078125 -23.347656 3.585938 -23.5625 4.203125 -23.5625 C 4.628906 -23.5625 5.113281 -23.570312 5.65625 -23.59375 C 6.207031 -23.625 6.789062 -23.640625 7.40625 -23.640625 C 9.050781 -23.640625 10.492188 -23.539062 11.734375 -23.34375 C 12.972656 -23.144531 14 -22.742188 14.8125 -22.140625 C 15.632812 -21.535156 16.242188 -20.679688 16.640625 -19.578125 C 17.035156 -18.472656 17.234375 -17.015625 17.234375 -15.203125 C 17.234375 -14.503906 17.171875 -13.78125 17.046875 -13.03125 C 16.929688 -12.289062 16.734375 -11.5625 16.453125 -10.84375 C 16.179688 -10.125 15.8125 -9.445312 15.34375 -8.8125 C 14.875 -8.1875 14.28125 -7.648438 13.5625 -7.203125 C 13.9375 -6.796875 14.328125 -6.441406 14.734375 -6.140625 C 15.148438 -5.835938 15.546875 -5.65625 15.921875 -5.59375 C 16.242188 -5.570312 16.550781 -5.519531 16.84375 -5.4375 C 17.132812 -5.351562 17.398438 -5.210938 17.640625 -5.015625 C 17.878906 -4.816406 18.066406 -4.546875 18.203125 -4.203125 C 18.335938 -3.859375 18.40625 -3.390625 18.40625 -2.796875 C 18.40625 -0.179688 17.148438 1.125 14.640625 1.125 C 14.210938 1.125 13.796875 1.085938 13.390625 1.015625 C 12.992188 0.953125 12.609375 0.800781 12.234375 0.5625 C 11.921875 0.34375 11.554688 -0.03125 11.140625 -0.5625 C 10.722656 -1.09375 10.304688 -1.679688 9.890625 -2.328125 C 9.484375 -2.984375 9.09375 -3.648438 8.71875 -4.328125 C 8.34375 -5.015625 8.023438 -5.613281 7.765625 -6.125 L 7.640625 -6.125 L 7.640625 -5.796875 C 7.640625 -5.609375 7.648438 -5.359375 7.671875 -5.046875 C 7.703125 -4.742188 7.726562 -4.429688 7.75 -4.109375 C 7.78125 -3.796875 7.804688 -3.492188 7.828125 -3.203125 C 7.859375 -2.910156 7.875 -2.65625 7.875 -2.4375 C 7.875 -1.875 7.851562 -1.359375 7.8125 -0.890625 C 7.78125 -0.429688 7.675781 -0.0390625 7.5 0.28125 C 7.320312 0.601562 7.035156 0.847656 6.640625 1.015625 C 6.242188 1.191406 5.679688 1.28125 4.953125 1.28125 C 4.472656 1.28125 4 1.238281 3.53125 1.15625 C 3.070312 1.082031 2.660156 0.929688 2.296875 0.703125 C 1.941406 0.472656 1.65625 0.171875 1.4375 -0.203125 C 1.226562 -0.578125 1.125 -1.054688 1.125 -1.640625 Z M 11.796875 -21.640625 C 11.660156 -21.585938 11.550781 -21.488281 11.46875 -21.34375 C 11.394531 -21.195312 11.382812 -21.039062 11.4375 -20.875 C 11.488281 -20.75 11.59375 -20.601562 11.75 -20.4375 C 11.914062 -20.28125 12.113281 -20.09375 12.34375 -19.875 C 12.570312 -19.664062 12.789062 -19.425781 13 -19.15625 C 13.207031 -18.894531 13.394531 -18.585938 13.5625 -18.234375 C 13.644531 -18.046875 13.695312 -17.84375 13.71875 -17.625 C 13.75 -17.414062 13.796875 -17.21875 13.859375 -17.03125 C 13.921875 -16.851562 14.003906 -16.695312 14.109375 -16.5625 C 14.222656 -16.425781 14.375 -16.34375 14.5625 -16.3125 C 14.9375 -16.257812 15.175781 -16.453125 15.28125 -16.890625 C 15.382812 -17.335938 15.367188 -17.828125 15.234375 -18.359375 C 15.109375 -18.867188 14.894531 -19.34375 14.59375 -19.78125 C 14.300781 -20.21875 13.988281 -20.585938 13.65625 -20.890625 C 13.320312 -21.203125 12.984375 -21.429688 12.640625 -21.578125 C 12.296875 -21.722656 12.015625 -21.742188 11.796875 -21.640625 Z M 7.953125 -11.3125 C 8.597656 -11.34375 9.160156 -11.40625 9.640625 -11.5 C 10.117188 -11.59375 10.503906 -11.757812 10.796875 -12 C 11.085938 -12.238281 11.304688 -12.554688 11.453125 -12.953125 C 11.609375 -13.359375 11.6875 -13.894531 11.6875 -14.5625 C 11.6875 -15.363281 11.476562 -16.066406 11.0625 -16.671875 C 10.644531 -17.285156 10 -17.59375 9.125 -17.59375 C 8.90625 -17.59375 8.695312 -17.59375 8.5 -17.59375 C 8.300781 -17.59375 8.09375 -17.582031 7.875 -17.5625 C 8.007812 -16.414062 8.054688 -15.375 8.015625 -14.4375 C 7.972656 -13.507812 7.953125 -12.46875 7.953125 -11.3125 Z M 14.40625 -15.28125 C 14.269531 -14.851562 14.332031 -14.546875 14.59375 -14.359375 C 14.757812 -14.222656 14.945312 -14.210938 15.15625 -14.328125 C 15.375 -14.453125 15.507812 -14.609375 15.5625 -14.796875 C 15.613281 -14.960938 15.613281 -15.125 15.5625 -15.28125 C 15.507812 -15.4375 15.414062 -15.554688 15.28125 -15.640625 C 15.09375 -15.773438 14.910156 -15.804688 14.734375 -15.734375 C 14.566406 -15.671875 14.457031 -15.519531 14.40625 -15.28125 Z M 16.640625 -4.765625 C 16.367188 -4.765625 16.179688 -4.695312 16.078125 -4.5625 C 15.972656 -4.425781 15.960938 -4.253906 16.046875 -4.046875 C 16.148438 -3.804688 16.238281 -3.457031 16.3125 -3 C 16.394531 -2.539062 16.4375 -2.222656 16.4375 -2.046875 C 16.4375 -1.910156 16.492188 -1.816406 16.609375 -1.765625 C 16.734375 -1.710938 16.847656 -1.6875 16.953125 -1.6875 C 17.328125 -1.6875 17.515625 -2.097656 17.515625 -2.921875 C 17.515625 -2.972656 17.5 -3.097656 17.46875 -3.296875 C 17.445312 -3.492188 17.398438 -3.695312 17.328125 -3.90625 C 17.265625 -4.125 17.179688 -4.320312 17.078125 -4.5 C 16.972656 -4.675781 16.828125 -4.765625 16.640625 -4.765625 Z M 16.640625 -4.765625 "/></g></g></g><g fill="#ffc83b" fill-opacity="1"><g transform="translate(150.90947, 170.25519)"><g><path d="M 4.40625 1.359375 C 3.175781 1.359375 2.332031 1.050781 1.875 0.4375 C 1.425781 -0.175781 1.203125 -1.054688 1.203125 -2.203125 L 1.203125 -16.59375 C 1.203125 -17.050781 1.1875 -17.640625 1.15625 -18.359375 C 1.132812 -19.078125 1.171875 -19.789062 1.265625 -20.5 C 1.359375 -21.207031 1.5625 -21.820312 1.875 -22.34375 C 2.195312 -22.863281 2.71875 -23.160156 3.4375 -23.234375 C 4.9375 -23.367188 6.453125 -23.507812 7.984375 -23.65625 C 9.515625 -23.800781 11.023438 -23.875 12.515625 -23.875 C 12.804688 -23.875 13.085938 -23.75 13.359375 -23.5 C 13.628906 -23.25 13.863281 -22.945312 14.0625 -22.59375 C 14.257812 -22.25 14.414062 -21.890625 14.53125 -21.515625 C 14.65625 -21.140625 14.71875 -20.832031 14.71875 -20.59375 C 14.71875 -20.25 14.695312 -19.90625 14.65625 -19.5625 C 14.613281 -19.21875 14.523438 -18.90625 14.390625 -18.625 C 14.265625 -18.34375 14.070312 -18.109375 13.8125 -17.921875 C 13.5625 -17.734375 13.222656 -17.625 12.796875 -17.59375 L 7.359375 -17.15625 L 7.5625 -14.6875 L 11.484375 -14.6875 C 12.304688 -14.6875 12.863281 -14.410156 13.15625 -13.859375 C 13.445312 -13.316406 13.59375 -12.679688 13.59375 -11.953125 C 13.59375 -11.691406 13.570312 -11.378906 13.53125 -11.015625 C 13.5 -10.660156 13.421875 -10.316406 13.296875 -9.984375 C 13.179688 -9.648438 13.015625 -9.363281 12.796875 -9.125 C 12.585938 -8.882812 12.296875 -8.765625 11.921875 -8.765625 L 7.5625 -8.765625 L 7.796875 -5.203125 L 9.953125 -5.203125 C 10.253906 -5.203125 10.488281 -5.285156 10.65625 -5.453125 C 10.832031 -5.628906 11.003906 -5.832031 11.171875 -6.0625 C 11.347656 -6.289062 11.550781 -6.488281 11.78125 -6.65625 C 12.007812 -6.832031 12.296875 -6.921875 12.640625 -6.921875 C 13.492188 -6.921875 14.1875 -6.691406 14.71875 -6.234375 C 15.25 -5.785156 15.515625 -5.117188 15.515625 -4.234375 C 15.515625 -3.203125 15.460938 -2.335938 15.359375 -1.640625 C 15.253906 -0.941406 15.023438 -0.378906 14.671875 0.046875 C 14.328125 0.472656 13.832031 0.785156 13.1875 0.984375 C 12.550781 1.179688 11.71875 1.289062 10.6875 1.3125 C 10.070312 1.34375 9.441406 1.359375 8.796875 1.359375 C 8.160156 1.359375 7.535156 1.359375 6.921875 1.359375 Z M 11 -23.046875 C 10.945312 -23.015625 10.882812 -22.953125 10.8125 -22.859375 C 10.75 -22.765625 10.742188 -22.664062 10.796875 -22.5625 C 10.929688 -22.34375 11.035156 -22.171875 11.109375 -22.046875 C 11.191406 -21.929688 11.257812 -21.820312 11.3125 -21.71875 C 11.445312 -21.425781 11.554688 -21.144531 11.640625 -20.875 C 11.722656 -20.613281 12.003906 -20.46875 12.484375 -20.4375 C 12.773438 -20.4375 12.992188 -20.582031 13.140625 -20.875 C 13.285156 -21.164062 13.253906 -21.539062 13.046875 -22 C 12.773438 -22.507812 12.453125 -22.84375 12.078125 -23 C 11.703125 -23.15625 11.34375 -23.171875 11 -23.046875 Z M 12.3125 -19.640625 C 12.289062 -19.503906 12.304688 -19.375 12.359375 -19.25 C 12.410156 -19.132812 12.488281 -19.050781 12.59375 -19 C 12.726562 -18.945312 12.863281 -18.972656 13 -19.078125 C 13.132812 -19.179688 13.210938 -19.316406 13.234375 -19.484375 C 13.234375 -19.796875 13.140625 -19.992188 12.953125 -20.078125 C 12.609375 -20.234375 12.394531 -20.085938 12.3125 -19.640625 Z M 11.28125 -14.046875 C 11.226562 -14.015625 11.179688 -13.960938 11.140625 -13.890625 C 11.097656 -13.828125 11.09375 -13.757812 11.125 -13.6875 C 11.175781 -13.519531 11.210938 -13.394531 11.234375 -13.3125 C 11.265625 -13.238281 11.320312 -13.117188 11.40625 -12.953125 C 11.53125 -12.742188 11.597656 -12.507812 11.609375 -12.25 C 11.628906 -12 11.757812 -11.875 12 -11.875 C 12.207031 -11.875 12.375 -11.972656 12.5 -12.171875 C 12.625 -12.378906 12.628906 -12.671875 12.515625 -13.046875 C 12.378906 -13.441406 12.191406 -13.71875 11.953125 -13.875 C 11.710938 -14.039062 11.488281 -14.097656 11.28125 -14.046875 Z M 11.28125 -14.046875 "/></g></g></g><g fill="#ffc83b" fill-opacity="1"><g transform="translate(166.427932, 170.25519)"><g><path d="M 17.046875 -12.046875 C 17.335938 -12.046875 17.578125 -11.953125 17.765625 -11.765625 C 17.953125 -11.578125 18.085938 -11.351562 18.171875 -11.09375 C 18.265625 -10.84375 18.332031 -10.570312 18.375 -10.28125 C 18.414062 -9.988281 18.4375 -9.722656 18.4375 -9.484375 C 18.4375 -9.265625 18.410156 -9.03125 18.359375 -8.78125 C 18.304688 -8.53125 18.21875 -8.289062 18.09375 -8.0625 C 17.976562 -7.832031 17.828125 -7.632812 17.640625 -7.46875 C 17.453125 -7.3125 17.238281 -7.234375 17 -7.234375 L 16.765625 -7.234375 C 16.835938 -6.734375 16.875 -6.1875 16.875 -5.59375 C 16.875 -3.488281 16.265625 -1.78125 15.046875 -0.46875 C 13.835938 0.832031 11.992188 1.484375 9.515625 1.484375 C 7.648438 1.484375 6.128906 1.1875 4.953125 0.59375 C 3.785156 0.0078125 2.875 -0.828125 2.21875 -1.921875 C 1.5625 -3.015625 1.117188 -4.359375 0.890625 -5.953125 C 0.671875 -7.554688 0.5625 -9.359375 0.5625 -11.359375 C 0.5625 -13.117188 0.679688 -14.769531 0.921875 -16.3125 C 1.160156 -17.863281 1.597656 -19.222656 2.234375 -20.390625 C 2.878906 -21.566406 3.765625 -22.492188 4.890625 -23.171875 C 6.023438 -23.859375 7.5 -24.203125 9.3125 -24.203125 C 11.957031 -24.203125 13.898438 -23.550781 15.140625 -22.25 C 16.378906 -20.957031 17 -19.070312 17 -16.59375 C 17 -15.53125 16.675781 -14.769531 16.03125 -14.3125 C 15.394531 -13.863281 14.570312 -13.640625 13.5625 -13.640625 C 12.914062 -13.640625 12.421875 -13.765625 12.078125 -14.015625 C 11.734375 -14.273438 11.519531 -14.738281 11.4375 -15.40625 C 11.414062 -15.75 11.394531 -16.0625 11.375 -16.34375 C 11.363281 -16.625 11.316406 -16.863281 11.234375 -17.0625 C 11.160156 -17.257812 11.015625 -17.410156 10.796875 -17.515625 C 10.585938 -17.628906 10.253906 -17.6875 9.796875 -17.6875 C 9.128906 -17.6875 8.613281 -17.410156 8.25 -16.859375 C 7.894531 -16.316406 7.628906 -15.675781 7.453125 -14.9375 C 7.285156 -14.207031 7.179688 -13.460938 7.140625 -12.703125 C 7.097656 -11.941406 7.078125 -11.347656 7.078125 -10.921875 C 7.078125 -10.460938 7.085938 -9.898438 7.109375 -9.234375 C 7.140625 -8.566406 7.242188 -7.921875 7.421875 -7.296875 C 7.597656 -6.671875 7.863281 -6.128906 8.21875 -5.671875 C 8.582031 -5.222656 9.097656 -5 9.765625 -5 C 10.242188 -5 10.59375 -5.054688 10.8125 -5.171875 C 11.039062 -5.296875 11.195312 -5.460938 11.28125 -5.671875 C 11.363281 -5.890625 11.394531 -6.128906 11.375 -6.390625 C 11.363281 -6.660156 11.34375 -6.941406 11.3125 -7.234375 L 10.71875 -7.234375 C 9.96875 -7.234375 9.484375 -7.453125 9.265625 -7.890625 C 9.054688 -8.335938 8.953125 -8.90625 8.953125 -9.59375 C 8.953125 -9.863281 8.957031 -10.140625 8.96875 -10.421875 C 8.988281 -10.703125 9.046875 -10.953125 9.140625 -11.171875 C 9.234375 -11.398438 9.378906 -11.585938 9.578125 -11.734375 C 9.773438 -11.878906 10.050781 -11.953125 10.40625 -11.953125 L 14.59375 -11.953125 L 16.203125 -12.046875 Z M 12.359375 -22.15625 C 12.253906 -22.101562 12.175781 -21.992188 12.125 -21.828125 C 12.070312 -21.671875 12.082031 -21.515625 12.15625 -21.359375 C 12.289062 -21.117188 12.4375 -20.84375 12.59375 -20.53125 C 12.757812 -20.226562 12.945312 -19.929688 13.15625 -19.640625 C 13.289062 -19.453125 13.382812 -19.25 13.4375 -19.03125 C 13.488281 -18.820312 13.546875 -18.628906 13.609375 -18.453125 C 13.679688 -18.285156 13.773438 -18.140625 13.890625 -18.015625 C 14.015625 -17.898438 14.195312 -17.84375 14.4375 -17.84375 C 14.757812 -17.863281 14.96875 -18.097656 15.0625 -18.546875 C 15.15625 -19.003906 15.066406 -19.539062 14.796875 -20.15625 C 14.472656 -20.90625 14.054688 -21.472656 13.546875 -21.859375 C 13.046875 -22.242188 12.648438 -22.34375 12.359375 -22.15625 Z M 14.359375 -16.71875 C 14.328125 -16.507812 14.351562 -16.3125 14.4375 -16.125 C 14.519531 -15.9375 14.628906 -15.816406 14.765625 -15.765625 C 14.972656 -15.648438 15.175781 -15.671875 15.375 -15.828125 C 15.582031 -15.992188 15.695312 -16.210938 15.71875 -16.484375 C 15.769531 -16.910156 15.625 -17.1875 15.28125 -17.3125 C 14.75 -17.582031 14.441406 -17.382812 14.359375 -16.71875 Z M 16.40625 -11.484375 C 16.34375 -11.453125 16.289062 -11.398438 16.25 -11.328125 C 16.21875 -11.265625 16.210938 -11.195312 16.234375 -11.125 C 16.285156 -10.957031 16.328125 -10.832031 16.359375 -10.75 C 16.390625 -10.675781 16.441406 -10.5625 16.515625 -10.40625 C 16.648438 -10.1875 16.722656 -9.945312 16.734375 -9.6875 C 16.753906 -9.4375 16.882812 -9.3125 17.125 -9.3125 C 17.332031 -9.3125 17.492188 -9.410156 17.609375 -9.609375 C 17.734375 -9.816406 17.742188 -10.109375 17.640625 -10.484375 C 17.503906 -10.878906 17.316406 -11.160156 17.078125 -11.328125 C 16.835938 -11.503906 16.613281 -11.554688 16.40625 -11.484375 Z M 16.40625 -11.484375 "/></g></g></g><g fill="#ffc83b" fill-opacity="1"><g transform="translate(185.426039, 170.25519)"><g><path d="M 3.875 0.765625 C 2.570312 0.765625 1.632812 0.5 1.0625 -0.03125 C 0.488281 -0.570312 0.203125 -1.441406 0.203125 -2.640625 C 0.203125 -3.015625 0.253906 -3.539062 0.359375 -4.21875 C 0.460938 -4.894531 0.59375 -5.664062 0.75 -6.53125 C 0.914062 -7.40625 1.113281 -8.332031 1.34375 -9.3125 C 1.570312 -10.300781 1.8125 -11.28125 2.0625 -12.25 C 2.3125 -13.226562 2.5625 -14.15625 2.8125 -15.03125 C 3.070312 -15.914062 3.320312 -16.675781 3.5625 -17.3125 C 4.007812 -18.570312 4.441406 -19.609375 4.859375 -20.421875 C 5.273438 -21.234375 5.722656 -21.882812 6.203125 -22.375 C 6.679688 -22.875 7.210938 -23.222656 7.796875 -23.421875 C 8.390625 -23.617188 9.082031 -23.71875 9.875 -23.71875 C 10.96875 -23.71875 11.894531 -23.5625 12.65625 -23.25 C 13.414062 -22.945312 14.082031 -22.367188 14.65625 -21.515625 C 15.226562 -20.660156 15.722656 -19.492188 16.140625 -18.015625 C 16.554688 -16.535156 16.945312 -14.609375 17.3125 -12.234375 C 17.445312 -11.410156 17.59375 -10.445312 17.75 -9.34375 C 17.914062 -8.238281 18.070312 -7.148438 18.21875 -6.078125 C 18.363281 -5.015625 18.488281 -4.054688 18.59375 -3.203125 C 18.707031 -2.347656 18.765625 -1.75 18.765625 -1.40625 C 18.765625 0.28125 17.585938 1.125 15.234375 1.125 C 14.410156 1.125 13.78125 0.992188 13.34375 0.734375 C 12.90625 0.484375 12.5625 0.132812 12.3125 -0.3125 C 12.070312 -0.769531 11.890625 -1.3125 11.765625 -1.9375 C 11.648438 -2.5625 11.5 -3.265625 11.3125 -4.046875 L 7.046875 -4.046875 C 6.960938 -3.535156 6.882812 -2.992188 6.8125 -2.421875 C 6.75 -1.847656 6.617188 -1.328125 6.421875 -0.859375 C 6.222656 -0.390625 5.925781 -0.00390625 5.53125 0.296875 C 5.144531 0.609375 4.59375 0.765625 3.875 0.765625 Z M 12.359375 -20.796875 C 12.117188 -20.660156 12.003906 -20.363281 12.015625 -19.90625 C 12.035156 -19.457031 12.164062 -18.890625 12.40625 -18.203125 C 12.957031 -16.648438 13.554688 -16.019531 14.203125 -16.3125 C 14.785156 -16.613281 14.851562 -17.390625 14.40625 -18.640625 C 14.101562 -19.410156 13.757812 -20.003906 13.375 -20.421875 C 12.988281 -20.835938 12.648438 -20.960938 12.359375 -20.796875 Z M 14.15625 -15.203125 C 13.96875 -14.742188 13.992188 -14.394531 14.234375 -14.15625 C 14.347656 -14.050781 14.46875 -14 14.59375 -14 C 14.757812 -14 14.921875 -14.050781 15.078125 -14.15625 C 15.234375 -14.257812 15.34375 -14.394531 15.40625 -14.5625 C 15.53125 -14.9375 15.460938 -15.253906 15.203125 -15.515625 C 15.066406 -15.648438 14.921875 -15.71875 14.765625 -15.71875 C 14.523438 -15.71875 14.320312 -15.546875 14.15625 -15.203125 Z M 10.640625 -9.875 C 10.671875 -10.300781 10.671875 -10.832031 10.640625 -11.46875 C 10.609375 -12.113281 10.550781 -12.726562 10.46875 -13.3125 C 10.394531 -13.90625 10.304688 -14.414062 10.203125 -14.84375 C 10.097656 -15.269531 9.976562 -15.484375 9.84375 -15.484375 C 9.707031 -15.484375 9.546875 -15.300781 9.359375 -14.9375 C 9.171875 -14.582031 8.988281 -14.125 8.8125 -13.5625 C 8.644531 -13 8.492188 -12.390625 8.359375 -11.734375 C 8.222656 -11.085938 8.144531 -10.46875 8.125 -9.875 Z M 10.640625 -9.875 "/></g></g></g><g fill="#ffc83b" fill-opacity="1"><g transform="translate(204.38416, 170.25519)"><g><path d="M 4.6875 1.203125 C 2.519531 1.203125 1.359375 0.320312 1.203125 -1.4375 C 1.015625 -3.601562 0.929688 -5.929688 0.953125 -8.421875 C 0.984375 -10.910156 1.066406 -13.648438 1.203125 -16.640625 C 1.253906 -17.753906 1.328125 -18.742188 1.421875 -19.609375 C 1.515625 -20.484375 1.6875 -21.210938 1.9375 -21.796875 C 2.1875 -22.390625 2.53125 -22.835938 2.96875 -23.140625 C 3.414062 -23.441406 4 -23.59375 4.71875 -23.59375 C 5.28125 -23.59375 5.828125 -23.476562 6.359375 -23.25 C 6.890625 -23.03125 7.34375 -22.707031 7.71875 -22.28125 C 7.875 -22.09375 8.03125 -21.863281 8.1875 -21.59375 C 8.351562 -21.332031 8.507812 -21.046875 8.65625 -20.734375 C 8.800781 -20.429688 8.929688 -20.132812 9.046875 -19.84375 C 9.171875 -19.550781 9.289062 -19.285156 9.40625 -19.046875 C 9.644531 -18.503906 9.894531 -17.867188 10.15625 -17.140625 C 10.425781 -16.410156 10.707031 -15.664062 11 -14.90625 C 11.289062 -14.144531 11.585938 -13.410156 11.890625 -12.703125 C 12.203125 -11.992188 12.503906 -11.382812 12.796875 -10.875 C 12.796875 -11.59375 12.789062 -12.40625 12.78125 -13.3125 C 12.769531 -14.226562 12.75 -15.128906 12.71875 -16.015625 C 12.695312 -16.910156 12.675781 -17.738281 12.65625 -18.5 C 12.644531 -19.257812 12.640625 -19.851562 12.640625 -20.28125 C 12.640625 -21.5625 12.9375 -22.441406 13.53125 -22.921875 C 14.132812 -23.398438 14.820312 -23.640625 15.59375 -23.640625 C 16.632812 -23.640625 17.492188 -23.34375 18.171875 -22.75 C 18.859375 -22.164062 19.203125 -21.421875 19.203125 -20.515625 C 19.203125 -18.890625 19.210938 -17.25 19.234375 -15.59375 C 19.265625 -13.945312 19.269531 -12.316406 19.25 -10.703125 C 19.238281 -9.085938 19.203125 -7.515625 19.140625 -5.984375 C 19.078125 -4.453125 18.953125 -3.003906 18.765625 -1.640625 C 18.679688 -1.078125 18.570312 -0.625 18.4375 -0.28125 C 18.300781 0.0625 18.113281 0.328125 17.875 0.515625 C 17.632812 0.703125 17.332031 0.828125 16.96875 0.890625 C 16.613281 0.960938 16.1875 1 15.6875 1 C 14.988281 1 14.34375 0.75 13.75 0.25 C 13.164062 -0.238281 12.628906 -0.828125 12.140625 -1.515625 C 11.648438 -2.210938 11.207031 -2.929688 10.8125 -3.671875 C 10.425781 -4.421875 10.085938 -5.050781 9.796875 -5.5625 C 9.421875 -6.25 9.015625 -7.050781 8.578125 -7.96875 C 8.140625 -8.894531 7.785156 -9.785156 7.515625 -10.640625 C 7.546875 -10.003906 7.566406 -9.304688 7.578125 -8.546875 C 7.585938 -7.785156 7.597656 -7.007812 7.609375 -6.21875 C 7.628906 -5.4375 7.640625 -4.664062 7.640625 -3.90625 C 7.640625 -3.144531 7.640625 -2.441406 7.640625 -1.796875 C 7.640625 -0.867188 7.425781 -0.140625 7 0.390625 C 6.570312 0.929688 5.800781 1.203125 4.6875 1.203125 Z M 5.953125 -21.71875 C 5.398438 -21.476562 5.296875 -21.144531 5.640625 -20.71875 C 5.847656 -20.507812 6.066406 -20.171875 6.296875 -19.703125 C 6.523438 -19.234375 6.691406 -18.894531 6.796875 -18.6875 C 6.847656 -18.570312 6.945312 -18.515625 7.09375 -18.515625 C 7.238281 -18.515625 7.367188 -18.53125 7.484375 -18.5625 C 7.722656 -18.644531 7.832031 -18.796875 7.8125 -19.015625 C 7.800781 -19.242188 7.71875 -19.597656 7.5625 -20.078125 C 7.53125 -20.128906 7.46875 -20.257812 7.375 -20.46875 C 7.28125 -20.6875 7.15625 -20.894531 7 -21.09375 C 6.84375 -21.300781 6.675781 -21.476562 6.5 -21.625 C 6.320312 -21.769531 6.140625 -21.800781 5.953125 -21.71875 Z M 17.40625 -21.40625 C 17.132812 -21.375 16.945312 -21.25 16.84375 -21.03125 C 16.738281 -20.820312 16.664062 -20.578125 16.625 -20.296875 C 16.582031 -20.015625 16.5625 -19.734375 16.5625 -19.453125 C 16.5625 -19.179688 16.5625 -18.960938 16.5625 -18.796875 C 16.5625 -18.660156 16.550781 -18.445312 16.53125 -18.15625 C 16.519531 -17.863281 16.535156 -17.578125 16.578125 -17.296875 C 16.617188 -17.015625 16.691406 -16.757812 16.796875 -16.53125 C 16.898438 -16.3125 17.046875 -16.203125 17.234375 -16.203125 C 17.453125 -16.171875 17.625 -16.222656 17.75 -16.359375 C 17.882812 -16.492188 17.984375 -16.65625 18.046875 -16.84375 C 18.117188 -17.03125 18.164062 -17.222656 18.1875 -17.421875 C 18.21875 -17.617188 18.234375 -17.796875 18.234375 -17.953125 C 18.265625 -18.304688 18.269531 -18.6875 18.25 -19.09375 C 18.238281 -19.507812 18.203125 -19.882812 18.140625 -20.21875 C 18.078125 -20.550781 17.984375 -20.832031 17.859375 -21.0625 C 17.742188 -21.289062 17.59375 -21.40625 17.40625 -21.40625 Z M 17.515625 -15.484375 C 17.253906 -15.503906 17.035156 -15.398438 16.859375 -15.171875 C 16.679688 -14.953125 16.582031 -14.722656 16.5625 -14.484375 C 16.5625 -14.078125 16.734375 -13.863281 17.078125 -13.84375 C 17.316406 -13.8125 17.519531 -13.878906 17.6875 -14.046875 C 17.863281 -14.222656 17.96875 -14.445312 18 -14.71875 C 18 -14.851562 17.960938 -15.003906 17.890625 -15.171875 C 17.828125 -15.347656 17.703125 -15.453125 17.515625 -15.484375 Z M 17.515625 -15.484375 "/></g></g></g><g fill="#ffc83b" fill-opacity="1"><g transform="translate(224.78213, 170.25519)"><g><path d="M 7.765625 1.203125 C 5.578125 1.203125 3.972656 0.804688 2.953125 0.015625 C 1.941406 -0.765625 1.425781 -2.007812 1.40625 -3.71875 L 1.15625 -17.6875 C 1.101562 -19.550781 1.300781 -20.953125 1.75 -21.890625 C 2.207031 -22.835938 2.984375 -23.445312 4.078125 -23.71875 C 4.742188 -23.875 5.863281 -23.914062 7.4375 -23.84375 C 9.46875 -23.738281 11.195312 -23.453125 12.625 -22.984375 C 14.050781 -22.515625 15.207031 -21.816406 16.09375 -20.890625 C 16.988281 -19.972656 17.644531 -18.804688 18.0625 -17.390625 C 18.476562 -15.984375 18.6875 -14.289062 18.6875 -12.3125 C 18.6875 -7.707031 17.796875 -4.300781 16.015625 -2.09375 C 14.242188 0.101562 11.492188 1.203125 7.765625 1.203125 Z M 11.953125 -21.046875 C 11.828125 -20.960938 11.734375 -20.832031 11.671875 -20.65625 C 11.617188 -20.488281 11.632812 -20.335938 11.71875 -20.203125 C 11.800781 -20.097656 11.941406 -19.976562 12.140625 -19.84375 C 12.335938 -19.707031 12.5625 -19.550781 12.8125 -19.375 C 13.070312 -19.207031 13.332031 -19.007812 13.59375 -18.78125 C 13.863281 -18.550781 14.101562 -18.273438 14.3125 -17.953125 C 14.425781 -17.796875 14.515625 -17.617188 14.578125 -17.421875 C 14.648438 -17.222656 14.722656 -17.035156 14.796875 -16.859375 C 14.878906 -16.679688 14.984375 -16.539062 15.109375 -16.4375 C 15.242188 -16.332031 15.40625 -16.28125 15.59375 -16.28125 C 15.96875 -16.300781 16.175781 -16.523438 16.21875 -16.953125 C 16.257812 -17.378906 16.160156 -17.847656 15.921875 -18.359375 C 15.734375 -18.753906 15.492188 -19.125 15.203125 -19.46875 C 14.910156 -19.820312 14.601562 -20.117188 14.28125 -20.359375 C 13.957031 -20.597656 13.632812 -20.789062 13.3125 -20.9375 C 13 -21.082031 12.707031 -21.15625 12.4375 -21.15625 C 12.25 -21.15625 12.085938 -21.117188 11.953125 -21.046875 Z M 7.6875 -5.640625 C 7.6875 -5.347656 7.789062 -5.15625 8 -5.0625 C 8.207031 -4.96875 8.4375 -4.921875 8.6875 -4.921875 C 9.425781 -4.921875 10.03125 -5.195312 10.5 -5.75 C 10.96875 -6.3125 11.328125 -6.972656 11.578125 -7.734375 C 11.828125 -8.492188 12 -9.285156 12.09375 -10.109375 C 12.1875 -10.941406 12.234375 -11.613281 12.234375 -12.125 C 12.234375 -13.90625 11.882812 -15.234375 11.1875 -16.109375 C 10.5 -16.992188 9.316406 -17.476562 7.640625 -17.5625 Z M 15.640625 -15.203125 C 15.609375 -15.015625 15.625 -14.832031 15.6875 -14.65625 C 15.757812 -14.488281 15.863281 -14.375 16 -14.3125 C 16.1875 -14.238281 16.363281 -14.273438 16.53125 -14.421875 C 16.707031 -14.566406 16.8125 -14.742188 16.84375 -14.953125 C 16.863281 -15.117188 16.832031 -15.273438 16.75 -15.421875 C 16.675781 -15.566406 16.570312 -15.664062 16.4375 -15.71875 C 15.988281 -15.9375 15.722656 -15.765625 15.640625 -15.203125 Z M 15.640625 -15.203125 "/></g></g></g><g fill="#ffc83b" fill-opacity="1"><g transform="translate(244.260191, 170.25519)"><g><path d="M 10 1.234375 C 8.289062 1.234375 6.847656 1.019531 5.671875 0.59375 C 4.503906 0.164062 3.5625 -0.523438 2.84375 -1.484375 C 2.125 -2.441406 1.601562 -3.707031 1.28125 -5.28125 C 0.957031 -6.851562 0.796875 -8.785156 0.796875 -11.078125 C 0.796875 -13.609375 0.988281 -15.707031 1.375 -17.375 C 1.757812 -19.039062 2.351562 -20.378906 3.15625 -21.390625 C 3.957031 -22.410156 4.976562 -23.125 6.21875 -23.53125 C 7.457031 -23.945312 8.929688 -24.15625 10.640625 -24.15625 C 13.703125 -24.15625 15.941406 -23.175781 17.359375 -21.21875 C 18.773438 -19.257812 19.484375 -16.160156 19.484375 -11.921875 C 19.484375 -9.492188 19.316406 -7.445312 18.984375 -5.78125 C 18.648438 -4.113281 18.109375 -2.757812 17.359375 -1.71875 C 16.609375 -0.675781 15.625 0.0703125 14.40625 0.53125 C 13.195312 1 11.726562 1.234375 10 1.234375 Z M 13 -21.84375 C 12.863281 -21.757812 12.757812 -21.632812 12.6875 -21.46875 C 12.625 -21.3125 12.632812 -21.171875 12.71875 -21.046875 C 12.769531 -20.910156 12.894531 -20.769531 13.09375 -20.625 C 13.300781 -20.476562 13.523438 -20.316406 13.765625 -20.140625 C 14.003906 -19.960938 14.25 -19.75 14.5 -19.5 C 14.75 -19.25 14.96875 -18.960938 15.15625 -18.640625 C 15.238281 -18.484375 15.3125 -18.296875 15.375 -18.078125 C 15.445312 -17.867188 15.519531 -17.675781 15.59375 -17.5 C 15.675781 -17.320312 15.773438 -17.171875 15.890625 -17.046875 C 16.015625 -16.929688 16.171875 -16.875 16.359375 -16.875 C 16.734375 -16.875 16.953125 -17.085938 17.015625 -17.515625 C 17.085938 -17.941406 17.015625 -18.421875 16.796875 -18.953125 C 16.609375 -19.441406 16.34375 -19.890625 16 -20.296875 C 15.65625 -20.710938 15.296875 -21.050781 14.921875 -21.3125 C 14.546875 -21.582031 14.179688 -21.769531 13.828125 -21.875 C 13.484375 -21.988281 13.207031 -21.976562 13 -21.84375 Z M 7.515625 -10.234375 C 7.515625 -9.753906 7.519531 -9.222656 7.53125 -8.640625 C 7.550781 -8.054688 7.640625 -7.515625 7.796875 -7.015625 C 7.960938 -6.523438 8.21875 -6.113281 8.5625 -5.78125 C 8.90625 -5.445312 9.410156 -5.28125 10.078125 -5.28125 C 10.878906 -5.28125 11.472656 -5.515625 11.859375 -5.984375 C 12.242188 -6.453125 12.507812 -7.019531 12.65625 -7.6875 C 12.800781 -8.351562 12.867188 -9.054688 12.859375 -9.796875 C 12.847656 -10.546875 12.84375 -11.203125 12.84375 -11.765625 C 12.84375 -13.523438 12.59375 -14.894531 12.09375 -15.875 C 11.601562 -16.863281 10.929688 -17.359375 10.078125 -17.359375 C 9.410156 -17.359375 8.90625 -17.078125 8.5625 -16.515625 C 8.21875 -15.960938 7.960938 -15.304688 7.796875 -14.546875 C 7.640625 -13.785156 7.550781 -12.992188 7.53125 -12.171875 C 7.519531 -11.359375 7.515625 -10.710938 7.515625 -10.234375 Z M 16.3125 -15.796875 C 16.257812 -15.609375 16.265625 -15.425781 16.328125 -15.25 C 16.398438 -15.082031 16.503906 -14.972656 16.640625 -14.921875 C 16.828125 -14.816406 17.003906 -14.828125 17.171875 -14.953125 C 17.347656 -15.085938 17.460938 -15.265625 17.515625 -15.484375 C 17.546875 -15.640625 17.523438 -15.796875 17.453125 -15.953125 C 17.390625 -16.117188 17.289062 -16.226562 17.15625 -16.28125 C 16.945312 -16.414062 16.769531 -16.4375 16.625 -16.34375 C 16.476562 -16.25 16.375 -16.066406 16.3125 -15.796875 Z M 16.3125 -15.796875 "/></g></g></g><g fill="#ffc83b" fill-opacity="1"><g transform="translate(264.538171, 170.25519)"><g><path d="M 9.234375 -3.234375 C 9.234375 -1.929688 8.925781 -0.882812 8.3125 -0.09375 C 7.707031 0.6875 6.722656 1.078125 5.359375 1.078125 C 4.078125 1.078125 3.160156 0.710938 2.609375 -0.015625 C 2.066406 -0.753906 1.796875 -1.722656 1.796875 -2.921875 C 1.796875 -4.066406 2.085938 -5.039062 2.671875 -5.84375 C 3.265625 -6.644531 4.160156 -7.046875 5.359375 -7.046875 C 7.941406 -7.046875 9.234375 -5.773438 9.234375 -3.234375 Z M 6.875 -5.71875 C 6.613281 -5.71875 6.457031 -5.613281 6.40625 -5.40625 C 6.40625 -5.269531 6.441406 -5.082031 6.515625 -4.84375 C 6.597656 -4.601562 6.664062 -4.425781 6.71875 -4.3125 C 6.769531 -4.1875 6.804688 -4.039062 6.828125 -3.875 C 6.859375 -3.71875 6.894531 -3.566406 6.9375 -3.421875 C 6.976562 -3.273438 7.035156 -3.15625 7.109375 -3.0625 C 7.191406 -2.96875 7.328125 -2.921875 7.515625 -2.921875 C 7.753906 -2.921875 7.921875 -3.015625 8.015625 -3.203125 C 8.109375 -3.390625 8.15625 -3.578125 8.15625 -3.765625 C 8.1875 -4.160156 8.09375 -4.578125 7.875 -5.015625 C 7.664062 -5.460938 7.332031 -5.695312 6.875 -5.71875 Z M 7.484375 -2.515625 C 7.347656 -2.515625 7.234375 -2.441406 7.140625 -2.296875 C 7.046875 -2.148438 6.984375 -2.007812 6.953125 -1.875 C 6.953125 -1.75 6.972656 -1.582031 7.015625 -1.375 C 7.054688 -1.175781 7.15625 -1.078125 7.3125 -1.078125 C 7.53125 -1.023438 7.691406 -1.066406 7.796875 -1.203125 C 7.898438 -1.335938 7.96875 -1.5 8 -1.6875 C 8.03125 -1.863281 8.003906 -2.03125 7.921875 -2.1875 C 7.835938 -2.351562 7.691406 -2.460938 7.484375 -2.515625 Z M 7.484375 -2.515625 "/></g></g></g><g fill="#ffc83b" fill-opacity="1"><g transform="translate(275.577072, 170.25519)"><g><path d="M 9.234375 -3.234375 C 9.234375 -1.929688 8.925781 -0.882812 8.3125 -0.09375 C 7.707031 0.6875 6.722656 1.078125 5.359375 1.078125 C 4.078125 1.078125 3.160156 0.710938 2.609375 -0.015625 C 2.066406 -0.753906 1.796875 -1.722656 1.796875 -2.921875 C 1.796875 -4.066406 2.085938 -5.039062 2.671875 -5.84375 C 3.265625 -6.644531 4.160156 -7.046875 5.359375 -7.046875 C 7.941406 -7.046875 9.234375 -5.773438 9.234375 -3.234375 Z M 6.875 -5.71875 C 6.613281 -5.71875 6.457031 -5.613281 6.40625 -5.40625 C 6.40625 -5.269531 6.441406 -5.082031 6.515625 -4.84375 C 6.597656 -4.601562 6.664062 -4.425781 6.71875 -4.3125 C 6.769531 -4.1875 6.804688 -4.039062 6.828125 -3.875 C 6.859375 -3.71875 6.894531 -3.566406 6.9375 -3.421875 C 6.976562 -3.273438 7.035156 -3.15625 7.109375 -3.0625 C 7.191406 -2.96875 7.328125 -2.921875 7.515625 -2.921875 C 7.753906 -2.921875 7.921875 -3.015625 8.015625 -3.203125 C 8.109375 -3.390625 8.15625 -3.578125 8.15625 -3.765625 C 8.1875 -4.160156 8.09375 -4.578125 7.875 -5.015625 C 7.664062 -5.460938 7.332031 -5.695312 6.875 -5.71875 Z M 7.484375 -2.515625 C 7.347656 -2.515625 7.234375 -2.441406 7.140625 -2.296875 C 7.046875 -2.148438 6.984375 -2.007812 6.953125 -1.875 C 6.953125 -1.75 6.972656 -1.582031 7.015625 -1.375 C 7.054688 -1.175781 7.15625 -1.078125 7.3125 -1.078125 C 7.53125 -1.023438 7.691406 -1.066406 7.796875 -1.203125 C 7.898438 -1.335938 7.96875 -1.5 8 -1.6875 C 8.03125 -1.863281 8.003906 -2.03125 7.921875 -2.1875 C 7.835938 -2.351562 7.691406 -2.460938 7.484375 -2.515625 Z M 7.484375 -2.515625 "/></g></g></g><g fill="#ffc83b" fill-opacity="1"><g transform="translate(286.615974, 170.25519)"><g><path d="M 9.234375 -3.234375 C 9.234375 -1.929688 8.925781 -0.882812 8.3125 -0.09375 C 7.707031 0.6875 6.722656 1.078125 5.359375 1.078125 C 4.078125 1.078125 3.160156 0.710938 2.609375 -0.015625 C 2.066406 -0.753906 1.796875 -1.722656 1.796875 -2.921875 C 1.796875 -4.066406 2.085938 -5.039062 2.671875 -5.84375 C 3.265625 -6.644531 4.160156 -7.046875 5.359375 -7.046875 C 7.941406 -7.046875 9.234375 -5.773438 9.234375 -3.234375 Z M 6.875 -5.71875 C 6.613281 -5.71875 6.457031 -5.613281 6.40625 -5.40625 C 6.40625 -5.269531 6.441406 -5.082031 6.515625 -4.84375 C 6.597656 -4.601562 6.664062 -4.425781 6.71875 -4.3125 C 6.769531 -4.1875 6.804688 -4.039062 6.828125 -3.875 C 6.859375 -3.71875 6.894531 -3.566406 6.9375 -3.421875 C 6.976562 -3.273438 7.035156 -3.15625 7.109375 -3.0625 C 7.191406 -2.96875 7.328125 -2.921875 7.515625 -2.921875 C 7.753906 -2.921875 7.921875 -3.015625 8.015625 -3.203125 C 8.109375 -3.390625 8.15625 -3.578125 8.15625 -3.765625 C 8.1875 -4.160156 8.09375 -4.578125 7.875 -5.015625 C 7.664062 -5.460938 7.332031 -5.695312 6.875 -5.71875 Z M 7.484375 -2.515625 C 7.347656 -2.515625 7.234375 -2.441406 7.140625 -2.296875 C 7.046875 -2.148438 6.984375 -2.007812 6.953125 -1.875 C 6.953125 -1.75 6.972656 -1.582031 7.015625 -1.375 C 7.054688 -1.175781 7.15625 -1.078125 7.3125 -1.078125 C 7.53125 -1.023438 7.691406 -1.066406 7.796875 -1.203125 C 7.898438 -1.335938 7.96875 -1.5 8 -1.6875 C 8.03125 -1.863281 8.003906 -2.03125 7.921875 -2.1875 C 7.835938 -2.351562 7.691406 -2.460938 7.484375 -2.515625 Z M 7.484375 -2.515625 "/></g></g></g></svg>