<?xml version="1.0" encoding="UTF-8" standalone="no"?>
<!-- Created with Inkscape (http://www.inkscape.org/) -->

<svg
   width="210mm"
   height="297mm"
   viewBox="0 0 210 297"
   version="1.1"
   id="svg11646"
   inkscape:version="1.2.2 (732a01da63, 2022-12-09)"
   sodipodi:docname="camarao.svg"
   xmlns:inkscape="http://www.inkscape.org/namespaces/inkscape"
   xmlns:sodipodi="http://sodipodi.sourceforge.net/DTD/sodipodi-0.dtd"
   xmlns="http://www.w3.org/2000/svg"
   xmlns:svg="http://www.w3.org/2000/svg">
  <sodipodi:namedview
     id="namedview11648"
     pagecolor="#ffffff"
     bordercolor="#999999"
     borderopacity="1"
     inkscape:showpageshadow="0"
     inkscape:pageopacity="0"
     inkscape:pagecheckerboard="0"
     inkscape:deskcolor="#d1d1d1"
     inkscape:document-units="mm"
     showgrid="false"
     inkscape:zoom="0.17354521"
     inkscape:cx="-881.61465"
     inkscape:cy="363.0178"
     inkscape:window-width="1366"
     inkscape:window-height="705"
     inkscape:window-x="-8"
     inkscape:window-y="-8"
     inkscape:window-maximized="1"
     inkscape:current-layer="layer1" />
  <defs
     id="defs11643" />
  <g
     inkscape:label="Camada 1"
     inkscape:groupmode="layer"
     id="layer1">
    <g
       id="g11622"
       transform="matrix(0,4.2627814,-4.2910723,0,1192.0869,-49.816055)"
       inkscape:export-filename="atualizacoes\camarao.png"
       inkscape:export-xdpi="96"
       inkscape:export-ydpi="96">
      <path
         style="display:inline;fill:#ef5723;fill-opacity:1;stroke:none;stroke-width:0.0589201"
         d="m 36.469936,250.48204 c -0.587204,-1.48344 -1.802794,-5.03449 -2.57245,-6.41693 1.011937,-0.0407 1.868744,0.24216 2.769251,0.69249 0.945493,0.47283 2.893426,2.03749 3.386412,3.02352 0.214292,0.42858 0.119491,1.17887 0.119491,1.64976 0,1.61848 -0.4872,2.42065 -0.783568,4.00254 -0.350342,1.86978 -1.242318,4.89044 1.107478,5.65634 -0.237094,0.80208 -0.16044,2.3528 0.532816,2.9228 0.355762,0.29254 0.854462,0.31752 1.293712,0.31782 0.06788,0.86029 0.175111,1.96396 0.889282,2.5613 0.279577,0.2338 0.734676,0.14468 0.96152,0.36134 0.254299,0.2429 0.313455,0.73421 0.561098,1.01974 0.421691,0.48614 1.005179,0.80227 1.653596,0.82779 0.247171,0.01 0.527218,-0.10187 0.765962,-0.0543 0.272564,0.0543 0.494106,0.30906 0.765964,0.39739 0.879974,0.28592 2.391571,0.16292 2.651411,-0.92995 0.793713,0.10031 1.640572,0.0441 2.122894,-0.70709 0.159791,-0.24886 0.08461,-0.6491 0.269442,-0.85075 0.16922,-0.18456 0.472776,-0.21726 0.660614,-0.39908 0.279283,-0.27036 0.294896,-0.60983 0.481497,-0.92015 0.185185,-0.30804 0.43754,-0.46494 0.531048,-0.8349 0.484441,0.31905 0.938953,0.66279 1.531924,0.74828 1.237031,0.17835 2.623955,-0.66238 2.65141,-1.98561 -1.212577,0.33166 -2.289226,0.86872 -3.594133,0.68183 -0.437188,-0.0626 -1.066456,-0.22084 -1.252525,-0.68418 -0.549845,-1.36949 0.752293,-2.95609 1.193606,-4.12206 -1.106463,-0.3263 -2.222766,0.92893 -2.345968,1.94436 -0.09586,0.79024 0.219714,1.44732 0.578361,2.12113 -0.43224,-0.10287 -0.76019,-0.0595 -0.883803,0.41244 -0.503357,-0.13174 -0.587318,-0.5945 -0.824884,-1.00164 h -0.05892 l 0.110946,0.81958 -0.228788,0.53558 -0.824883,-0.0589 -0.117839,-0.8838 h -0.117842 v 1.11949 c -0.321351,-0.25749 -0.581601,-0.40349 -1.001644,-0.41245 l 0.294602,-1.29624 -0.824884,1.59085 -0.401837,-0.59151 0.04832,-1.4707 h -0.117839 l -0.294601,1.53192 h -0.471363 l 0.0842,-1.11948 0.387166,-1.11949 -0.05892,-0.0589 -0.530282,0.76596 c -0.392586,-0.3273 -0.678997,-0.76732 -0.382157,-1.29625 0.171162,-0.30497 0.502294,-0.50565 0.441077,-0.8838 l -0.648124,0.47136 -0.47136,-1.473 c 1.646877,-0.42629 3.207262,-1.57376 4.006574,-3.12278 -0.556972,0.15632 -0.979489,0.83585 -1.414086,1.20257 -0.796836,0.67233 -1.591022,1.07181 -2.592488,1.331 0.06611,-0.8369 0.89653,-1.13592 1.472945,-1.65978 0.811391,-0.73739 1.872073,-1.95515 2.121188,-3.05383 -0.371668,0.21075 -0.584489,0.78393 -0.851397,1.11948 -0.676935,0.85098 -1.640457,1.96134 -2.683816,2.35681 -4.46e-4,-0.8392 0.440368,-1.31274 0.774152,-2.06221 0.479199,-1.076 0.872315,-2.2877 0.875613,-3.47629 h -0.117839 c -0.113011,1.42987 -0.778219,3.09166 -1.708687,4.18333 -0.07088,-0.34244 -0.339087,-0.83431 -0.267852,-1.1784 0.06687,-0.3233 0.347217,-0.64123 0.485327,-0.94272 0.394116,-0.86006 0.82771,-2.17811 0.548487,-3.12278 h -0.05892 c -0.164388,1.3009 -0.417392,2.50405 -1.296247,3.53522 -0.306206,-0.7355 -0.06033,-1.12626 0.04189,-1.88545 0.103818,-0.77032 0.0872,-1.53464 -0.06546,-2.29789 -0.07907,-0.39553 -0.152779,-1.05479 -0.506715,-1.29624 l 0.348867,2.0622 -0.407786,2.23897 c -2.285634,-3.68864 -0.04972,-0.14466 -3.662809,-4.94526 -0.52233,-0.66586 -0.654915,-0.8673 -1.385643,-0.32765 -0.19485,-0.4178 -0.892272,-0.89942 -1.226409,-1.20427 -1.001938,-0.91415 -2.60988,-2.62222 -3.977265,-2.8638 -1.586833,-0.2804 -2.286812,0.85123 -1.590846,2.21163 -0.850954,0.3613 -0.861113,1.30037 -0.444631,2.00329 m 3.56705,4.63353 c -0.642372,-0.94043 -2.439398,-3.57461 -3.078453,-4.51569 -0.300688,-0.44278 -0.71218,-1.26501 -0.09693,-1.66379 0.40791,-0.26443 0.984391,0.96635 1.172264,1.25135 m 5.509381,1.35921 c -1.26107,-0.78794 -2.659868,-2.49213 -4.095106,-2.98871 -0.433127,-0.14983 -0.895987,-0.27798 -1.355164,-0.30956 -0.241114,-0.0166 -0.589173,0.0931 -0.811656,0.0128 -0.312867,-0.11301 -0.412984,-0.8055 -0.328239,-1.07859 0.286787,-0.92417 1.570743,-0.54219 2.200459,-0.31263 1.211388,0.44166 2.761328,2.18756 3.606951,3.14478 0.443611,0.50223 0.753117,0.84214 0.782755,1.53192"
         id="path10738"
         sodipodi:nodetypes="ccssscccccscssscsccccscsccsccccccccccccccccccccccsccccccscccscccccccccccccccsccccscccccssccc" />
      <path
         style="display:inline;fill:#000000;fill-opacity:1;fill-rule:evenodd;stroke:none;stroke-width:0.0273829;stroke-opacity:1"
         id="path10740"
         sodipodi:type="arc"
         sodipodi:cx="-255.10101"
         sodipodi:cy="42.051212"
         sodipodi:rx="1.0996187"
         sodipodi:ry="1.3041036"
         sodipodi:start="0.57441444"
         sodipodi:end="0.54543906"
         sodipodi:open="true"
         sodipodi:arc-type="arc"
         d="m -254.17787,42.759788 a 1.0996187,1.3041036 0 0 1 -1.51391,0.391337 1.0996187,1.3041036 0 0 1 -0.34093,-1.792554 1.0996187,1.3041036 0 0 1 1.50897,-0.417306 1.0996187,1.3041036 0 0 1 0.36279,1.786508"
         transform="rotate(-90)" />
      <path
         style="display:inline;fill:#ffffff;fill-opacity:1;fill-rule:evenodd;stroke:none;stroke-width:0.0116654;stroke-opacity:1"
         id="path10742"
         sodipodi:type="arc"
         sodipodi:cx="-255.61009"
         sodipodi:cy="41.581722"
         sodipodi:rx="0.42762941"
         sodipodi:ry="0.60858166"
         sodipodi:start="0.57441444"
         sodipodi:end="0.54543906"
         sodipodi:open="true"
         sodipodi:arc-type="arc"
         d="m -255.25109,41.912391 a 0.42762941,0.60858166 0 0 1 -0.58875,0.182624 0.42762941,0.60858166 0 0 1 -0.13258,-0.836525 0.42762941,0.60858166 0 0 1 0.58682,-0.194743 0.42762941,0.60858166 0 0 1 0.14109,0.833703"
         transform="rotate(-90)" />
      <path
         id="path10744"
         style="display:inline;fill:#d54210;fill-opacity:1;fill-rule:evenodd;stroke:none;stroke-width:0.155883;stroke-linecap:round;stroke-linejoin:round;paint-order:stroke markers fill"
         d="m 46.926434,258.54513 c 0.08353,0.75832 -0.09974,1.30484 0.633942,1.79484 -1.85183,0.70617 -3.971713,1.56063 -5.378955,1.85349 -0.449762,0.0936 -2.025735,-0.18684 -1.524298,-3.12378 3.071806,-0.49739 5.113012,-0.47861 6.269311,-0.52455 z"
         sodipodi:nodetypes="ccscc" />
      <path
         id="path10746"
         style="display:inline;fill:#d54210;fill-opacity:1;fill-rule:evenodd;stroke:none;stroke-width:0.136438;stroke-linecap:round;stroke-linejoin:round;paint-order:stroke markers fill"
         d="m 47.664936,260.53023 c -0.0494,0.6584 -0.08758,1.18666 -0.06474,1.39081 0.180023,0.0156 0.399825,0.0463 0.702371,-0.007 -1.498408,1.15955 -3.25531,2.43819 -4.345093,3.00665 -0.08222,0.0429 -1.244883,0.51625 -1.557318,-2.4527 2.573023,-0.80737 4.301051,-1.39689 5.264778,-1.93801 z"
         sodipodi:nodetypes="cccsccc" />
      <path
         id="path10748"
         style="display:inline;fill:#d54210;fill-opacity:1;fill-rule:evenodd;stroke:none;stroke-width:0.136438;stroke-linecap:round;stroke-linejoin:round;paint-order:stroke markers fill"
         d="m 48.428868,261.92387 c 0.330145,0.44143 0.313891,0.35578 0.500494,0.50084 0.120338,-0.17267 0.301132,-0.38933 0.452165,-0.24679 -0.597223,1.70486 -1.76748,3.27875 -2.137532,4.45086 -0.115988,0.36739 -2.033425,0.75927 -3.044971,-1.54836 2.293722,-1.44703 3.349559,-2.23453 4.104856,-3.07322 z"
         sodipodi:nodetypes="cccsccc" />
      <path
         id="path10750"
         style="display:inline;fill:#d54210;fill-opacity:1;fill-rule:evenodd;stroke:none;stroke-width:0.155883;stroke-linecap:round;stroke-linejoin:round;paint-order:stroke markers fill"
         d="m 49.52084,262.18777 c 0.576532,0.0782 0.63626,0.1797 0.857811,0.29197 0.249516,2.05425 0.257163,2.48732 0.09147,3.90827 -0.06831,0.58582 -1.311278,1.80849 -3.184759,0.57311 1.379364,-2.85233 1.821665,-3.69266 2.23548,-4.77335 z"
         sodipodi:nodetypes="ccscc" />
      <path
         id="path10752"
         style="display:inline;fill:#d54210;fill-opacity:1;fill-rule:evenodd;stroke:none;stroke-width:0.119723;stroke-linecap:round;stroke-linejoin:round;paint-order:stroke markers fill"
         d="m 50.569603,262.42582 c 0.465377,-0.0377 0.509753,-0.061 0.700496,-0.11097 0.869424,1.33044 1.021745,1.62618 1.390088,2.66132 0.151862,0.42676 -0.300817,1.65574 -2.01092,1.44085 0.123468,-2.30944 0.0022,-3.10621 -0.07966,-3.9912 z"
         sodipodi:nodetypes="ccscc" />
      <path
         id="path10754"
         style="display:inline;fill:#d54210;fill-opacity:1;fill-rule:evenodd;stroke:none;stroke-width:0.0877274;stroke-linecap:round;stroke-linejoin:round;paint-order:stroke markers fill"
         d="m 51.544628,262.32056 c 0.181047,-0.27086 0.191024,-0.48896 0.295973,-0.58819 1.01799,0.55808 1.346118,0.95284 1.927174,1.50945 0.265955,0.25476 0.193104,1.39773 -0.914896,1.58671 -0.606066,-1.56157 -0.949283,-1.96282 -1.308251,-2.50797 z"
         sodipodi:nodetypes="ccscc" />
      <path
         id="path10756"
         style="display:inline;fill:#d54210;fill-opacity:1;fill-rule:evenodd;stroke:none;stroke-width:0.0580677;stroke-linecap:round;stroke-linejoin:round;paint-order:stroke markers fill"
         d="m 52.602234,261.89425 c 0.07462,-0.20232 0.286859,-0.36506 0.672354,-0.36183 0.741491,0.20169 0.732512,0.39457 1.067584,0.79831 0.155685,0.18759 0.340503,0.83843 -0.343349,1.13146 -0.631622,-0.91124 -1.081234,-1.27262 -1.396589,-1.56794 z"
         sodipodi:nodetypes="ccscc" />
    </g>
  </g>
</svg>
