<?xml version="1.0" encoding="UTF-8" standalone="no"?>
<!-- Created with Inkscape (http://www.inkscape.org/) -->

<svg
   width="210mm"
   height="297mm"
   viewBox="0 0 210 297"
   version="1.1"
   id="svg10157"
   inkscape:version="1.2.2 (732a01da63, 2022-12-09)"
   sodipodi:docname="lula.svg"
   xmlns:inkscape="http://www.inkscape.org/namespaces/inkscape"
   xmlns:sodipodi="http://sodipodi.sourceforge.net/DTD/sodipodi-0.dtd"
   xmlns="http://www.w3.org/2000/svg"
   xmlns:svg="http://www.w3.org/2000/svg">
  <sodipodi:namedview
     id="namedview10159"
     pagecolor="#ffffff"
     bordercolor="#999999"
     borderopacity="1"
     inkscape:showpageshadow="0"
     inkscape:pageopacity="0"
     inkscape:pagecheckerboard="0"
     inkscape:deskcolor="#d1d1d1"
     inkscape:document-units="mm"
     showgrid="false"
     inkscape:zoom="0.24542999"
     inkscape:cx="234.28269"
     inkscape:cy="215.94753"
     inkscape:window-width="1366"
     inkscape:window-height="705"
     inkscape:window-x="-8"
     inkscape:window-y="-8"
     inkscape:window-maximized="1"
     inkscape:current-layer="layer1" />
  <defs
     id="defs10154" />
  <g
     inkscape:label="Camada 1"
     inkscape:groupmode="layer"
     id="layer1">
    <path
       style="display:inline;fill:#70ca32;fill-opacity:1;stroke:#498320;stroke-width:0.233563;stroke-linecap:butt;stroke-linejoin:miter;stroke-dasharray:none;stroke-opacity:0.976471"
       d="m 99.655327,120.25523 c -4.859237,4.0181 -0.513224,16.52138 -5.640664,23.47773 -4.454572,6.04354 -22.447972,12.47223 -16.006854,17.43956 5.560516,4.28824 15.498612,-5.2844 19.750248,-10.48077 7.248723,-8.85948 14.240473,-22.03854 6.194613,-30.85726 -1.80666,0.24853 0.0221,-0.64825 -4.297343,0.42074 z"
       id="path2356"
       sodipodi:nodetypes="csaacc" />
    <path
       style="display:inline;fill:#70ca32;fill-opacity:1;stroke:#498320;stroke-width:0.233563;stroke-linecap:butt;stroke-linejoin:miter;stroke-dasharray:none;stroke-opacity:0.976471"
       d="m 91.033353,120.85741 c -6.080883,2.87364 -6.348513,15.86318 -13.72802,21.52126 -6.411129,4.91561 -17.936889,9.5078 -13.112877,13.68006 3.563945,3.08243 10.550804,-3.08921 14.233259,-6.17525 9.216252,-7.72353 21.458873,-18.34201 16.874844,-28.53927 -1.819384,-0.13529 0.251059,-0.622 -4.267206,-0.4868 z"
       id="path2362"
       sodipodi:nodetypes="csaacc" />
    <path
       style="display:inline;fill:#70ca32;fill-opacity:1;stroke:#498320;stroke-width:0.233563;stroke-linecap:butt;stroke-linejoin:miter;stroke-dasharray:none;stroke-opacity:0.976471"
       d="m 114.52207,121.75008 c 5.07966,3.73552 1.45102,16.46551 6.96537,23.11937 4.79073,5.78067 23.12029,11.17673 16.97179,16.50198 -5.30792,4.5972 -15.77379,-4.39533 -20.31379,-9.34181 -7.74033,-8.43332 -15.46953,-21.19391 -7.93767,-30.45548 1.81786,0.14542 -0.0589,-0.64596 4.3143,0.17582 z"
       id="path2368"
       sodipodi:nodetypes="csaacc" />
    <path
       style="display:inline;fill:#70ca32;fill-opacity:1;stroke:#498320;stroke-width:0.233563;stroke-linecap:butt;stroke-linejoin:miter;stroke-dasharray:none;stroke-opacity:0.976471"
       d="m 126.30155,117.58023 c 5.07967,3.73555 1.45101,16.46552 6.96538,23.11937 4.79072,5.78068 23.12029,11.17676 16.97178,16.50202 -5.30792,4.5972 -15.77379,-4.39537 -20.31379,-9.34181 -7.74034,-8.43335 -15.46952,-21.19392 -7.93767,-30.45548 1.81786,0.14542 -0.0589,-0.64596 4.3143,0.17581 z"
       id="path2374"
       sodipodi:nodetypes="csaacc" />
    <path
       id="path2378"
       style="display:inline;fill:#519124;fill-opacity:1;fill-rule:evenodd;stroke:#000000;stroke-width:0.105876;stroke-linecap:round;stroke-linejoin:round;stroke-dasharray:none;stroke-opacity:1;paint-order:stroke markers fill"
       inkscape:transform-center-x="-13.226174"
       inkscape:transform-center-y="31.881618"
       d="m 106.84371,71.314435 c 0,0 -45.626589,11.81852 -40.655989,0.73303 4.970586,-11.08548 20.653041,-51.083264 36.668449,-51.198409 20.07823,-1.637322 30.65334,26.196209 40.20527,43.586569 9.55193,17.39033 -36.21773,6.87881 -36.21773,6.87881 z"
       sodipodi:nodetypes="czczc" />
    <path
       id="path2380"
       style="display:inline;fill:#70ca32;fill-opacity:1;fill-rule:evenodd;stroke:#498320;stroke-width:0.105876;stroke-linecap:round;stroke-linejoin:round;stroke-dasharray:none;stroke-opacity:0.976471;paint-order:stroke markers fill"
       inkscape:transform-center-x="-13.226166"
       inkscape:transform-center-y="31.881607"
       d="m 107.45659,68.940475 c 0,0 -45.62659,11.81852 -40.65599,0.73303 4.970574,-11.08549 20.653041,-51.083265 36.66844,-51.19844 20.07824,-1.637292 30.65335,26.19621 40.20528,43.5866 9.55193,17.39033 -36.21773,6.87881 -36.21773,6.87881 z"
       sodipodi:nodetypes="czczc" />
    <path
       id="path2376"
       style="display:inline;fill:#70ca32;fill-opacity:1;fill-rule:evenodd;stroke:#498320;stroke-width:0.620958;stroke-linecap:round;stroke-linejoin:round;stroke-dasharray:none;stroke-opacity:0.976471;paint-order:stroke markers fill"
       d="m 143.14233,115.71933 c -0.12805,-4.50393 -3.18198,-8.21054 -7.29631,-9.35686 L 127.3162,62.662265 C 126.14094,56.641205 116.42856,18.611248 104.6096,18.842431 92.790642,19.073674 87.262616,54.125065 85.321749,64.473525 l -6.265323,43.084725 c -5.187751,0.51994 -9.141012,4.94219 -8.990442,10.23856 l 0.03993,1.40451 c 0.157578,5.54237 4.74631,9.87742 10.288672,9.71984 l 53.067824,-1.50865 c 5.54236,-0.15764 9.87741,-4.74631 9.71985,-10.28868 z"
       sodipodi:nodetypes="scszccssssss" />
    <path
       style="display:inline;fill:#000000;fill-opacity:1;fill-rule:evenodd;stroke:#000000;stroke-width:0.182519;stroke-dasharray:none;stroke-opacity:1"
       id="path2382"
       sodipodi:type="arc"
       sodipodi:cx="117.10938"
       sodipodi:cy="91.105774"
       sodipodi:rx="6.1653724"
       sodipodi:ry="10.088513"
       sodipodi:start="0.54563547"
       sodipodi:end="0.54543906"
       sodipodi:open="true"
       sodipodi:arc-type="arc"
       d="m 122.37953,96.341323 a 6.1653724,10.088513 0 0 1 -8.46948,3.388346 6.1653724,10.088513 0 0 1 -2.07113,-13.858597 6.1653724,10.088513 0 0 1 8.46928,-3.389707 6.1653724,10.088513 0 0 1 2.07196,13.858264"
       transform="rotate(-1.6284234)" />
    <path
       style="display:inline;fill:#ffffff;fill-opacity:1;fill-rule:evenodd;stroke:#000000;stroke-width:0.0796333;stroke-dasharray:none;stroke-opacity:1"
       id="path2384"
       sodipodi:type="arc"
       sodipodi:cx="115.03173"
       sodipodi:cy="87.124008"
       sodipodi:rx="2.3976448"
       sodipodi:ry="4.9382463"
       sodipodi:start="0.57441444"
       sodipodi:end="0.54543906"
       sodipodi:open="true"
       sodipodi:arc-type="arc"
       d="m 117.04458,89.807171 a 2.3976448,4.9382463 0 0 1 -3.30098,1.481875 2.3976448,4.9382463 0 0 1 -0.74338,-6.78786 2.3976448,4.9382463 0 0 1 3.29021,-1.580214 2.3976448,4.9382463 0 0 1 0.79105,6.764966"
       transform="rotate(-1.6284234)" />
    <path
       style="display:inline;fill:#000000;fill-opacity:1;fill-rule:evenodd;stroke:#000000;stroke-width:0.182519;stroke-dasharray:none;stroke-opacity:1"
       id="path2386"
       sodipodi:type="arc"
       sodipodi:cx="-92.084244"
       sodipodi:cy="90.746887"
       sodipodi:rx="6.1653724"
       sodipodi:ry="10.088513"
       sodipodi:start="0.54564731"
       sodipodi:end="0.54543906"
       sodipodi:open="true"
       sodipodi:arc-type="arc"
       d="m -86.814136,95.982538 a 6.1653724,10.088513 0 0 1 -8.469486,3.388198 6.1653724,10.088513 0 0 1 -2.071063,-13.858602 6.1653724,10.088513 0 0 1 8.469271,-3.38964 6.1653724,10.088513 0 0 1 2.071945,13.858248"
       transform="matrix(-0.99959614,0.02841752,0.02841752,0.99959614,0,0)" />
    <path
       style="display:inline;fill:#ffffff;fill-opacity:1;fill-rule:evenodd;stroke:#000000;stroke-width:0.0796333;stroke-dasharray:none;stroke-opacity:1"
       id="path2388"
       sodipodi:type="arc"
       sodipodi:cx="-94.161865"
       sodipodi:cy="86.765152"
       sodipodi:rx="2.3976448"
       sodipodi:ry="4.9382463"
       sodipodi:start="0.57441444"
       sodipodi:end="0.54543906"
       sodipodi:open="true"
       sodipodi:arc-type="arc"
       d="m -92.149017,89.448315 a 2.3976448,4.9382463 0 0 1 -3.300978,1.481875 2.3976448,4.9382463 0 0 1 -0.74338,-6.78786 2.3976448,4.9382463 0 0 1 3.290208,-1.580214 2.3976448,4.9382463 0 0 1 0.791047,6.764966"
       transform="matrix(-0.99959614,0.02841752,0.02841752,0.99959614,0,0)" />
    <path
       style="display:inline;fill:#000000;fill-opacity:1;fill-rule:evenodd;stroke:#000000;stroke-width:0.130165;stroke-opacity:1"
       d="m 111.2392,99.759025 c 0.2221,-0.63988 -0.50803,-0.96472 -0.82761,-0.40846 -0.49611,0.863655 -0.61768,1.342285 -1.65456,2.024545 -0.34889,0.23064 -0.85879,0.43238 -1.35181,0.52318 -1.15544,0.21039 -2.23152,-0.1332 -2.94156,-0.6315 -1.001,-0.69632 -1.16878,-1.315495 -1.32307,-1.459935 -0.18527,-0.17701 -0.55994,0.0268 -0.63606,0.16688 -0.53645,1.027955 3.46599,4.638795 7.16691,1.869725 0.52947,-0.39421 1.30446,-1.30902 1.56776,-2.084435 z"
       id="path2390" />
  </g>
</svg>
