<svg xmlns="http://www.w3.org/2000/svg" xmlns:xlink="http://www.w3.org/1999/xlink" width="500" zoomAndPan="magnify" viewBox="0 0 375 374.999991" height="500" preserveAspectRatio="xMidYMid meet" version="1.0"><defs><g/></defs><g fill="#ff7f38" fill-opacity="0.4902"><g transform="translate(100.358614, 146.04192)"><g><path d="M 16.40625 -8.046875 C 13.800781 -6.265625 11.445312 -5.085938 9.34375 -4.515625 C 7.25 -3.941406 5.289062 -3.9375 3.46875 -4.5 C 1.65625 -5.0625 -0.0976562 -6.179688 -1.796875 -7.859375 C -3.492188 -9.535156 -5.25 -11.695312 -7.0625 -14.34375 L -15.375 -26.484375 C -16.96875 -28.804688 -18.453125 -31 -19.828125 -33.0625 C -21.203125 -35.125 -22.113281 -37.109375 -22.5625 -39.015625 C -23.019531 -40.921875 -22.8125 -42.804688 -21.9375 -44.671875 C -21.0625 -46.546875 -19.207031 -48.453125 -16.375 -50.390625 C -13.394531 -52.429688 -10.691406 -54.078125 -8.265625 -55.328125 C -5.847656 -56.578125 -3.609375 -57.289062 -1.546875 -57.46875 C 0.503906 -57.644531 2.425781 -57.222656 4.21875 -56.203125 C 6.019531 -55.179688 7.785156 -53.410156 9.515625 -50.890625 C 10.148438 -49.960938 10.671875 -48.875 11.078125 -47.625 C 11.492188 -46.375 11.742188 -45.113281 11.828125 -43.84375 C 11.921875 -42.570312 11.820312 -41.320312 11.53125 -40.09375 C 11.25 -38.863281 10.695312 -37.800781 9.875 -36.90625 C 12.082031 -38.269531 14.414062 -38.597656 16.875 -37.890625 C 19.34375 -37.191406 21.613281 -35.332031 23.6875 -32.3125 C 25.3125 -29.945312 26.234375 -27.625 26.453125 -25.34375 C 26.679688 -23.070312 26.394531 -20.894531 25.59375 -18.8125 C 24.800781 -16.726562 23.597656 -14.769531 21.984375 -12.9375 C 20.367188 -11.113281 18.507812 -9.484375 16.40625 -8.046875 Z M -3.765625 -53.09375 C -3.890625 -52.863281 -3.898438 -52.578125 -3.796875 -52.234375 C -3.703125 -51.890625 -3.507812 -51.613281 -3.21875 -51.40625 C -2.75 -51.101562 -2.179688 -50.890625 -1.515625 -50.765625 C -0.847656 -50.640625 -0.175781 -50.4375 0.5 -50.15625 C 0.945312 -49.976562 1.335938 -49.710938 1.671875 -49.359375 C 2.015625 -49.015625 2.351562 -48.722656 2.6875 -48.484375 C 3.03125 -48.242188 3.367188 -48.082031 3.703125 -48 C 4.035156 -47.914062 4.410156 -48.015625 4.828125 -48.296875 C 5.378906 -48.679688 5.476562 -49.332031 5.125 -50.25 C 4.78125 -51.175781 4.050781 -52.039062 2.9375 -52.84375 C 1.507812 -53.851562 0.117188 -54.300781 -1.234375 -54.1875 C -2.597656 -54.082031 -3.441406 -53.71875 -3.765625 -53.09375 Z M -4.453125 -34.765625 C -4.328125 -34.785156 -4.101562 -34.910156 -3.78125 -35.140625 C -2.289062 -36.160156 -1.210938 -37.335938 -0.546875 -38.671875 C 0.109375 -40.003906 0.0664062 -41.207031 -0.671875 -42.28125 C -1.015625 -42.789062 -1.625 -43.035156 -2.5 -43.015625 C -3.382812 -43.003906 -4.5 -42.535156 -5.84375 -41.609375 C -6.125 -41.421875 -6.445312 -41.195312 -6.8125 -40.9375 C -7.1875 -40.6875 -7.601562 -40.335938 -8.0625 -39.890625 C -7.570312 -38.984375 -7.019531 -38.085938 -6.40625 -37.203125 C -5.800781 -36.328125 -5.21875 -35.46875 -4.65625 -34.625 Z M 4.96875 -45.109375 C 5.175781 -44.710938 5.457031 -44.398438 5.8125 -44.171875 C 6.175781 -43.941406 6.503906 -43.859375 6.796875 -43.921875 C 7.304688 -43.992188 7.640625 -44.289062 7.796875 -44.8125 C 7.953125 -45.332031 7.894531 -45.832031 7.625 -46.3125 C 7.195312 -47.132812 6.609375 -47.453125 5.859375 -47.265625 C 4.609375 -47.085938 4.3125 -46.367188 4.96875 -45.109375 Z M 6.390625 -18.9375 C 6.835938 -18.289062 7.253906 -18.007812 7.640625 -18.09375 C 8.023438 -18.1875 8.753906 -18.597656 9.828125 -19.328125 C 12.753906 -21.335938 13.546875 -23.320312 12.203125 -25.28125 C 11.441406 -26.394531 10.207031 -27.046875 8.5 -27.234375 C 6.800781 -27.429688 4.640625 -26.703125 2.015625 -25.046875 Z M 6.390625 -18.9375 "/></g></g></g><g fill="#ff7f38" fill-opacity="0.4902"><g transform="translate(127.404558, 126.484474)"><g><path d="M 19.46875 -4.0625 C 16.539062 -3.03125 13.910156 -2.597656 11.578125 -2.765625 C 9.242188 -2.929688 7.1875 -3.597656 5.40625 -4.765625 C 3.625 -5.929688 2.054688 -7.53125 0.703125 -9.5625 C -0.640625 -11.601562 -1.832031 -13.960938 -2.875 -16.640625 C -4.25 -20.171875 -5.613281 -23.695312 -6.96875 -27.21875 C -8.320312 -30.738281 -9.632812 -34.304688 -10.90625 -37.921875 C -11.394531 -39.304688 -11.796875 -40.617188 -12.109375 -41.859375 C -12.421875 -43.097656 -12.519531 -44.226562 -12.40625 -45.25 C -12.289062 -46.28125 -11.851562 -47.210938 -11.09375 -48.046875 C -10.34375 -48.878906 -9.144531 -49.585938 -7.5 -50.171875 C -5.101562 -51.003906 -3.203125 -50.960938 -1.796875 -50.046875 C -0.398438 -49.128906 0.695312 -47.53125 1.5 -45.25 L 9.515625 -22.4375 C 9.679688 -21.957031 9.914062 -21.453125 10.21875 -20.921875 C 10.519531 -20.398438 10.875 -19.941406 11.28125 -19.546875 C 11.6875 -19.160156 12.144531 -18.875 12.65625 -18.6875 C 13.164062 -18.507812 13.738281 -18.535156 14.375 -18.765625 C 15.71875 -19.234375 16.566406 -20.097656 16.921875 -21.359375 C 17.273438 -22.628906 17.363281 -24.023438 17.1875 -25.546875 C 17.019531 -27.066406 16.707031 -28.566406 16.25 -30.046875 C 15.789062 -31.523438 15.398438 -32.710938 15.078125 -33.609375 C 14.703125 -34.671875 14.3125 -35.726562 13.90625 -36.78125 C 13.507812 -37.84375 13.128906 -38.90625 12.765625 -39.96875 L 11.109375 -44.15625 C 10.734375 -45.207031 10.34375 -46.257812 9.9375 -47.3125 C 9.539062 -48.375 9.15625 -49.4375 8.78125 -50.5 C 8.1875 -52.195312 8.34375 -53.625 9.25 -54.78125 C 10.15625 -55.945312 11.378906 -56.800781 12.921875 -57.34375 C 14.734375 -57.976562 16.316406 -57.800781 17.671875 -56.8125 C 19.035156 -55.820312 20.210938 -54.46875 21.203125 -52.75 C 22.191406 -51.039062 23.015625 -49.207031 23.671875 -47.25 C 24.335938 -45.300781 24.894531 -43.691406 25.34375 -42.421875 C 25.925781 -40.765625 26.492188 -39.109375 27.046875 -37.453125 C 27.597656 -35.804688 28.140625 -34.125 28.671875 -32.40625 C 29.785156 -29.082031 30.609375 -25.972656 31.140625 -23.078125 C 31.671875 -20.191406 31.6875 -17.554688 31.1875 -15.171875 C 30.6875 -12.785156 29.523438 -10.660156 27.703125 -8.796875 C 25.878906 -6.929688 23.132812 -5.351562 19.46875 -4.0625 Z M 16.421875 -54.53125 C 15.910156 -54.289062 15.640625 -53.910156 15.609375 -53.390625 C 15.585938 -52.878906 15.644531 -52.332031 15.78125 -51.75 C 15.925781 -51.164062 16.125 -50.601562 16.375 -50.0625 C 16.632812 -49.53125 16.816406 -49.109375 16.921875 -48.796875 C 17.015625 -48.523438 17.148438 -48.132812 17.328125 -47.625 C 17.515625 -47.125 17.710938 -46.644531 17.921875 -46.1875 C 18.140625 -45.726562 18.414062 -45.363281 18.75 -45.09375 C 19.09375 -44.820312 19.445312 -44.75 19.8125 -44.875 C 20.238281 -45.03125 20.523438 -45.28125 20.671875 -45.625 C 20.816406 -45.976562 20.875 -46.359375 20.84375 -46.765625 C 20.820312 -47.171875 20.753906 -47.578125 20.640625 -47.984375 C 20.535156 -48.398438 20.425781 -48.769531 20.3125 -49.09375 C 20.21875 -49.351562 20.023438 -49.804688 19.734375 -50.453125 C 19.453125 -51.097656 19.128906 -51.757812 18.765625 -52.4375 C 18.410156 -53.113281 18.015625 -53.675781 17.578125 -54.125 C 17.148438 -54.582031 16.765625 -54.71875 16.421875 -54.53125 Z M 20.953125 -43.671875 C 20.421875 -43.484375 20.082031 -43.09375 19.9375 -42.5 C 19.789062 -41.90625 19.800781 -41.367188 19.96875 -40.890625 C 20.226562 -40.148438 20.726562 -39.910156 21.46875 -40.171875 C 21.945312 -40.335938 22.300781 -40.65625 22.53125 -41.125 C 22.757812 -41.59375 22.789062 -42.066406 22.625 -42.546875 C 22.507812 -42.867188 22.296875 -43.164062 21.984375 -43.4375 C 21.671875 -43.71875 21.328125 -43.796875 20.953125 -43.671875 Z M 20.953125 -43.671875 "/></g></g></g><g fill="#ff7f38" fill-opacity="0.4902"><g transform="translate(159.668782, 114.399072)"><g><path d="M 18.25 1.265625 C 15.101562 1.503906 12.472656 1.34375 10.359375 0.78125 C 8.253906 0.226562 6.554688 -0.738281 5.265625 -2.125 C 3.972656 -3.519531 3.015625 -5.367188 2.390625 -7.671875 C 1.765625 -9.984375 1.332031 -12.738281 1.09375 -15.9375 L -0.015625 -30.609375 C -0.222656 -33.421875 -0.40625 -36.0625 -0.5625 -38.53125 C -0.71875 -41.007812 -0.515625 -43.1875 0.046875 -45.0625 C 0.609375 -46.945312 1.734375 -48.476562 3.421875 -49.65625 C 5.117188 -50.832031 7.679688 -51.550781 11.109375 -51.8125 C 14.703125 -52.082031 17.863281 -52.148438 20.59375 -52.015625 C 23.320312 -51.878906 25.617188 -51.375 27.484375 -50.5 C 29.359375 -49.625 30.8125 -48.289062 31.84375 -46.5 C 32.882812 -44.71875 33.519531 -42.300781 33.75 -39.25 C 33.832031 -38.132812 33.742188 -36.929688 33.484375 -35.640625 C 33.222656 -34.347656 32.804688 -33.128906 32.234375 -31.984375 C 31.671875 -30.835938 30.957031 -29.804688 30.09375 -28.890625 C 29.226562 -27.972656 28.21875 -27.332031 27.0625 -26.96875 C 29.644531 -27.050781 31.828125 -26.164062 33.609375 -24.3125 C 35.390625 -22.46875 36.414062 -19.722656 36.6875 -16.078125 C 36.90625 -13.203125 36.539062 -10.722656 35.59375 -8.640625 C 34.65625 -6.566406 33.316406 -4.828125 31.578125 -3.421875 C 29.847656 -2.023438 27.828125 -0.941406 25.515625 -0.171875 C 23.203125 0.597656 20.78125 1.078125 18.25 1.265625 Z M 23.359375 -47.8125 C 23.140625 -47.675781 22.988281 -47.4375 22.90625 -47.09375 C 22.820312 -46.75 22.851562 -46.410156 23 -46.078125 C 23.25 -45.585938 23.628906 -45.117188 24.140625 -44.671875 C 24.660156 -44.234375 25.144531 -43.722656 25.59375 -43.140625 C 25.90625 -42.765625 26.117188 -42.335938 26.234375 -41.859375 C 26.347656 -41.390625 26.488281 -40.960938 26.65625 -40.578125 C 26.832031 -40.203125 27.039062 -39.894531 27.28125 -39.65625 C 27.53125 -39.425781 27.90625 -39.328125 28.40625 -39.359375 C 29.082031 -39.410156 29.5 -39.921875 29.65625 -40.890625 C 29.8125 -41.867188 29.613281 -42.984375 29.0625 -44.234375 C 28.320312 -45.828125 27.335938 -46.914062 26.109375 -47.5 C 24.878906 -48.09375 23.960938 -48.195312 23.359375 -47.8125 Z M 13.59375 -32.3125 C 13.71875 -32.269531 13.976562 -32.257812 14.375 -32.28125 C 16.164062 -32.414062 17.679688 -32.894531 18.921875 -33.71875 C 20.160156 -34.550781 20.734375 -35.617188 20.640625 -36.921875 C 20.585938 -37.523438 20.175781 -38.039062 19.40625 -38.46875 C 18.632812 -38.894531 17.4375 -39.046875 15.8125 -38.921875 C 15.476562 -38.890625 15.082031 -38.859375 14.625 -38.828125 C 14.175781 -38.796875 13.644531 -38.703125 13.03125 -38.546875 C 13 -37.535156 13.023438 -36.492188 13.109375 -35.421875 C 13.191406 -34.347656 13.269531 -33.304688 13.34375 -32.296875 Z M 26.9375 -36.546875 C 26.914062 -36.085938 27.003906 -35.664062 27.203125 -35.28125 C 27.398438 -34.90625 27.640625 -34.671875 27.921875 -34.578125 C 28.390625 -34.378906 28.820312 -34.46875 29.21875 -34.84375 C 29.613281 -35.21875 29.816406 -35.6875 29.828125 -36.25 C 29.878906 -37.164062 29.53125 -37.734375 28.78125 -37.953125 C 27.613281 -38.421875 27 -37.953125 26.9375 -36.546875 Z M 15.03125 -13.1875 C 15.09375 -12.394531 15.3125 -11.941406 15.6875 -11.828125 C 16.0625 -11.710938 16.898438 -11.703125 18.203125 -11.796875 C 21.742188 -12.066406 23.425781 -13.378906 23.25 -15.734375 C 23.144531 -17.085938 22.398438 -18.273438 21.015625 -19.296875 C 19.640625 -20.328125 17.398438 -20.78125 14.296875 -20.65625 Z M 15.03125 -13.1875 "/></g></g></g><g fill="#ff7f38" fill-opacity="0.4902"><g transform="translate(192.947121, 111.13472)"><g><path d="M 17.296875 5.890625 C 14.203125 5.304688 11.707031 4.476562 9.8125 3.40625 C 7.914062 2.332031 6.519531 0.957031 5.625 -0.71875 C 4.738281 -2.394531 4.289062 -4.425781 4.28125 -6.8125 C 4.269531 -9.195312 4.554688 -11.96875 5.140625 -15.125 L 7.84375 -29.59375 C 8.351562 -32.351562 8.847656 -34.953125 9.328125 -37.390625 C 9.804688 -39.828125 10.554688 -41.878906 11.578125 -43.546875 C 12.609375 -45.210938 14.09375 -46.398438 16.03125 -47.109375 C 17.96875 -47.816406 20.628906 -47.859375 24.015625 -47.234375 C 27.554688 -46.566406 30.625 -45.816406 33.21875 -44.984375 C 35.820312 -44.160156 37.914062 -43.082031 39.5 -41.75 C 41.09375 -40.425781 42.160156 -38.765625 42.703125 -36.765625 C 43.242188 -34.773438 43.238281 -32.28125 42.6875 -29.28125 C 42.476562 -28.175781 42.078125 -27.035156 41.484375 -25.859375 C 40.898438 -24.679688 40.191406 -23.613281 39.359375 -22.65625 C 38.523438 -21.695312 37.570312 -20.882812 36.5 -20.21875 C 35.425781 -19.5625 34.28125 -19.195312 33.0625 -19.125 C 35.582031 -18.539062 37.46875 -17.128906 38.71875 -14.890625 C 39.96875 -12.648438 40.257812 -9.734375 39.59375 -6.140625 C 39.0625 -3.304688 38.070312 -1.007812 36.625 0.75 C 35.1875 2.519531 33.445312 3.859375 31.40625 4.765625 C 29.375 5.679688 27.140625 6.210938 24.703125 6.359375 C 22.265625 6.515625 19.796875 6.359375 17.296875 5.890625 Z M 34.84375 -40.21875 C 34.59375 -40.15625 34.382812 -39.96875 34.21875 -39.65625 C 34.050781 -39.34375 33.988281 -39.003906 34.03125 -38.640625 C 34.15625 -38.109375 34.410156 -37.5625 34.796875 -37 C 35.179688 -36.445312 35.507812 -35.828125 35.78125 -35.140625 C 35.976562 -34.691406 36.070312 -34.222656 36.0625 -33.734375 C 36.0625 -33.253906 36.097656 -32.8125 36.171875 -32.40625 C 36.242188 -32 36.367188 -31.644531 36.546875 -31.34375 C 36.722656 -31.050781 37.054688 -30.863281 37.546875 -30.78125 C 38.210938 -30.65625 38.742188 -31.039062 39.140625 -31.9375 C 39.535156 -32.84375 39.628906 -33.972656 39.421875 -35.328125 C 39.117188 -37.046875 38.445312 -38.34375 37.40625 -39.21875 C 36.375 -40.101562 35.519531 -40.4375 34.84375 -40.21875 Z M 21.421875 -27.75 C 21.523438 -27.675781 21.769531 -27.601562 22.15625 -27.53125 C 23.925781 -27.195312 25.515625 -27.269531 26.921875 -27.75 C 28.335938 -28.238281 29.164062 -29.125 29.40625 -30.40625 C 29.519531 -31.007812 29.257812 -31.609375 28.625 -32.203125 C 27.988281 -32.804688 26.867188 -33.257812 25.265625 -33.5625 C 24.929688 -33.625 24.539062 -33.695312 24.09375 -33.78125 C 23.65625 -33.863281 23.117188 -33.910156 22.484375 -33.921875 C 22.191406 -32.941406 21.945312 -31.925781 21.75 -30.875 C 21.550781 -29.820312 21.359375 -28.796875 21.171875 -27.796875 Z M 35.390625 -28.421875 C 35.253906 -27.984375 35.234375 -27.554688 35.328125 -27.140625 C 35.421875 -26.734375 35.59375 -26.445312 35.84375 -26.28125 C 36.25 -25.96875 36.691406 -25.9375 37.171875 -26.1875 C 37.648438 -26.445312 37.96875 -26.847656 38.125 -27.390625 C 38.40625 -28.265625 38.210938 -28.90625 37.546875 -29.3125 C 36.535156 -30.082031 35.816406 -29.785156 35.390625 -28.421875 Z M 17.921875 -8.890625 C 17.773438 -8.109375 17.867188 -7.613281 18.203125 -7.40625 C 18.535156 -7.207031 19.335938 -6.988281 20.609375 -6.75 C 24.109375 -6.101562 26.070312 -6.941406 26.5 -9.265625 C 26.75 -10.597656 26.335938 -11.929688 25.265625 -13.265625 C 24.203125 -14.609375 22.15625 -15.625 19.125 -16.3125 Z M 17.921875 -8.890625 "/></g></g></g><g fill="#ff7f38" fill-opacity="0.4902"><g transform="translate(226.369937, 117.263602)"><g><path d="M 6.765625 5.1875 C 4.492188 4.1875 3.316406 2.867188 3.234375 1.234375 C 3.160156 -0.398438 3.757812 -2.664062 5.03125 -5.5625 L 17.015625 -32.890625 C 18.171875 -35.515625 19.148438 -37.601562 19.953125 -39.15625 C 20.753906 -40.71875 21.566406 -41.84375 22.390625 -42.53125 C 23.222656 -43.226562 24.164062 -43.507812 25.21875 -43.375 C 26.269531 -43.25 27.625 -42.828125 29.28125 -42.109375 C 30.363281 -41.628906 31.253906 -41.140625 31.953125 -40.640625 C 32.660156 -40.148438 33.144531 -39.566406 33.40625 -38.890625 C 33.675781 -38.210938 33.726562 -37.414062 33.5625 -36.5 C 33.40625 -35.59375 33.019531 -34.441406 32.40625 -33.046875 C 31.050781 -29.953125 29.691406 -26.8125 28.328125 -23.625 C 26.960938 -20.445312 25.40625 -16.867188 23.65625 -12.890625 C 23.40625 -12.316406 23.082031 -11.625 22.6875 -10.8125 C 22.300781 -10 21.882812 -9.179688 21.4375 -8.359375 C 21 -7.546875 20.53125 -6.785156 20.03125 -6.078125 C 19.53125 -5.367188 19.03125 -4.789062 18.53125 -4.34375 L 27 -2.203125 C 27.894531 -1.984375 28.53125 -1.53125 28.90625 -0.84375 C 29.28125 -0.15625 29.476562 0.65625 29.5 1.59375 C 29.53125 2.53125 29.398438 3.53125 29.109375 4.59375 C 28.816406 5.664062 28.457031 6.691406 28.03125 7.671875 C 27.375 9.171875 26.6875 10.207031 25.96875 10.78125 C 25.257812 11.363281 24.46875 11.664062 23.59375 11.6875 C 22.71875 11.707031 21.796875 11.519531 20.828125 11.125 C 19.859375 10.726562 18.785156 10.273438 17.609375 9.765625 L 15.8125 8.96875 L 12.125 7.53125 L 10.328125 6.75 Z M 29.625 -37.234375 C 29.09375 -37.410156 28.640625 -37.316406 28.265625 -36.953125 C 27.890625 -36.597656 27.554688 -36.160156 27.265625 -35.640625 C 26.984375 -35.117188 26.742188 -34.570312 26.546875 -34 C 26.359375 -33.4375 26.203125 -33.003906 26.078125 -32.703125 C 25.960938 -32.441406 25.796875 -32.066406 25.578125 -31.578125 C 25.359375 -31.085938 25.171875 -30.597656 25.015625 -30.109375 C 24.867188 -29.628906 24.828125 -29.171875 24.890625 -28.734375 C 24.953125 -28.304688 25.160156 -28.015625 25.515625 -27.859375 C 25.941406 -27.671875 26.328125 -27.65625 26.671875 -27.8125 C 27.015625 -27.96875 27.316406 -28.203125 27.578125 -28.515625 C 27.835938 -28.835938 28.0625 -29.1875 28.25 -29.5625 C 28.445312 -29.9375 28.613281 -30.28125 28.75 -30.59375 C 28.863281 -30.851562 29.035156 -31.316406 29.265625 -31.984375 C 29.503906 -32.648438 29.722656 -33.351562 29.921875 -34.09375 C 30.128906 -34.832031 30.226562 -35.515625 30.21875 -36.140625 C 30.207031 -36.765625 30.007812 -37.128906 29.625 -37.234375 Z M 25.546875 -26.1875 C 25.023438 -26.414062 24.503906 -26.363281 23.984375 -26.03125 C 23.472656 -25.695312 23.117188 -25.304688 22.921875 -24.859375 C 22.609375 -24.128906 22.804688 -23.609375 23.515625 -23.296875 C 23.984375 -23.085938 24.457031 -23.078125 24.9375 -23.265625 C 25.414062 -23.453125 25.753906 -23.78125 25.953125 -24.25 C 26.097656 -24.5625 26.15625 -24.921875 26.125 -25.328125 C 26.09375 -25.742188 25.898438 -26.03125 25.546875 -26.1875 Z M 26.109375 -0.1875 C 25.597656 -0.40625 25.179688 -0.429688 24.859375 -0.265625 C 24.546875 -0.0976562 24.375 0.226562 24.34375 0.71875 C 24.351562 0.957031 24.296875 1.328125 24.171875 1.828125 C 24.046875 2.335938 23.921875 2.835938 23.796875 3.328125 C 23.671875 3.828125 23.535156 4.304688 23.390625 4.765625 C 23.253906 5.222656 23.148438 5.53125 23.078125 5.6875 C 22.972656 5.945312 23.007812 6.179688 23.1875 6.390625 C 23.375 6.597656 23.570312 6.742188 23.78125 6.828125 C 24.5 7.148438 25.207031 6.507812 25.90625 4.90625 C 25.957031 4.800781 26.054688 4.503906 26.203125 4.015625 C 26.359375 3.535156 26.484375 3.007812 26.578125 2.4375 C 26.679688 1.863281 26.71875 1.320312 26.6875 0.8125 C 26.664062 0.300781 26.472656 -0.03125 26.109375 -0.1875 Z M 26.109375 -0.1875 "/></g></g></g><g fill="#ff7f38" fill-opacity="0.4902"><g transform="translate(250.006994, 126.952246)"><g><path d="M 5.890625 7.765625 C 3.773438 6.253906 2.707031 4.6875 2.6875 3.0625 C 2.664062 1.445312 3.363281 -0.34375 4.78125 -2.3125 L 22.5 -27.0625 C 23.0625 -27.832031 23.765625 -28.847656 24.609375 -30.109375 C 25.453125 -31.378906 26.382812 -32.566406 27.40625 -33.671875 C 28.4375 -34.773438 29.546875 -35.570312 30.734375 -36.0625 C 31.921875 -36.5625 33.179688 -36.4375 34.515625 -35.6875 C 37.253906 -34.070312 40.03125 -32.445312 42.84375 -30.8125 C 45.664062 -29.1875 48.359375 -27.453125 50.921875 -25.609375 C 51.421875 -25.253906 51.742188 -24.691406 51.890625 -23.921875 C 52.035156 -23.148438 52.066406 -22.34375 51.984375 -21.5 C 51.898438 -20.664062 51.734375 -19.851562 51.484375 -19.0625 C 51.234375 -18.28125 50.960938 -17.679688 50.671875 -17.265625 C 50.242188 -16.671875 49.78125 -16.097656 49.28125 -15.546875 C 48.78125 -15.003906 48.238281 -14.570312 47.65625 -14.25 C 47.082031 -13.9375 46.46875 -13.773438 45.8125 -13.765625 C 45.15625 -13.765625 44.441406 -14 43.671875 -14.46875 L 33.796875 -20.421875 L 31.0625 -15.90625 L 37.796875 -11.078125 C 39.222656 -10.054688 39.851562 -8.894531 39.6875 -7.59375 C 39.519531 -6.300781 38.992188 -5.035156 38.109375 -3.796875 C 37.773438 -3.335938 37.351562 -2.820312 36.84375 -2.25 C 36.332031 -1.6875 35.765625 -1.191406 35.140625 -0.765625 C 34.523438 -0.347656 33.882812 -0.0625 33.21875 0.09375 C 32.5625 0.25 31.910156 0.0976562 31.265625 -0.359375 L 23.765625 -5.734375 L 19.796875 0.671875 L 23.53125 3.328125 C 24.03125 3.691406 24.53125 3.828125 25.03125 3.734375 C 25.539062 3.648438 26.082031 3.519531 26.65625 3.34375 C 27.238281 3.175781 27.832031 3.082031 28.4375 3.0625 C 29.039062 3.039062 29.640625 3.242188 30.234375 3.671875 C 31.691406 4.722656 32.601562 5.96875 32.96875 7.40625 C 33.332031 8.84375 32.972656 10.3125 31.890625 11.8125 C 30.609375 13.601562 29.445312 15.03125 28.40625 16.09375 C 27.375 17.15625 26.296875 17.835938 25.171875 18.140625 C 24.046875 18.453125 22.8125 18.382812 21.46875 17.9375 C 20.125 17.5 18.539062 16.660156 16.71875 15.421875 C 15.644531 14.722656 14.554688 13.976562 13.453125 13.1875 C 12.347656 12.394531 11.269531 11.617188 10.21875 10.859375 Z M 47.265625 -26.03125 C 47.140625 -26.0625 46.960938 -26.035156 46.734375 -25.953125 C 46.515625 -25.878906 46.378906 -25.71875 46.328125 -25.46875 C 46.296875 -24.9375 46.273438 -24.515625 46.265625 -24.203125 C 46.253906 -23.898438 46.234375 -23.628906 46.203125 -23.390625 C 46.066406 -22.710938 45.898438 -22.09375 45.703125 -21.53125 C 45.515625 -20.976562 45.820312 -20.382812 46.625 -19.75 C 47.125 -19.394531 47.679688 -19.378906 48.296875 -19.703125 C 48.921875 -20.023438 49.320312 -20.707031 49.5 -21.75 C 49.664062 -22.945312 49.523438 -23.910156 49.078125 -24.640625 C 48.628906 -25.367188 48.023438 -25.832031 47.265625 -26.03125 Z M 45.359375 -18.578125 C 45.140625 -18.378906 45.003906 -18.144531 44.953125 -17.875 C 44.898438 -17.613281 44.9375 -17.367188 45.0625 -17.140625 C 45.21875 -16.878906 45.472656 -16.757812 45.828125 -16.78125 C 46.191406 -16.800781 46.5 -16.9375 46.75 -17.1875 C 47.132812 -17.726562 47.21875 -18.179688 47 -18.546875 C 46.59375 -19.242188 46.046875 -19.253906 45.359375 -18.578125 Z M 36.671875 -10.234375 C 36.535156 -10.242188 36.394531 -10.21875 36.25 -10.15625 C 36.101562 -10.09375 36.003906 -9.972656 35.953125 -9.796875 C 35.835938 -9.460938 35.753906 -9.210938 35.703125 -9.046875 C 35.648438 -8.878906 35.59375 -8.609375 35.53125 -8.234375 C 35.5 -7.703125 35.335938 -7.207031 35.046875 -6.75 C 34.765625 -6.300781 34.832031 -5.925781 35.25 -5.625 C 35.613281 -5.363281 36.023438 -5.332031 36.484375 -5.53125 C 36.941406 -5.726562 37.304688 -6.210938 37.578125 -6.984375 C 37.835938 -7.835938 37.859375 -8.546875 37.640625 -9.109375 C 37.421875 -9.679688 37.097656 -10.054688 36.671875 -10.234375 Z M 36.671875 -10.234375 "/></g></g></g><g fill="#ff7f38" fill-opacity="1"><g transform="translate(98.757392, 145.226054)"><g><path d="M 16.40625 -8.046875 C 13.800781 -6.265625 11.445312 -5.085938 9.34375 -4.515625 C 7.25 -3.941406 5.289062 -3.9375 3.46875 -4.5 C 1.65625 -5.0625 -0.0976562 -6.179688 -1.796875 -7.859375 C -3.492188 -9.535156 -5.25 -11.695312 -7.0625 -14.34375 L -15.375 -26.484375 C -16.96875 -28.804688 -18.453125 -31 -19.828125 -33.0625 C -21.203125 -35.125 -22.113281 -37.109375 -22.5625 -39.015625 C -23.019531 -40.921875 -22.8125 -42.804688 -21.9375 -44.671875 C -21.0625 -46.546875 -19.207031 -48.453125 -16.375 -50.390625 C -13.394531 -52.429688 -10.691406 -54.078125 -8.265625 -55.328125 C -5.847656 -56.578125 -3.609375 -57.289062 -1.546875 -57.46875 C 0.503906 -57.644531 2.425781 -57.222656 4.21875 -56.203125 C 6.019531 -55.179688 7.785156 -53.410156 9.515625 -50.890625 C 10.148438 -49.960938 10.671875 -48.875 11.078125 -47.625 C 11.492188 -46.375 11.742188 -45.113281 11.828125 -43.84375 C 11.921875 -42.570312 11.820312 -41.320312 11.53125 -40.09375 C 11.25 -38.863281 10.695312 -37.800781 9.875 -36.90625 C 12.082031 -38.269531 14.414062 -38.597656 16.875 -37.890625 C 19.34375 -37.191406 21.613281 -35.332031 23.6875 -32.3125 C 25.3125 -29.945312 26.234375 -27.625 26.453125 -25.34375 C 26.679688 -23.070312 26.394531 -20.894531 25.59375 -18.8125 C 24.800781 -16.726562 23.597656 -14.769531 21.984375 -12.9375 C 20.367188 -11.113281 18.507812 -9.484375 16.40625 -8.046875 Z M -3.765625 -53.09375 C -3.890625 -52.863281 -3.898438 -52.578125 -3.796875 -52.234375 C -3.703125 -51.890625 -3.507812 -51.613281 -3.21875 -51.40625 C -2.75 -51.101562 -2.179688 -50.890625 -1.515625 -50.765625 C -0.847656 -50.640625 -0.175781 -50.4375 0.5 -50.15625 C 0.945312 -49.976562 1.335938 -49.710938 1.671875 -49.359375 C 2.015625 -49.015625 2.351562 -48.722656 2.6875 -48.484375 C 3.03125 -48.242188 3.367188 -48.082031 3.703125 -48 C 4.035156 -47.914062 4.410156 -48.015625 4.828125 -48.296875 C 5.378906 -48.679688 5.476562 -49.332031 5.125 -50.25 C 4.78125 -51.175781 4.050781 -52.039062 2.9375 -52.84375 C 1.507812 -53.851562 0.117188 -54.300781 -1.234375 -54.1875 C -2.597656 -54.082031 -3.441406 -53.71875 -3.765625 -53.09375 Z M -4.453125 -34.765625 C -4.328125 -34.785156 -4.101562 -34.910156 -3.78125 -35.140625 C -2.289062 -36.160156 -1.210938 -37.335938 -0.546875 -38.671875 C 0.109375 -40.003906 0.0664062 -41.207031 -0.671875 -42.28125 C -1.015625 -42.789062 -1.625 -43.035156 -2.5 -43.015625 C -3.382812 -43.003906 -4.5 -42.535156 -5.84375 -41.609375 C -6.125 -41.421875 -6.445312 -41.195312 -6.8125 -40.9375 C -7.1875 -40.6875 -7.601562 -40.335938 -8.0625 -39.890625 C -7.570312 -38.984375 -7.019531 -38.085938 -6.40625 -37.203125 C -5.800781 -36.328125 -5.21875 -35.46875 -4.65625 -34.625 Z M 4.96875 -45.109375 C 5.175781 -44.710938 5.457031 -44.398438 5.8125 -44.171875 C 6.175781 -43.941406 6.503906 -43.859375 6.796875 -43.921875 C 7.304688 -43.992188 7.640625 -44.289062 7.796875 -44.8125 C 7.953125 -45.332031 7.894531 -45.832031 7.625 -46.3125 C 7.195312 -47.132812 6.609375 -47.453125 5.859375 -47.265625 C 4.609375 -47.085938 4.3125 -46.367188 4.96875 -45.109375 Z M 6.390625 -18.9375 C 6.835938 -18.289062 7.253906 -18.007812 7.640625 -18.09375 C 8.023438 -18.1875 8.753906 -18.597656 9.828125 -19.328125 C 12.753906 -21.335938 13.546875 -23.320312 12.203125 -25.28125 C 11.441406 -26.394531 10.207031 -27.046875 8.5 -27.234375 C 6.800781 -27.429688 4.640625 -26.703125 2.015625 -25.046875 Z M 6.390625 -18.9375 "/></g></g></g><g fill="#ff7f38" fill-opacity="1"><g transform="translate(125.803338, 125.668609)"><g><path d="M 19.46875 -4.0625 C 16.539062 -3.03125 13.910156 -2.597656 11.578125 -2.765625 C 9.242188 -2.929688 7.1875 -3.597656 5.40625 -4.765625 C 3.625 -5.929688 2.054688 -7.53125 0.703125 -9.5625 C -0.640625 -11.601562 -1.832031 -13.960938 -2.875 -16.640625 C -4.25 -20.171875 -5.613281 -23.695312 -6.96875 -27.21875 C -8.320312 -30.738281 -9.632812 -34.304688 -10.90625 -37.921875 C -11.394531 -39.304688 -11.796875 -40.617188 -12.109375 -41.859375 C -12.421875 -43.097656 -12.519531 -44.226562 -12.40625 -45.25 C -12.289062 -46.28125 -11.851562 -47.210938 -11.09375 -48.046875 C -10.34375 -48.878906 -9.144531 -49.585938 -7.5 -50.171875 C -5.101562 -51.003906 -3.203125 -50.960938 -1.796875 -50.046875 C -0.398438 -49.128906 0.695312 -47.53125 1.5 -45.25 L 9.515625 -22.4375 C 9.679688 -21.957031 9.914062 -21.453125 10.21875 -20.921875 C 10.519531 -20.398438 10.875 -19.941406 11.28125 -19.546875 C 11.6875 -19.160156 12.144531 -18.875 12.65625 -18.6875 C 13.164062 -18.507812 13.738281 -18.535156 14.375 -18.765625 C 15.71875 -19.234375 16.566406 -20.097656 16.921875 -21.359375 C 17.273438 -22.628906 17.363281 -24.023438 17.1875 -25.546875 C 17.019531 -27.066406 16.707031 -28.566406 16.25 -30.046875 C 15.789062 -31.523438 15.398438 -32.710938 15.078125 -33.609375 C 14.703125 -34.671875 14.3125 -35.726562 13.90625 -36.78125 C 13.507812 -37.84375 13.128906 -38.90625 12.765625 -39.96875 L 11.109375 -44.15625 C 10.734375 -45.207031 10.34375 -46.257812 9.9375 -47.3125 C 9.539062 -48.375 9.15625 -49.4375 8.78125 -50.5 C 8.1875 -52.195312 8.34375 -53.625 9.25 -54.78125 C 10.15625 -55.945312 11.378906 -56.800781 12.921875 -57.34375 C 14.734375 -57.976562 16.316406 -57.800781 17.671875 -56.8125 C 19.035156 -55.820312 20.210938 -54.46875 21.203125 -52.75 C 22.191406 -51.039062 23.015625 -49.207031 23.671875 -47.25 C 24.335938 -45.300781 24.894531 -43.691406 25.34375 -42.421875 C 25.925781 -40.765625 26.492188 -39.109375 27.046875 -37.453125 C 27.597656 -35.804688 28.140625 -34.125 28.671875 -32.40625 C 29.785156 -29.082031 30.609375 -25.972656 31.140625 -23.078125 C 31.671875 -20.191406 31.6875 -17.554688 31.1875 -15.171875 C 30.6875 -12.785156 29.523438 -10.660156 27.703125 -8.796875 C 25.878906 -6.929688 23.132812 -5.351562 19.46875 -4.0625 Z M 16.421875 -54.53125 C 15.910156 -54.289062 15.640625 -53.910156 15.609375 -53.390625 C 15.585938 -52.878906 15.644531 -52.332031 15.78125 -51.75 C 15.925781 -51.164062 16.125 -50.601562 16.375 -50.0625 C 16.632812 -49.53125 16.816406 -49.109375 16.921875 -48.796875 C 17.015625 -48.523438 17.148438 -48.132812 17.328125 -47.625 C 17.515625 -47.125 17.710938 -46.644531 17.921875 -46.1875 C 18.140625 -45.726562 18.414062 -45.363281 18.75 -45.09375 C 19.09375 -44.820312 19.445312 -44.75 19.8125 -44.875 C 20.238281 -45.03125 20.523438 -45.28125 20.671875 -45.625 C 20.816406 -45.976562 20.875 -46.359375 20.84375 -46.765625 C 20.820312 -47.171875 20.753906 -47.578125 20.640625 -47.984375 C 20.535156 -48.398438 20.425781 -48.769531 20.3125 -49.09375 C 20.21875 -49.351562 20.023438 -49.804688 19.734375 -50.453125 C 19.453125 -51.097656 19.128906 -51.757812 18.765625 -52.4375 C 18.410156 -53.113281 18.015625 -53.675781 17.578125 -54.125 C 17.148438 -54.582031 16.765625 -54.71875 16.421875 -54.53125 Z M 20.953125 -43.671875 C 20.421875 -43.484375 20.082031 -43.09375 19.9375 -42.5 C 19.789062 -41.90625 19.800781 -41.367188 19.96875 -40.890625 C 20.226562 -40.148438 20.726562 -39.910156 21.46875 -40.171875 C 21.945312 -40.335938 22.300781 -40.65625 22.53125 -41.125 C 22.757812 -41.59375 22.789062 -42.066406 22.625 -42.546875 C 22.507812 -42.867188 22.296875 -43.164062 21.984375 -43.4375 C 21.671875 -43.71875 21.328125 -43.796875 20.953125 -43.671875 Z M 20.953125 -43.671875 "/></g></g></g><g fill="#ff7f38" fill-opacity="1"><g transform="translate(158.067563, 113.583206)"><g><path d="M 18.25 1.265625 C 15.101562 1.503906 12.472656 1.34375 10.359375 0.78125 C 8.253906 0.226562 6.554688 -0.738281 5.265625 -2.125 C 3.972656 -3.519531 3.015625 -5.367188 2.390625 -7.671875 C 1.765625 -9.984375 1.332031 -12.738281 1.09375 -15.9375 L -0.015625 -30.609375 C -0.222656 -33.421875 -0.40625 -36.0625 -0.5625 -38.53125 C -0.71875 -41.007812 -0.515625 -43.1875 0.046875 -45.0625 C 0.609375 -46.945312 1.734375 -48.476562 3.421875 -49.65625 C 5.117188 -50.832031 7.679688 -51.550781 11.109375 -51.8125 C 14.703125 -52.082031 17.863281 -52.148438 20.59375 -52.015625 C 23.320312 -51.878906 25.617188 -51.375 27.484375 -50.5 C 29.359375 -49.625 30.8125 -48.289062 31.84375 -46.5 C 32.882812 -44.71875 33.519531 -42.300781 33.75 -39.25 C 33.832031 -38.132812 33.742188 -36.929688 33.484375 -35.640625 C 33.222656 -34.347656 32.804688 -33.128906 32.234375 -31.984375 C 31.671875 -30.835938 30.957031 -29.804688 30.09375 -28.890625 C 29.226562 -27.972656 28.21875 -27.332031 27.0625 -26.96875 C 29.644531 -27.050781 31.828125 -26.164062 33.609375 -24.3125 C 35.390625 -22.46875 36.414062 -19.722656 36.6875 -16.078125 C 36.90625 -13.203125 36.539062 -10.722656 35.59375 -8.640625 C 34.65625 -6.566406 33.316406 -4.828125 31.578125 -3.421875 C 29.847656 -2.023438 27.828125 -0.941406 25.515625 -0.171875 C 23.203125 0.597656 20.78125 1.078125 18.25 1.265625 Z M 23.359375 -47.8125 C 23.140625 -47.675781 22.988281 -47.4375 22.90625 -47.09375 C 22.820312 -46.75 22.851562 -46.410156 23 -46.078125 C 23.25 -45.585938 23.628906 -45.117188 24.140625 -44.671875 C 24.660156 -44.234375 25.144531 -43.722656 25.59375 -43.140625 C 25.90625 -42.765625 26.117188 -42.335938 26.234375 -41.859375 C 26.347656 -41.390625 26.488281 -40.960938 26.65625 -40.578125 C 26.832031 -40.203125 27.039062 -39.894531 27.28125 -39.65625 C 27.53125 -39.425781 27.90625 -39.328125 28.40625 -39.359375 C 29.082031 -39.410156 29.5 -39.921875 29.65625 -40.890625 C 29.8125 -41.867188 29.613281 -42.984375 29.0625 -44.234375 C 28.320312 -45.828125 27.335938 -46.914062 26.109375 -47.5 C 24.878906 -48.09375 23.960938 -48.195312 23.359375 -47.8125 Z M 13.59375 -32.3125 C 13.71875 -32.269531 13.976562 -32.257812 14.375 -32.28125 C 16.164062 -32.414062 17.679688 -32.894531 18.921875 -33.71875 C 20.160156 -34.550781 20.734375 -35.617188 20.640625 -36.921875 C 20.585938 -37.523438 20.175781 -38.039062 19.40625 -38.46875 C 18.632812 -38.894531 17.4375 -39.046875 15.8125 -38.921875 C 15.476562 -38.890625 15.082031 -38.859375 14.625 -38.828125 C 14.175781 -38.796875 13.644531 -38.703125 13.03125 -38.546875 C 13 -37.535156 13.023438 -36.492188 13.109375 -35.421875 C 13.191406 -34.347656 13.269531 -33.304688 13.34375 -32.296875 Z M 26.9375 -36.546875 C 26.914062 -36.085938 27.003906 -35.664062 27.203125 -35.28125 C 27.398438 -34.90625 27.640625 -34.671875 27.921875 -34.578125 C 28.390625 -34.378906 28.820312 -34.46875 29.21875 -34.84375 C 29.613281 -35.21875 29.816406 -35.6875 29.828125 -36.25 C 29.878906 -37.164062 29.53125 -37.734375 28.78125 -37.953125 C 27.613281 -38.421875 27 -37.953125 26.9375 -36.546875 Z M 15.03125 -13.1875 C 15.09375 -12.394531 15.3125 -11.941406 15.6875 -11.828125 C 16.0625 -11.710938 16.898438 -11.703125 18.203125 -11.796875 C 21.742188 -12.066406 23.425781 -13.378906 23.25 -15.734375 C 23.144531 -17.085938 22.398438 -18.273438 21.015625 -19.296875 C 19.640625 -20.328125 17.398438 -20.78125 14.296875 -20.65625 Z M 15.03125 -13.1875 "/></g></g></g><g fill="#ff7f38" fill-opacity="1"><g transform="translate(191.345899, 110.318853)"><g><path d="M 17.296875 5.890625 C 14.203125 5.304688 11.707031 4.476562 9.8125 3.40625 C 7.914062 2.332031 6.519531 0.957031 5.625 -0.71875 C 4.738281 -2.394531 4.289062 -4.425781 4.28125 -6.8125 C 4.269531 -9.195312 4.554688 -11.96875 5.140625 -15.125 L 7.84375 -29.59375 C 8.351562 -32.351562 8.847656 -34.953125 9.328125 -37.390625 C 9.804688 -39.828125 10.554688 -41.878906 11.578125 -43.546875 C 12.609375 -45.210938 14.09375 -46.398438 16.03125 -47.109375 C 17.96875 -47.816406 20.628906 -47.859375 24.015625 -47.234375 C 27.554688 -46.566406 30.625 -45.816406 33.21875 -44.984375 C 35.820312 -44.160156 37.914062 -43.082031 39.5 -41.75 C 41.09375 -40.425781 42.160156 -38.765625 42.703125 -36.765625 C 43.242188 -34.773438 43.238281 -32.28125 42.6875 -29.28125 C 42.476562 -28.175781 42.078125 -27.035156 41.484375 -25.859375 C 40.898438 -24.679688 40.191406 -23.613281 39.359375 -22.65625 C 38.523438 -21.695312 37.570312 -20.882812 36.5 -20.21875 C 35.425781 -19.5625 34.28125 -19.195312 33.0625 -19.125 C 35.582031 -18.539062 37.46875 -17.128906 38.71875 -14.890625 C 39.96875 -12.648438 40.257812 -9.734375 39.59375 -6.140625 C 39.0625 -3.304688 38.070312 -1.007812 36.625 0.75 C 35.1875 2.519531 33.445312 3.859375 31.40625 4.765625 C 29.375 5.679688 27.140625 6.210938 24.703125 6.359375 C 22.265625 6.515625 19.796875 6.359375 17.296875 5.890625 Z M 34.84375 -40.21875 C 34.59375 -40.15625 34.382812 -39.96875 34.21875 -39.65625 C 34.050781 -39.34375 33.988281 -39.003906 34.03125 -38.640625 C 34.15625 -38.109375 34.410156 -37.5625 34.796875 -37 C 35.179688 -36.445312 35.507812 -35.828125 35.78125 -35.140625 C 35.976562 -34.691406 36.070312 -34.222656 36.0625 -33.734375 C 36.0625 -33.253906 36.097656 -32.8125 36.171875 -32.40625 C 36.242188 -32 36.367188 -31.644531 36.546875 -31.34375 C 36.722656 -31.050781 37.054688 -30.863281 37.546875 -30.78125 C 38.210938 -30.65625 38.742188 -31.039062 39.140625 -31.9375 C 39.535156 -32.84375 39.628906 -33.972656 39.421875 -35.328125 C 39.117188 -37.046875 38.445312 -38.34375 37.40625 -39.21875 C 36.375 -40.101562 35.519531 -40.4375 34.84375 -40.21875 Z M 21.421875 -27.75 C 21.523438 -27.675781 21.769531 -27.601562 22.15625 -27.53125 C 23.925781 -27.195312 25.515625 -27.269531 26.921875 -27.75 C 28.335938 -28.238281 29.164062 -29.125 29.40625 -30.40625 C 29.519531 -31.007812 29.257812 -31.609375 28.625 -32.203125 C 27.988281 -32.804688 26.867188 -33.257812 25.265625 -33.5625 C 24.929688 -33.625 24.539062 -33.695312 24.09375 -33.78125 C 23.65625 -33.863281 23.117188 -33.910156 22.484375 -33.921875 C 22.191406 -32.941406 21.945312 -31.925781 21.75 -30.875 C 21.550781 -29.820312 21.359375 -28.796875 21.171875 -27.796875 Z M 35.390625 -28.421875 C 35.253906 -27.984375 35.234375 -27.554688 35.328125 -27.140625 C 35.421875 -26.734375 35.59375 -26.445312 35.84375 -26.28125 C 36.25 -25.96875 36.691406 -25.9375 37.171875 -26.1875 C 37.648438 -26.445312 37.96875 -26.847656 38.125 -27.390625 C 38.40625 -28.265625 38.210938 -28.90625 37.546875 -29.3125 C 36.535156 -30.082031 35.816406 -29.785156 35.390625 -28.421875 Z M 17.921875 -8.890625 C 17.773438 -8.109375 17.867188 -7.613281 18.203125 -7.40625 C 18.535156 -7.207031 19.335938 -6.988281 20.609375 -6.75 C 24.109375 -6.101562 26.070312 -6.941406 26.5 -9.265625 C 26.75 -10.597656 26.335938 -11.929688 25.265625 -13.265625 C 24.203125 -14.609375 22.15625 -15.625 19.125 -16.3125 Z M 17.921875 -8.890625 "/></g></g></g><g fill="#ff7f38" fill-opacity="1"><g transform="translate(224.768686, 116.447739)"><g><path d="M 6.765625 5.1875 C 4.492188 4.1875 3.316406 2.867188 3.234375 1.234375 C 3.160156 -0.398438 3.757812 -2.664062 5.03125 -5.5625 L 17.015625 -32.890625 C 18.171875 -35.515625 19.148438 -37.601562 19.953125 -39.15625 C 20.753906 -40.71875 21.566406 -41.84375 22.390625 -42.53125 C 23.222656 -43.226562 24.164062 -43.507812 25.21875 -43.375 C 26.269531 -43.25 27.625 -42.828125 29.28125 -42.109375 C 30.363281 -41.628906 31.253906 -41.140625 31.953125 -40.640625 C 32.660156 -40.148438 33.144531 -39.566406 33.40625 -38.890625 C 33.675781 -38.210938 33.726562 -37.414062 33.5625 -36.5 C 33.40625 -35.59375 33.019531 -34.441406 32.40625 -33.046875 C 31.050781 -29.953125 29.691406 -26.8125 28.328125 -23.625 C 26.960938 -20.445312 25.40625 -16.867188 23.65625 -12.890625 C 23.40625 -12.316406 23.082031 -11.625 22.6875 -10.8125 C 22.300781 -10 21.882812 -9.179688 21.4375 -8.359375 C 21 -7.546875 20.53125 -6.785156 20.03125 -6.078125 C 19.53125 -5.367188 19.03125 -4.789062 18.53125 -4.34375 L 27 -2.203125 C 27.894531 -1.984375 28.53125 -1.53125 28.90625 -0.84375 C 29.28125 -0.15625 29.476562 0.65625 29.5 1.59375 C 29.53125 2.53125 29.398438 3.53125 29.109375 4.59375 C 28.816406 5.664062 28.457031 6.691406 28.03125 7.671875 C 27.375 9.171875 26.6875 10.207031 25.96875 10.78125 C 25.257812 11.363281 24.46875 11.664062 23.59375 11.6875 C 22.71875 11.707031 21.796875 11.519531 20.828125 11.125 C 19.859375 10.726562 18.785156 10.273438 17.609375 9.765625 L 15.8125 8.96875 L 12.125 7.53125 L 10.328125 6.75 Z M 29.625 -37.234375 C 29.09375 -37.410156 28.640625 -37.316406 28.265625 -36.953125 C 27.890625 -36.597656 27.554688 -36.160156 27.265625 -35.640625 C 26.984375 -35.117188 26.742188 -34.570312 26.546875 -34 C 26.359375 -33.4375 26.203125 -33.003906 26.078125 -32.703125 C 25.960938 -32.441406 25.796875 -32.066406 25.578125 -31.578125 C 25.359375 -31.085938 25.171875 -30.597656 25.015625 -30.109375 C 24.867188 -29.628906 24.828125 -29.171875 24.890625 -28.734375 C 24.953125 -28.304688 25.160156 -28.015625 25.515625 -27.859375 C 25.941406 -27.671875 26.328125 -27.65625 26.671875 -27.8125 C 27.015625 -27.96875 27.316406 -28.203125 27.578125 -28.515625 C 27.835938 -28.835938 28.0625 -29.1875 28.25 -29.5625 C 28.445312 -29.9375 28.613281 -30.28125 28.75 -30.59375 C 28.863281 -30.851562 29.035156 -31.316406 29.265625 -31.984375 C 29.503906 -32.648438 29.722656 -33.351562 29.921875 -34.09375 C 30.128906 -34.832031 30.226562 -35.515625 30.21875 -36.140625 C 30.207031 -36.765625 30.007812 -37.128906 29.625 -37.234375 Z M 25.546875 -26.1875 C 25.023438 -26.414062 24.503906 -26.363281 23.984375 -26.03125 C 23.472656 -25.695312 23.117188 -25.304688 22.921875 -24.859375 C 22.609375 -24.128906 22.804688 -23.609375 23.515625 -23.296875 C 23.984375 -23.085938 24.457031 -23.078125 24.9375 -23.265625 C 25.414062 -23.453125 25.753906 -23.78125 25.953125 -24.25 C 26.097656 -24.5625 26.15625 -24.921875 26.125 -25.328125 C 26.09375 -25.742188 25.898438 -26.03125 25.546875 -26.1875 Z M 26.109375 -0.1875 C 25.597656 -0.40625 25.179688 -0.429688 24.859375 -0.265625 C 24.546875 -0.0976562 24.375 0.226562 24.34375 0.71875 C 24.351562 0.957031 24.296875 1.328125 24.171875 1.828125 C 24.046875 2.335938 23.921875 2.835938 23.796875 3.328125 C 23.671875 3.828125 23.535156 4.304688 23.390625 4.765625 C 23.253906 5.222656 23.148438 5.53125 23.078125 5.6875 C 22.972656 5.945312 23.007812 6.179688 23.1875 6.390625 C 23.375 6.597656 23.570312 6.742188 23.78125 6.828125 C 24.5 7.148438 25.207031 6.507812 25.90625 4.90625 C 25.957031 4.800781 26.054688 4.503906 26.203125 4.015625 C 26.359375 3.535156 26.484375 3.007812 26.578125 2.4375 C 26.679688 1.863281 26.71875 1.320312 26.6875 0.8125 C 26.664062 0.300781 26.472656 -0.03125 26.109375 -0.1875 Z M 26.109375 -0.1875 "/></g></g></g><g fill="#ff7f38" fill-opacity="1"><g transform="translate(248.405745, 126.136385)"><g><path d="M 5.890625 7.765625 C 3.773438 6.253906 2.707031 4.6875 2.6875 3.0625 C 2.664062 1.445312 3.363281 -0.34375 4.78125 -2.3125 L 22.5 -27.0625 C 23.0625 -27.832031 23.765625 -28.847656 24.609375 -30.109375 C 25.453125 -31.378906 26.382812 -32.566406 27.40625 -33.671875 C 28.4375 -34.773438 29.546875 -35.570312 30.734375 -36.0625 C 31.921875 -36.5625 33.179688 -36.4375 34.515625 -35.6875 C 37.253906 -34.070312 40.03125 -32.445312 42.84375 -30.8125 C 45.664062 -29.1875 48.359375 -27.453125 50.921875 -25.609375 C 51.421875 -25.253906 51.742188 -24.691406 51.890625 -23.921875 C 52.035156 -23.148438 52.066406 -22.34375 51.984375 -21.5 C 51.898438 -20.664062 51.734375 -19.851562 51.484375 -19.0625 C 51.234375 -18.28125 50.960938 -17.679688 50.671875 -17.265625 C 50.242188 -16.671875 49.78125 -16.097656 49.28125 -15.546875 C 48.78125 -15.003906 48.238281 -14.570312 47.65625 -14.25 C 47.082031 -13.9375 46.46875 -13.773438 45.8125 -13.765625 C 45.15625 -13.765625 44.441406 -14 43.671875 -14.46875 L 33.796875 -20.421875 L 31.0625 -15.90625 L 37.796875 -11.078125 C 39.222656 -10.054688 39.851562 -8.894531 39.6875 -7.59375 C 39.519531 -6.300781 38.992188 -5.035156 38.109375 -3.796875 C 37.773438 -3.335938 37.351562 -2.820312 36.84375 -2.25 C 36.332031 -1.6875 35.765625 -1.191406 35.140625 -0.765625 C 34.523438 -0.347656 33.882812 -0.0625 33.21875 0.09375 C 32.5625 0.25 31.910156 0.0976562 31.265625 -0.359375 L 23.765625 -5.734375 L 19.796875 0.671875 L 23.53125 3.328125 C 24.03125 3.691406 24.53125 3.828125 25.03125 3.734375 C 25.539062 3.648438 26.082031 3.519531 26.65625 3.34375 C 27.238281 3.175781 27.832031 3.082031 28.4375 3.0625 C 29.039062 3.039062 29.640625 3.242188 30.234375 3.671875 C 31.691406 4.722656 32.601562 5.96875 32.96875 7.40625 C 33.332031 8.84375 32.972656 10.3125 31.890625 11.8125 C 30.609375 13.601562 29.445312 15.03125 28.40625 16.09375 C 27.375 17.15625 26.296875 17.835938 25.171875 18.140625 C 24.046875 18.453125 22.8125 18.382812 21.46875 17.9375 C 20.125 17.5 18.539062 16.660156 16.71875 15.421875 C 15.644531 14.722656 14.554688 13.976562 13.453125 13.1875 C 12.347656 12.394531 11.269531 11.617188 10.21875 10.859375 Z M 47.265625 -26.03125 C 47.140625 -26.0625 46.960938 -26.035156 46.734375 -25.953125 C 46.515625 -25.878906 46.378906 -25.71875 46.328125 -25.46875 C 46.296875 -24.9375 46.273438 -24.515625 46.265625 -24.203125 C 46.253906 -23.898438 46.234375 -23.628906 46.203125 -23.390625 C 46.066406 -22.710938 45.898438 -22.09375 45.703125 -21.53125 C 45.515625 -20.976562 45.820312 -20.382812 46.625 -19.75 C 47.125 -19.394531 47.679688 -19.378906 48.296875 -19.703125 C 48.921875 -20.023438 49.320312 -20.707031 49.5 -21.75 C 49.664062 -22.945312 49.523438 -23.910156 49.078125 -24.640625 C 48.628906 -25.367188 48.023438 -25.832031 47.265625 -26.03125 Z M 45.359375 -18.578125 C 45.140625 -18.378906 45.003906 -18.144531 44.953125 -17.875 C 44.898438 -17.613281 44.9375 -17.367188 45.0625 -17.140625 C 45.21875 -16.878906 45.472656 -16.757812 45.828125 -16.78125 C 46.191406 -16.800781 46.5 -16.9375 46.75 -17.1875 C 47.132812 -17.726562 47.21875 -18.179688 47 -18.546875 C 46.59375 -19.242188 46.046875 -19.253906 45.359375 -18.578125 Z M 36.671875 -10.234375 C 36.535156 -10.242188 36.394531 -10.21875 36.25 -10.15625 C 36.101562 -10.09375 36.003906 -9.972656 35.953125 -9.796875 C 35.835938 -9.460938 35.753906 -9.210938 35.703125 -9.046875 C 35.648438 -8.878906 35.59375 -8.609375 35.53125 -8.234375 C 35.5 -7.703125 35.335938 -7.207031 35.046875 -6.75 C 34.765625 -6.300781 34.832031 -5.925781 35.25 -5.625 C 35.613281 -5.363281 36.023438 -5.332031 36.484375 -5.53125 C 36.941406 -5.726562 37.304688 -6.210938 37.578125 -6.984375 C 37.835938 -7.835938 37.859375 -8.546875 37.640625 -9.109375 C 37.421875 -9.679688 37.097656 -10.054688 36.671875 -10.234375 Z M 36.671875 -10.234375 "/></g></g></g><g fill="#505050" fill-opacity="0.4"><g transform="translate(157.013437, 177.298067)"><g><path d="M 5.695312 -2.644531 L 8.191406 -4.109375 C 8.609375 -4.347656 8.804688 -4.878906 8.546875 -5.332031 C 6.316406 -9.855469 1.011719 -21.195312 -1.144531 -25.75 L 1.808594 -27.074219 C 2.296875 -27.257812 2.546875 -27.859375 2.3125 -28.367188 C 2.007812 -29.019531 1.640625 -29.910156 1.355469 -30.523438 C 1.289062 -30.671875 1.203125 -30.851562 1.042969 -30.910156 C 0.8125 -30.933594 0.503906 -30.746094 0.320312 -30.664062 L -9.734375 -26.394531 C -10.257812 -26.195312 -10.507812 -25.59375 -10.273438 -25.085938 C -9.953125 -24.394531 -9.6875 -23.726562 -9.367188 -23.035156 C -9.132812 -22.527344 -8.546875 -22.3125 -8.039062 -22.550781 L -5.210938 -23.863281 C -3.019531 -19.234375 2.265625 -7.753906 4.386719 -3.09375 C 4.585938 -2.570312 5.203125 -2.371094 5.695312 -2.644531 Z M 5.695312 -2.644531 "/></g></g></g><g fill="#505050" fill-opacity="0.4"><g transform="translate(172.465508, 170.74548)"><g><path d="M 4.078125 -0.816406 C 5.398438 -1.144531 6.492188 -2.328125 6.113281 -4.046875 C 5.71875 -5.84375 4.121094 -6.394531 2.714844 -6.085938 C 2.207031 -5.972656 1.734375 -5.707031 1.355469 -5.375 C 0.738281 -4.832031 0.363281 -3.929688 0.605469 -2.835938 C 1.007812 -1 2.652344 -0.417969 4.078125 -0.816406 Z M 4.078125 -0.816406 "/></g></g></g><g fill="#505050" fill-opacity="0.4"><g transform="translate(181.852136, 168.485681)"><g><path d="M 12.558594 0.0195312 C 13.078125 0.0585938 13.558594 -0.382812 13.558594 -0.941406 C 13.554688 -1.664062 13.59375 -2.621094 13.59375 -3.300781 C 13.59375 -3.460938 13.59375 -3.664062 13.472656 -3.78125 C 13.273438 -3.902344 12.914062 -3.863281 12.710938 -3.859375 L 10.191406 -3.976562 L 10.113281 -3.976562 L 5.992188 -4.089844 L 5.894531 -15.25 L 12.453125 -15.21875 C 12.972656 -15.179688 13.453125 -15.621094 13.453125 -16.179688 C 13.449219 -18.382812 13.726562 -19.101562 12.605469 -19.101562 L 5.847656 -19.367188 L 5.800781 -23.886719 L 12.199219 -24.21875 C 12.71875 -24.179688 13.117188 -24.660156 13.117188 -25.179688 C 13.117188 -25.941406 13.035156 -26.859375 13.03125 -27.539062 C 13.03125 -27.699219 12.992188 -27.898438 12.871094 -28.019531 C 12.671875 -28.140625 12.3125 -28.097656 12.113281 -28.097656 L 2.074219 -27.921875 C 1.554688 -27.882812 1.152344 -27.480469 1.15625 -26.960938 C 1.167969 -18.320312 1.34375 -9.5625 1.277344 -0.960938 C 1.238281 -0.402344 1.71875 0.0390625 2.28125 -0.00390625 Z M 12.558594 0.0195312 "/></g></g></g><g fill="#505050" fill-opacity="0.4"><g transform="translate(198.187629, 168.98689)"><g><path d="M 4.046875 0.957031 C 5.386719 1.207031 6.871094 0.585938 7.242188 -1.132812 C 7.632812 -2.933594 6.410156 -4.097656 5.003906 -4.402344 C 4.496094 -4.511719 3.953125 -4.464844 3.472656 -4.324219 C 2.683594 -4.085938 1.96875 -3.421875 1.730469 -2.328125 C 1.332031 -0.488281 2.585938 0.722656 4.046875 0.957031 Z M 4.046875 0.957031 "/></g></g></g><g fill="#505050" fill-opacity="0.4"><g transform="translate(207.627149, 170.783029)"><g><path d="M 4.617188 2.308594 C 5.015625 2.492188 5.492188 2.316406 5.660156 1.867188 C 6.449219 0.25 7.539062 -2.199219 8.476562 -4.234375 L 12.304688 -12.421875 L 15.71875 -10.847656 L 9.652344 1.992188 L 9.132812 3.117188 C 8.878906 3.574219 9.058594 4.140625 9.460938 4.414062 L 12.074219 5.621094 C 12.617188 5.875 13.203125 5.660156 13.402344 5.132812 C 15.863281 -0.292969 19.941406 -9.117188 22.574219 -14.816406 C 22.84375 -15.398438 23.554688 -16.742188 23.429688 -18.386719 C 23.238281 -21.117188 19.886719 -24.164062 15.09375 -23.605469 C 12.292969 -23.269531 11.007812 -20.867188 9.933594 -18.542969 L 1.40625 -0.1875 C 1.222656 0.210938 1.398438 0.691406 1.796875 0.875 Z M 17.414062 -14.425781 L 14.015625 -16.128906 L 14.886719 -18.015625 C 15.726562 -19.832031 17.550781 -19.867188 18.390625 -18.25 C 18.789062 -17.492188 18.386719 -16.53125 18.050781 -15.804688 Z M 17.414062 -14.425781 "/></g></g></g><g fill="#5d6698" fill-opacity="1"><g transform="translate(155.245662, 175.530295)"><g><path d="M 5.695312 -2.644531 L 8.191406 -4.109375 C 8.609375 -4.347656 8.804688 -4.878906 8.546875 -5.332031 C 6.316406 -9.855469 1.011719 -21.195312 -1.144531 -25.75 L 1.808594 -27.074219 C 2.296875 -27.257812 2.546875 -27.859375 2.3125 -28.367188 C 2.007812 -29.019531 1.640625 -29.910156 1.355469 -30.523438 C 1.289062 -30.671875 1.203125 -30.851562 1.042969 -30.910156 C 0.8125 -30.933594 0.503906 -30.746094 0.320312 -30.664062 L -9.734375 -26.394531 C -10.257812 -26.195312 -10.507812 -25.59375 -10.273438 -25.085938 C -9.953125 -24.394531 -9.6875 -23.726562 -9.367188 -23.035156 C -9.132812 -22.527344 -8.546875 -22.3125 -8.039062 -22.550781 L -5.210938 -23.863281 C -3.019531 -19.234375 2.265625 -7.753906 4.386719 -3.09375 C 4.585938 -2.570312 5.203125 -2.371094 5.695312 -2.644531 Z M 5.695312 -2.644531 "/></g></g></g><g fill="#5d6698" fill-opacity="1"><g transform="translate(170.697733, 168.977705)"><g><path d="M 4.078125 -0.816406 C 5.398438 -1.144531 6.492188 -2.328125 6.113281 -4.046875 C 5.71875 -5.84375 4.121094 -6.394531 2.714844 -6.085938 C 2.207031 -5.972656 1.734375 -5.707031 1.355469 -5.375 C 0.738281 -4.832031 0.363281 -3.929688 0.605469 -2.835938 C 1.007812 -1 2.652344 -0.417969 4.078125 -0.816406 Z M 4.078125 -0.816406 "/></g></g></g><g fill="#5d6698" fill-opacity="1"><g transform="translate(180.084363, 166.717906)"><g><path d="M 12.558594 0.0195312 C 13.078125 0.0585938 13.558594 -0.382812 13.558594 -0.941406 C 13.554688 -1.664062 13.59375 -2.621094 13.59375 -3.300781 C 13.59375 -3.460938 13.59375 -3.664062 13.472656 -3.78125 C 13.273438 -3.902344 12.914062 -3.863281 12.710938 -3.859375 L 10.191406 -3.976562 L 10.113281 -3.976562 L 5.992188 -4.089844 L 5.894531 -15.25 L 12.453125 -15.21875 C 12.972656 -15.179688 13.453125 -15.621094 13.453125 -16.179688 C 13.449219 -18.382812 13.726562 -19.101562 12.605469 -19.101562 L 5.847656 -19.367188 L 5.800781 -23.886719 L 12.199219 -24.21875 C 12.71875 -24.179688 13.117188 -24.660156 13.117188 -25.179688 C 13.117188 -25.941406 13.035156 -26.859375 13.03125 -27.539062 C 13.03125 -27.699219 12.992188 -27.898438 12.871094 -28.019531 C 12.671875 -28.140625 12.3125 -28.097656 12.113281 -28.097656 L 2.074219 -27.921875 C 1.554688 -27.882812 1.152344 -27.480469 1.15625 -26.960938 C 1.167969 -18.320312 1.34375 -9.5625 1.277344 -0.960938 C 1.238281 -0.402344 1.71875 0.0390625 2.28125 -0.00390625 Z M 12.558594 0.0195312 "/></g></g></g><g fill="#5d6698" fill-opacity="1"><g transform="translate(196.419856, 167.219117)"><g><path d="M 4.046875 0.957031 C 5.386719 1.207031 6.871094 0.585938 7.242188 -1.132812 C 7.632812 -2.933594 6.410156 -4.097656 5.003906 -4.402344 C 4.496094 -4.511719 3.953125 -4.464844 3.472656 -4.324219 C 2.683594 -4.085938 1.96875 -3.421875 1.730469 -2.328125 C 1.332031 -0.488281 2.585938 0.722656 4.046875 0.957031 Z M 4.046875 0.957031 "/></g></g></g><g fill="#5d6698" fill-opacity="1"><g transform="translate(205.859377, 169.015271)"><g><path d="M 4.617188 2.308594 C 5.015625 2.492188 5.492188 2.316406 5.660156 1.867188 C 6.449219 0.25 7.539062 -2.199219 8.476562 -4.234375 L 12.304688 -12.421875 L 15.71875 -10.847656 L 9.652344 1.992188 L 9.132812 3.117188 C 8.878906 3.574219 9.058594 4.140625 9.460938 4.414062 L 12.074219 5.621094 C 12.617188 5.875 13.203125 5.660156 13.402344 5.132812 C 15.863281 -0.292969 19.941406 -9.117188 22.574219 -14.816406 C 22.84375 -15.398438 23.554688 -16.742188 23.429688 -18.386719 C 23.238281 -21.117188 19.886719 -24.164062 15.09375 -23.605469 C 12.292969 -23.269531 11.007812 -20.867188 9.933594 -18.542969 L 1.40625 -0.1875 C 1.222656 0.210938 1.398438 0.691406 1.796875 0.875 Z M 17.414062 -14.425781 L 14.015625 -16.128906 L 14.886719 -18.015625 C 15.726562 -19.832031 17.550781 -19.867188 18.390625 -18.25 C 18.789062 -17.492188 18.386719 -16.53125 18.050781 -15.804688 Z M 17.414062 -14.425781 "/></g></g></g></svg>