<?xml version="1.0" encoding="UTF-8" standalone="no"?>
<!-- Created with Inkscape (http://www.inkscape.org/) -->

<svg
   width="210mm"
   height="297mm"
   viewBox="0 0 210 297"
   version="1.1"
   id="svg13955"
   inkscape:version="1.2.2 (732a01da63, 2022-12-09)"
   sodipodi:docname="nivelFacil.svg"
   xmlns:inkscape="http://www.inkscape.org/namespaces/inkscape"
   xmlns:sodipodi="http://sodipodi.sourceforge.net/DTD/sodipodi-0.dtd"
   xmlns="http://www.w3.org/2000/svg"
   xmlns:svg="http://www.w3.org/2000/svg">
  <sodipodi:namedview
     id="namedview13957"
     pagecolor="#ffffff"
     bordercolor="#999999"
     borderopacity="1"
     inkscape:showpageshadow="0"
     inkscape:pageopacity="0"
     inkscape:pagecheckerboard="0"
     inkscape:deskcolor="#d1d1d1"
     inkscape:document-units="mm"
     showgrid="false"
     inkscape:zoom="0.72693712"
     inkscape:cx="321.89854"
     inkscape:cy="459.46202"
     inkscape:window-width="1366"
     inkscape:window-height="705"
     inkscape:window-x="-8"
     inkscape:window-y="-8"
     inkscape:window-maximized="1"
     inkscape:current-layer="g17280" />
  <defs
     id="defs13952" />
  <g
     inkscape:label="Camada 1"
     inkscape:groupmode="layer"
     id="layer1">
    <g
       id="g12444"
       inkscape:label="estrela"
       transform="matrix(4.5534478,0,0,4.5534478,-74.713468,-473.30987)"
       inkscape:export-filename="estrela.png"
       inkscape:export-xdpi="96"
       inkscape:export-ydpi="96">
      <path
         style="fill:#d35f8d;fill-opacity:1;fill-rule:evenodd;stroke:none;stroke-width:0.100389"
         d="m 49.793536,133.01943 c -0.812959,3.81409 5.298645,9.32656 2.704488,11.38314 -2.550723,2.08524 -9.05168,-5.18757 -12.116245,-4.65421 -4.476727,0.16761 -8.414126,6.58283 -12.155718,5.68945 -3.799816,-1.9693 3.843568,-9.34652 0.943023,-12.85798 -3.171365,-2.41145 -6.88843,-3.65495 -8.190063,-5.39784 -2.359418,-6.9087 12.522882,0.89296 15.085352,-11.80507 1.442169,-6.04363 6.34766,-6.25445 6.932583,-0.63768 1.147047,11.01467 11.95788,6.99692 13.960992,8.90202 2.90131,4.12072 -6.345949,5.53825 -7.164412,9.37817 z"
         id="path1256"
         sodipodi:nodetypes="accccccsca" />
      <path
         style="fill:#e9afc6;fill-rule:evenodd;stroke-width:0.0359055"
         id="path1368"
         sodipodi:type="arc"
         sodipodi:cx="-0.18944819"
         sodipodi:cy="128.19882"
         sodipodi:rx="0.59165078"
         sodipodi:ry="0.58350438"
         sodipodi:start="0.57441444"
         sodipodi:end="0.54543906"
         sodipodi:open="true"
         sodipodi:arc-type="arc"
         d="m 0.30724892,128.51587 a 0.59165078,0.58350438 0 0 1 -0.8145602,0.17509 0.59165078,0.58350438 0 0 1 -0.18343908,-0.80205 0.59165078,0.58350438 0 0 1 0.81190261,-0.18672 0.59165078,0.58350438 0 0 1 0.19520157,0.79935"
         transform="matrix(0.97815314,-0.20788565,0.1779287,0.98404338,0,0)" />
      <path
         style="fill:#e9afc6;fill-rule:evenodd;stroke-width:0.0359055"
         id="path1373"
         sodipodi:type="arc"
         sodipodi:cx="3.2289808"
         sodipodi:cy="129.70906"
         sodipodi:rx="1.2490405"
         sodipodi:ry="1.2699801"
         sodipodi:start="0.57441444"
         sodipodi:end="0.54543906"
         sodipodi:open="true"
         sodipodi:arc-type="arc"
         d="m 4.2775635,130.3991 a 1.2490405,1.2699801 0 0 1 -1.719627,0.38109 1.2490405,1.2699801 0 0 1 -0.3872603,-1.74565 1.2490405,1.2699801 0 0 1 1.7140166,-0.40638 1.2490405,1.2699801 0 0 1 0.4120922,1.73976"
         transform="matrix(0.97815314,-0.20788565,0.1779287,0.98404338,0,0)" />
      <path
         style="fill:#e9afc6;fill-rule:evenodd;stroke-width:0.0359055"
         id="path1375"
         sodipodi:type="arc"
         sodipodi:cx="7.436275"
         sodipodi:cy="131.01337"
         sodipodi:rx="1.5777353"
         sodipodi:ry="1.6132181"
         sodipodi:start="0.57441444"
         sodipodi:end="0.54543906"
         sodipodi:open="true"
         sodipodi:arc-type="arc"
         d="m 8.7608005,131.8899 a 1.5777353,1.6132181 0 0 1 -2.1721603,0.48409 1.5777353,1.6132181 0 0 1 -0.4891709,-2.21744 1.5777353,1.6132181 0 0 1 2.1650735,-0.51622 1.5777353,1.6132181 0 0 1 0.5205375,2.20996"
         transform="matrix(0.97815314,-0.20788565,0.1779287,0.98404338,0,0)" />
      <path
         style="fill:#e9afc6;fill-rule:evenodd;stroke-width:0.0379441"
         id="path1377"
         sodipodi:type="arc"
         sodipodi:cx="119.86083"
         sodipodi:cy="1.8595352"
         sodipodi:rx="0.63357514"
         sodipodi:ry="0.60848141"
         sodipodi:start="0.57441444"
         sodipodi:end="0.54543906"
         sodipodi:open="true"
         sodipodi:arc-type="arc"
         d="m 120.39273,2.1901495 a 0.63357514,0.60848141 0 0 1 -0.87228,0.1825938 0.63357514,0.60848141 0 0 1 -0.19644,-0.8363872 0.63357514,0.60848141 0 0 1 0.86943,-0.1947111 0.63357514,0.60848141 0 0 1 0.20904,0.8335664"
         transform="matrix(0.34141896,0.93991122,-0.94447713,0.32857717,0,0)" />
      <path
         style="fill:#e9afc6;fill-rule:evenodd;stroke-width:0.0379441"
         id="path1379"
         sodipodi:type="arc"
         sodipodi:cx="123.52148"
         sodipodi:cy="3.4344287"
         sodipodi:rx="1.3375474"
         sodipodi:ry="1.324342"
         sodipodi:start="0.57441444"
         sodipodi:end="0.54543906"
         sodipodi:open="true"
         sodipodi:arc-type="arc"
         d="m 124.64436,4.1540011 a 1.3375474,1.324342 0 0 1 -1.84148,0.39741 1.3375474,1.324342 0 0 1 -0.4147,-1.8203724 1.3375474,1.324342 0 0 1 1.83547,-0.4237828 1.3375474,1.324342 0 0 1 0.4413,1.8142328"
         transform="matrix(0.34141896,0.93991122,-0.94447713,0.32857717,0,0)" />
      <path
         style="fill:#e9afc6;fill-rule:evenodd;stroke-width:0.0379441"
         id="path1381"
         sodipodi:type="arc"
         sodipodi:cx="128.02692"
         sodipodi:cy="4.7945657"
         sodipodi:rx="1.6895335"
         sodipodi:ry="1.6822724"
         sodipodi:start="0.57441444"
         sodipodi:end="0.54543906"
         sodipodi:open="true"
         sodipodi:arc-type="arc"
         d="m 129.4453,5.7086171 a 1.6895335,1.6822724 0 0 1 -2.32608,0.5048183 1.6895335,1.6822724 0 0 1 -0.52384,-2.3123652 1.6895335,1.6822724 0 0 1 2.3185,-0.5383188 1.6895335,1.6822724 0 0 1 0.55742,2.3045663"
         transform="matrix(0.34141896,0.93991122,-0.94447713,0.32857717,0,0)" />
      <path
         style="fill:#e9afc6;fill-rule:evenodd;stroke-width:0.034519"
         id="path1383"
         sodipodi:type="arc"
         sodipodi:cx="35.031223"
         sodipodi:cy="-132.80112"
         sodipodi:rx="0.58185816"
         sodipodi:ry="0.54834652"
         sodipodi:start="0.57441444"
         sodipodi:end="0.54543906"
         sodipodi:open="true"
         sodipodi:arc-type="arc"
         d="m 35.519699,-132.50318 a 0.58185816,0.54834652 0 0 1 -0.801078,0.16455 0.58185816,0.54834652 0 0 1 -0.180403,-0.75373 0.58185816,0.54834652 0 0 1 0.798465,-0.17547 0.58185816,0.54834652 0 0 1 0.191971,0.75119"
         transform="matrix(-0.78360513,0.6212592,-0.62878514,-0.77757909,0,0)" />
      <path
         style="fill:#e9afc6;fill-rule:evenodd;stroke-width:0.034519"
         id="path1385"
         sodipodi:type="arc"
         sodipodi:cx="38.393066"
         sodipodi:cy="-131.38187"
         sodipodi:rx="1.2283672"
         sodipodi:ry="1.1934602"
         sodipodi:start="0.57441444"
         sodipodi:end="0.54543906"
         sodipodi:open="true"
         sodipodi:arc-type="arc"
         d="m 39.424294,-130.73341 a 1.2283672,1.1934602 0 0 1 -1.691165,0.35814 1.2283672,1.1934602 0 0 1 -0.380851,-1.64047 1.2283672,1.1934602 0 0 1 1.685648,-0.3819 1.2283672,1.1934602 0 0 1 0.405271,1.63493"
         transform="matrix(-0.78360513,0.6212592,-0.62878514,-0.77757909,0,0)" />
      <path
         style="fill:#e9afc6;fill-rule:evenodd;stroke-width:0.034519"
         id="path1387"
         sodipodi:type="arc"
         sodipodi:cx="42.530724"
         sodipodi:cy="-130.15614"
         sodipodi:rx="1.5516216"
         sodipodi:ry="1.5160172"
         sodipodi:start="0.57441444"
         sodipodi:end="0.54543906"
         sodipodi:open="true"
         sodipodi:arc-type="arc"
         d="m 43.833326,-129.33243 a 1.5516216,1.5160172 0 0 1 -2.136208,0.45493 1.5516216,1.5160172 0 0 1 -0.481074,-2.08384 1.5516216,1.5160172 0 0 1 2.129238,-0.48511 1.5516216,1.5160172 0 0 1 0.511922,2.07681"
         transform="matrix(-0.78360513,0.6212592,-0.62878514,-0.77757909,0,0)" />
      <path
         style="fill:#e9afc6;fill-rule:evenodd;stroke-width:0.037945"
         id="path1406"
         sodipodi:type="arc"
         sodipodi:cx="-117.82883"
         sodipodi:cy="88.759857"
         sodipodi:rx="0.63456976"
         sodipodi:ry="0.60755622"
         sodipodi:start="0.57441444"
         sodipodi:end="0.54543906"
         sodipodi:open="true"
         sodipodi:arc-type="arc"
         d="m -117.2961,89.089969 a 0.63456976,0.60755622 0 0 1 -0.87365,0.182316 0.63456976,0.60755622 0 0 1 -0.19674,-0.835116 0.63456976,0.60755622 0 0 1 0.87079,-0.194415 0.63456976,0.60755622 0 0 1 0.20937,0.832299"
         transform="matrix(0.43624714,-0.89982689,0.90699658,0.42113799,0,0)" />
      <path
         style="fill:#e9afc6;fill-rule:evenodd;stroke-width:0.037945"
         id="path1408"
         sodipodi:type="arc"
         sodipodi:cx="-114.16242"
         sodipodi:cy="90.332359"
         sodipodi:rx="1.3396472"
         sodipodi:ry="1.3223284"
         sodipodi:start="0.57441444"
         sodipodi:end="0.54543906"
         sodipodi:open="true"
         sodipodi:arc-type="arc"
         d="m -113.03777,91.050838 a 1.3396472,1.3223284 0 0 1 -1.84437,0.396805 1.3396472,1.3223284 0 0 1 -0.41536,-1.817604 1.3396472,1.3223284 0 0 1 1.83836,-0.423139 1.3396472,1.3223284 0 0 1 0.44198,1.811475"
         transform="matrix(0.43624714,-0.89982689,0.90699658,0.42113799,0,0)" />
      <path
         style="fill:#e9afc6;fill-rule:evenodd;stroke-width:0.037945"
         id="path1410"
         sodipodi:type="arc"
         sodipodi:cx="-109.64993"
         sodipodi:cy="91.69043"
         sodipodi:rx="1.6921859"
         sodipodi:ry="1.6797146"
         sodipodi:start="0.57441444"
         sodipodi:end="0.54543906"
         sodipodi:open="true"
         sodipodi:arc-type="arc"
         d="m -108.22932,92.603091 a 1.6921859,1.6797146 0 0 1 -2.32974,0.504051 1.6921859,1.6797146 0 0 1 -0.52465,-2.308849 1.6921859,1.6797146 0 0 1 2.32213,-0.537501 1.6921859,1.6797146 0 0 1 0.5583,2.301063"
         transform="matrix(0.43624714,-0.89982689,0.90699658,0.42113799,0,0)" />
      <path
         style="fill:#000000;fill-opacity:1;fill-rule:evenodd;stroke:none;stroke-width:0.044665;stroke-opacity:1"
         id="path1412"
         sodipodi:type="arc"
         sodipodi:cx="35.247196"
         sodipodi:cy="128.45726"
         sodipodi:rx="1.7088695"
         sodipodi:ry="2.2326198"
         sodipodi:start="0.57441444"
         sodipodi:end="0.54543906"
         sodipodi:open="true"
         sodipodi:arc-type="arc"
         d="m 36.68181,129.67034 a 1.7088695,2.2326198 0 0 1 -2.3527,0.66997 1.7088695,2.2326198 0 0 1 -0.529829,-3.06885 1.7088695,2.2326198 0 0 1 2.345025,-0.71443 1.7088695,2.2326198 0 0 1 0.563802,3.0585" />
      <path
         style="fill:#f9f9f9;fill-opacity:1;fill-rule:evenodd;stroke:none;stroke-width:0.0190276;stroke-opacity:1"
         id="path1414"
         sodipodi:type="arc"
         sodipodi:cx="35.747673"
         sodipodi:cy="127.44283"
         sodipodi:rx="0.66456026"
         sodipodi:ry="1.0418893"
         sodipodi:start="0.57441444"
         sodipodi:end="0.54543906"
         sodipodi:open="true"
         sodipodi:arc-type="arc"
         d="m 36.305578,128.00894 a 0.66456026,1.0418893 0 0 1 -0.914939,0.31265 0.66456026,1.0418893 0 0 1 -0.206044,-1.43213 0.66456026,1.0418893 0 0 1 0.911954,-0.3334 0.66456026,1.0418893 0 0 1 0.219256,1.4273" />
      <path
         style="fill:#000000;fill-opacity:1;fill-rule:evenodd;stroke:none;stroke-width:0.044665;stroke-opacity:1"
         id="path1427"
         sodipodi:type="arc"
         sodipodi:cx="42.996887"
         sodipodi:cy="128.73814"
         sodipodi:rx="1.7088695"
         sodipodi:ry="2.2326198"
         sodipodi:start="0.57441444"
         sodipodi:end="0.54543906"
         sodipodi:open="true"
         sodipodi:arc-type="arc"
         d="m 44.431501,129.95122 a 1.7088695,2.2326198 0 0 1 -2.3527,0.66997 1.7088695,2.2326198 0 0 1 -0.529829,-3.06884 1.7088695,2.2326198 0 0 1 2.345025,-0.71443 1.7088695,2.2326198 0 0 1 0.563802,3.05849" />
      <path
         style="fill:#f9f9f9;fill-opacity:1;fill-rule:evenodd;stroke:none;stroke-width:0.0190276;stroke-opacity:1"
         id="path1429"
         sodipodi:type="arc"
         sodipodi:cx="42.421024"
         sodipodi:cy="127.79395"
         sodipodi:rx="0.66456026"
         sodipodi:ry="1.0418893"
         sodipodi:start="0.57441444"
         sodipodi:end="0.54543906"
         sodipodi:open="true"
         sodipodi:arc-type="arc"
         d="m 42.97893,128.36006 a 0.66456026,1.0418893 0 0 1 -0.914939,0.31265 0.66456026,1.0418893 0 0 1 -0.206045,-1.43213 0.66456026,1.0418893 0 0 1 0.911954,-0.3334 0.66456026,1.0418893 0 0 1 0.219257,1.4273" />
      <path
         style="fill:#000000;fill-opacity:1;fill-rule:evenodd;stroke:none;stroke-width:0.0735405"
         d="m 41.667495,132.83156 c 0.134796,-0.36021 -0.269604,-0.55669 -0.457764,-0.24561 -0.292078,0.48301 -0.367908,0.75318 -0.960476,1.1243 -0.199392,0.12552 -0.488663,0.23195 -0.766693,0.27561 -0.651546,0.10098 -1.249726,-0.11188 -1.640098,-0.40659 -0.550445,-0.41207 -0.634694,-0.76681 -0.718946,-0.85141 -0.101102,-0.10371 -0.31454,0.006 -0.359475,0.0846 -0.317348,0.57578 1.870385,2.69339 3.990721,1.17887 0.303308,-0.21558 0.752657,-0.72315 0.912731,-1.15976 z"
         id="path1431" />
      <path
         style="fill:#e9afc6;fill-rule:evenodd;stroke-width:0.037945"
         id="path1047"
         sodipodi:type="arc"
         sodipodi:cx="-151.16101"
         sodipodi:cy="16.243172"
         sodipodi:rx="0.63456976"
         sodipodi:ry="0.60755622"
         sodipodi:start="0.57441444"
         sodipodi:end="0.54543906"
         sodipodi:open="true"
         sodipodi:arc-type="arc"
         d="m -150.62828,16.573283 a 0.63456976,0.60755622 0 0 1 -0.87365,0.182316 0.63456976,0.60755622 0 0 1 -0.19675,-0.835115 0.63456976,0.60755622 0 0 1 0.8708,-0.194415 0.63456976,0.60755622 0 0 1 0.20936,0.832299"
         transform="matrix(-0.43624714,-0.89982689,-0.90699658,0.42113799,0,0)" />
      <path
         style="fill:#e9afc6;fill-rule:evenodd;stroke-width:0.037945"
         id="path1049"
         sodipodi:type="arc"
         sodipodi:cx="-147.49458"
         sodipodi:cy="17.815674"
         sodipodi:rx="1.3396472"
         sodipodi:ry="1.3223284"
         sodipodi:start="0.57441444"
         sodipodi:end="0.54543906"
         sodipodi:open="true"
         sodipodi:arc-type="arc"
         d="m -146.36994,18.534152 a 1.3396472,1.3223284 0 0 1 -1.84437,0.396806 1.3396472,1.3223284 0 0 1 -0.41535,-1.817605 1.3396472,1.3223284 0 0 1 1.83835,-0.423138 1.3396472,1.3223284 0 0 1 0.44199,1.811474"
         transform="matrix(-0.43624714,-0.89982689,-0.90699658,0.42113799,0,0)" />
      <path
         style="fill:#e9afc6;fill-rule:evenodd;stroke-width:0.037945"
         id="path1051"
         sodipodi:type="arc"
         sodipodi:cx="-142.98209"
         sodipodi:cy="19.173742"
         sodipodi:rx="1.6921859"
         sodipodi:ry="1.6797146"
         sodipodi:start="0.57441444"
         sodipodi:end="0.54543906"
         sodipodi:open="true"
         sodipodi:arc-type="arc"
         d="m -141.56148,20.086404 a 1.6921859,1.6797146 0 0 1 -2.32973,0.504051 1.6921859,1.6797146 0 0 1 -0.52466,-2.30885 1.6921859,1.6797146 0 0 1 2.32214,-0.5375 1.6921859,1.6797146 0 0 1 0.55829,2.301062"
         transform="matrix(-0.43624714,-0.89982689,-0.90699658,0.42113799,0,0)" />
    </g>
    <g
       id="g17280"
       inkscape:label="pontosEstrela"
       inkscape:export-filename="pontosEstrela.png"
       inkscape:export-xdpi="96"
       inkscape:export-ydpi="96">
      <path
         style="fill:#000000;fill-opacity:1;stroke:none;stroke-width:1.09601;stroke-linecap:round;stroke-linejoin:round;stroke-opacity:1"
         id="path13731"
         sodipodi:type="arc"
         sodipodi:cx="51.417503"
         sodipodi:cy="187.05527"
         sodipodi:rx="2.0181508"
         sodipodi:ry="2.3286357"
         sodipodi:start="0.57441444"
         sodipodi:end="0.54543906"
         sodipodi:open="true"
         sodipodi:arc-type="arc"
         d="m 53.111762,188.32052 a 2.0181508,2.3286357 0 0 1 -2.778506,0.69878 2.0181508,2.3286357 0 0 1 -0.62572,-3.20083 2.0181508,2.3286357 0 0 1 2.769441,-0.74515 2.0181508,2.3286357 0 0 1 0.665843,3.19003" />
      <path
         style="fill:#000000;fill-opacity:1;stroke:none;stroke-width:1.09601;stroke-linecap:round;stroke-linejoin:round;stroke-opacity:1"
         id="path17252"
         sodipodi:type="arc"
         sodipodi:cx="107.46889"
         sodipodi:cy="163.03325"
         sodipodi:rx="2.0181508"
         sodipodi:ry="2.3286357"
         sodipodi:start="0.57441444"
         sodipodi:end="0.54543906"
         sodipodi:open="true"
         sodipodi:arc-type="arc"
         d="m 109.16315,164.2985 a 2.0181508,2.3286357 0 0 1 -2.77851,0.69878 2.0181508,2.3286357 0 0 1 -0.62572,-3.20083 2.0181508,2.3286357 0 0 1 2.76944,-0.74515 2.0181508,2.3286357 0 0 1 0.66584,3.19003" />
      <path
         style="fill:#000000;fill-opacity:1;stroke:none;stroke-width:1.09601;stroke-linecap:round;stroke-linejoin:round;stroke-opacity:1"
         id="path17254"
         sodipodi:type="arc"
         sodipodi:cx="164.24821"
         sodipodi:cy="185.96336"
         sodipodi:rx="2.0181508"
         sodipodi:ry="2.3286357"
         sodipodi:start="0.57441444"
         sodipodi:end="0.54543906"
         sodipodi:open="true"
         sodipodi:arc-type="arc"
         d="m 165.94247,187.22861 a 2.0181508,2.3286357 0 0 1 -2.7785,0.69878 2.0181508,2.3286357 0 0 1 -0.62572,-3.20082 2.0181508,2.3286357 0 0 1 2.76944,-0.74515 2.0181508,2.3286357 0 0 1 0.66584,3.19002" />
      <path
         style="fill:#000000;fill-opacity:1;stroke:none;stroke-width:1.09601;stroke-linecap:round;stroke-linejoin:round;stroke-opacity:1"
         id="path17256"
         sodipodi:type="arc"
         sodipodi:cx="152.96513"
         sodipodi:cy="131.36786"
         sodipodi:rx="2.0181508"
         sodipodi:ry="2.3286357"
         sodipodi:start="0.57441444"
         sodipodi:end="0.54543906"
         sodipodi:open="true"
         sodipodi:arc-type="arc"
         d="m 154.65939,132.63311 a 2.0181508,2.3286357 0 0 1 -2.7785,0.69878 2.0181508,2.3286357 0 0 1 -0.62572,-3.20083 2.0181508,2.3286357 0 0 1 2.76944,-0.74515 2.0181508,2.3286357 0 0 1 0.66584,3.19003" />
      <path
         style="fill:#000000;fill-opacity:1;stroke:none;stroke-width:1.09601;stroke-linecap:round;stroke-linejoin:round;stroke-opacity:1"
         id="path17258"
         sodipodi:type="arc"
         sodipodi:cx="187.17833"
         sodipodi:cy="94.970856"
         sodipodi:rx="2.0181508"
         sodipodi:ry="2.3286357"
         sodipodi:start="0.57441444"
         sodipodi:end="0.54543906"
         sodipodi:open="true"
         sodipodi:arc-type="arc"
         d="m 188.87259,96.236104 a 2.0181508,2.3286357 0 0 1 -2.77851,0.69878 2.0181508,2.3286357 0 0 1 -0.62572,-3.200823 2.0181508,2.3286357 0 0 1 2.76944,-0.745152 2.0181508,2.3286357 0 0 1 0.66585,3.190028" />
      <path
         style="fill:#000000;fill-opacity:1;stroke:none;stroke-width:1.09601;stroke-linecap:round;stroke-linejoin:round;stroke-opacity:1"
         id="path17260"
         sodipodi:type="arc"
         sodipodi:cx="138.40634"
         sodipodi:cy="80.04808"
         sodipodi:rx="2.0181508"
         sodipodi:ry="2.3286357"
         sodipodi:start="0.57441444"
         sodipodi:end="0.54543906"
         sodipodi:open="true"
         sodipodi:arc-type="arc"
         d="m 140.1006,81.313329 a 2.0181508,2.3286357 0 0 1 -2.77851,0.69878 2.0181508,2.3286357 0 0 1 -0.62572,-3.200823 2.0181508,2.3286357 0 0 1 2.76945,-0.745152 2.0181508,2.3286357 0 0 1 0.66584,3.190027" />
      <path
         style="fill:#000000;fill-opacity:1;stroke:none;stroke-width:1.09601;stroke-linecap:round;stroke-linejoin:round;stroke-opacity:1"
         id="path17262"
         sodipodi:type="arc"
         sodipodi:cx="107.83286"
         sodipodi:cy="29.092274"
         sodipodi:rx="2.0181508"
         sodipodi:ry="2.3286357"
         sodipodi:start="0.57441444"
         sodipodi:end="0.54543906"
         sodipodi:open="true"
         sodipodi:arc-type="arc"
         d="m 109.52712,30.357522 a 2.0181508,2.3286357 0 0 1 -2.7785,0.69878 2.0181508,2.3286357 0 0 1 -0.62572,-3.200823 2.0181508,2.3286357 0 0 1 2.76944,-0.745152 2.0181508,2.3286357 0 0 1 0.66584,3.190028" />
      <path
         style="fill:#000000;fill-opacity:1;stroke:none;stroke-width:1.09601;stroke-linecap:round;stroke-linejoin:round;stroke-opacity:1"
         id="path17264"
         sodipodi:type="arc"
         sodipodi:cx="76.167473"
         sodipodi:cy="77.136322"
         sodipodi:rx="2.0181508"
         sodipodi:ry="2.3286357"
         sodipodi:start="0.57441444"
         sodipodi:end="0.54543906"
         sodipodi:open="true"
         sodipodi:arc-type="arc"
         d="m 77.861732,78.401571 a 2.0181508,2.3286357 0 0 1 -2.778506,0.698779 2.0181508,2.3286357 0 0 1 -0.62572,-3.200823 2.0181508,2.3286357 0 0 1 2.769441,-0.745151 2.0181508,2.3286357 0 0 1 0.665842,3.190027" />
      <path
         style="fill:#000000;fill-opacity:1;stroke:none;stroke-width:1.09601;stroke-linecap:round;stroke-linejoin:round;stroke-opacity:1"
         id="path17266"
         sodipodi:type="arc"
         sodipodi:cx="19.024176"
         sodipodi:cy="99.702461"
         sodipodi:rx="2.0181508"
         sodipodi:ry="2.3286357"
         sodipodi:start="0.57441444"
         sodipodi:end="0.54543906"
         sodipodi:open="true"
         sodipodi:arc-type="arc"
         d="m 20.718435,100.96771 a 2.0181508,2.3286357 0 0 1 -2.778506,0.69878 2.0181508,2.3286357 0 0 1 -0.62572,-3.200823 2.0181508,2.3286357 0 0 1 2.76944,-0.745152 2.0181508,2.3286357 0 0 1 0.665843,3.190025" />
      <path
         style="fill:#000000;fill-opacity:1;stroke:none;stroke-width:1.09601;stroke-linecap:round;stroke-linejoin:round;stroke-opacity:1"
         id="path17268"
         sodipodi:type="arc"
         sodipodi:cx="60.15279"
         sodipodi:cy="132.82373"
         sodipodi:rx="2.0181508"
         sodipodi:ry="2.3286357"
         sodipodi:start="0.57441444"
         sodipodi:end="0.54543906"
         sodipodi:open="true"
         sodipodi:arc-type="arc"
         d="m 61.847049,134.08898 a 2.0181508,2.3286357 0 0 1 -2.778506,0.69878 2.0181508,2.3286357 0 0 1 -0.62572,-3.20082 2.0181508,2.3286357 0 0 1 2.769441,-0.74516 2.0181508,2.3286357 0 0 1 0.665842,3.19003" />
    </g>
  </g>
</svg>
