<?xml version="1.0" encoding="UTF-8" standalone="no"?>
<!-- Created with Inkscape (http://www.inkscape.org/) -->

<svg
   width="210mm"
   height="297mm"
   viewBox="0 0 210 297"
   version="1.1"
   id="svg48694"
   inkscape:version="1.2.2 (732a01da63, 2022-12-09)"
   sodipodi:docname="maria1.svg"
   xmlns:inkscape="http://www.inkscape.org/namespaces/inkscape"
   xmlns:sodipodi="http://sodipodi.sourceforge.net/DTD/sodipodi-0.dtd"
   xmlns:xlink="http://www.w3.org/1999/xlink"
   xmlns="http://www.w3.org/2000/svg"
   xmlns:svg="http://www.w3.org/2000/svg">
  <sodipodi:namedview
     id="namedview48696"
     pagecolor="#ffffff"
     bordercolor="#999999"
     borderopacity="1"
     inkscape:showpageshadow="0"
     inkscape:pageopacity="0"
     inkscape:pagecheckerboard="0"
     inkscape:deskcolor="#d1d1d1"
     inkscape:document-units="mm"
     showgrid="false"
     inkscape:zoom="0.98171998"
     inkscape:cx="186.91684"
     inkscape:cy="254.6551"
     inkscape:window-width="1366"
     inkscape:window-height="705"
     inkscape:window-x="-8"
     inkscape:window-y="-8"
     inkscape:window-maximized="1"
     inkscape:current-layer="g49616" />
  <defs
     id="defs48691">
    <filter
       inkscape:collect="always"
       style="color-interpolation-filters:sRGB"
       id="filter2404-0"
       x="-0.059972737"
       y="-0.1563494"
       width="1.1199455"
       height="1.3126988">
      <feGaussianBlur
         inkscape:collect="always"
         stdDeviation="0.7925607"
         id="feGaussianBlur2406-4" />
    </filter>
    <filter
       inkscape:collect="always"
       style="color-interpolation-filters:sRGB"
       id="filter2408-3"
       x="-0.090597695"
       y="-0.26779684"
       width="1.1811954"
       height="1.5355937">
      <feGaussianBlur
         inkscape:collect="always"
         stdDeviation="0.83164514"
         id="feGaussianBlur2410-1" />
    </filter>
    <filter
       inkscape:collect="always"
       style="color-interpolation-filters:sRGB"
       id="filter1696"
       x="-0.066294998"
       y="-0.11025625"
       width="1.13259"
       height="1.2205125">
      <feGaussianBlur
         inkscape:collect="always"
         stdDeviation="0.13404749"
         id="feGaussianBlur1698" />
    </filter>
    <linearGradient
       inkscape:collect="always"
       xlink:href="#linearGradient2831"
       id="linearGradient8732"
       gradientUnits="userSpaceOnUse"
       gradientTransform="matrix(0.19484799,0.34243202,-0.39505651,0.22446771,112.02309,44.648385)"
       x1="89.426537"
       y1="114.77016"
       x2="129.91229"
       y2="114.77016" />
    <linearGradient
       id="linearGradient2831"
       inkscape:swatch="solid">
      <stop
         style="stop-color:#b28c00;stop-opacity:1;"
         offset="0"
         id="stop2829" />
    </linearGradient>
    <linearGradient
       inkscape:collect="always"
       xlink:href="#linearGradient2831"
       id="linearGradient8728"
       gradientUnits="userSpaceOnUse"
       gradientTransform="matrix(-0.15778634,0.36101095,0.41645654,0.18171227,40.592958,48.261289)"
       x1="89.426537"
       y1="114.77016"
       x2="129.91229"
       y2="114.77016" />
  </defs>
  <g
     inkscape:label="Camada 1"
     inkscape:groupmode="layer"
     id="layer1">
    <g
       id="g49616"
       transform="translate(-11.012964,-41.182214)">
      <g
         id="g3885">
        <g
           id="g8644"
           transform="matrix(-0.65269483,0,0,0.65045011,122.57399,63.592728)"
           style="display:inline">
          <path
             style="fill:#deaa87;fill-rule:evenodd;stroke:none;stroke-width:0.153475"
             d="m 46.256267,86.752066 c -0.02673,1.88568 -0.555965,3.982601 0.636822,6.018033 1.677483,1.311537 1.331964,0.57582 1.18967,0.421331 l -0.447874,-1.039288 0.923742,1.432533 c 1.054457,0.44069 1.038616,0.191904 0.587836,-0.337066 l -0.419883,-1.011201 0.643822,1.151643 c 0.5962,0.700715 0.79314,0.443385 0.78378,-0.308975 0.03467,-0.58362 0.02127,-1.181309 -0.05598,-1.797685 l 0.559845,1.292087 c 0.154261,0.281244 0.874627,0.803505 0.709991,-0.07263 0.934203,-0.984708 -0.05298,-2.160037 0.07025,-3.218724 0.346113,1.201138 1.686907,0.647617 1.990988,0.566742 -0.236253,-0.161517 0.762178,-0.31274 -0.82817,-0.859265 l -1.83109,-1.387844 -0.111967,-1.881948 z"
             id="path8636"
             sodipodi:nodetypes="cccccccccccccccccc" />
          <g
             id="g8642"
             transform="matrix(-0.0899674,0.20225755,-0.22967989,-0.07992223,75.225249,66.406755)">
            <path
               style="fill:#ab7b74;fill-opacity:1;fill-rule:evenodd;stroke:none;stroke-width:0.40607"
               d="m 131.34766,42.88438 c 0.5197,0.445113 4.03161,0.311579 3.52766,6.825066 -0.67718,0.45995 -1.66934,0.741855 -1.79533,1.899149 0.74018,0.01484 2.42527,-0.979249 3.65365,-1.572733 1.18114,-0.56381 2.567,-0.979249 3.82688,-1.58757 1.16539,-0.56381 9.11837,-3.026768 8.77191,-1.394687 -0.23623,1.112783 -3.88988,3.516393 -4.78754,4.109877 -0.85042,0.548973 -1.41737,0.548973 -1.38587,1.854637 1.5276,0.118697 2.97647,-1.083108 5.44898,-1.988171 1.63784,-0.608321 4.22059,-1.661756 6.06316,-1.750778 -0.47245,3.516393 -4.78754,4.762709 -5.33873,7.611433 1.40161,-0.163208 4.34658,-2.655841 5.03951,-3.753787 0.39371,-0.637995 0.58269,-1.305664 1.29138,-1.498547 1.37011,2.062357 -2.33078,5.875492 -3.60641,7.299854 -0.86616,0.949574 -1.40161,0.979248 -1.37011,2.744863 1.32287,-0.207719 2.15754,-1.127619 2.81897,-1.899149 0.28348,-0.326416 2.04731,-2.284913 2.33078,-2.418447 1.81107,2.373936 -4.6773,7.403713 -6.44113,8.768726 -2.80323,2.166217 -7.44903,4.020855 -10.86645,5.519402 -1.19689,0.519299 -2.86622,0.801203 -4.14185,1.290827 -1.27563,0.489625 -2.94497,0.77153 -4.26784,1.33534 -0.11024,1.750778 0.56695,1.528221 1.88982,1.142456 2.12604,-0.623158 5.84268,-2.329424 7.74825,-3.293836 3.27568,-1.661755 5.85843,-0.474787 12.42555,-5.801306 1.13389,-0.9199 4.14185,-4.347271 4.75604,-6.112886 0.39371,-1.112782 0.42521,-1.884311 -0.0315,-2.952583 -0.77167,-1.765615 -0.31497,-1.02376 0.063,-2.7597 0.22048,-1.008923 0.15749,-2.373937 -0.34646,-3.056443 -0.44095,-0.593484 -0.61419,-0.415439 -0.69293,-1.068272 -0.0945,-0.801203 0.14174,-0.890226 -0.15749,-1.795289 -2.55125,-1.27599 -4.26783,0.267068 -5.95292,0.415439 0.29922,-0.697343 0.74018,-0.519298 0.94491,-1.735941 0.4882,-3.056442 -3.54341,-2.344262 -5.82694,-1.795289 -2.70874,0.652833 -4.07886,1.12762 -6.29939,2.210728 -0.59844,0.281905 -1.29138,0.786367 -2.0473,0.801204 -0.0945,-2.017846 -0.0473,-3.368022 -1.18114,-4.629176 -1.16539,-1.305665 -2.51976,-1.632081 -4.06311,-0.964411 z"
               id="path8638" />
            <path
               style="fill:#ab7b7b;fill-opacity:1;fill-rule:evenodd;stroke:none;stroke-width:0.40607"
               d="m 119.31582,59.932208 c 1.35437,0.964412 5.96868,-1.810126 7.43329,-2.655841 1.24413,-0.741855 1.32287,-0.118696 1.93706,-1.676592 1.24413,-3.100954 1.57485,-5.326519 1.81107,-8.664867 0.0945,-1.275991 0.50396,-2.61133 0.17324,-3.160302 -0.34647,0.311579 -0.11024,0.01484 -0.29922,0.430276 l -1.85832,7.463061 c -0.23623,1.201805 -0.5197,1.632081 -0.75593,2.71519 -0.23623,1.053434 -0.85042,1.290828 -1.68509,1.706266 -1.41736,0.712181 -3.22844,1.780452 -4.72454,2.299751 -1.13389,0.400602 -2.15755,0.252231 -2.03156,1.543058 z"
               id="path8640" />
          </g>
        </g>
        <g
           id="g8652"
           transform="matrix(0.53756158,0.37018657,-0.36891342,0.53571282,118.19149,-9.3825192)"
           style="display:inline">
          <path
             style="fill:#666666;fill-opacity:1;fill-rule:evenodd;stroke:#000000;stroke-width:0.361356;stroke-opacity:1"
             d="M 65.211046,192.90793 51.296957,174.50297 c -1.28766,-3.24304 2.424958,-2.91887 -1.687299,-8.30211 l 3.905565,-2.8848 c 2.825128,5.04508 6.327767,2.09215 8.349704,4.45622 l 13.800677,18.06608 c 2.063693,4.95297 -8.926322,10.0502 -10.454558,7.06957 z"
             id="path8646"
             sodipodi:nodetypes="ccccccc" />
          <path
             style="fill:#1a1a1a;fill-opacity:1;fill-rule:evenodd;stroke:#000000;stroke-width:0.361356;stroke-opacity:1"
             d="m 52.292647,175.72645 10.069341,-6.88053 1.695701,2.23663 -10.017283,7.01958 z"
             id="path8648"
             sodipodi:nodetypes="ccccc" />
          <path
             style="fill:#1a1a1a;fill-opacity:1;fill-rule:evenodd;stroke:#000000;stroke-width:0.361356;stroke-opacity:1"
             d="m 61.4939,187.9062 10.069341,-6.88053 1.695701,2.23663 -10.017284,7.01958 z"
             id="path8650"
             sodipodi:nodetypes="ccccc" />
        </g>
        <g
           id="g8662"
           transform="matrix(0.65269483,0,0,0.65045011,38.965,64.276924)"
           style="display:inline">
          <g
             id="g8660"
             transform="matrix(0.82360324,0.5691237,-0.56521578,0.82360324,105.02889,-112.5833)">
            <path
               style="fill:#666666;fill-opacity:1;fill-rule:evenodd;stroke:#000000;stroke-width:0.361356;stroke-opacity:1"
               d="M 65.211046,192.90793 51.296957,174.50297 c -1.28766,-3.24304 2.424958,-2.91887 -1.687299,-8.30211 l 3.905565,-2.8848 c 2.825128,5.04508 6.327767,2.09215 8.349704,4.45622 l 13.800677,18.06608 c 2.063693,4.95297 -8.926322,10.0502 -10.454558,7.06957 z"
               id="path8654"
               sodipodi:nodetypes="ccccccc" />
            <path
               style="fill:#1a1a1a;fill-opacity:1;fill-rule:evenodd;stroke:#000000;stroke-width:0.361356;stroke-opacity:1"
               d="m 52.292647,175.72645 10.069341,-6.88053 1.695701,2.23663 -10.017283,7.01958 z"
               id="path8656"
               sodipodi:nodetypes="ccccc" />
            <path
               style="fill:#1a1a1a;fill-opacity:1;fill-rule:evenodd;stroke:#000000;stroke-width:0.361356;stroke-opacity:1"
               d="m 61.4939,187.9062 10.069341,-6.88053 1.695701,2.23663 -10.017284,7.01958 z"
               id="path8658"
               sodipodi:nodetypes="ccccc" />
          </g>
        </g>
        <path
           style="display:inline;fill:#241f1c;fill-opacity:1;fill-rule:evenodd;stroke:#000000;stroke-width:0.0058665;stroke-opacity:1"
           d="m 83.997076,96.538886 2.783358,0.0066 c 0.85582,0.331904 0.539772,1.348437 0.04047,1.558152 l -2.803578,-0.0066 c -0.563315,-0.128871 -0.855122,-1.080936 -0.02023,-1.558153 z"
           id="path8664"
           sodipodi:nodetypes="ccccc" />
        <path
           style="display:inline;fill:#241f1c;fill-opacity:1;fill-rule:evenodd;stroke:#000000;stroke-width:0.0063032;stroke-opacity:1"
           d="m 71.882218,97.598472 3.214078,0.0066 c 0.988258,0.331811 0.623304,1.348059 0.04667,1.557715 l -3.237425,-0.0066 C 71.25505,99.027352 70.91809,98.075555 71.882172,97.598471 Z"
           id="path8666"
           sodipodi:nodetypes="ccccc" />
        <g
           id="g8676"
           transform="matrix(0.65269483,0,0,0.65045011,38.022422,64.431953)"
           style="display:inline">
          <path
             style="fill:#deaa87;fill-rule:evenodd;stroke:none;stroke-width:0.153475"
             d="m 46.263265,87.011888 c -0.02673,1.88568 -0.562963,3.722779 0.629824,5.758211 1.677483,1.311537 1.331964,0.57582 1.18967,0.421331 l -0.447874,-1.039288 0.923742,1.432533 c 1.054457,0.44069 1.038616,0.191904 0.587836,-0.337066 l -0.419883,-1.011201 0.643822,1.151643 c 0.5962,0.700715 0.79314,0.443385 0.78378,-0.308975 0.03467,-0.58362 0.02127,-1.181309 -0.05598,-1.797685 l 0.559845,1.292087 c 0.154261,0.281244 0.874627,0.803505 0.709991,-0.07263 0.934203,-0.984708 -0.05298,-2.160037 0.07025,-3.218724 0.346113,1.201138 1.686907,0.647617 1.990988,0.566742 -0.236253,-0.161517 0.762178,-0.31274 -0.82817,-0.859265 l -1.83109,-1.387844 -0.111967,-1.881948 z"
             id="path8668"
             sodipodi:nodetypes="cccccccccccccccccc" />
          <g
             id="g8674"
             transform="matrix(-0.0899674,0.20225755,-0.22967989,-0.07992223,75.225249,66.406755)">
            <path
               style="fill:#ab7b74;fill-opacity:1;fill-rule:evenodd;stroke:none;stroke-width:0.40607"
               d="m 131.34766,42.88438 c 0.5197,0.445113 4.03161,0.311579 3.52766,6.825066 -0.67718,0.45995 -1.66934,0.741855 -1.79533,1.899149 0.74018,0.01484 2.42527,-0.979249 3.65365,-1.572733 1.18114,-0.56381 2.567,-0.979249 3.82688,-1.58757 1.16539,-0.56381 9.11837,-3.026768 8.77191,-1.394687 -0.23623,1.112783 -3.88988,3.516393 -4.78754,4.109877 -0.85042,0.548973 -1.41737,0.548973 -1.38587,1.854637 1.5276,0.118697 2.97647,-1.083108 5.44898,-1.988171 1.63784,-0.608321 4.22059,-1.661756 6.06316,-1.750778 -0.47245,3.516393 -4.78754,4.762709 -5.33873,7.611433 1.40161,-0.163208 4.34658,-2.655841 5.03951,-3.753787 0.39371,-0.637995 0.58269,-1.305664 1.29138,-1.498547 1.37011,2.062357 -2.33078,5.875492 -3.60641,7.299854 -0.86616,0.949574 -1.40161,0.979248 -1.37011,2.744863 1.32287,-0.207719 2.15754,-1.127619 2.81897,-1.899149 0.28348,-0.326416 2.04731,-2.284913 2.33078,-2.418447 1.81107,2.373936 -4.6773,7.403713 -6.44113,8.768726 -2.80323,2.166217 -7.44903,4.020855 -10.86645,5.519402 -1.19689,0.519299 -2.86622,0.801203 -4.14185,1.290827 -1.27563,0.489625 -2.94497,0.77153 -4.26784,1.33534 -0.11024,1.750778 0.56695,1.528221 1.88982,1.142456 2.12604,-0.623158 5.84268,-2.329424 7.74825,-3.293836 3.27568,-1.661755 5.85843,-0.474787 12.42555,-5.801306 1.13389,-0.9199 4.14185,-4.347271 4.75604,-6.112886 0.39371,-1.112782 0.42521,-1.884311 -0.0315,-2.952583 -0.77167,-1.765615 -0.31497,-1.02376 0.063,-2.7597 0.22048,-1.008923 0.15749,-2.373937 -0.34646,-3.056443 -0.44095,-0.593484 -0.61419,-0.415439 -0.69293,-1.068272 -0.0945,-0.801203 0.14174,-0.890226 -0.15749,-1.795289 -2.55125,-1.27599 -4.26783,0.267068 -5.95292,0.415439 0.29922,-0.697343 0.74018,-0.519298 0.94491,-1.735941 0.4882,-3.056442 -3.54341,-2.344262 -5.82694,-1.795289 -2.70874,0.652833 -4.07886,1.12762 -6.29939,2.210728 -0.59844,0.281905 -1.29138,0.786367 -2.0473,0.801204 -0.0945,-2.017846 -0.0473,-3.368022 -1.18114,-4.629176 -1.16539,-1.305665 -2.51976,-1.632081 -4.06311,-0.964411 z"
               id="path8670" />
            <path
               style="fill:#ab7b7b;fill-opacity:1;fill-rule:evenodd;stroke:none;stroke-width:0.40607"
               d="m 119.31582,59.932208 c 1.35437,0.964412 5.96868,-1.810126 7.43329,-2.655841 1.24413,-0.741855 1.32287,-0.118696 1.93706,-1.676592 1.24413,-3.100954 1.57485,-5.326519 1.81107,-8.664867 0.0945,-1.275991 0.50396,-2.61133 0.17324,-3.160302 -0.34647,0.311579 -0.11024,0.01484 -0.29922,0.430276 l -1.85832,7.463061 c -0.23623,1.201805 -0.5197,1.632081 -0.75593,2.71519 -0.23623,1.053434 -0.85042,1.290828 -1.68509,1.706266 -1.41736,0.712181 -3.22844,1.780452 -4.72454,2.299751 -1.13389,0.400602 -2.15755,0.252231 -2.03156,1.543058 z"
               id="path8672" />
          </g>
        </g>
        <g
           id="g1630"
           transform="matrix(0.63089508,0.16727802,-0.1667027,0.62872534,18.12141,4.7661932)"
           style="display:inline">
          <path
             style="display:inline;fill:#dba37d;fill-opacity:1;stroke:#d38d5f;stroke-width:0.377161;stroke-opacity:0.99"
             d="m 120.12218,115.95088 c 3.01527,1.11948 3.48622,2.3175 3.35035,3.70838 -0.13219,1.9748 10.82378,-1.78966 9.34446,-3.70162 -1.79916,-1.15669 -1.92048,-2.07679 -0.26491,-4.20558 z"
             id="path1564"
             sodipodi:nodetypes="ccccc" />
          <path
             style="display:inline;fill:#d38d5f;stroke-width:1.85587"
             id="path1566"
             sodipodi:type="arc"
             sodipodi:cx="-199.05621"
             sodipodi:cy="154.48758"
             sodipodi:rx="5.3784323"
             sodipodi:ry="3.8176944"
             sodipodi:start="0.57441444"
             sodipodi:end="3.2217636"
             sodipodi:arc-type="arc"
             d="m -194.54096,156.5619 a 5.3784323,3.8176944 0 0 1 -6.24432,1.54072 5.3784323,3.8176944 0 0 1 -3.63209,-3.92078"
             transform="matrix(-0.99375602,0.11157499,-0.45788913,0.8890093,0,0)"
             sodipodi:open="true" />
          <ellipse
             style="display:inline;fill:#dba37d;fill-opacity:1;stroke:#d38d5f;stroke-width:0.416123;stroke-dasharray:none;stroke-opacity:0.99"
             id="ellipse1568"
             cx="85.604019"
             cy="128.49495"
             rx="2.903049"
             ry="4.8830538"
             transform="matrix(0.97115906,-0.23843255,0.20486963,0.97878927,0,0)" />
          <path
             id="path1570"
             style="display:inline;fill:#dba37d;fill-opacity:1;stroke:#d38d5f;stroke-width:0.416;stroke-dasharray:none;stroke-opacity:0.99"
             d="m 138.83339,94.966152 a 7.2368159,5.7309651 81.510689 0 0 -4.09344,8.445028 7.2368159,5.7309651 81.510689 0 0 7.05571,5.70753 7.2368159,5.7309651 81.510689 0 0 4.09349,-8.4448 7.2368159,5.7309651 81.510689 0 0 -7.05576,-5.707758 z" />
          <path
             id="path1572"
             style="display:inline;fill:#dba37d;fill-opacity:1;stroke:#d38d5f;stroke-width:0.416;stroke-dasharray:none;stroke-opacity:0.99"
             d="m 118.12521,81.707452 c -3.75807,0.86929 -6.82695,3.09301 -9.33944,6.03423 -2.48979,2.91464 -4.62896,8.01157 -2.30201,11.65535 6.49441,10.169628 1.03136,7.531758 2.69919,13.960178 1.66783,6.42842 20.19532,5.4879 26.77981,-1.10991 4.09122,-4.0995 3.80091,-11.68592 2.19178,-18.179668 5.6e-4,0.003 9.2e-4,0.006 0.001,0.009 0.008,0.0476 -0.0355,0.0564 -0.0437,0.009 -0.001,-0.008 -0.002,-0.0158 -0.003,-0.0236 -0.003,0.0411 -0.0434,0.0395 -0.0445,-0.006 -7.2e-4,-0.0316 -0.003,-0.0631 -0.005,-0.0946 -0.003,-0.0461 -0.008,-0.0921 -0.0149,-0.13785 -0.006,-0.0525 -0.01,-0.10533 -0.016,-0.15787 -0.003,-0.0285 -0.006,-0.0573 -0.0104,-0.0857 -0.004,-0.0262 -0.0105,-0.052 -0.0153,-0.0781 -7.8e-4,-0.004 -10e-4,-0.008 -0.002,-0.0117 -0.12883,-0.45888 -0.27019,-0.8994 -0.42669,-1.31325 -2.01623,-5.3309 -7.16324,-10.01083 -12.34959,-10.75124 -2.44571,-0.34915 -4.84425,-0.23943 -7.09909,0.28214 z"
             sodipodi:nodetypes="csszaccsccccsccccscc" />
          <path
             style="display:inline;fill:#28170b;fill-opacity:1;fill-rule:evenodd;stroke:none;stroke-width:0.415999;stroke-dasharray:none;stroke-opacity:0.99"
             d="m 110.51542,94.125672 c 2.41622,-5.81924 14.70106,-2.41903 15.90373,-13.21576 -3.65804,-2.03812 -6.50165,-1.69375 -11.81091,-1.24411 -20.489414,2.46653 -16.825504,23.942638 -4.09282,14.45987 z"
             id="path1574"
             sodipodi:nodetypes="cccc" />
          <path
             style="display:inline;opacity:0.760943;fill:#ac9d93;stroke-width:0.0395242"
             d="m 120.80384,101.63873 c 3.50512,-0.70661 10.27838,-1.946598 10.23226,-1.00404 -0.0895,0.36835 -2.0009,2.48153 -4.33646,2.62404 -2.33556,0.14251 -7.14245,0.62832 -15.10043,3.34569 -2.00681,0.68525 -3.03144,-0.36884 -3.37769,-0.74668 -0.38975,-0.72832 7.88267,-3.25028 12.58232,-4.21901 z"
             id="path1576"
             sodipodi:nodetypes="cczscc" />
          <path
             style="display:inline;fill:#5f5fd3;stroke-width:0.108598"
             d="m 120.28848,89.427562 c 5.07205,-0.52384 14.98442,-0.89302 15.74501,3.89749 0.18103,1.8089 -1.05313,10.950898 -4.72383,9.617048 -3.6707,-1.33384 -11.05481,-3.092298 -21.58358,3.80225 -2.65509,1.73864 -5.25533,-4.56989 -6.15316,-6.812518 -1.27928,-4.07762 9.9339,-9.69267 16.71556,-10.50427 z"
             id="path1578"
             sodipodi:nodetypes="cczscc" />
          <path
             style="display:inline;opacity:0.760943;fill:#c4f0fc;stroke-width:0.0910725"
             d="m 120.76878,90.825082 c 4.53392,-0.46853 13.36812,-0.86648 13.85085,2.91442 0.0878,1.42881 -1.38041,8.672828 -4.59229,7.657058 -3.21189,-1.01577 -9.71049,-2.327688 -19.35733,3.23805 -2.43269,1.40355 -4.49074,-3.55837 -5.19875,-5.322568 -0.9731,-3.21151 9.23088,-7.77255 15.29752,-8.48696 z"
             id="path1580"
             sodipodi:nodetypes="cczscc" />
          <path
             style="display:inline;fill:#28170b;fill-opacity:1;fill-rule:evenodd;stroke:none;stroke-width:0.415999;stroke-dasharray:none;stroke-opacity:0.99"
             d="m 131.66588,88.921072 c 4.21467,0.10965 5.66263,11.148378 8.52268,11.629748 -0.33156,-2.899968 1.1937,-6.270588 -3.51087,-15.462458 -9.64025,-12.80695 -19.74438,3.44941 -5.01181,3.83271 z"
             id="path1582"
             sodipodi:nodetypes="sccs" />
          <path
             id="path1584"
             style="display:inline;fill:#3737c8;fill-opacity:1;stroke-width:0.138472"
             d="m 136.03906,93.871092 -0.32852,2.59274 -0.71297,3.20561 5.0128,-5.02212 c -0.0124,-0.60751 -0.50031,-2.57058 -0.53691,-2.67253 0,0 -1.93305,1.49691 -3.4344,1.8963 z m 8.41928,-0.74652 c -0.005,0.005 -0.0106,0.01 -0.0159,0.0143 0.009,-9.1e-4 0.0177,-0.002 0.0267,-0.003 -0.002,-0.004 -0.006,-0.007 -0.009,-0.01 -4.4e-4,-4.5e-4 -6.4e-4,-0.001 -0.001,-0.001 z"
             sodipodi:nodetypes="ccccccsccsss" />
          <path
             style="display:inline;opacity:0.474747;fill:#000000;fill-opacity:1;stroke-width:0.0556044"
             id="path1586"
             sodipodi:type="arc"
             sodipodi:cx="161.62047"
             sodipodi:cy="-89.318298"
             sodipodi:rx="1.6038792"
             sodipodi:ry="1.4586422"
             sodipodi:start="0"
             sodipodi:end="3.1152041"
             sodipodi:arc-type="slice"
             d="m 163.22435,-89.318298 a 1.6038792,1.4586422 0 0 1 -1.58272,1.458515 1.6038792,1.4586422 0 0 1 -1.62448,-1.420028 l 1.60332,-0.03849 z"
             transform="matrix(0.26836157,0.96331826,-0.86188137,0.50710995,0,0)" />
          <path
             style="display:inline;fill:#000000;fill-opacity:1;stroke-width:0.316379"
             d="m 120.67105,107.5257 c 0.97861,-0.24026 1.36718,0.5217 0.26594,0.95854 -0.79119,0.31387 -0.19013,2.47923 0.2542,2.99256 0.4669,0.53939 1.52387,0.47444 0.0425,0.77632 -1.09455,0.22307 -2.46905,-4.25938 -0.56267,-4.72742 z"
             id="path1588"
             sodipodi:nodetypes="ssssss" />
          <path
             style="display:inline;opacity:0.538721;fill:#e4f4fc;stroke-width:1.92574;filter:url(#filter2404-0)"
             d="m 83.278851,96.668329 c 0.05206,-1.807271 4.078876,-4.261007 7.971592,-6.520887 6.895069,-3.463673 15.174267,-4.659157 21.950047,-5.329302 1.57741,-0.157031 2.5643,1.58213 1.02236,1.951769 -8.33661,1.998432 -20.471815,1.556646 -28.187674,8.918153 -1.048406,1.40999 -2.124026,1.532917 -2.756334,0.980249 z"
             id="path1590"
             sodipodi:nodetypes="cccscc"
             transform="matrix(0.40732178,-0.10000294,0.09415314,0.44982796,69.303238,65.260132)" />
          <path
             style="display:inline;opacity:0.86532;fill:#e4f4fc;stroke-width:1.04128;filter:url(#filter2408-3)"
             d="m 91.192283,98.633934 c 0.08443,-0.780058 2.911142,-2.1371 5.640698,-3.400791 4.820249,-2.006785 10.528189,-3.143742 15.191339,-3.941864 1.08561,-0.186239 1.71524,0.486315 0.64822,0.761188 -5.76897,1.48611 -14.076198,2.21036 -19.564252,5.952893 -0.756749,0.684484 -1.497444,0.818284 -1.916011,0.628564 z"
             id="path1592"
             sodipodi:nodetypes="cccscc"
             transform="matrix(0.40732178,-0.10000294,0.09415314,0.44982796,69.303238,65.260132)" />
          <ellipse
             style="display:inline;fill:#de8787;fill-opacity:1;stroke-width:0.116162"
             id="ellipse1594"
             cx="105.83467"
             cy="133.47131"
             rx="3.0958161"
             ry="1.2249714"
             transform="matrix(0.97115906,-0.23843255,0.20486963,0.97878927,0,0)" />
          <ellipse
             style="display:inline;fill:#de8787;fill-opacity:1;stroke-width:0.116162"
             id="ellipse1596"
             cx="88.29171"
             cy="132.62326"
             rx="3.0958161"
             ry="1.2249714"
             transform="matrix(0.97115906,-0.23843255,0.20486963,0.97878927,0,0)" />
          <path
             style="display:inline;fill:#d38d5f;stroke-width:0.357181"
             d="m 140.26989,98.126092 c 0.005,0.32931 0.0131,2.660648 0.53713,3.299688 0.88438,1.07861 -0.82472,0.82868 -0.39114,4.57184 0.77833,0.63366 2.18635,0.11617 2.89128,-0.68355 0.67093,-0.76116 0.83632,-2.79607 0.74818,-4.21547 -0.12027,-1.937288 -2.25928,-3.614718 -3.78545,-2.972498 z"
             id="path1598"
             sodipodi:nodetypes="cscsscc" />
          <g
             id="g1606"
             transform="translate(2.0189692,10.153312)"
             style="display:inline">
            <path
               style="opacity:1;fill:#28170b;fill-opacity:1;fill-rule:evenodd;stroke:none;stroke-width:0.415999;stroke-dasharray:none;stroke-opacity:0.99"
               d="m 129.40573,70.808983 4.89707,5.369862 c 19.82715,17.087388 40.14952,11.954416 40.14952,11.954416 -8.88144,-3.556208 -8.8184,-3.433988 -13.51273,-7.310304 -3.46361,-2.860057 -5.41577,-6.290481 -7.76679,-8.518788 -13.82862,-13.106873 -19.7637,-6.305518 -23.76707,-1.495186 z"
               id="path1600"
               sodipodi:nodetypes="cccssc" />
            <path
               style="opacity:1;fill:#28170b;fill-opacity:1;fill-rule:evenodd;stroke:none;stroke-width:0.198713;stroke-dasharray:none;stroke-opacity:0.99"
               d="m 143.17842,80.319444 0.32809,2.309701 c 8.30265,9.315147 19.71505,8.463741 19.71505,8.463741 -3.94402,-2.192027 -5.03514,-2.854395 -5.8964,-4.253231 -1.13064,-1.836364 -2.17879,-3.328888 -3.15219,-4.531145 -5.7255,-7.071659 -8.86479,-4.100676 -10.99455,-1.989066 z"
               id="path1602"
               sodipodi:nodetypes="cccssc" />
            <path
               style="opacity:1;fill:#28170b;fill-opacity:1;fill-rule:evenodd;stroke:none;stroke-width:0.198713;stroke-dasharray:none;stroke-opacity:0.99"
               d="m 135.59562,66.219973 0.54307,2.309701 c 8.30265,9.315175 20.31312,5.741259 21.78959,3.637222 -6.79198,-1.882898 -8.26177,-3.058747 -10.1621,-4.169954 -8.1185,-4.365136 -9.28401,-2.231036 -12.17056,-1.776969 z"
               id="path1604"
               sodipodi:nodetypes="ccccc" />
          </g>
          <path
             style="display:inline;fill:#447821;fill-rule:evenodd;stroke-width:0.638455;stroke-opacity:0.99"
             d="m 130.9136,80.501832 c 3.41251,1.33842 5.40948,2.21096 6.98376,7.14462 -0.56537,-3.63759 -0.76865,-3.65352 -1.04273,-4.45414 -0.22655,-0.66177 -1.5075,-3.05443 -4.34105,-3.44983 -1.8108,-0.25269 -1.59998,0.75935 -1.59998,0.75935 z"
             id="path1608"
             sodipodi:nodetypes="ccssc" />
          <path
             style="display:inline;fill:#483e37;fill-opacity:1;fill-rule:evenodd;stroke:none;stroke-width:0.24314;stroke-dasharray:none;stroke-opacity:0.99"
             d="m 105.62128,87.051752 c 2.53486,-2.89744 13.04618,-4.04871 13.09583,-5.47113 0.0496,-1.42242 -2.71083,-0.95139 -5.62793,-0.67183 -11.25763,1.53355 -13.495073,13.03228 -7.4679,6.14296 z"
             id="path1610"
             sodipodi:nodetypes="szcs" />
          <path
             style="display:inline;fill:#483e37;fill-opacity:1;fill-rule:evenodd;stroke:none;stroke-width:0.148897;stroke-dasharray:none;stroke-opacity:0.99"
             d="m 135.7446,86.899302 c -1.32559,-2.07787 -5.68876,-4.52907 -7.99493,-4.78645 -2.30617,-0.25738 1.41761,-0.68227 2.94308,-0.48179 5.8871,1.09977 8.20371,10.20883 5.05185,5.26824 z"
             id="path1612"
             sodipodi:nodetypes="szcs" />
          <path
             style="display:inline;fill:#483e37;fill-opacity:1;fill-rule:evenodd;stroke:none;stroke-width:0.148897;stroke-dasharray:none;stroke-opacity:0.99"
             d="m 148.29392,80.965412 c -1.96706,-1.48014 -6.0326,-4.05639 -8.35191,-4.12725 -2.31932,-0.0709 1.35848,-0.79422 2.89506,-0.71722 4.01937,0.41988 9.18924,5.73236 11.69504,5.46559 0.11455,0.5988 -4.54884,0.65007 -6.23819,-0.62112 z"
             id="path1614"
             sodipodi:nodetypes="szccs" />
          <path
             style="display:inline;fill:#e4f4fc;stroke-width:0.229581;filter:url(#filter1696)"
             d="m 131.55715,80.306452 c 0.0424,-0.14272 0.71207,0.001 1.35719,0.14922 1.13238,0.3062 1.32479,0.51953 2.42127,1.36648 0.24694,0.12176 1.23257,1.5204 1.05246,1.32465 -1.48201,-1.49427 -2.96688,-2.4237 -4.83092,-2.84035 z"
             id="path1616"
             sodipodi:nodetypes="ccccc"
             inkscape:transform-center-x="1.1633859"
             inkscape:transform-center-y="1.1651532" />
          <path
             style="display:inline;fill:#483e37;fill-opacity:1;fill-rule:evenodd;stroke:none;stroke-width:0.148897;stroke-dasharray:none;stroke-opacity:0.99"
             d="m 163.64733,95.710812 c -13.20064,-12.90107 -11.12419,-14.92909 -0.89643,-3.67501 3.20862,3.21642 8.17581,5.63067 10.68161,5.3639 0.11455,0.5988 -8.09583,-0.4177 -9.78518,-1.68889 z"
             id="path1618"
             sodipodi:nodetypes="cccc" />
          <g
             id="g1628"
             transform="translate(43.730349,4.0264919)">
            <path
               id="path1620"
               style="fill:#374548;fill-opacity:1;fill-rule:evenodd;stroke:#000000;stroke-width:0.024556;stroke-dasharray:none;stroke-opacity:1"
               d="m 73.801851,105.9627 c -3.472129,2.2393 -9.465305,1.78509 -9.054385,6.05336 0.227767,2.36585 6.486746,4.54171 14.883099,2.92118 0.0042,-0.5447 -0.107213,-0.82136 -0.403351,-1.34892 -7.905547,1.45687 -18.010825,-1.89343 -3.486822,-3.37567 -1.020515,-0.80156 -1.96471,-1.66107 -1.938541,-4.24995 z"
               sodipodi:nodetypes="cscccc" />
            <g
               id="g1626"
               transform="matrix(0.62552384,0,0,0.52690292,13.024315,-2.4036716)">
              <path
                 style="fill:#1a1a1a;fill-opacity:1;fill-rule:evenodd;stroke:#000000;stroke-width:0.796944;stroke-opacity:1"
                 id="path1622"
                 sodipodi:type="arc"
                 sodipodi:cx="104.61951"
                 sodipodi:cy="206.74686"
                 sodipodi:rx="7.1122828"
                 sodipodi:ry="8.1576338"
                 sodipodi:start="0.57441444"
                 sodipodi:end="0.54543906"
                 sodipodi:open="true"
                 sodipodi:arc-type="arc"
                 d="m 110.59034,211.17925 a 7.1122828,8.1576338 0 0 1 -9.79189,2.44795 7.1122828,8.1576338 0 0 1 -2.205138,-11.21306 7.1122828,8.1576338 0 0 1 9.759948,-2.6104 7.1122828,8.1576338 0 0 1 2.34653,11.17524" />
              <path
                 style="fill:#0044aa;fill-opacity:1;fill-rule:evenodd;stroke:#000000;stroke-width:0.474092;stroke-opacity:1"
                 id="path1624"
                 sodipodi:type="arc"
                 sodipodi:cx="104.46748"
                 sodipodi:cy="206.79758"
                 sodipodi:rx="4.1838293"
                 sodipodi:ry="4.9076104"
                 sodipodi:start="0.57441444"
                 sodipodi:end="0.54543906"
                 sodipodi:open="true"
                 sodipodi:arc-type="arc"
                 d="m 107.97985,209.46409 a 4.1838293,4.9076104 0 0 1 -5.76012,1.47269 4.1838293,4.9076104 0 0 1 -1.29718,-6.74575 4.1838293,4.9076104 0 0 1 5.74133,-1.57041 4.1838293,4.9076104 0 0 1 1.38036,6.72299" />
            </g>
          </g>
        </g>
        <path
           style="display:inline;fill:#8787de;fill-opacity:1;fill-rule:evenodd;stroke:#000000;stroke-width:0.0438471;stroke-opacity:1"
           d="m 68.107514,120.98711 3.148058,-0.1839 c 0.120318,-5.81596 -0.593939,-3.93707 2.42469,-16.60912 -1.461645,6.30516 -3.349898,15.61878 1.303366,29.28817 l 3.503705,-0.82341 c 0.01579,-3.32919 -0.209254,-5.19603 -0.225663,-8.71865 0.547357,-1.88376 3.51984,-2.36958 4.27149,-0.48109 l 0.06409,9.86774 4.095099,-0.034 c 2.253684,-13.9733 1.13253,-20.09673 -0.910888,-29.42405 1.206167,5.46046 3.150343,10.32015 3.618534,16.38139 l 2.975055,-0.22659 c 0.351088,-4.44474 -3.54875,-23.3669 -10.196512,-19.84702 -1.358532,0.67795 -4.391573,1.37048 -6.953354,0.25946 -6.342177,-1.142376 -7.866278,16.84209 -7.117663,20.55107 z"
           id="path8678"
           sodipodi:nodetypes="ccccccccccccccc" />
        <g
           id="g8688"
           transform="matrix(0.56987254,0.36102747,-0.37708341,0.54186133,30.654569,114.92286)"
           style="display:inline;fill:#ffd42a;stroke:#878523;stroke-width:0.149918;stroke-dasharray:none;stroke-opacity:1">
          <g
             id="g8686"
             transform="translate(1.0936286,-137.97687)"
             style="display:inline;fill:#ffd42a;stroke:#878523;stroke-width:0.149918;stroke-dasharray:none;stroke-opacity:1">
            <path
               style="fill:#ffd42a;fill-opacity:1;fill-rule:evenodd;stroke:#878523;stroke-width:0.149918;stroke-dasharray:none;stroke-opacity:1"
               d="m 42.453039,87.443662 11.91717,-7.937323 c 0.298092,1.618921 0.775826,2.095127 2.037705,2.25492 3.455637,4.941319 6.750379,9.364191 9.005823,12.868627 0.153859,2.633882 -5.919646,9.051754 -11.34653,8.132024 -3.384897,-2.821069 -6.689768,-7.911834 -10.007996,-12.419299 0.39024,-1.214982 -0.687403,-1.872985 -1.606172,-2.898949 z"
               id="path8680"
               sodipodi:nodetypes="ccccccc"
               inkscape:transform-center-x="-11.117023"
               inkscape:transform-center-y="-112.63409" />
            <g
               id="g8684"
               transform="matrix(1.0482744,-0.00325352,-0.00323118,1.0455441,-1.8974731,-3.8339491)"
               style="fill:#ffd42a;stroke:#878523;stroke-width:0.143202;stroke-dasharray:none;stroke-opacity:1">
              <path
                 style="fill:#ffd42a;fill-opacity:1;fill-rule:evenodd;stroke:#878523;stroke-width:0.143202;stroke-dasharray:none;stroke-opacity:1"
                 d="m 42.561821,87.429957 11.316887,-7.569106 c 0.28914,1.5493 0.759045,2.037247 1.963295,2.193827 2.568165,3.705527 6.476322,8.914919 8.638252,12.273429 0.15454,2.51963 -5.622295,8.701143 -10.802025,7.805363 -3.237366,-2.70826 -6.395768,-7.575125 -9.574506,-11.896135 0.36869,-1.16091 -0.662418,-1.823368 -1.541903,-2.807378 z"
                 id="path8682"
                 sodipodi:nodetypes="ccccccc" />
            </g>
          </g>
        </g>
        <path
           style="display:inline;fill:#ffd42a;fill-opacity:1;fill-rule:evenodd;stroke:url(#linearGradient8732);stroke-width:0.111946"
           d="m 82.793389,100.65475 c 2.104249,0.16086 3.196247,0.61212 4.253691,3.12342 1.884676,4.49634 3.669424,14.58709 3.378759,16.36387 0.123738,0.0135 1.57368,-0.12626 1.955618,-0.12805 0.03205,-5.72238 -1.943693,-12.14572 -3.863778,-16.04328 -1.644706,-3.2876 -3.196716,-5.752904 -7.750033,-3.22865 z"
           id="path8690"
           sodipodi:nodetypes="ccccccc" />
        <path
           style="display:inline;fill:#1a1a1a;fill-opacity:1;fill-rule:evenodd;stroke:#000000;stroke-width:0.0999999;stroke-dasharray:none;stroke-opacity:1"
           d="m 87.271953,100.70784 c -0.433579,-0.64293 -1.189374,-0.55674 -1.582824,-0.70047 -4.439167,-1.621552 -2.953791,7.98513 2.144128,12.60476 0.718141,0.65077 -0.681139,-3.39877 -0.781465,-3.30858 -2.762511,-2.43272 -4.959488,-11.660166 1.395801,-7.47174 z"
           id="path8692"
           sodipodi:nodetypes="cssccc" />
        <path
           style="display:inline;fill:#ffd42a;fill-opacity:1;fill-rule:evenodd;stroke:url(#linearGradient8728);stroke-width:0.111946"
           d="m 75.215282,101.10109 c -2.0757,0.38109 -2.783502,0.72962 -3.571206,3.33814 -1.40176,4.66949 -2.151361,14.67559 -1.675605,16.41199 -0.12163,0.0265 -1.508084,0.0749 -1.88809,0.11323 -0.633185,-5.68732 0.621575,-12.10148 2.121474,-16.17922 1.290136,-3.44223 2.946088,-5.393578 6.860182,-3.81448 z"
           id="path8694"
           sodipodi:nodetypes="ccccccc" />
        <path
           style="display:inline;fill:#1a1a1a;fill-opacity:1;fill-rule:evenodd;stroke:#000000;stroke-width:0.0932894;stroke-dasharray:none;stroke-opacity:1"
           d="m 74.135771,100.37474 c -2.181711,1.75711 -2.517581,5.45119 -1.632011,9.79093 0.07872,-0.84424 0.243859,-1.23301 0.277506,-1.61529 0.916912,-3.20342 0.899159,-6.43791 3.058097,-8.03928 -0.0039,-0.0951 -0.933112,-0.21126 -1.703592,-0.13636 z"
           id="path8696"
           sodipodi:nodetypes="ccccc" />
        <g
           id="g8714"
           transform="matrix(0.07419264,0.64846436,-0.64623414,0.07393748,185.48249,65.792136)"
           style="display:inline">
          <path
             style="fill:#000000;fill-opacity:1;fill-rule:evenodd;stroke:none;stroke-width:0.123532"
             d="m 81.62911,174.91874 c 0.788119,-2.40349 9.020676,-0.93554 10.092856,-1.05302 1.06829,-0.12043 6.538946,-0.0507 6.523176,1.02071 -0.0129,0.85584 -0.862703,1.88011 -0.465333,2.38675 0.82434,1.04677 1.13957,1.46886 1.71776,2.7821 0.546441,1.25019 -1.725864,1.76471 -1.698504,2.92454 0.0284,0.9875 -0.03275,3.02154 -0.571756,3.73143 -6.824346,-3.41245 -12.666203,-5.84355 -15.094206,-5.72874 2.628772,-2.71879 0.732243,-4.40044 -0.503993,-6.06377 z"
             id="path8698"
             sodipodi:nodetypes="ccccccccc" />
          <path
             style="fill:#4d4d4d;fill-opacity:1;fill-rule:evenodd;stroke:none;stroke-width:0.123532"
             d="m 95.914527,177.86722 0.590528,-0.93107 c -0.818469,-0.55717 -1.449983,-1.27692 -1.641072,-1.38136 -0.121607,0.0544 -5.204363,0.37641 -5.966898,0.41729 -0.442128,0.0213 -1.424314,0.0447 -1.525898,0.30941 0.241458,0.29363 1.352197,0.42663 1.762916,0.4957 2.027724,0.3233 4.454641,0.67657 6.780447,1.09001 z"
             id="path8700" />
          <path
             style="fill:#4d4d4d;fill-opacity:1;fill-rule:evenodd;stroke:none;stroke-width:0.123532"
             d="m 95.526874,183.11309 c 0.189781,-0.0522 0.527281,-0.61264 1.220031,-0.92725 l -1.06874,-1.1978 c -2.429861,-0.34913 -4.909371,-0.78601 -7.026508,-1.11684 -0.45932,-0.0731 -1.51927,-0.28149 -1.68396,-0.0596 0.19016,0.30552 1.30419,0.66078 1.78951,0.83733 0.909647,0.3294 6.574377,2.34465 6.769667,2.46417 z"
             id="path8702" />
          <path
             style="fill:#808080;fill-opacity:1;fill-rule:evenodd;stroke:none;stroke-width:0.123532"
             d="m 82.182846,180.94445 c 5.947384,0.34562 6.382761,-5.59027 -0.125526,-5.46868 0.520592,0.74473 1.202304,2.90789 0.125526,5.46868 z"
             id="path8704"
             inkscape:transform-center-x="28.641062"
             inkscape:transform-center-y="23.227418"
             sodipodi:nodetypes="ccc" />
          <path
             style="fill:#000000;fill-opacity:1;fill-rule:evenodd;stroke:none;stroke-width:0.123532"
             d="m 81.62911,174.91874 c 0.788119,-2.40349 9.020676,-0.93554 10.092856,-1.05302 1.06829,-0.12043 6.538946,-0.0507 6.523176,1.02071 -0.0129,0.85584 -0.862703,1.88011 -0.465333,2.38675 0.82434,1.04677 1.13957,1.46886 1.71776,2.7821 0.546441,1.25019 -1.725864,1.76471 -1.698504,2.92454 0.0284,0.9875 -0.03275,3.02154 -0.571756,3.73143 -6.824346,-3.41245 -12.666203,-5.84355 -15.094206,-5.72874 2.628772,-2.71879 0.732243,-4.40044 -0.503993,-6.06377 z"
             id="path8706"
             sodipodi:nodetypes="ccccccccc" />
          <path
             style="fill:#4d4d4d;fill-opacity:1;fill-rule:evenodd;stroke:none;stroke-width:0.123532"
             d="m 95.914527,177.86722 0.590528,-0.93107 c -0.818469,-0.55717 -1.449983,-1.27692 -1.641072,-1.38136 -0.121607,0.0544 -5.204363,0.37641 -5.966898,0.41729 -0.442128,0.0213 -1.424314,0.0447 -1.525898,0.30941 0.241458,0.29363 1.352197,0.42663 1.762916,0.4957 2.027724,0.3233 4.454641,0.67657 6.780447,1.09001 z"
             id="path8708" />
          <path
             style="fill:#4d4d4d;fill-opacity:1;fill-rule:evenodd;stroke:none;stroke-width:0.123532"
             d="m 95.526874,183.11309 c 0.189781,-0.0522 0.527281,-0.61264 1.220031,-0.92725 l -1.06874,-1.1978 c -2.429861,-0.34913 -4.909371,-0.78601 -7.026508,-1.11684 -0.45932,-0.0731 -1.51927,-0.28149 -1.68396,-0.0596 0.19016,0.30552 1.30419,0.66078 1.78951,0.83733 0.909647,0.3294 6.574377,2.34465 6.769667,2.46417 z"
             id="path8710" />
          <path
             style="fill:#808080;fill-opacity:1;fill-rule:evenodd;stroke:none;stroke-width:0.123532"
             d="m 82.182846,180.94445 c 5.947384,0.34562 6.382761,-5.59027 -0.125526,-5.46868 0.520592,0.74473 1.202304,2.90789 0.125526,5.46868 z"
             id="path8712"
             inkscape:transform-center-x="28.641062"
             inkscape:transform-center-y="23.227418"
             sodipodi:nodetypes="ccc" />
        </g>
        <g
           id="g8724"
           transform="matrix(0.07419264,0.64846436,-0.64623414,0.07393748,194.74291,66.189011)"
           style="display:inline">
          <path
             style="fill:#000000;fill-opacity:1;fill-rule:evenodd;stroke:none;stroke-width:0.123532"
             d="m 81.214549,176.16488 c 0.856205,-1.52198 8.95801,-0.19283 10.031286,-0.29976 1.069414,-0.10991 6.539129,0.0136 6.512893,1.08483 -0.02126,0.85567 -0.881027,1.87154 -0.488626,2.38206 0.814074,1.05483 1.125165,1.48 1.690498,2.79886 0.534199,1.25551 -1.743028,1.74765 -1.727001,2.90769 0.01875,0.98774 -0.06232,3.02108 -0.608177,3.72563 -6.790685,-3.47942 -12.754183,-5.38975 -15.122099,-5.83464 2.655208,-2.6928 0.931152,-5.08925 -0.288774,-6.76467 z"
             id="path8716"
             sodipodi:nodetypes="ccccccccc" />
          <path
             style="fill:#808080;fill-opacity:1;fill-rule:evenodd;stroke:none;stroke-width:0.123532"
             d="m 81.649703,182.82801 c 7.797173,0.86718 5.528055,-5.47873 0.331753,-5.55554 0.699481,1.70616 1.703151,2.81524 -0.331753,5.55554 z"
             id="path8718"
             inkscape:transform-center-x="28.641062"
             inkscape:transform-center-y="23.227418"
             sodipodi:nodetypes="ccc" />
          <path
             style="fill:#4d4d4d;fill-opacity:1;fill-rule:evenodd;stroke:none;stroke-width:0.107313"
             d="m 96.144963,180.27868 0.535104,-0.75085 c -0.765523,-0.46457 -1.359929,-1.05916 -1.538325,-1.14673 -0.111968,0.0427 -4.81706,0.23895 -5.523032,0.26234 -0.409363,0.0116 -1.319072,0.0179 -1.409771,0.23222 0.227508,0.24236 1.258344,0.36516 1.639773,0.42678 1.882895,0.28976 4.136035,0.60914 6.296272,0.97622 z"
             id="path8720" />
          <path
             style="fill:#4d4d4d;fill-opacity:1;fill-rule:evenodd;stroke:none;stroke-width:0.0994146"
             d="m 95.362402,185.55075 c 0.171728,-0.0327 0.466324,-0.42353 1.09031,-0.63121 l -1.001525,-0.87689 c -2.222214,-0.30486 -4.491695,-0.67328 -6.428525,-0.95784 -0.420232,-0.0627 -1.390898,-0.23556 -1.535843,-0.0816 0.180334,0.22175 1.203671,0.50037 1.649984,0.63724 0.8365,0.25547 6.044886,1.82071 6.225599,1.91027 z"
             id="path8722" />
        </g>
      </g>
    </g>
  </g>
</svg>
