<?xml version="1.0" encoding="UTF-8" standalone="no"?>
<!-- Created with Inkscape (http://www.inkscape.org/) -->

<svg
   width="122.89487mm"
   height="161.38718mm"
   viewBox="0 0 122.89487 161.38718"
   version="1.1"
   id="svg5"
   xml:space="preserve"
   inkscape:version="1.2.2 (732a01da63, 2022-12-09)"
   sodipodi:docname="personagem1.svg"
   inkscape:export-filename="desenhoTCC.png"
   inkscape:export-xdpi="96"
   inkscape:export-ydpi="96"
   xmlns:inkscape="http://www.inkscape.org/namespaces/inkscape"
   xmlns:sodipodi="http://sodipodi.sourceforge.net/DTD/sodipodi-0.dtd"
   xmlns:xlink="http://www.w3.org/1999/xlink"
   xmlns="http://www.w3.org/2000/svg"
   xmlns:svg="http://www.w3.org/2000/svg"><sodipodi:namedview
     id="namedview7"
     pagecolor="#ffffff"
     bordercolor="#000000"
     borderopacity="0.25"
     inkscape:showpageshadow="2"
     inkscape:pageopacity="0.0"
     inkscape:pagecheckerboard="0"
     inkscape:deskcolor="#d1d1d1"
     inkscape:document-units="mm"
     showgrid="false"
     inkscape:zoom="0.70710678"
     inkscape:cx="263.75083"
     inkscape:cy="274.35743"
     inkscape:window-width="1366"
     inkscape:window-height="705"
     inkscape:window-x="-8"
     inkscape:window-y="-8"
     inkscape:window-maximized="1"
     inkscape:current-layer="layer1-5"
     showguides="true" /><defs
     id="defs2"><linearGradient
       id="linearGradient1179"
       inkscape:swatch="solid"><stop
         style="stop-color:#000000;stop-opacity:1;"
         offset="0"
         id="stop1177" /></linearGradient><linearGradient
       id="linearGradient1004"
       inkscape:swatch="solid"><stop
         style="stop-color:#ff9842;stop-opacity:1;"
         offset="0"
         id="stop1002" /></linearGradient><linearGradient
       id="linearGradient998"
       inkscape:swatch="solid"><stop
         style="stop-color:#000000;stop-opacity:1;"
         offset="0"
         id="stop996" /></linearGradient><linearGradient
       id="linearGradient992"
       inkscape:swatch="solid"><stop
         style="stop-color:#000000;stop-opacity:1;"
         offset="0"
         id="stop990" /></linearGradient><linearGradient
       id="linearGradient986"
       inkscape:swatch="solid"><stop
         style="stop-color:#ff7c0f;stop-opacity:1;"
         offset="0"
         id="stop984" /></linearGradient><linearGradient
       id="linearGradient980"
       inkscape:swatch="solid"><stop
         style="stop-color:#ff9842;stop-opacity:1;"
         offset="0"
         id="stop978" /></linearGradient><linearGradient
       id="linearGradient2950"
       inkscape:swatch="solid"><stop
         style="stop-color:#080808;stop-opacity:1;"
         offset="0"
         id="stop2948" /></linearGradient><linearGradient
       id="linearGradient2944"
       inkscape:swatch="solid"><stop
         style="stop-color:#000000;stop-opacity:1;"
         offset="0"
         id="stop2942" /></linearGradient><linearGradient
       id="linearGradient2938"
       inkscape:swatch="solid"><stop
         style="stop-color:#db7c3e;stop-opacity:1;"
         offset="0"
         id="stop2936" /></linearGradient><linearGradient
       id="linearGradient2831"
       inkscape:swatch="solid"><stop
         style="stop-color:#b28c00;stop-opacity:1;"
         offset="0"
         id="stop2829" /></linearGradient><linearGradient
       id="linearGradient2581"
       inkscape:swatch="solid"><stop
         style="stop-color:#9b9b9b;stop-opacity:1;"
         offset="0"
         id="stop2579" /></linearGradient><linearGradient
       id="linearGradient2575"
       inkscape:swatch="solid"><stop
         style="stop-color:#000000;stop-opacity:1;"
         offset="0"
         id="stop2573" /></linearGradient><linearGradient
       id="linearGradient2455"
       inkscape:swatch="solid"><stop
         style="stop-color:#000000;stop-opacity:1;"
         offset="0"
         id="stop2453" /></linearGradient><linearGradient
       id="linearGradient2447"
       inkscape:swatch="solid"><stop
         style="stop-color:#000000;stop-opacity:1;"
         offset="0"
         id="stop2445" /></linearGradient><linearGradient
       id="linearGradient2439"
       inkscape:swatch="solid"><stop
         style="stop-color:#000000;stop-opacity:1;"
         offset="0"
         id="stop2437" /></linearGradient><linearGradient
       id="linearGradient2427"
       inkscape:swatch="solid"><stop
         style="stop-color:#000000;stop-opacity:1;"
         offset="0"
         id="stop2425" /></linearGradient><linearGradient
       id="linearGradient2419"
       inkscape:swatch="solid"><stop
         style="stop-color:#000000;stop-opacity:1;"
         offset="0"
         id="stop2417" /></linearGradient><linearGradient
       id="linearGradient2342"
       inkscape:swatch="solid"><stop
         style="stop-color:#c7620a;stop-opacity:1;"
         offset="0"
         id="stop2340" /></linearGradient><linearGradient
       id="linearGradient2322"
       inkscape:swatch="solid"><stop
         style="stop-color:#000000;stop-opacity:1;"
         offset="0"
         id="stop2320" /></linearGradient><linearGradient
       id="linearGradient1141"
       inkscape:swatch="solid"><stop
         style="stop-color:#193917;stop-opacity:1;"
         offset="0"
         id="stop1139" /></linearGradient><linearGradient
       id="linearGradient1393"
       inkscape:swatch="solid"><stop
         style="stop-color:#14a3c1;stop-opacity:1;"
         offset="0"
         id="stop1391" /></linearGradient><filter
       inkscape:collect="always"
       style="color-interpolation-filters:sRGB"
       id="filter2404-0"
       x="-0.059972737"
       y="-0.1563494"
       width="1.1199455"
       height="1.3126988"><feGaussianBlur
         inkscape:collect="always"
         stdDeviation="0.7925607"
         id="feGaussianBlur2406-4" /></filter><filter
       inkscape:collect="always"
       style="color-interpolation-filters:sRGB"
       id="filter2408-3"
       x="-0.090597695"
       y="-0.26779684"
       width="1.1811954"
       height="1.5355937"><feGaussianBlur
         inkscape:collect="always"
         stdDeviation="0.83164514"
         id="feGaussianBlur2410-1" /></filter><linearGradient
       inkscape:collect="always"
       xlink:href="#linearGradient2342"
       id="linearGradient2421-3"
       x1="89.426537"
       y1="114.77016"
       x2="129.91229"
       y2="114.77016"
       gradientUnits="userSpaceOnUse"
       gradientTransform="matrix(0.60287999,0.03019736,-0.03513724,0.69766228,-0.71038,87.94088)" /><linearGradient
       inkscape:collect="always"
       xlink:href="#linearGradient1004"
       id="linearGradient982-7"
       x1="86.900986"
       y1="120.60933"
       x2="127.75605"
       y2="120.60933"
       gradientUnits="userSpaceOnUse"
       gradientTransform="matrix(0.60287999,0.03019736,-0.03513724,0.69766228,0.86968,84.00374)" /><linearGradient
       inkscape:collect="always"
       xlink:href="#linearGradient1004"
       id="linearGradient477-8"
       gradientUnits="userSpaceOnUse"
       x1="115.64986"
       y1="156.38826"
       x2="149.8492"
       y2="156.38826"
       gradientTransform="matrix(0.58745129,0.13132831,-0.15589779,0.69735427,22.60601,69.08603)" /><linearGradient
       inkscape:collect="always"
       xlink:href="#linearGradient1004"
       id="linearGradient2125"
       gradientUnits="userSpaceOnUse"
       x1="115.64986"
       y1="156.38826"
       x2="149.8492"
       y2="156.38826"
       gradientTransform="matrix(0.43147171,0.41973599,-0.49826206,0.51219335,89.96753,72.64544)" /><pattern
       id="EMFhbasepattern"
       patternUnits="userSpaceOnUse"
       width="6"
       height="6"
       x="0"
       y="0" /><pattern
       id="EMFhbasepattern-7"
       patternUnits="userSpaceOnUse"
       width="6"
       height="6"
       x="0"
       y="0" /><linearGradient
       inkscape:collect="always"
       xlink:href="#linearGradient2342"
       id="linearGradient1713"
       gradientUnits="userSpaceOnUse"
       gradientTransform="matrix(0.51592557,-0.05803106,0.05816833,0.62386624,13.534287,92.560897)"
       x1="43.264938"
       y1="153.18364"
       x2="76.476234"
       y2="153.18364" /><linearGradient
       inkscape:collect="always"
       xlink:href="#linearGradient1004"
       id="linearGradient1717"
       gradientUnits="userSpaceOnUse"
       gradientTransform="matrix(-0.49440714,0.18058937,0.17853203,0.67340098,65.12398,77.33908)"
       x1="86.900986"
       y1="120.60933"
       x2="127.75605"
       y2="120.60933" /><linearGradient
       inkscape:collect="always"
       xlink:href="#linearGradient2342"
       id="linearGradient1719"
       gradientUnits="userSpaceOnUse"
       gradientTransform="matrix(-0.49440714,0.18058937,0.17853203,0.67340098,67.27948,80.79309)"
       x1="89.426537"
       y1="114.77016"
       x2="129.91229"
       y2="114.77016" /><pattern
       id="EMFhbasepattern-4"
       patternUnits="userSpaceOnUse"
       width="6"
       height="6"
       x="0"
       y="0" /><filter
       inkscape:collect="always"
       style="color-interpolation-filters:sRGB"
       id="filter2531"
       x="-0.018515715"
       y="-0.027773024"
       width="1.0370314"
       height="1.055546"><feGaussianBlur
         inkscape:collect="always"
         stdDeviation="0.14484188"
         id="feGaussianBlur2533" /></filter><pattern
       id="EMFhbasepattern-8"
       patternUnits="userSpaceOnUse"
       width="6"
       height="6"
       x="0"
       y="0" /><pattern
       id="EMFhbasepattern-2"
       patternUnits="userSpaceOnUse"
       width="6"
       height="6"
       x="0"
       y="0" /></defs><g
     inkscape:label="Camada 1"
     inkscape:groupmode="layer"
     id="layer1"
     style="display:inline"
     transform="translate(-48.677827,-47.910697)"><g
       inkscape:label="Camada 1"
       id="layer1-5"
       transform="matrix(0.65269484,0,0,0.6504501,47.002092,41.027503)"><g
         id="g4149"
         style="stroke:#412a07;stroke-opacity:1"
         transform="translate(-59.919906,7.6728822)" /><g
         id="g695"
         transform="translate(-0.95828043,-16.270183)" /><g
         id="g55794"
         transform="translate(33.250279,-59.826946)"><path
           style="fill:#666666;fill-opacity:1;fill-rule:evenodd;stroke:#000000;stroke-width:0.361356;stroke-opacity:1"
           d="m 47.834757,163.76442 3.856914,-2.76039 c 3.052147,-0.17459 1.715205,2.6633 1.953871,2.15382 l -4.145799,2.98813 c 0.113656,0.2161 -2.905849,-0.051 -1.664983,-2.38155 z"
           id="path1788"
           sodipodi:nodetypes="cccccc" /><g
           id="g3573"><path
             style="fill:#666666;fill-opacity:1;fill-rule:evenodd;stroke:#000000;stroke-width:0.361356;stroke-opacity:1"
             d="M 65.211046,192.90793 51.296957,174.50297 c -1.28766,-3.24304 2.424958,-2.91887 -1.687299,-8.30211 l 3.905565,-2.8848 c 2.825128,5.04508 6.327767,2.09215 8.349704,4.45622 l 13.800677,18.06608 c 2.063693,4.95297 -8.926322,10.0502 -10.454558,7.06957 z"
             id="path1786"
             sodipodi:nodetypes="ccccccc" /><path
             style="fill:#1a1a1a;fill-opacity:1;fill-rule:evenodd;stroke:#000000;stroke-width:0.361356;stroke-opacity:1"
             d="m 52.292647,175.72645 10.069341,-6.88053 1.695701,2.23663 -10.017283,7.01958 z"
             id="path1790"
             sodipodi:nodetypes="ccccc" /><path
             style="fill:#1a1a1a;fill-opacity:1;fill-rule:evenodd;stroke:#000000;stroke-width:0.361356;stroke-opacity:1"
             d="m 61.4939,187.9062 10.069341,-6.88053 1.695701,2.23663 -10.017284,7.01958 z"
             id="path1792"
             sodipodi:nodetypes="ccccc" /></g><ellipse
           style="display:inline;fill:#dba37d;fill-opacity:1;stroke:#d38d5f;stroke-width:0.416123;stroke-dasharray:none;stroke-opacity:0.99"
           id="path438-0"
           cx="-5.0229964"
           cy="159.45502"
           rx="2.903049"
           ry="4.8830538"
           transform="matrix(0.97115906,-0.23843255,0.20486963,0.97878927,0,0)" /><path
           id="path1040-5"
           style="display:inline;fill:#002255;stroke-width:0.138472"
           d="m 54.39074,145.78448 -0.27785,2.59115 -0.7567,3.21235 4.19095,-4.62887 c 0.19812,-0.63897 0.0292,-2.83574 0.0777,-2.92421 0,0 -1.73274,1.35019 -3.23409,1.74958 z m 8.39711,-0.74811 c -0.005,0.005 -0.0106,0.01 -0.0159,0.0143 0.009,-9.1e-4 0.0177,-0.002 0.0267,-0.003 -0.002,-0.004 -0.006,-0.007 -0.009,-0.01 -4.4e-4,-4.5e-4 -6.4e-4,-0.001 -0.001,-0.001 z"
           sodipodi:nodetypes="ccccccsccsss" /><path
           style="display:inline;opacity:0.474747;fill:#000000;fill-opacity:1;stroke-width:0.0556044"
           id="path10756-3"
           sodipodi:type="arc"
           sodipodi:cx="165.06216"
           sodipodi:cy="6.5117087"
           sodipodi:rx="1.6038792"
           sodipodi:ry="1.4586422"
           sodipodi:start="0"
           sodipodi:end="3.1152041"
           sodipodi:arc-type="slice"
           d="m 166.66604,6.5117087 a 1.6038792,1.4586422 0 0 1 -1.58271,1.4585153 1.6038792,1.4586422 0 0 1 -1.62449,-1.4200283 l 1.60332,-0.038487 z"
           transform="matrix(0.26836157,0.96331826,-0.86188137,0.50710995,0,0)" /><path
           style="display:inline;fill:#dba37d;fill-opacity:1;stroke:#d38d5f;stroke-width:0.377161;stroke-opacity:0.99"
           d="m 38.45169,167.86268 c 3.01528,1.11948 3.48622,2.3175 3.35036,3.70838 -0.1322,1.9748 10.82377,-1.78966 9.34445,-3.70162 -1.79916,-1.15669 -1.92048,-2.07679 -0.26491,-4.20558 z"
           id="path1244-9"
           sodipodi:nodetypes="ccccc" /><path
           style="display:inline;fill:#000000;fill-opacity:1;stroke-width:0.316379"
           d="m 39.00057,159.4375 c 0.9786,-0.24026 1.36718,0.5217 0.26594,0.95854 -0.79119,0.31387 -0.19013,2.47923 0.2542,2.99256 0.46689,0.53939 1.52386,0.47444 0.0425,0.77632 -1.09456,0.22307 -2.46905,-4.25938 -0.56268,-4.72742 z"
           id="path2876-3"
           sodipodi:nodetypes="ssssss" /><path
           style="fill:#deaa87;fill-rule:evenodd;stroke:none;stroke-width:0.146047;stroke-dasharray:none;stroke-opacity:1"
           d="m 23.713996,184.36774 c 0.483205,1.53577 0.747921,1.68376 2.388713,3.53035 1.85422,2.30313 -1.81941,2.19467 -2.703492,1.02098 -0.882276,0.92365 -3.849266,0.32051 -3.605372,-0.70966 1.31035,-1.12472 2.804172,-2.89744 3.920151,-3.84167 z"
           id="path1711"
           sodipodi:nodetypes="ccccc" /><path
           style="fill:#deaa87;fill-rule:evenodd;stroke:none;stroke-width:0.146047;stroke-dasharray:none;stroke-opacity:1"
           d="m 23.720181,184.63528 -1.856782,-3.08265 c -1.191412,-1.89222 -2.184644,-0.74586 -1.157063,1.49028 l -1.371416,-1.22764 c -0.740852,-1.04943 -2.341027,-1.0561 -1.87405,0.49823 l 1.265325,1.34934 -1.494822,-0.40102 c -1.710452,-0.74506 -3.046715,0.33044 -1.436175,1.15725 l 1.545283,0.68953 -2.284716,0.29481 c -1.027412,0.80764 0.486564,1.61668 2.427662,1.79279 0.372925,1.19128 1.680625,2.12387 2.895021,1.51212 1.576934,-0.79443 3.341687,-4.07294 3.341687,-4.07294 z"
           id="path1709"
           sodipodi:nodetypes="cccccccccccscc" /><path
           style="fill:#deaa87;fill-rule:evenodd;stroke:none;stroke-width:0.146047;stroke-dasharray:none;stroke-opacity:1"
           d="m 25.123855,187.33693 -0.101828,-0.30561 2.258564,-1.79984 -2.8037,-3.73338 -2.023966,1.0369 c 0.909979,1.65072 -0.434236,0.21018 2.67093,4.80193 z"
           id="path1713"
           sodipodi:nodetypes="cccccc" /><path
           style="display:inline;fill:#d38d5f;fill-opacity:1;fill-rule:evenodd;stroke:none;stroke-width:0.118514;stroke-opacity:1"
           d="m 26.81873,184.90734 c 0.33501,-0.24801 0.0108,-0.0966 0.42662,-0.0212 -0.015,0.58744 -1.43564,1.42277 -2.09623,2.07111 0.2088,0.18674 0.77953,0.53859 1.00784,0.73744 0.19074,0.16125 0.22622,0.2863 0.45544,0.50408 0.22494,0.21614 0.22185,0.32644 0.15351,0.65329 -0.065,0.30957 -0.19686,0.49598 -0.42065,0.65186 -1.23685,0.86435 -2.9493,-0.32517 -3.24897,-0.34696 -0.22927,0.0423 -0.53066,0.1592 -0.74946,0.20088 -0.67498,0.13184 -1.64436,0.11194 -2.14356,-0.42747 0.23371,-0.34253 0.40003,0.20691 1.13337,0.19501 0.78386,-0.0112 1.09667,-0.11067 1.60508,-0.33877 0.65673,-0.29211 0.79774,0.18918 1.62547,0.38984 1.95241,0.88438 2.4626,-0.77056 0.86067,-1.56259 -0.49126,-0.46682 -1.04224,-1.1798 -1.00272,-1.42266 0.3313,-0.0636 -0.0227,-0.0724 0.41506,0.23907 z"
           id="path1879"
           sodipodi:nodetypes="ccccccccccccccccc" /><path
           style="display:inline;fill:#d38d5f;fill-opacity:0.988679;fill-rule:evenodd;stroke:none;stroke-width:0.019;stroke-dasharray:none"
           d="m 21.0718,180.89633 c -1.43602,-0.24602 0.0471,2.36005 -0.35154,2.5094 -0.85144,-0.33579 -1.94578,-2.24314 -2.76535,-2.28684 -1.27561,0.68574 0.48136,2.00289 0.891,2.66568 -0.77737,0.0442 -2.09347,-0.49222 -2.67078,-0.60609 -0.28673,-0.0586 -0.6544,0.0489 -0.79181,0.28387 -0.47834,1.01315 2.01303,1.04943 2.04402,1.73479 -0.15477,0.19159 -0.81727,0.15257 -1.12617,0.18391 -2.67367,0.2125 -0.56263,1.91797 1.0394,1.45967 0.34088,0.13512 0.33981,0.19972 0.42936,0.44301 0.52557,1.39021 2.17379,1.14643 2.1196,1.54836 -0.65494,0.36504 -2.50649,-0.63276 -2.52445,-1.39675 -0.51704,-0.21181 -0.92318,-0.13035 -1.51406,-0.3472 -0.67229,-0.24801 -0.90132,-0.33101 -1.10477,-0.79904 -0.16788,-0.38475 -0.14077,-0.82492 0.4114,-1.01769 0.34141,-0.11552 0.96309,-0.0448 1.21222,-0.24209 -0.50035,-0.21471 -1.34973,-0.77667 -1.34433,-1.31804 0.007,-0.86608 0.64263,-0.8456 1.48804,-0.67068 l 1.06841,0.17665 c 0.0595,0.0135 0.12764,0.0303 0.1848,0.0382 0.14386,0.0179 0.0386,0.0148 0.12626,0.002 -0.0181,-0.24381 -0.23707,-0.33691 -0.36628,-0.53035 -0.26935,-0.39571 -0.57553,-1.42327 0.20673,-1.81597 0.62819,-0.31697 1.9774,1.40705 2.4411,1.60309 0.0255,-0.12493 -0.18954,-0.74604 -0.0289,-1.25122 0.15155,-0.47615 0.44925,-0.84266 0.97366,-0.78393 0.66695,0.4592 0.99775,1.29585 1.37412,1.89147 0.15963,0.11952 0.68344,-0.24563 1.10347,-0.40797 0.28041,-0.10838 0.51274,-0.18283 0.65103,-0.17825 0.0485,0.26475 -1.37258,0.69987 -1.56053,1.03204 0.0981,0.24657 0.41108,0.76115 0.57111,1.02677 l 0.63701,0.95445 c -0.24642,0.0358 -0.4174,-0.2387 -0.5053,-0.36059 -0.14589,-0.19053 -0.27335,-0.30434 -0.4145,-0.48377 -0.34595,-0.45754 -0.36091,-0.59332 -0.61687,-1.01642 -0.31923,-0.56107 -0.96541,-2.01837 -1.28713,-2.04035 z"
           id="path1877"
           sodipodi:nodetypes="cccccccccccccccccccccccccccsccccccccc" /><path
           style="display:inline;fill:#deaa87;fill-opacity:1;fill-rule:evenodd;stroke:none;stroke-width:0.1;stroke-dasharray:none;stroke-opacity:1"
           d="m 74.12631,172.38091 c 1.61815,-0.0388 4.59936,-0.65897 6.08714,-0.86682 l 0.36004,0.5577 0.0508,0.15159 -1.55641,1.36608 c 0.46828,0.0592 0.60874,0.5812 1.7617,0.16053 0.36284,-0.0551 0.76376,0.24904 0.62733,0.59887 -0.0786,0.20163 -0.33577,0.41842 -0.8816,0.59034 l -1.14728,0.31731 c 0,0 1.23221,0.54074 1.49506,0.57102 1.06177,0.12232 -0.0445,1.06312 -0.0445,1.06312 l -2.00062,0.14671 c 1.3375,1.83285 0.34561,1.81367 -0.57374,1.6507 0,0 -0.58566,-0.63191 -0.79375,-0.61067 -2.89588,0.29565 -3.66152,-0.7216 -5.53117,-1.5392 -2.44954,-4.35008 3.41677,-3.35722 2.147,-4.15728 z"
           id="path4205"
           sodipodi:nodetypes="ccccccsccscccscc" /><path
           style="display:inline;fill:#4f86d8;fill-opacity:1;fill-rule:evenodd;stroke:none;stroke-width:0.171578"
           d="m 72.25219,215.52415 c -3.18949,0.39102 -6.30848,-1.30287 -8.15406,-2.70991 -2.85671,-1.64233 -7.71103,-6.07116 -10.57408,-11.48064 -6.56,-8.61309 -10.92479,-12.16454 -13.97852,-19.63163 -1.2896,-3.15339 -6.52174,-0.11225 -12.11345,3.53525 -1.61277,1.13644 -2.55362,-2.07331 -3.80016,-3.42588 4.43928,-1.4885 14.7503,-7.78769 17.94393,-10.49689 4.08905,0.18008 6.67497,-0.49704 9.89351,-3.79178 0.3158,-0.28036 0.21823,-0.48101 1.00094,-0.4351 4.85584,0.28482 10.15554,1.32725 14.62023,2.61189 0.43597,0.12203 7.18198,2.81896 7.36878,2.85089 -1.46731,2.31159 -0.92289,5.86983 -6.13098,3.1605 -7.60554,-3.06476 -10.56949,-3.1194 -11.49081,-1.99056 -1.53845,1.88494 6.03156,8.60532 9.93567,10.23818 5.68061,2.37586 7.5895,10.3472 13.44184,8.77907 7.70785,-9.12388 9.0331,1.70246 7.00608,0.93614 l -0.0713,-0.10348 -0.18442,0.58757 c -1.3304,2.44363 -2.28467,4.20668 -5.09377,6.33884 -2.62126,1.22924 -7.50541,1.69103 -11.60917,0.18892 -1.83132,-0.67307 -3.19111,-1.16902 -3.51867,-0.97728 l -0.0693,0.0381 c 0.95121,2.50825 2.08496,6.49777 4.61131,7.51185 2.96931,1.19189 5.90741,1.90066 7.93965,1.67472 4.17704,4.47765 -3.63807,6.06293 -6.97325,6.59122 z"
           id="path2228"
           sodipodi:nodetypes="cccsccccscccssccccccccsccc" /><path
           style="display:inline;fill:url(#linearGradient477-8);fill-opacity:1;fill-rule:evenodd;stroke:none;stroke-width:0.173526"
           d="m 66.68357,199.75255 c 4.91651,1.89306 10.16641,2.98365 15.35012,0.71508 2.10256,-1.36732 4.937,-5.56381 5.41574,-7.36568 0,0 -0.2545,-1.35797 -0.50671,-2.05387 -5.61921,4.3757 -7.66288,8.98272 -13.8081,3.88495 -3.45134,-0.88212 -4.83997,1.83905 -6.45105,4.81952 z"
           id="path387-0"
           sodipodi:nodetypes="cccccc" /><path
           style="display:inline;fill:url(#linearGradient2125);fill-opacity:1;fill-rule:evenodd;stroke:none;stroke-width:0.173526"
           d="m 58.08978,207.71636 c 1.77859,2.00393 7.9277,7.99657 13.63061,7.96689 2.50727,-0.0625 7.04504,-1.72001 8.39713,-3.00366 0,0 1.77222,-2.26851 -0.22935,-2.15146 -7.07896,0.78146 -10.28415,3.33978 -12.84592,-4.22252 -2.477,-2.56015 -6.0183,-0.28318 -8.95247,1.41075 z"
           id="path2123"
           sodipodi:nodetypes="cccccc" /><rect
           style="display:inline;fill:none;fill-opacity:1;stroke-width:0.264583"
           id="rect712"
           width="25.256971"
           height="15.434815"
           x="65.946533"
           y="186.13336"
           ry="0" /><path
           style="fill:#000000;fill-opacity:1;fill-rule:evenodd;stroke:none;stroke-width:0.123532"
           d="m 83.34823,189.76719 c -0.7485,-4.80615 13.29483,-3.97895 14.36701,-4.09643 1.06829,-0.12043 2.71967,0.2273 2.7039,1.29872 -0.0129,0.85584 -0.43277,1.91812 -0.0354,2.42476 0.82434,1.04677 1.75626,1.1752 2.33445,2.48844 0.54644,1.25019 -0.55992,1.96731 -0.53256,3.12714 0.0284,0.9875 1.57396,2.79658 1.03495,3.50647 -4.55764,-1.82159 -11.1397,-5.92418 -15.98289,-4.75603 1.48049,-1.38396 -0.26493,-2.58018 -0.94739,-3.02842 -1.04304,-0.68698 -2.82106,-0.85093 -2.94209,-0.96465 z"
           id="path457"
           sodipodi:nodetypes="cccccccccc" /><path
           style="fill:#4d4d4d;fill-opacity:1;fill-rule:evenodd;stroke:none;stroke-width:0.123532"
           d="m 99.297984,190.19038 0.53463,-0.96448 c -0.84987,-0.50763 -1.52269,-1.18865 -1.7196,-1.28157 -0.1182,0.0615 -5.173077,0.68454 -5.931867,0.7706 -0.44009,0.0475 -1.41919,0.12912 -1.505,0.39939 0.25834,0.2788 1.37497,0.34565 1.78904,0.39023 2.04323,0.20243 4.486717,0.41108 6.832817,0.6858 z"
           id="path459" /><path
           style="fill:#4d4d4d;fill-opacity:1;fill-rule:evenodd;stroke:none;stroke-width:0.123532"
           d="m 99.879029,195.88561 c 0.189781,-0.0522 0.527281,-0.61264 1.220031,-0.92725 l -1.06874,-1.1978 c -2.429861,-0.34913 -4.909371,-0.78601 -7.026508,-1.11684 -0.45932,-0.0731 -1.51927,-0.28149 -1.68396,-0.0596 0.19016,0.30552 1.30419,0.66078 1.78951,0.83733 0.909647,0.3294 6.574377,2.34465 6.769667,2.46417 z"
           id="path461" /><path
           style="fill:#808080;fill-opacity:1;fill-rule:evenodd;stroke:none;stroke-width:0.123532"
           d="m 87.25258,193.71975 c 6.20246,-1.4843 -1.26901,-8.14007 -3.93327,-3.94068 2.12373,0.97202 4.48267,1.21649 3.93327,3.94068 z"
           id="path463"
           inkscape:transform-center-x="23.524811"
           inkscape:transform-center-y="28.357171"
           sodipodi:nodetypes="ccc" /><path
           style="fill:#000000;fill-opacity:1;fill-rule:evenodd;stroke:none;stroke-width:0.123532"
           d="m 75.9066,208.70668 c 0.68739,-4.81527 13.36278,0.49713 14.42254,0.69782 1.0569,0.19673 2.53479,1.01148 2.20688,2.03161 -0.26219,0.81478 -0.97395,1.70818 -0.74179,2.30877 0.48278,1.24184 1.3366,1.63677 1.50616,3.06161 0.15761,1.35525 -1.10992,1.7181 -1.4224,2.83539 -0.26117,0.95275 0.68885,3.13427 -0.034,3.65585 -3.82719,-3.07293 -8.92459,-8.91855 -13.89781,-9.21539 1.82006,-0.89139 0.49996,-2.5451 -0.0219,-3.17307 -0.79701,-0.96159 -1.93519,-2.05848 -2.01774,-2.20259 z"
           id="path2341"
           sodipodi:nodetypes="cccccccccc" /><path
           style="fill:#4d4d4d;fill-opacity:1;fill-rule:evenodd;stroke:none;stroke-width:0.123532"
           d="m 90.81276,214.29387 0.79294,-0.76635 c -0.66463,-0.73365 -1.10927,-1.58145 -1.2705,-1.72779 -0.13102,0.0243 -5.14754,-0.8557 -5.89839,-0.99494 -0.43477,-0.0831 -1.39505,-0.29087 -1.55603,-0.0574 0.16567,0.34208 1.21413,0.73205 1.59713,0.89558 1.89511,0.79018 4.17121,1.70317 6.33486,2.65093 z"
           id="path2343" /><path
           style="fill:#4d4d4d;fill-opacity:1;fill-rule:evenodd;stroke:none;stroke-width:0.123532"
           d="m 90.32486,220.08342 c 0.19674,0.006 0.68318,-0.43199 1.4376,-0.53062 l -0.67244,-1.45765 c -2.22205,-1.04338 -4.46596,-2.18518 -6.39425,-3.11974 -0.41795,-0.20408 -1.37088,-0.71281 -1.59319,-0.54868 0.0927,0.34772 1.05445,1.01277 1.46707,1.32333 0.77384,0.58064 5.60333,4.16203 5.75521,4.33336 z"
           id="path2345" /><path
           style="fill:#808080;fill-opacity:1;fill-rule:evenodd;stroke:none;stroke-width:0.123532"
           d="m 77.97228,214.04794 c 6.36558,0.39133 1.72521,-8.56931 -2.04907,-5.3308 1.30306,1.52635 3.36993,2.88572 2.04907,5.3308 z"
           id="path2348"
           inkscape:transform-center-x="23.606195"
           inkscape:transform-center-y="28.286944"
           sodipodi:nodetypes="ccc" /><path
           style="display:inline;fill:#ac8c8b;fill-opacity:1;fill-rule:evenodd;stroke:none;stroke-width:0.118514;stroke-opacity:1"
           d="m 21.66929,188.29021 c -0.60848,-0.23287 -0.67358,-1.01489 -0.69871,-1.53544 -0.0113,-0.27839 -0.0173,-0.61974 0.0686,-0.93057 0.0662,-0.23941 0.28999,-0.83192 0.51653,-0.93102 0.60185,-0.25272 0.1184,0.57947 0.0174,0.79629 -0.26897,0.57057 -0.31086,1.70645 -0.0303,2.204 0.10586,0.18915 0.18262,0.16744 0.1264,0.39674 z"
           id="path1881" /><path
           style="fill:#d38d5f;fill-opacity:1;fill-rule:evenodd;stroke:none;stroke-width:0.11619"
           d="m 78.55752,173.56255 c 3.315939,-1.87565 1.576132,-2.24381 -0.04361,-1.59598 -1.356686,0.21228 -2.078046,0.13051 -3.620602,0.44118 -0.332809,0.0676 -0.636547,0.1173 -0.916411,0.0313 -0.254941,-0.0803 -1.418036,-0.2649 -1.480375,-0.61088 0.137044,-0.3 1.167076,0.32646 1.417347,0.45171 1.923588,-0.15176 3.7878,-0.53829 5.642443,-0.85259 2.312527,0.0234 0.412705,1.69221 -0.07408,2.09361 0.01247,0.003 0.03117,0.007 0.04104,0.006 l 0.387857,0.0249 c 0.157323,0.009 0.258567,0.004 0.41849,0.0166 0.552967,0.0446 0.600718,-0.11635 0.829715,0.11145 -0.382111,0.21895 -1.023345,0.27069 -1.387319,0.2574 -0.490137,-0.0147 -1.015065,-0.0344 -1.214476,-0.37515 z"
           id="path3846"
           sodipodi:nodetypes="cccccccccccccsc" /><path
           style="fill:#d38d5f;fill-opacity:1;fill-rule:evenodd;stroke:none;stroke-width:0.11619"
           d="m 79.146478,175.33788 c 0.19467,-0.35119 0.847334,-0.24679 1.398202,-0.44833 0.273617,-0.0997 0.504133,-0.23073 0.686368,-0.4374 0.360816,-0.41115 0.09395,-0.29459 0.08457,-0.60993 0.772085,0.1258 0.335539,1.29935 -1.126027,1.55499 0.253916,0.1967 0.697834,0.0872 1.050399,0.31277 0.966319,0.60655 -0.257388,1.50039 -1.03101,1.54926 -0.883698,0.048 -0.798569,-0.17795 -1.112683,-0.0692 0.151128,0.37565 0.650674,0.8531 0.53594,1.15519 -0.345814,-0.17183 -0.941433,-1.00611 -0.963272,-1.36116 0.891431,-0.0339 2.902605,0.13362 2.512609,-1.00888 -0.403371,-0.38394 -1.86213,-0.0171 -2.03509,-0.63727 z"
           id="path3848"
           sodipodi:nodetypes="sccccccccccss" /><path
           style="fill:#d38d5f;fill-opacity:1;fill-rule:evenodd;stroke:none;stroke-width:0.11619"
           d="m 76.148265,177.95347 c 1.655785,0.11458 0.995838,-0.13273 1.392522,-0.13954 0.410189,0.13755 0.585714,0.46662 0.981374,0.64995 0.168232,0.0756 0.315694,0.12189 0.502614,0.12814 0.350469,0.0163 0.325533,-0.13681 0.560218,-0.14411 0.231091,0.40021 -0.70294,0.78975 -1.757016,0.0739 -0.660483,-0.44701 -0.202011,-0.34439 -0.98393,-0.21148 -0.808924,0.13898 -2.184864,-0.0738 -2.898828,-0.56693 -0.277283,-0.19288 -0.632975,-0.54814 -0.906092,-0.61724 -0.200939,-0.0555 -0.265839,-0.0367 -0.468341,-0.13867 -0.291815,-0.1471 -0.221206,-0.17994 -0.290799,-0.41091 0.3193,-0.13825 0.434574,-0.0564 0.692119,0.0644 0.254942,0.11711 0.412267,0.12574 0.633465,0.26885 0.888431,0.57017 1.034364,0.93848 2.542694,1.04364 z"
           id="path3850" /><path
           style="fill:#d38d5f;fill-opacity:1;fill-rule:evenodd;stroke:none;stroke-width:0.11619"
           d="m 73.940316,175.35664 c 0.227389,-0.2976 0.825024,-0.10149 1.382646,-0.24927 0.747646,-0.19609 -0.07636,-0.35841 1.319328,0.037 0.309455,0.0836 0.551427,0.21923 0.832836,0.20427 0.346837,-0.0183 0.682751,-0.17727 0.791765,-0.50215 0.178556,-0.53606 -1.637691,-0.89949 -2.129993,-1.7867 0.26583,-0.11066 0.719654,0.22116 0.954874,0.37671 0.283509,0.19431 0.637637,0.46631 0.905574,0.67545 0.319862,0.24567 0.729021,0.46281 0.637156,0.85613 -0.07681,0.32617 -0.348338,0.59825 -0.729427,0.7376 -0.401859,0.14685 -1.2077,-0.0635 -1.515607,-0.21122 -0.820394,-0.38563 -0.917424,0.29511 -2.031671,0.14264 -0.08568,-0.0105 -0.164078,-0.0256 -0.257538,-0.0839 -0.127739,-0.0847 -0.146432,-0.16271 -0.159935,-0.19652 z"
           id="path3852" /><path
           style="display:inline;fill:url(#linearGradient982-7);fill-opacity:1;fill-rule:evenodd;stroke:url(#linearGradient2421-3);stroke-width:0.171809"
           d="m 49.91053,169.08257 c -0.12546,0.30641 1.04984,-0.18516 2.90836,-0.17396 1.42252,0.004 1.84486,1.73265 2.65903,1.72617 3.1455,-0.0382 15.4994,3.11419 17.55608,4.9587 0.11935,-0.14926 1.42095,-2.42657 1.35868,-3.06134 -4.6595,-2.61057 -11.35862,-4.27285 -17.97556,-5.00254 -4.98623,-0.77912 -4.63258,-0.67396 -6.50659,1.55297 z"
           id="path2415-1"
           sodipodi:nodetypes="ccccccc" /><path
           style="fill:#ff9842;fill-opacity:1;fill-rule:evenodd;stroke:none;stroke-width:0.150892"
           d="m 41.411384,179.22732 11.11631,-5.43072 c 0.28914,1.5493 2.536421,3.09573 3.740671,3.25231 0.7817,4.59063 5.46772,5.91051 7.62965,9.26902 0.15454,2.51963 -6.269492,10.04897 -11.449222,9.15319 -3.237366,-2.70826 -6.91844,-7.52056 -10.097178,-11.84157 0.36869,-1.16091 -0.06074,-3.41822 -0.940231,-4.40223 z"
           id="path1705"
           sodipodi:nodetypes="ccccccc" /><path
           style="fill:none;fill-opacity:1;fill-rule:evenodd;stroke:url(#linearGradient1713);stroke-width:0.150892"
           d="m 41.447213,179.20934 11.050425,-5.36264 c 0.28914,1.5493 2.639255,3.10994 3.843505,3.26652 0.7817,4.59063 5.41473,5.95406 7.57666,9.31257 0.15454,2.51963 -6.313253,9.95495 -11.492983,9.05917 -3.237366,-2.70826 -6.861184,-7.54312 -10.039922,-11.86413 0.36869,-1.16091 -0.0582,-3.42748 -0.937685,-4.41149 z"
           id="path1707"
           sodipodi:nodetypes="ccccccc" /><path
           style="display:inline;fill:url(#linearGradient1717);fill-opacity:1;fill-rule:evenodd;stroke:url(#linearGradient1719);stroke-width:0.159886"
           d="m 38.56936,175.30497 c -2.62146,0.7508 -11.47373,7.24928 -12.78758,9.56825 -0.13111,-0.11605 -2.05328,-2.43856 -2.13743,-3.07487 4.97111,-4.23682 8.66906,-6.27413 13.49981,-9.03305 1.38333,-0.66922 2.23001,-1.42716 3.92951,-1.57394 0.9824,0.0589 2.204319,0.14058 2.204319,0.14058 -1.51563,0.86751 -2.929579,0.9508 -4.043799,1.96123 -0.55774,0.47055 -0.41398,1.91385 -0.66483,2.0118 z"
           id="path1715"
           sodipodi:nodetypes="cccccccc" /><path
           style="fill:#1a1a1a;fill-opacity:1;fill-rule:evenodd;stroke:#000000;stroke-width:0.153475;stroke-dasharray:none;stroke-opacity:1"
           d="m 58.00503,166.48531 c -1.3785,-0.80934 -1.94796,-0.72364 -2.86234,-0.42446 -11.03734,3.61137 2.26898,16.42487 18.63057,18.54409 2.23106,0.28898 -1.26435,-3.30095 -1.28198,-2.98847 -8.50339,0.28961 -25.64467,-14.36352 -14.48625,-15.13116 z"
           id="path1876"
           sodipodi:nodetypes="csscc" /><path
           style="fill:#1a1a1a;fill-opacity:1;fill-rule:evenodd;stroke:#000000;stroke-width:0.457525;stroke-opacity:1"
           id="path1932"
           sodipodi:type="arc"
           sodipodi:cx="40.452114"
           sodipodi:cy="162.72025"
           sodipodi:rx="4.4489026"
           sodipodi:ry="4.2982812"
           sodipodi:start="0.57441444"
           sodipodi:end="0.54543906"
           sodipodi:open="true"
           sodipodi:arc-type="arc"
           d="m 44.187015,165.05569 a 4.4489026,4.2982812 0 0 1 -6.125064,1.28983 4.4489026,4.2982812 0 0 1 -1.379365,-5.9082 4.4489026,4.2982812 0 0 1 6.10508,-1.37542 4.4489026,4.2982812 0 0 1 1.467813,5.88827" /><path
           style="fill:#0044aa;fill-opacity:1;fill-rule:evenodd;stroke:#000000;stroke-width:0.272176;stroke-opacity:1"
           id="path1934"
           sodipodi:type="arc"
           sodipodi:cx="40.357021"
           sodipodi:cy="162.74696"
           sodipodi:rx="2.617085"
           sodipodi:ry="2.5858343"
           sodipodi:start="0.57441444"
           sodipodi:end="0.54543906"
           sodipodi:open="true"
           sodipodi:arc-type="arc"
           d="m 42.554092,164.15196 a 2.617085,2.5858343 0 0 1 -3.603094,0.77596 2.617085,2.5858343 0 0 1 -0.811417,-3.55436 2.617085,2.5858343 0 0 1 3.591338,-0.82745 2.617085,2.5858343 0 0 1 0.863447,3.54237" /><path
           style="display:inline;fill:#d38d5f;stroke-width:1.74341"
           id="path1298-5"
           sodipodi:type="arc"
           sodipodi:cx="-148.86563"
           sodipodi:cy="210.0634"
           sodipodi:rx="5.6954565"
           sodipodi:ry="3.922668"
           sodipodi:start="0.57441444"
           sodipodi:end="3.2217636"
           sodipodi:arc-type="arc"
           d="m -144.08423,212.19476 a 5.6954565,3.922668 0 0 1 -6.61238,1.58308 5.6954565,3.922668 0 0 1 -3.84618,-4.02859"
           transform="matrix(-0.99279493,0.1198258,-0.48356291,0.87530961,0,0)"
           sodipodi:open="true" /><path
           id="path382-1"
           style="display:inline;fill:#dba37d;fill-opacity:1;stroke:#d38d5f;stroke-width:0.416;stroke-dasharray:none;stroke-opacity:0.99"
           d="m 57.1629,146.87795 a 7.2368159,5.7309651 81.510689 0 0 -4.09344,8.44503 7.2368159,5.7309651 81.510689 0 0 7.05571,5.70753 7.2368159,5.7309651 81.510689 0 0 4.09349,-8.4448 7.2368159,5.7309651 81.510689 0 0 -7.05576,-5.70776 z" /><path
           id="path376-8"
           style="display:inline;fill:#dba37d;fill-opacity:1;stroke:#d38d5f;stroke-width:0.416;stroke-dasharray:none;stroke-opacity:0.99"
           d="m 36.45472,133.61925 c -3.75806,0.86929 -6.82694,3.09301 -9.33943,6.03423 -2.48979,2.91464 -4.62897,8.01157 -2.30202,11.65535 6.49441,10.16963 1.03136,7.53176 2.69919,13.96018 1.66784,6.42842 20.19532,5.4879 26.77981,-1.10991 4.09122,-4.0995 3.80091,-11.68592 2.19178,-18.17967 5.6e-4,0.003 9.2e-4,0.006 10e-4,0.009 0.008,0.0476 -0.0355,0.0564 -0.0437,0.009 -10e-4,-0.008 -0.002,-0.0158 -0.003,-0.0236 -0.003,0.0411 -0.0434,0.0395 -0.0445,-0.006 -7.2e-4,-0.0316 -0.003,-0.0631 -0.005,-0.0946 -0.003,-0.0461 -0.008,-0.0921 -0.0149,-0.13785 -0.006,-0.0525 -0.01,-0.10533 -0.016,-0.15787 -0.003,-0.0285 -0.006,-0.0573 -0.0104,-0.0857 -0.004,-0.0262 -0.0105,-0.052 -0.0153,-0.0781 -7.8e-4,-0.004 -0.001,-0.008 -0.002,-0.0117 -0.12883,-0.45888 -0.27019,-0.8994 -0.42669,-1.31325 -2.01623,-5.3309 -7.16324,-10.01082 -12.34959,-10.75123 -2.44571,-0.34915 -4.84425,-0.23943 -7.09908,0.28214 z"
           sodipodi:nodetypes="csszaccsccccsccccscc" /><path
           style="display:inline;fill:#28170b;stroke:#412a07;stroke-width:0.39062;stroke-opacity:1"
           d="m 21.36361,143.43971 c 0.68382,1.81738 2.982,5.53142 2.982,5.53142 l 2.64087,-7.39058 c 0,0 -6.39312,-0.1879 -5.62287,1.85916 z"
           id="path2349-1"
           sodipodi:nodetypes="sccs" /><path
           style="display:inline;fill:#502d16;stroke:#412a07;stroke-width:0.116128;stroke-opacity:1"
           d="m 28.27242,140.03111 -7.00155,5.15674 c 0,0 9.78064,-2.32663 11.01793,-5.53435 0.52451,-1.35983 -4.01638,0.37761 -4.01638,0.37761 z"
           id="path2347-9"
           sodipodi:nodetypes="ccsc" /><path
           id="path2291-1"
           style="display:inline;fill:#502d16;stroke:#412a07;stroke-width:0.271199;stroke-opacity:1"
           d="m 36.27835,128.30353 c -1.20886,0.29424 -2.0916,0.68209 -3.13362,1.0365 -2.62578,0.89309 -5.13616,2.30374 -7.85778,2.74651 -1.01677,0.16541 -3.08716,-0.0463 -3.08716,-0.0463 l 4.5345,1.30338 -13.34346,2.74252 c 0,0 3.51587,5.32742 6.09211,6.72556 1.38744,0.75297 3.06547,0.72672 4.59119,0.65016 2.6636,-0.13366 5.31332,-1.08051 7.76945,-1.92719 4.01235,-1.27816 8.07757,-3.68219 11.31651,-4.03782 2.99417,-0.77198 7.08524,-0.042 8.8813,2.21015 1.01879,0.87711 1.35606,2.5521 1.96551,3.87444 1.04497,2.26734 3.29727,8.80316 3.29727,8.80316 0,0 0.30023,-6.5032 0.13861,-9.74926 -0.14108,-2.83342 0.75393,-5.73726 -0.96572,-8.45584 -0.83487,-1.31981 -2.7094,-3.75852 -2.7094,-3.75852 l 0.36503,4.3598 c -0.14519,-1.11182 -0.51232,-2.80347 -1.43832,-3.93032 -3.38836,-3.91706 -11.17763,-3.82199 -16.41602,-2.54698 z"
           sodipodi:nodetypes="saacccascccccascccss" /><path
           style="display:inline;opacity:0.222222;fill:#ac9d93;fill-opacity:1;stroke:#412a07;stroke-width:0.0900836;stroke-opacity:1"
           d="m 37.33151,136.8106 c -3.63709,0.20436 -7.8184,1.53548 -11.85788,2.03631 -3.52302,0.4368 -5.76625,1.21135 -10.58131,-1.99549 0,0 12.93513,-2.99645 15.69256,-2.75657 3.00634,0.26156 3.66917,0.5282 6.74663,2.71575 z"
           id="path12692-6"
           sodipodi:nodetypes="cscsc" /><path
           style="display:inline;opacity:0.222222;fill:#ac9d93;fill-opacity:1;stroke:#412a07;stroke-width:0.0402032;stroke-opacity:1"
           d="m 55.80649,143.114 c 0.27369,-1.43492 0.66149,-3.08398 0.52053,-4.60241 -0.30169,-1.56227 -1.01075,-3.18833 -1.40084,-4.23764 -0.28815,-0.77511 -0.7826,-2.29512 -0.7826,-2.29512 0,0 2.32817,3.03302 2.66806,4.69044 0.37055,1.80705 -0.3113,5.15867 -1.00515,6.44473 z"
           id="path10702-0"
           sodipodi:nodetypes="ccscsc" /><path
           style="display:inline;opacity:0.222222;fill:#ac9d93;fill-opacity:1;stroke:#412a07;stroke-width:0.0844784;stroke-opacity:1"
           d="m 51.87599,134.23926 c -2.2406,-1.72654 -6.42766,-3.46675 -9.21435,-4.01469 -5.0281,0.1118 -9.59154,1.19875 -14.69139,1.79251 0,0 11.80929,-3.94789 14.45812,-3.76182 2.88794,0.20288 7.48105,3.20022 9.44762,5.984 z"
           id="path12690-0"
           sodipodi:nodetypes="cccsc" /><path
           style="display:inline;opacity:0.222222;fill:#ac9d93;fill-opacity:1;stroke:#412a07;stroke-width:0.0402032;stroke-opacity:1"
           d="m 27.60184,142.48839 c -6.84209,2.7948 -3.54597,1.48719 -4.6199,1.95316 -0.74091,0.32147 -0.66115,0.20665 -0.66115,0.20665 0,0 2.92064,-1.62736 4.32618,-2.49904 1.60259,-0.99387 7.79697,-2.45556 0.95487,0.33923 z"
           id="path12694-9"
           sodipodi:nodetypes="zscsz" /><path
           style="display:inline;opacity:0.760943;fill:#ac9d93;stroke-width:0.0395242"
           d="m 39.13335,153.55053 c 3.50512,-0.70661 10.27838,-1.9466 10.23226,-1.00404 -0.0895,0.36835 -2.0009,2.48153 -4.33646,2.62404 -2.33556,0.14251 -7.14245,0.62832 -15.10043,3.34569 -2.0068,0.68525 -3.03144,-0.36884 -3.37768,-0.74668 -0.38975,-0.72832 7.88267,-3.25028 12.58231,-4.21901 z"
           id="path10644-2"
           sodipodi:nodetypes="cczscc" /><path
           style="display:inline;fill:#0044aa;stroke-width:0.108598"
           d="m 38.61799,141.33936 c 5.07205,-0.52383 14.98442,-0.89301 15.74501,3.89749 0.18103,1.8089 -1.05313,10.9509 -4.72383,9.61705 -3.6707,-1.33384 -11.05481,-3.0923 -21.58357,3.80225 -2.65509,1.73864 -5.25533,-4.56989 -6.15317,-6.81252 -1.27928,-4.07762 9.9339,-9.69267 16.71556,-10.50427 z"
           id="path681-9"
           sodipodi:nodetypes="cczscc" /><path
           style="display:inline;opacity:0.760943;fill:#c4f0fc;stroke-width:0.0910725"
           d="m 39.0983,142.73688 c 4.53391,-0.46853 13.36811,-0.86647 13.85084,2.91442 0.0878,1.42881 -1.38041,8.67283 -4.59229,7.65706 -3.21189,-1.01577 -9.71048,-2.32769 -19.35732,3.23805 -2.4327,1.40355 -4.49074,-3.55837 -5.19876,-5.32257 -0.97309,-3.21151 9.23088,-7.77255 15.29753,-8.48696 z"
           id="path813-1"
           sodipodi:nodetypes="cczscc" /><path
           style="display:inline;opacity:0.538721;fill:#e4f4fc;stroke-width:1.92574;filter:url(#filter2404-0)"
           d="m 83.278851,96.668329 c 0.05206,-1.807271 4.078876,-4.261007 7.971592,-6.520887 6.895069,-3.463673 15.174267,-4.659157 21.950047,-5.329302 1.57741,-0.157031 2.5643,1.58213 1.02236,1.951769 -8.33661,1.998432 -20.471815,1.556646 -28.187674,8.918153 -1.048406,1.40999 -2.124026,1.532917 -2.756334,0.980249 z"
           id="path3838-4"
           sodipodi:nodetypes="cccscc"
           transform="matrix(0.40732178,-0.10000294,0.09415314,0.44982796,-12.36725,117.17194)" /><path
           style="display:inline;opacity:0.86532;fill:#e4f4fc;stroke-width:1.04128;filter:url(#filter2408-3)"
           d="m 91.192283,98.633934 c 0.08443,-0.780058 2.911142,-2.1371 5.640698,-3.400791 4.820249,-2.006785 10.528189,-3.143742 15.191339,-3.941864 1.08561,-0.186239 1.71524,0.486315 0.64822,0.761188 -5.76897,1.48611 -14.076198,2.21036 -19.564252,5.952893 -0.756749,0.684484 -1.497444,0.818284 -1.916011,0.628564 z"
           id="path3844-7"
           sodipodi:nodetypes="cccscc"
           transform="matrix(0.40732178,-0.10000294,0.09415314,0.44982796,-12.36725,117.17194)" /><ellipse
           style="display:inline;fill:#de8787;fill-opacity:1;stroke-width:0.116162"
           id="path8012-0"
           cx="15.207656"
           cy="164.43135"
           rx="3.0958161"
           ry="1.2249714"
           transform="matrix(0.97115906,-0.23843255,0.20486963,0.97878927,0,0)" /><ellipse
           style="display:inline;fill:#de8787;fill-opacity:1;stroke-width:0.116162"
           id="ellipse8016-3"
           cx="-2.3353133"
           cy="163.58331"
           rx="3.0958161"
           ry="1.2249714"
           transform="matrix(0.97115906,-0.23843255,0.20486963,0.97878927,0,0)" /><path
           style="display:inline;fill:#d38d5f;stroke-width:0.357181"
           d="m 58.5994,150.03789 c 0.005,0.32931 0.0131,2.66065 0.53713,3.29969 0.88438,1.07861 -0.82472,0.82868 -0.39114,4.57184 0.77833,0.63366 2.18635,0.11617 2.89128,-0.68355 0.67093,-0.76116 0.83632,-2.79607 0.74818,-4.21547 -0.12027,-1.93729 -2.25928,-3.61472 -3.78545,-2.9725 z"
           id="path1028-2"
           sodipodi:nodetypes="cscsscc" /><path
           style="display:inline;opacity:0.572391;mix-blend-mode:normal;fill:#0044aa;fill-opacity:0.226415;fill-rule:evenodd;stroke:none;stroke-width:0.024556;stroke-dasharray:none;stroke-opacity:1;filter:url(#filter2531)"
           d="m 116.63017,78.734794 c 10.60217,-1.295765 20.14283,0.707318 14.23856,10.776382 2.6386,-0.298164 4.33463,-5.069876 4.53579,-8.95332 -1.98281,-6.179504 -15.63502,-2.612513 -18.77435,-1.823062 z"
           id="path598"
           sodipodi:nodetypes="cccc"
           transform="matrix(-0.53101221,0.33788884,0.24987744,0.7131139,75.78917,48.77628)" /><path
           id="path1994"
           style="fill:#374548;fill-opacity:1;fill-rule:evenodd;stroke:#000000;stroke-width:0.024556;stroke-dasharray:none;stroke-opacity:1"
           d="m 35.78765,162.15109 c -3.47213,2.2393 -9.4653,1.78509 -9.05438,6.05336 0.22776,2.36585 6.58809,4.08409 14.8831,2.92118 0.004,-0.5447 -0.10722,-0.82136 -0.40336,-1.34892 -8.41226,0.79587 -18.01082,-1.89343 -3.48682,-3.37567 -1.02051,-0.80156 -1.96471,-1.66107 -1.93854,-4.24995 z"
           sodipodi:nodetypes="cscccc" /><path
           style="fill:#1a1a1a;fill-opacity:1;fill-rule:evenodd;stroke:#000000;stroke-width:0.153475;stroke-dasharray:none;stroke-opacity:1"
           d="m 40.1519,171.27534 c -1.37851,-0.80934 -3.92293,0.59959 -4.06579,1.55855 0.17132,4.95602 2.92217,10.74898 5.26296,12.6276 -0.44997,-3.33631 -5.346,-8.62769 -1.19717,-14.18615 z"
           id="path1878"
           sodipodi:nodetypes="cccc" /><path
           style="fill:#1a1a1a;fill-opacity:1;fill-rule:evenodd;stroke:#000000;stroke-width:0.457525;stroke-opacity:1"
           id="path2124"
           sodipodi:type="arc"
           sodipodi:cx="40.452114"
           sodipodi:cy="162.72025"
           sodipodi:rx="4.4489026"
           sodipodi:ry="4.2982812"
           sodipodi:start="0.57441444"
           sodipodi:end="0.54543906"
           sodipodi:open="true"
           sodipodi:arc-type="arc"
           d="m 44.187015,165.05569 a 4.4489026,4.2982812 0 0 1 -6.125064,1.28983 4.4489026,4.2982812 0 0 1 -1.379365,-5.9082 4.4489026,4.2982812 0 0 1 6.10508,-1.37542 4.4489026,4.2982812 0 0 1 1.467813,5.88827" /><path
           style="fill:#0044aa;fill-opacity:1;fill-rule:evenodd;stroke:#000000;stroke-width:0.272176;stroke-opacity:1"
           id="path2126"
           sodipodi:type="arc"
           sodipodi:cx="40.357021"
           sodipodi:cy="162.74696"
           sodipodi:rx="2.617085"
           sodipodi:ry="2.5858343"
           sodipodi:start="0.57441444"
           sodipodi:end="0.54543906"
           sodipodi:open="true"
           sodipodi:arc-type="arc"
           d="m 42.554092,164.15196 a 2.617085,2.5858343 0 0 1 -3.603094,0.77596 2.617085,2.5858343 0 0 1 -0.811417,-3.55436 2.617085,2.5858343 0 0 1 3.591338,-0.82745 2.617085,2.5858343 0 0 1 0.863447,3.54237" /><path
           id="path3005"
           style="display:inline;fill:#002255;fill-opacity:1;stroke-width:0.138472"
           d="m 54.31984,145.7025 -0.32852,2.59273 -0.71297,3.20561 5.0128,-5.02212 c -0.0124,-0.6075 -0.50031,-2.57057 -0.53691,-2.67252 0,0 -1.93305,1.49691 -3.4344,1.8963 z m 8.41928,-0.74652 c -0.005,0.005 -0.0106,0.01 -0.0159,0.0143 0.009,-9.1e-4 0.0177,-0.002 0.0267,-0.003 -0.002,-0.004 -0.006,-0.007 -0.009,-0.01 -4.4e-4,-4.5e-4 -6.4e-4,-0.001 -0.001,-0.001 z"
           sodipodi:nodetypes="ccccccsccsss" /></g></g></g></svg>
