<?xml version="1.0" encoding="UTF-8" standalone="no"?>
<!-- Created with Inkscape (http://www.inkscape.org/) -->

<svg
   width="210mm"
   height="297mm"
   viewBox="0 0 210 297"
   version="1.1"
   id="svg52267"
   inkscape:version="1.2.2 (732a01da63, 2022-12-09)"
   sodipodi:docname="joao1.svg"
   xmlns:inkscape="http://www.inkscape.org/namespaces/inkscape"
   xmlns:sodipodi="http://sodipodi.sourceforge.net/DTD/sodipodi-0.dtd"
   xmlns:xlink="http://www.w3.org/1999/xlink"
   xmlns="http://www.w3.org/2000/svg"
   xmlns:svg="http://www.w3.org/2000/svg">
  <sodipodi:namedview
     id="namedview52269"
     pagecolor="#ffffff"
     bordercolor="#999999"
     borderopacity="1"
     inkscape:showpageshadow="0"
     inkscape:pageopacity="0"
     inkscape:pagecheckerboard="0"
     inkscape:deskcolor="#d1d1d1"
     inkscape:document-units="mm"
     showgrid="false"
     inkscape:zoom="0.49085999"
     inkscape:cx="196.59374"
     inkscape:cy="562.27846"
     inkscape:window-width="1366"
     inkscape:window-height="705"
     inkscape:window-x="-8"
     inkscape:window-y="-8"
     inkscape:window-maximized="1"
     inkscape:current-layer="layer1" />
  <defs
     id="defs52264">
    <filter
       inkscape:collect="always"
       style="color-interpolation-filters:sRGB"
       id="filter2404-0"
       x="-0.059972737"
       y="-0.1563494"
       width="1.1199455"
       height="1.3126988">
      <feGaussianBlur
         inkscape:collect="always"
         stdDeviation="0.7925607"
         id="feGaussianBlur2406-4" />
    </filter>
    <filter
       inkscape:collect="always"
       style="color-interpolation-filters:sRGB"
       id="filter2408-3"
       x="-0.090597695"
       y="-0.26779684"
       width="1.1811954"
       height="1.5355937">
      <feGaussianBlur
         inkscape:collect="always"
         stdDeviation="0.83164514"
         id="feGaussianBlur2410-1" />
    </filter>
    <filter
       inkscape:collect="always"
       style="color-interpolation-filters:sRGB"
       id="filter2531"
       x="-0.018515715"
       y="-0.027773024"
       width="1.0370314"
       height="1.055546">
      <feGaussianBlur
         inkscape:collect="always"
         stdDeviation="0.14484188"
         id="feGaussianBlur2533" />
    </filter>
    <linearGradient
       inkscape:collect="always"
       xlink:href="#linearGradient2342"
       id="linearGradient2494"
       gradientUnits="userSpaceOnUse"
       gradientTransform="matrix(0.51592557,-0.05803106,0.05816833,0.62386624,14.787697,-0.79059332)"
       x1="43.264938"
       y1="153.18364"
       x2="76.476234"
       y2="153.18364" />
    <linearGradient
       id="linearGradient2342"
       inkscape:swatch="solid">
      <stop
         style="stop-color:#c7620a;stop-opacity:1;"
         offset="0"
         id="stop2340" />
    </linearGradient>
    <linearGradient
       inkscape:collect="always"
       xlink:href="#linearGradient1004"
       id="linearGradient2504"
       gradientUnits="userSpaceOnUse"
       gradientTransform="matrix(0.19484799,0.34243202,-0.39505651,0.22446771,196.03361,161.3209)"
       x1="86.900986"
       y1="120.60933"
       x2="127.75605"
       y2="120.60933" />
    <linearGradient
       id="linearGradient1004"
       inkscape:swatch="solid">
      <stop
         style="stop-color:#ff9842;stop-opacity:1;"
         offset="0"
         id="stop1002" />
    </linearGradient>
    <linearGradient
       inkscape:collect="always"
       xlink:href="#linearGradient2342"
       id="linearGradient2506"
       gradientUnits="userSpaceOnUse"
       gradientTransform="matrix(0.19484799,0.34243202,-0.39505651,0.22446771,193.31963,161.827)"
       x1="89.426537"
       y1="114.77016"
       x2="129.91229"
       y2="114.77016" />
    <linearGradient
       inkscape:collect="always"
       xlink:href="#linearGradient1004"
       id="linearGradient2510"
       gradientUnits="userSpaceOnUse"
       gradientTransform="matrix(-0.15778634,0.36101095,0.41645654,0.18171227,119.13736,165.2218)"
       x1="86.900986"
       y1="120.60933"
       x2="127.75605"
       y2="120.60933" />
    <linearGradient
       inkscape:collect="always"
       xlink:href="#linearGradient2342"
       id="linearGradient2512"
       gradientUnits="userSpaceOnUse"
       gradientTransform="matrix(-0.15778634,0.36101095,0.41645654,0.18171227,121.8895,165.43991)"
       x1="89.426537"
       y1="114.77016"
       x2="129.91229"
       y2="114.77016" />
  </defs>
  <g
     inkscape:label="Camada 1"
     inkscape:groupmode="layer"
     id="layer1">
    <g
       id="g54022"
       transform="matrix(1.4820809,0,0,1.4820809,-122.27098,-176.53432)">
      <g
         id="g1387"
         transform="matrix(-0.65269483,0,0,0.65045011,203.87053,180.77134)"
         style="display:inline">
        <path
           style="fill:#deaa87;fill-rule:evenodd;stroke:none;stroke-width:0.153475"
           d="m 46.256267,86.752066 c -0.02673,1.88568 -0.555965,3.982601 0.636822,6.018033 1.677483,1.311537 1.331964,0.57582 1.18967,0.421331 l -0.447874,-1.039288 0.923742,1.432533 c 1.054457,0.44069 1.038616,0.191904 0.587836,-0.337066 l -0.419883,-1.011201 0.643822,1.151643 c 0.5962,0.700715 0.79314,0.443385 0.78378,-0.308975 0.03467,-0.58362 0.02127,-1.181309 -0.05598,-1.797685 l 0.559845,1.292087 c 0.154261,0.281244 0.874627,0.803505 0.709991,-0.07263 0.934203,-0.984708 -0.05298,-2.160037 0.07025,-3.218724 0.346113,1.201138 1.686907,0.647617 1.990988,0.566742 -0.236253,-0.161517 0.762178,-0.31274 -0.82817,-0.859265 l -1.83109,-1.387844 -0.111967,-1.881948 z"
           id="path1373"
           sodipodi:nodetypes="cccccccccccccccccc" />
        <g
           id="g1379"
           transform="matrix(-0.0899674,0.20225755,-0.22967989,-0.07992223,75.225249,66.406755)">
          <path
             style="fill:#ab7b74;fill-opacity:1;fill-rule:evenodd;stroke:none;stroke-width:0.40607"
             d="m 131.34766,42.88438 c 0.5197,0.445113 4.03161,0.311579 3.52766,6.825066 -0.67718,0.45995 -1.66934,0.741855 -1.79533,1.899149 0.74018,0.01484 2.42527,-0.979249 3.65365,-1.572733 1.18114,-0.56381 2.567,-0.979249 3.82688,-1.58757 1.16539,-0.56381 9.11837,-3.026768 8.77191,-1.394687 -0.23623,1.112783 -3.88988,3.516393 -4.78754,4.109877 -0.85042,0.548973 -1.41737,0.548973 -1.38587,1.854637 1.5276,0.118697 2.97647,-1.083108 5.44898,-1.988171 1.63784,-0.608321 4.22059,-1.661756 6.06316,-1.750778 -0.47245,3.516393 -4.78754,4.762709 -5.33873,7.611433 1.40161,-0.163208 4.34658,-2.655841 5.03951,-3.753787 0.39371,-0.637995 0.58269,-1.305664 1.29138,-1.498547 1.37011,2.062357 -2.33078,5.875492 -3.60641,7.299854 -0.86616,0.949574 -1.40161,0.979248 -1.37011,2.744863 1.32287,-0.207719 2.15754,-1.127619 2.81897,-1.899149 0.28348,-0.326416 2.04731,-2.284913 2.33078,-2.418447 1.81107,2.373936 -4.6773,7.403713 -6.44113,8.768726 -2.80323,2.166217 -7.44903,4.020855 -10.86645,5.519402 -1.19689,0.519299 -2.86622,0.801203 -4.14185,1.290827 -1.27563,0.489625 -2.94497,0.77153 -4.26784,1.33534 -0.11024,1.750778 0.56695,1.528221 1.88982,1.142456 2.12604,-0.623158 5.84268,-2.329424 7.74825,-3.293836 3.27568,-1.661755 5.85843,-0.474787 12.42555,-5.801306 1.13389,-0.9199 4.14185,-4.347271 4.75604,-6.112886 0.39371,-1.112782 0.42521,-1.884311 -0.0315,-2.952583 -0.77167,-1.765615 -0.31497,-1.02376 0.063,-2.7597 0.22048,-1.008923 0.15749,-2.373937 -0.34646,-3.056443 -0.44095,-0.593484 -0.61419,-0.415439 -0.69293,-1.068272 -0.0945,-0.801203 0.14174,-0.890226 -0.15749,-1.795289 -2.55125,-1.27599 -4.26783,0.267068 -5.95292,0.415439 0.29922,-0.697343 0.74018,-0.519298 0.94491,-1.735941 0.4882,-3.056442 -3.54341,-2.344262 -5.82694,-1.795289 -2.70874,0.652833 -4.07886,1.12762 -6.29939,2.210728 -0.59844,0.281905 -1.29138,0.786367 -2.0473,0.801204 -0.0945,-2.017846 -0.0473,-3.368022 -1.18114,-4.629176 -1.16539,-1.305665 -2.51976,-1.632081 -4.06311,-0.964411 z"
             id="path1375" />
          <path
             style="fill:#ab7b7b;fill-opacity:1;fill-rule:evenodd;stroke:none;stroke-width:0.40607"
             d="m 119.31582,59.932208 c 1.35437,0.964412 5.96868,-1.810126 7.43329,-2.655841 1.24413,-0.741855 1.32287,-0.118696 1.93706,-1.676592 1.24413,-3.100954 1.57485,-5.326519 1.81107,-8.664867 0.0945,-1.275991 0.50396,-2.61133 0.17324,-3.160302 -0.34647,0.311579 -0.11024,0.01484 -0.29922,0.430276 l -1.85832,7.463061 c -0.23623,1.201805 -0.5197,1.632081 -0.75593,2.71519 -0.23623,1.053434 -0.85042,1.290828 -1.68509,1.706266 -1.41736,0.712181 -3.22844,1.780452 -4.72454,2.299751 -1.13389,0.400602 -2.15755,0.252231 -2.03156,1.543058 z"
             id="path1377" />
        </g>
      </g>
      <g
         id="g3581"
         transform="matrix(0.53756158,0.37018657,-0.36891342,0.53571282,199.48803,107.7961)"
         style="display:inline">
        <path
           style="fill:#666666;fill-opacity:1;fill-rule:evenodd;stroke:#000000;stroke-width:0.361356;stroke-opacity:1"
           d="M 65.211046,192.90793 51.296957,174.50297 c -1.28766,-3.24304 2.424958,-2.91887 -1.687299,-8.30211 l 3.905565,-2.8848 c 2.825128,5.04508 6.327767,2.09215 8.349704,4.45622 l 13.800677,18.06608 c 2.063693,4.95297 -8.926322,10.0502 -10.454558,7.06957 z"
           id="path3575"
           sodipodi:nodetypes="ccccccc" />
        <path
           style="fill:#1a1a1a;fill-opacity:1;fill-rule:evenodd;stroke:#000000;stroke-width:0.361356;stroke-opacity:1"
           d="m 52.292647,175.72645 10.069341,-6.88053 1.695701,2.23663 -10.017283,7.01958 z"
           id="path3577"
           sodipodi:nodetypes="ccccc" />
        <path
           style="fill:#1a1a1a;fill-opacity:1;fill-rule:evenodd;stroke:#000000;stroke-width:0.361356;stroke-opacity:1"
           d="m 61.4939,187.9062 10.069341,-6.88053 1.695701,2.23663 -10.017284,7.01958 z"
           id="path3579"
           sodipodi:nodetypes="ccccc" />
      </g>
      <g
         id="g3669"
         transform="matrix(0.65269483,0,0,0.65045011,120.26154,181.45554)"
         style="display:inline">
        <g
           id="g3589"
           transform="matrix(0.82360324,0.5691237,-0.56521578,0.82360324,105.02889,-112.5833)">
          <path
             style="fill:#666666;fill-opacity:1;fill-rule:evenodd;stroke:#000000;stroke-width:0.361356;stroke-opacity:1"
             d="M 65.211046,192.90793 51.296957,174.50297 c -1.28766,-3.24304 2.424958,-2.91887 -1.687299,-8.30211 l 3.905565,-2.8848 c 2.825128,5.04508 6.327767,2.09215 8.349704,4.45622 l 13.800677,18.06608 c 2.063693,4.95297 -8.926322,10.0502 -10.454558,7.06957 z"
             id="path3583"
             sodipodi:nodetypes="ccccccc" />
          <path
             style="fill:#1a1a1a;fill-opacity:1;fill-rule:evenodd;stroke:#000000;stroke-width:0.361356;stroke-opacity:1"
             d="m 52.292647,175.72645 10.069341,-6.88053 1.695701,2.23663 -10.017283,7.01958 z"
             id="path3585"
             sodipodi:nodetypes="ccccc" />
          <path
             style="fill:#1a1a1a;fill-opacity:1;fill-rule:evenodd;stroke:#000000;stroke-width:0.361356;stroke-opacity:1"
             d="m 61.4939,187.9062 10.069341,-6.88053 1.695701,2.23663 -10.017284,7.01958 z"
             id="path3587"
             sodipodi:nodetypes="ccccc" />
        </g>
      </g>
      <path
         style="display:inline;fill:#241f1c;fill-opacity:1;fill-rule:evenodd;stroke:#000000;stroke-width:0.0058665;stroke-opacity:1"
         d="m 165.29362,213.7175 2.78335,0.007 c 0.85582,0.33191 0.53978,1.34844 0.0404,1.55816 l -2.80358,-0.007 c -0.56332,-0.12887 -0.85512,-1.08093 -0.0202,-1.55815 z"
         id="path3657"
         sodipodi:nodetypes="ccccc" />
      <path
         style="display:inline;fill:#241f1c;fill-opacity:1;fill-rule:evenodd;stroke:#000000;stroke-width:0.0063032;stroke-opacity:1"
         d="m 153.17876,214.77709 3.21407,0.007 c 0.98826,0.33181 0.62331,1.34806 0.0467,1.55772 l -3.23743,-0.007 c -0.65048,-0.12883 -0.98745,-1.08063 -0.0233,-1.55771 z"
         id="path3659"
         sodipodi:nodetypes="ccccc" />
      <g
         id="g2484"
         transform="matrix(0.65269483,0,0,0.65045011,108.04628,173.11602)"
         style="display:inline">
        <g
           id="g2455"
           transform="matrix(0.96818849,0.25108556,-0.24936147,0.96818849,208.94209,188.9596)">
          <ellipse
             style="display:inline;fill:#dba37d;fill-opacity:1;stroke:#d38d5f;stroke-width:0.416123;stroke-dasharray:none;stroke-opacity:0.99"
             id="ellipse2427"
             cx="-149.71899"
             cy="-136.14206"
             rx="2.903049"
             ry="4.8830538"
             transform="matrix(0.97115906,-0.23843255,0.20486963,0.97878927,0,0)" />
          <g
             id="g2401"
             transform="translate(-51.483944,-23.278066)">
            <path
               style="display:inline;fill:#dba37d;fill-opacity:1;stroke:#d38d5f;stroke-width:0.377161;stroke-opacity:0.99"
               d="m -110.83401,-63.46568 c 3.01528,1.11948 3.48622,2.3175 3.35036,3.70838 -0.1322,1.9748 11.42848,-1.47383 9.94916,-3.38579 -1.79916,-1.15669 -2.52519,-2.39262 -0.869616,-4.52141 z"
               id="path2353"
               sodipodi:nodetypes="ccccc" />
            <path
               style="display:inline;fill:#d38d5f;stroke-width:1.70303"
               id="path2355"
               sodipodi:type="arc"
               sodipodi:cx="138.15408"
               sodipodi:cy="-84.543129"
               sodipodi:rx="4.7649069"
               sodipodi:ry="3.6287029"
               sodipodi:start="0.57441444"
               sodipodi:end="3.2217636"
               sodipodi:arc-type="arc"
               d="m 142.15427,-82.571498 a 4.7649069,3.6287029 0 0 1 -5.53201,1.464446 4.7649069,3.6287029 0 0 1 -3.21778,-3.726682"
               transform="matrix(-0.99560295,0.09367377,-0.40304664,0.91517944,0,0)"
               sodipodi:open="true" />
            <path
               id="path2357"
               style="display:inline;fill:#dba37d;fill-opacity:1;stroke:#d38d5f;stroke-width:0.416;stroke-dasharray:none;stroke-opacity:0.99"
               d="m -92.122796,-84.45041 a 7.2368159,5.7309651 81.510689 0 0 -4.09344,8.44503 7.2368159,5.7309651 81.510689 0 0 7.05571,5.70753 7.2368159,5.7309651 81.510689 0 0 4.09349,-8.4448 7.2368159,5.7309651 81.510689 0 0 -7.05576,-5.70776 z" />
            <path
               id="path2359"
               style="display:inline;fill:#dba37d;fill-opacity:1;stroke:#d38d5f;stroke-width:0.416;stroke-dasharray:none;stroke-opacity:0.99"
               d="m -112.83098,-97.709109 c -3.75806,0.869289 -6.82694,3.093009 -9.33943,6.034229 -2.48979,2.91464 -4.62897,8.01157 -2.30202,11.65535 6.49441,10.16963 1.03136,7.53176 2.69919,13.96018 1.66784,6.42842 20.19532,5.4879 26.779814,-1.10991 4.09122,-4.0995 3.80091,-11.68592 2.19178,-18.17967 5.6e-4,0.003 9.2e-4,0.006 0.001,0.009 0.008,0.0476 -0.0355,0.0564 -0.0437,0.009 -0.001,-0.008 -0.002,-0.0158 -0.003,-0.0236 -0.003,0.0411 -0.0434,0.0395 -0.0445,-0.006 -7.2e-4,-0.0316 -0.003,-0.0631 -0.005,-0.0946 -0.003,-0.0461 -0.008,-0.0921 -0.0149,-0.13785 -0.006,-0.0525 -0.01,-0.10533 -0.016,-0.15787 -0.003,-0.0285 -0.006,-0.0573 -0.0104,-0.0857 -0.004,-0.0262 -0.0105,-0.052 -0.0153,-0.0781 -7.8e-4,-0.004 -0.001,-0.008 -0.002,-0.0117 -0.12883,-0.45888 -0.27019,-0.8994 -0.42669,-1.31325 -2.01623,-5.3309 -7.163244,-10.010822 -12.349594,-10.751232 -2.44571,-0.34915 -4.84425,-0.23943 -7.09908,0.282139 z"
               sodipodi:nodetypes="csszaccsccccsccccscc" />
            <path
               style="display:inline;fill:#28170b;stroke:#412a07;stroke-width:0.39062;stroke-opacity:1"
               d="m -127.92209,-87.88865 c 0.68382,1.81738 2.982,5.53142 2.982,5.53142 l 2.64087,-7.390582 c 0,0 -6.39312,-0.187898 -5.62287,1.859162 z"
               id="path2361"
               sodipodi:nodetypes="sccs" />
            <path
               style="display:inline;fill:#502d16;stroke:#412a07;stroke-width:0.116128;stroke-opacity:1"
               d="m -121.01328,-91.297254 -7.00155,5.156744 c 0,0 9.78064,-2.32663 11.01793,-5.534354 0.52451,-1.359832 -4.01638,0.37761 -4.01638,0.37761 z"
               id="path2363"
               sodipodi:nodetypes="ccsc" />
            <path
               id="path2365"
               style="display:inline;fill:#502d16;stroke:#412a07;stroke-width:0.271199;stroke-opacity:1"
               d="m -113.00735,-103.02483 c -1.20886,0.29424 -2.0916,0.68209 -3.13362,1.0365 -2.62578,0.89309 -5.13616,2.303734 -7.85778,2.746504 -1.01677,0.165414 -3.08716,-0.04625 -3.08716,-0.04625 l 4.5345,1.303385 -13.34346,2.742516 c 0,0 3.51587,5.327425 6.09211,6.725565 1.38744,0.75297 3.06547,0.72672 4.59119,0.65016 2.6636,-0.13366 5.31332,-1.08051 7.76945,-1.927195 4.01235,-1.278153 8.07757,-3.682191 11.31651,-4.037819 2.99417,-0.771977 7.08524,-0.04204 8.8813,2.210151 1.01879,0.877107 1.35606,2.552103 1.96551,3.874443 1.04497,2.26734 3.29727,8.80316 3.29727,8.80316 0,0 0.30023,-6.5032 0.13861,-9.74926 -0.14108,-2.833427 0.75393,-5.737258 -0.96572,-8.455842 -0.83487,-1.319809 -2.7094,-3.758518 -2.7094,-3.758518 l 0.36503,4.359796 c -0.14519,-1.111817 -0.51232,-2.803471 -1.43832,-3.930316 -3.38836,-3.91706 -11.17763,-3.82199 -16.41602,-2.54698 z"
               sodipodi:nodetypes="saacccascccccascccss" />
            <path
               style="display:inline;opacity:0.222222;fill:#ac9d93;fill-opacity:1;stroke:#412a07;stroke-width:0.0900836;stroke-opacity:1"
               d="m -111.95419,-94.517763 c -3.63709,0.204362 -7.8184,1.535482 -11.85788,2.036313 -3.52302,0.436799 -5.76625,1.211345 -10.58131,-1.995496 0,0 12.93513,-2.996441 15.69256,-2.756565 3.00634,0.261555 3.66917,0.528197 6.74663,2.715748 z"
               id="path2367"
               sodipodi:nodetypes="cscsc" />
            <path
               style="display:inline;opacity:0.222222;fill:#ac9d93;fill-opacity:1;stroke:#412a07;stroke-width:0.0402032;stroke-opacity:1"
               d="m -93.47921,-88.21436 c 0.27369,-1.434926 0.66149,-3.083985 0.52053,-4.602407 -0.30169,-1.56228 -1.01075,-3.188331 -1.40084,-4.237641 -0.28815,-0.775111 -0.7826,-2.295126 -0.7826,-2.295126 0,0 2.32817,3.03302 2.66806,4.690443 0.37055,1.807046 -0.3113,5.158672 -1.00515,6.444731 z"
               id="path2369"
               sodipodi:nodetypes="ccscsc" />
            <path
               style="display:inline;opacity:0.222222;fill:#ac9d93;fill-opacity:1;stroke:#412a07;stroke-width:0.0844784;stroke-opacity:1"
               d="m -97.40971,-97.089104 c -2.2406,-1.726534 -6.42766,-3.466746 -9.21435,-4.014686 -5.0281,0.1118 -9.59154,1.198747 -14.69139,1.792512 0,0 11.80929,-3.947892 14.45812,-3.761822 2.88794,0.20288 7.48105,3.20022 9.44762,5.983996 z"
               id="path2371"
               sodipodi:nodetypes="cccsc" />
            <path
               style="display:inline;opacity:0.222222;fill:#ac9d93;fill-opacity:1;stroke:#412a07;stroke-width:0.0402032;stroke-opacity:1"
               d="m -121.68386,-88.83997 c -6.84209,2.7948 -3.54597,1.48719 -4.6199,1.95316 -0.74091,0.32147 -0.66115,0.20665 -0.66115,0.20665 0,0 2.92064,-1.62736 4.32618,-2.49904 1.60259,-0.993869 7.79697,-2.455565 0.95487,0.33923 z"
               id="path2373"
               sodipodi:nodetypes="zscsz" />
            <path
               style="display:inline;opacity:0.760943;fill:#ac9d93;stroke-width:0.0395242"
               d="m -110.15235,-77.77783 c 3.50512,-0.70661 10.278384,-1.9466 10.232264,-1.00404 -0.0895,0.36835 -2.000904,2.48153 -4.336464,2.62404 -2.33556,0.14251 -7.14245,0.62832 -15.10043,3.34569 -2.0068,0.68525 -3.03144,-0.36884 -3.37768,-0.74668 -0.38975,-0.72832 7.88267,-3.25028 12.58231,-4.21901 z"
               id="path2375"
               sodipodi:nodetypes="cczscc" />
            <path
               style="display:inline;fill:#0044aa;stroke-width:0.108598"
               d="m -110.66771,-89.989 c 5.07205,-0.52383 14.984424,-0.89301 15.745014,3.89749 0.18103,1.8089 -1.05313,10.9509 -4.72383,9.61705 -3.670704,-1.33384 -11.054814,-3.0923 -21.583574,3.80225 -2.65509,1.73864 -5.25533,-4.56989 -6.15317,-6.81252 -1.27928,-4.07762 9.9339,-9.69267 16.71556,-10.50427 z"
               id="path2377"
               sodipodi:nodetypes="cczscc" />
            <path
               style="display:inline;opacity:0.760943;fill:#c4f0fc;stroke-width:0.0910725"
               d="m -110.1874,-88.59148 c 4.53391,-0.46853 13.368114,-0.86647 13.850844,2.91442 0.0878,1.42881 -1.38041,8.67283 -4.592294,7.65706 -3.21189,-1.01577 -9.71048,-2.32769 -19.35732,3.23805 -2.4327,1.40355 -4.49074,-3.55837 -5.19876,-5.32257 -0.97309,-3.21151 9.23088,-7.77255 15.29753,-8.48696 z"
               id="path2379"
               sodipodi:nodetypes="cczscc" />
            <path
               style="display:inline;opacity:0.538721;fill:#e4f4fc;stroke-width:1.92574;filter:url(#filter2404-0)"
               d="m 83.278851,96.668329 c 0.05206,-1.807271 4.078876,-4.261007 7.971592,-6.520887 6.895069,-3.463673 15.174267,-4.659157 21.950047,-5.329302 1.57741,-0.157031 2.5643,1.58213 1.02236,1.951769 -8.33661,1.998432 -20.471815,1.556646 -28.187674,8.918153 -1.048406,1.40999 -2.124026,1.532917 -2.756334,0.980249 z"
               id="path2381"
               sodipodi:nodetypes="cccscc"
               transform="matrix(0.40732178,-0.10000294,0.09415314,0.44982796,-161.65295,-114.15642)" />
            <path
               style="display:inline;opacity:0.86532;fill:#e4f4fc;stroke-width:1.04128;filter:url(#filter2408-3)"
               d="m 91.192283,98.633934 c 0.08443,-0.780058 2.911142,-2.1371 5.640698,-3.400791 4.820249,-2.006785 10.528189,-3.143742 15.191339,-3.941864 1.08561,-0.186239 1.71524,0.486315 0.64822,0.761188 -5.76897,1.48611 -14.076198,2.21036 -19.564252,5.952893 -0.756749,0.684484 -1.497444,0.818284 -1.916011,0.628564 z"
               id="path2383"
               sodipodi:nodetypes="cccscc"
               transform="matrix(0.40732178,-0.10000294,0.09415314,0.44982796,-161.65295,-114.15642)" />
            <ellipse
               style="display:inline;fill:#de8787;fill-opacity:1;stroke-width:0.116162"
               id="ellipse2385"
               cx="-83.57795"
               cy="-95.974098"
               rx="3.0958161"
               ry="1.2249714"
               transform="matrix(0.97115906,-0.23843255,0.20486963,0.97878927,0,0)" />
            <ellipse
               style="display:inline;fill:#de8787;fill-opacity:1;stroke-width:0.116162"
               id="ellipse2387"
               cx="-101.12091"
               cy="-96.822151"
               rx="3.0958161"
               ry="1.2249714"
               transform="matrix(0.97115906,-0.23843255,0.20486963,0.97878927,0,0)" />
            <path
               style="display:inline;fill:#d38d5f;stroke-width:0.357181"
               d="m -90.686296,-81.29047 c 0.005,0.32931 0.0131,2.66065 0.53713,3.29969 0.88438,1.07861 -0.82472,0.82868 -0.39114,4.57184 0.77833,0.63366 2.18635,0.11617 2.89128,-0.68355 0.67093,-0.76116 0.83632,-2.79607 0.74818,-4.21547 -0.12027,-1.93729 -2.25928,-3.61472 -3.78545,-2.9725 z"
               id="path2389"
               sodipodi:nodetypes="cscsscc" />
            <path
               style="display:inline;opacity:0.572391;mix-blend-mode:normal;fill:#0044aa;fill-opacity:0.226415;fill-rule:evenodd;stroke:none;stroke-width:0.024556;stroke-dasharray:none;stroke-opacity:1;filter:url(#filter2531)"
               d="m 116.63017,78.734794 c 10.60217,-1.295765 20.14283,0.707318 14.23856,10.776382 2.6386,-0.298164 4.33463,-5.069876 4.53579,-8.95332 -1.98281,-6.179504 -15.63502,-2.612513 -18.77435,-1.823062 z"
               id="path2391"
               sodipodi:nodetypes="cccc"
               transform="matrix(-0.53101221,0.33788884,0.24987744,0.7131139,-73.496534,-182.55208)" />
            <path
               id="path2393"
               style="fill:#374548;fill-opacity:1;fill-rule:evenodd;stroke:#000000;stroke-width:0.024556;stroke-dasharray:none;stroke-opacity:1"
               d="m -113.49805,-69.17727 c -3.47213,2.2393 -9.4653,1.78509 -9.05438,6.05336 0.22776,2.36585 6.58809,4.08409 14.8831,2.92118 0.004,-0.5447 -0.10722,-0.82136 -0.40336,-1.34892 -8.41226,0.79587 -18.01082,-1.89343 -3.48682,-3.37567 -1.02051,-0.80156 -1.96471,-1.66107 -1.93854,-4.24995 z"
               sodipodi:nodetypes="cscccc" />
            <g
               id="g2399"
               transform="matrix(0.62552384,0,0,0.52690292,-174.27558,-177.54364)">
              <path
                 style="fill:#1a1a1a;fill-opacity:1;fill-rule:evenodd;stroke:#000000;stroke-width:0.796944;stroke-opacity:1"
                 id="path2395"
                 sodipodi:type="arc"
                 sodipodi:cx="104.61951"
                 sodipodi:cy="206.74686"
                 sodipodi:rx="7.1122828"
                 sodipodi:ry="8.1576338"
                 sodipodi:start="0.57441444"
                 sodipodi:end="0.54543906"
                 sodipodi:open="true"
                 sodipodi:arc-type="arc"
                 d="m 110.59034,211.17925 a 7.1122828,8.1576338 0 0 1 -9.79189,2.44795 7.1122828,8.1576338 0 0 1 -2.205138,-11.21306 7.1122828,8.1576338 0 0 1 9.759948,-2.6104 7.1122828,8.1576338 0 0 1 2.34653,11.17524" />
              <path
                 style="fill:#0044aa;fill-opacity:1;fill-rule:evenodd;stroke:#000000;stroke-width:0.474092;stroke-opacity:1"
                 id="path2397"
                 sodipodi:type="arc"
                 sodipodi:cx="104.46748"
                 sodipodi:cy="206.79758"
                 sodipodi:rx="4.1838293"
                 sodipodi:ry="4.9076104"
                 sodipodi:start="0.57441444"
                 sodipodi:end="0.54543906"
                 sodipodi:open="true"
                 sodipodi:arc-type="arc"
                 d="m 107.97985,209.46409 a 4.1838293,4.9076104 0 0 1 -5.76012,1.47269 4.1838293,4.9076104 0 0 1 -1.29718,-6.74575 4.1838293,4.9076104 0 0 1 5.74133,-1.57041 4.1838293,4.9076104 0 0 1 1.38036,6.72299" />
            </g>
          </g>
        </g>
      </g>
      <path
         id="path3007"
         style="display:inline;fill:#002255;fill-opacity:1;stroke-width:0.0902244"
         d="m 169.56473,203.56448 -0.64414,1.57327 -0.98981,1.89325 4.00661,-2.30713 c 0.0946,-0.38375 0.11791,-1.69954 0.11203,-1.76978 0,0 -1.47092,0.61343 -2.48469,0.61039 z m 5.43332,0.95512 c -0.004,0.002 -0.008,0.005 -0.0124,0.006 0.006,9.1e-4 0.0115,0.002 0.0173,0.003 -5.9e-4,-0.003 -0.003,-0.005 -0.005,-0.008 -2e-4,-3.6e-4 -2.4e-4,-7.2e-4 -4.6e-4,-8.5e-4 z"
         sodipodi:nodetypes="ccccccsccsss" />
      <g
         id="g1371"
         style="display:inline"
         transform="matrix(0.65269483,0,0,0.65045011,119.31896,181.61057)">
        <path
           style="fill:#deaa87;fill-rule:evenodd;stroke:none;stroke-width:0.153475"
           d="m 46.263265,87.011888 c -0.02673,1.88568 -0.562963,3.722779 0.629824,5.758211 1.677483,1.311537 1.331964,0.57582 1.18967,0.421331 l -0.447874,-1.039288 0.923742,1.432533 c 1.054457,0.44069 1.038616,0.191904 0.587836,-0.337066 l -0.419883,-1.011201 0.643822,1.151643 c 0.5962,0.700715 0.79314,0.443385 0.78378,-0.308975 0.03467,-0.58362 0.02127,-1.181309 -0.05598,-1.797685 l 0.559845,1.292087 c 0.154261,0.281244 0.874627,0.803505 0.709991,-0.07263 0.934203,-0.984708 -0.05298,-2.160037 0.07025,-3.218724 0.346113,1.201138 1.686907,0.647617 1.990988,0.566742 -0.236253,-0.161517 0.762178,-0.31274 -0.82817,-0.859265 l -1.83109,-1.387844 -0.111967,-1.881948 z"
           id="path607"
           sodipodi:nodetypes="cccccccccccccccccc" />
        <g
           id="g3369"
           transform="matrix(-0.0899674,0.20225755,-0.22967989,-0.07992223,75.225249,66.406755)">
          <path
             style="fill:#ab7b74;fill-opacity:1;fill-rule:evenodd;stroke:none;stroke-width:0.40607"
             d="m 131.34766,42.88438 c 0.5197,0.445113 4.03161,0.311579 3.52766,6.825066 -0.67718,0.45995 -1.66934,0.741855 -1.79533,1.899149 0.74018,0.01484 2.42527,-0.979249 3.65365,-1.572733 1.18114,-0.56381 2.567,-0.979249 3.82688,-1.58757 1.16539,-0.56381 9.11837,-3.026768 8.77191,-1.394687 -0.23623,1.112783 -3.88988,3.516393 -4.78754,4.109877 -0.85042,0.548973 -1.41737,0.548973 -1.38587,1.854637 1.5276,0.118697 2.97647,-1.083108 5.44898,-1.988171 1.63784,-0.608321 4.22059,-1.661756 6.06316,-1.750778 -0.47245,3.516393 -4.78754,4.762709 -5.33873,7.611433 1.40161,-0.163208 4.34658,-2.655841 5.03951,-3.753787 0.39371,-0.637995 0.58269,-1.305664 1.29138,-1.498547 1.37011,2.062357 -2.33078,5.875492 -3.60641,7.299854 -0.86616,0.949574 -1.40161,0.979248 -1.37011,2.744863 1.32287,-0.207719 2.15754,-1.127619 2.81897,-1.899149 0.28348,-0.326416 2.04731,-2.284913 2.33078,-2.418447 1.81107,2.373936 -4.6773,7.403713 -6.44113,8.768726 -2.80323,2.166217 -7.44903,4.020855 -10.86645,5.519402 -1.19689,0.519299 -2.86622,0.801203 -4.14185,1.290827 -1.27563,0.489625 -2.94497,0.77153 -4.26784,1.33534 -0.11024,1.750778 0.56695,1.528221 1.88982,1.142456 2.12604,-0.623158 5.84268,-2.329424 7.74825,-3.293836 3.27568,-1.661755 5.85843,-0.474787 12.42555,-5.801306 1.13389,-0.9199 4.14185,-4.347271 4.75604,-6.112886 0.39371,-1.112782 0.42521,-1.884311 -0.0315,-2.952583 -0.77167,-1.765615 -0.31497,-1.02376 0.063,-2.7597 0.22048,-1.008923 0.15749,-2.373937 -0.34646,-3.056443 -0.44095,-0.593484 -0.61419,-0.415439 -0.69293,-1.068272 -0.0945,-0.801203 0.14174,-0.890226 -0.15749,-1.795289 -2.55125,-1.27599 -4.26783,0.267068 -5.95292,0.415439 0.29922,-0.697343 0.74018,-0.519298 0.94491,-1.735941 0.4882,-3.056442 -3.54341,-2.344262 -5.82694,-1.795289 -2.70874,0.652833 -4.07886,1.12762 -6.29939,2.210728 -0.59844,0.281905 -1.29138,0.786367 -2.0473,0.801204 -0.0945,-2.017846 -0.0473,-3.368022 -1.18114,-4.629176 -1.16539,-1.305665 -2.51976,-1.632081 -4.06311,-0.964411 z"
             id="path3356" />
          <path
             style="fill:#ab7b7b;fill-opacity:1;fill-rule:evenodd;stroke:none;stroke-width:0.40607"
             d="m 119.31582,59.932208 c 1.35437,0.964412 5.96868,-1.810126 7.43329,-2.655841 1.24413,-0.741855 1.32287,-0.118696 1.93706,-1.676592 1.24413,-3.100954 1.57485,-5.326519 1.81107,-8.664867 0.0945,-1.275991 0.50396,-2.61133 0.17324,-3.160302 -0.34647,0.311579 -0.11024,0.01484 -0.29922,0.430276 l -1.85832,7.463061 c -0.23623,1.201805 -0.5197,1.632081 -0.75593,2.71519 -0.23623,1.053434 -0.85042,1.290828 -1.68509,1.706266 -1.41736,0.712181 -3.22844,1.780452 -4.72454,2.299751 -1.13389,0.400602 -2.15755,0.252231 -2.03156,1.543058 z"
             id="path3358" />
        </g>
      </g>
      <path
         style="display:inline;fill:#3771c8;fill-opacity:1;fill-rule:evenodd;stroke:#000000;stroke-width:0.0438471;stroke-opacity:1"
         d="m 149.40405,238.16573 3.14806,-0.18391 c 0.12032,-5.81595 -0.59394,-3.93706 2.42469,-16.60911 -1.46164,6.30516 -3.3499,15.61878 1.30337,29.28817 l 3.5037,-0.82341 c 0.0158,-3.3292 -0.20925,-5.19603 -0.22566,-8.71865 0.54735,-1.88376 3.51984,-2.36958 4.27149,-0.48109 l 0.0641,9.86774 4.0951,-0.034 c 2.25369,-13.9733 1.13253,-20.09673 -0.91088,-29.42406 1.20617,5.46047 3.15034,10.32015 3.61853,16.3814 l 2.97506,-0.2266 c 0.35108,-4.44477 -3.54876,-23.36693 -10.19652,-19.84705 -1.35853,0.67794 -4.39158,1.37048 -6.95335,0.25945 -6.34218,-1.14237 -7.86628,16.8421 -7.11767,20.55108 z"
         id="path932"
         sodipodi:nodetypes="ccccccccccccccc" />
      <g
         id="g2500"
         transform="matrix(0.56987254,0.36102747,-0.37708341,0.54186133,111.95111,232.10148)"
         style="display:inline">
        <g
           id="g2492"
           transform="translate(1.0936286,-137.97687)"
           style="display:inline">
          <path
             style="fill:#ff9842;fill-opacity:1;fill-rule:evenodd;stroke:none;stroke-width:0.157969"
             d="m 42.453039,87.443662 11.91717,-7.937323 c 0.298092,1.618921 0.775826,2.095127 2.037705,2.25492 3.455637,4.941319 6.750379,9.364191 9.005823,12.868627 0.153859,2.633882 -5.919646,9.051754 -11.34653,8.132024 -3.384897,-2.821069 -6.689768,-7.911834 -10.007996,-12.419299 0.39024,-1.214982 -0.687403,-1.872985 -1.606172,-2.898949 z"
             id="path2486"
             sodipodi:nodetypes="ccccccc"
             inkscape:transform-center-x="-11.117023"
             inkscape:transform-center-y="-112.63409" />
          <g
             id="g2490"
             transform="matrix(1.0482744,-0.00325352,-0.00323118,1.0455441,-1.8974731,-3.8339491)">
            <path
               style="fill:none;fill-opacity:1;fill-rule:evenodd;stroke:url(#linearGradient2494);stroke-width:0.150892"
               d="m 42.561821,87.429957 11.316887,-7.569106 c 0.28914,1.5493 0.759045,2.037247 1.963295,2.193827 2.568165,3.705527 6.476322,8.914919 8.638252,12.273429 0.15454,2.51963 -5.622295,8.701143 -10.802025,7.805363 -3.237366,-2.70826 -6.395768,-7.575125 -9.574506,-11.896135 0.36869,-1.16091 -0.662418,-1.823368 -1.541903,-2.807378 z"
               id="path2488"
               sodipodi:nodetypes="ccccccc" />
          </g>
        </g>
      </g>
      <path
         style="display:inline;fill:url(#linearGradient2504);fill-opacity:1;fill-rule:evenodd;stroke:url(#linearGradient2506);stroke-width:0.111946"
         d="m 164.08992,217.83337 c 2.10426,0.16086 3.19626,0.61212 4.2537,3.12342 1.88468,4.49634 3.66942,14.58709 3.37875,16.36387 0.12374,0.0135 1.57369,-0.12626 1.95563,-0.12805 0.032,-5.72238 -1.9437,-12.14572 -3.86378,-16.04328 -1.64471,-3.28761 -3.19672,-5.75291 -7.75003,-3.22865 z"
         id="path2502"
         sodipodi:nodetypes="ccccccc" />
      <path
         style="display:inline;fill:#1a1a1a;fill-opacity:1;fill-rule:evenodd;stroke:#000000;stroke-width:0.0999999;stroke-dasharray:none;stroke-opacity:1"
         d="m 168.56849,217.88646 c -0.43358,-0.64293 -1.18937,-0.55675 -1.58283,-0.70047 -4.43916,-1.62156 -2.95378,7.98512 2.14413,12.60476 0.71814,0.65077 -0.68114,-3.39878 -0.78146,-3.30859 -2.76251,-2.43271 -4.95949,-11.66016 1.3958,-7.47174 z"
         id="path3661"
         sodipodi:nodetypes="cssccc" />
      <path
         style="display:inline;fill:url(#linearGradient2510);fill-opacity:1;fill-rule:evenodd;stroke:url(#linearGradient2512);stroke-width:0.111946"
         d="m 156.51182,218.27971 c -2.0757,0.38108 -2.7835,0.72962 -3.5712,3.33813 -1.40177,4.66949 -2.15137,14.6756 -1.67561,16.41199 -0.12163,0.0265 -1.50808,0.0749 -1.88809,0.11324 -0.63318,-5.68733 0.62157,-12.10148 2.12147,-16.17922 1.29014,-3.44223 2.94609,-5.39358 6.86019,-3.81448 z"
         id="path2508"
         sodipodi:nodetypes="ccccccc" />
      <path
         style="display:inline;fill:#1a1a1a;fill-opacity:1;fill-rule:evenodd;stroke:#000000;stroke-width:0.0932894;stroke-dasharray:none;stroke-opacity:1"
         d="m 155.43231,217.55336 c -2.18171,1.75711 -2.51758,5.45118 -1.63201,9.79093 0.0787,-0.84424 0.24386,-1.23301 0.27751,-1.61529 0.9169,-3.20343 0.89916,-6.43791 3.05809,-8.03928 -0.004,-0.095 -0.93311,-0.21126 -1.70359,-0.13636 z"
         id="path3663"
         sodipodi:nodetypes="ccccc" />
      <g
         id="g8577"
         transform="matrix(0.07419264,0.64846436,-0.64623414,0.07393748,266.77903,182.97075)"
         style="display:inline">
        <path
           style="fill:#000000;fill-opacity:1;fill-rule:evenodd;stroke:none;stroke-width:0.123532"
           d="m 81.62911,174.91874 c 0.788119,-2.40349 9.020676,-0.93554 10.092856,-1.05302 1.06829,-0.12043 6.538946,-0.0507 6.523176,1.02071 -0.0129,0.85584 -0.862703,1.88011 -0.465333,2.38675 0.82434,1.04677 1.13957,1.46886 1.71776,2.7821 0.546441,1.25019 -1.725864,1.76471 -1.698504,2.92454 0.0284,0.9875 -0.03275,3.02154 -0.571756,3.73143 -6.824346,-3.41245 -12.666203,-5.84355 -15.094206,-5.72874 2.628772,-2.71879 0.732243,-4.40044 -0.503993,-6.06377 z"
           id="path8565"
           sodipodi:nodetypes="ccccccccc" />
        <path
           style="fill:#4d4d4d;fill-opacity:1;fill-rule:evenodd;stroke:none;stroke-width:0.123532"
           d="m 95.914527,177.86722 0.590528,-0.93107 c -0.818469,-0.55717 -1.449983,-1.27692 -1.641072,-1.38136 -0.121607,0.0544 -5.204363,0.37641 -5.966898,0.41729 -0.442128,0.0213 -1.424314,0.0447 -1.525898,0.30941 0.241458,0.29363 1.352197,0.42663 1.762916,0.4957 2.027724,0.3233 4.454641,0.67657 6.780447,1.09001 z"
           id="path8567" />
        <path
           style="fill:#4d4d4d;fill-opacity:1;fill-rule:evenodd;stroke:none;stroke-width:0.123532"
           d="m 95.526874,183.11309 c 0.189781,-0.0522 0.527281,-0.61264 1.220031,-0.92725 l -1.06874,-1.1978 c -2.429861,-0.34913 -4.909371,-0.78601 -7.026508,-1.11684 -0.45932,-0.0731 -1.51927,-0.28149 -1.68396,-0.0596 0.19016,0.30552 1.30419,0.66078 1.78951,0.83733 0.909647,0.3294 6.574377,2.34465 6.769667,2.46417 z"
           id="path8569" />
        <path
           style="fill:#808080;fill-opacity:1;fill-rule:evenodd;stroke:none;stroke-width:0.123532"
           d="m 82.182846,180.94445 c 5.947384,0.34562 6.382761,-5.59027 -0.125526,-5.46868 0.520592,0.74473 1.202304,2.90789 0.125526,5.46868 z"
           id="path8571"
           inkscape:transform-center-x="28.641062"
           inkscape:transform-center-y="23.227418"
           sodipodi:nodetypes="ccc" />
        <path
           style="fill:#000000;fill-opacity:1;fill-rule:evenodd;stroke:none;stroke-width:0.123532"
           d="m 81.62911,174.91874 c 0.788119,-2.40349 9.020676,-0.93554 10.092856,-1.05302 1.06829,-0.12043 6.538946,-0.0507 6.523176,1.02071 -0.0129,0.85584 -0.862703,1.88011 -0.465333,2.38675 0.82434,1.04677 1.13957,1.46886 1.71776,2.7821 0.546441,1.25019 -1.725864,1.76471 -1.698504,2.92454 0.0284,0.9875 -0.03275,3.02154 -0.571756,3.73143 -6.824346,-3.41245 -12.666203,-5.84355 -15.094206,-5.72874 2.628772,-2.71879 0.732243,-4.40044 -0.503993,-6.06377 z"
           id="path8579"
           sodipodi:nodetypes="ccccccccc" />
        <path
           style="fill:#4d4d4d;fill-opacity:1;fill-rule:evenodd;stroke:none;stroke-width:0.123532"
           d="m 95.914527,177.86722 0.590528,-0.93107 c -0.818469,-0.55717 -1.449983,-1.27692 -1.641072,-1.38136 -0.121607,0.0544 -5.204363,0.37641 -5.966898,0.41729 -0.442128,0.0213 -1.424314,0.0447 -1.525898,0.30941 0.241458,0.29363 1.352197,0.42663 1.762916,0.4957 2.027724,0.3233 4.454641,0.67657 6.780447,1.09001 z"
           id="path8581" />
        <path
           style="fill:#4d4d4d;fill-opacity:1;fill-rule:evenodd;stroke:none;stroke-width:0.123532"
           d="m 95.526874,183.11309 c 0.189781,-0.0522 0.527281,-0.61264 1.220031,-0.92725 l -1.06874,-1.1978 c -2.429861,-0.34913 -4.909371,-0.78601 -7.026508,-1.11684 -0.45932,-0.0731 -1.51927,-0.28149 -1.68396,-0.0596 0.19016,0.30552 1.30419,0.66078 1.78951,0.83733 0.909647,0.3294 6.574377,2.34465 6.769667,2.46417 z"
           id="path8583" />
        <path
           style="fill:#808080;fill-opacity:1;fill-rule:evenodd;stroke:none;stroke-width:0.123532"
           d="m 82.182846,180.94445 c 5.947384,0.34562 6.382761,-5.59027 -0.125526,-5.46868 0.520592,0.74473 1.202304,2.90789 0.125526,5.46868 z"
           id="path8585"
           inkscape:transform-center-x="28.641062"
           inkscape:transform-center-y="23.227418"
           sodipodi:nodetypes="ccc" />
      </g>
      <g
         id="g8603"
         transform="matrix(0.07419264,0.64846436,-0.64623414,0.07393748,276.03945,183.36763)"
         style="display:inline">
        <path
           style="fill:#000000;fill-opacity:1;fill-rule:evenodd;stroke:none;stroke-width:0.123532"
           d="m 81.214549,176.16488 c 0.856205,-1.52198 8.95801,-0.19283 10.031286,-0.29976 1.069414,-0.10991 6.539129,0.0136 6.512893,1.08483 -0.02126,0.85567 -0.881027,1.87154 -0.488626,2.38206 0.814074,1.05483 1.125165,1.48 1.690498,2.79886 0.534199,1.25551 -1.743028,1.74765 -1.727001,2.90769 0.01875,0.98774 -0.06232,3.02108 -0.608177,3.72563 -6.790685,-3.47942 -12.754183,-5.38975 -15.122099,-5.83464 2.655208,-2.6928 0.931152,-5.08925 -0.288774,-6.76467 z"
           id="path8595"
           sodipodi:nodetypes="ccccccccc" />
        <path
           style="fill:#808080;fill-opacity:1;fill-rule:evenodd;stroke:none;stroke-width:0.123532"
           d="m 81.649703,182.82801 c 7.797173,0.86718 5.528055,-5.47873 0.331753,-5.55554 0.699481,1.70616 1.703151,2.81524 -0.331753,5.55554 z"
           id="path8593"
           inkscape:transform-center-x="28.641062"
           inkscape:transform-center-y="23.227418"
           sodipodi:nodetypes="ccc" />
        <path
           style="fill:#4d4d4d;fill-opacity:1;fill-rule:evenodd;stroke:none;stroke-width:0.107313"
           d="m 96.144963,180.27868 0.535104,-0.75085 c -0.765523,-0.46457 -1.359929,-1.05916 -1.538325,-1.14673 -0.111968,0.0427 -4.81706,0.23895 -5.523032,0.26234 -0.409363,0.0116 -1.319072,0.0179 -1.409771,0.23222 0.227508,0.24236 1.258344,0.36516 1.639773,0.42678 1.882895,0.28976 4.136035,0.60914 6.296272,0.97622 z"
           id="path8597" />
        <path
           style="fill:#4d4d4d;fill-opacity:1;fill-rule:evenodd;stroke:none;stroke-width:0.0994146"
           d="m 95.362402,185.55075 c 0.171728,-0.0327 0.466324,-0.42353 1.09031,-0.63121 l -1.001525,-0.87689 c -2.222214,-0.30486 -4.491695,-0.67328 -6.428525,-0.95784 -0.420232,-0.0627 -1.390898,-0.23556 -1.535843,-0.0816 0.180334,0.22175 1.203671,0.50037 1.649984,0.63724 0.8365,0.25547 6.044886,1.82071 6.225599,1.91027 z"
           id="path8599" />
      </g>
    </g>
  </g>
</svg>
