<?xml version="1.0" encoding="UTF-8" standalone="no"?>
<!-- Created with Inkscape (http://www.inkscape.org/) -->

<svg
   width="210mm"
   height="297mm"
   viewBox="0 0 210 297"
   version="1.1"
   id="svg5"
   xml:space="preserve"
   sodipodi:docname="fishCoin.svg"
   inkscape:version="1.2.2 (732a01da63, 2022-12-09)"
   inkscape:export-filename="fishCoin.png"
   inkscape:export-xdpi="96"
   inkscape:export-ydpi="96"
   xmlns:inkscape="http://www.inkscape.org/namespaces/inkscape"
   xmlns:sodipodi="http://sodipodi.sourceforge.net/DTD/sodipodi-0.dtd"
   xmlns="http://www.w3.org/2000/svg"
   xmlns:svg="http://www.w3.org/2000/svg"><sodipodi:namedview
     id="namedview7"
     pagecolor="#ffffff"
     bordercolor="#999999"
     borderopacity="1"
     inkscape:showpageshadow="0"
     inkscape:pageopacity="0"
     inkscape:pagecheckerboard="0"
     inkscape:deskcolor="#d1d1d1"
     inkscape:document-units="mm"
     showgrid="false"
     inkscape:zoom="0.32411804"
     inkscape:rotation="90"
     inkscape:cx="274.59132"
     inkscape:cy="377.94872"
     inkscape:window-width="1366"
     inkscape:window-height="705"
     inkscape:window-x="-8"
     inkscape:window-y="-8"
     inkscape:window-maximized="1"
     inkscape:current-layer="g524" /><defs
     id="defs2" /><g
     inkscape:label="FishCoin"
     inkscape:groupmode="layer"
     id="layer1"><g
       id="g524"><g
         id="g242"
         transform="matrix(0.60185183,0,0,0.60185183,0.2299128,151.16834)"
         inkscape:export-filename="fishCoin.png"
         inkscape:export-xdpi="96"
         inkscape:export-ydpi="96"><circle
           style="fill:#ffcc00;stroke-width:0.264999"
           id="path236"
           cx="102.18887"
           cy="153.06589"
           r="46.963394" /><circle
           style="fill:#d4aa00;stroke-width:0.358107"
           id="path238"
           cx="101.75402"
           cy="153.0659"
           r="43.484627" /><circle
           style="fill:#ffcc00;stroke-width:0.322296"
           id="circle350"
           cx="101.75402"
           cy="153.0659"
           r="39.136166" /><path
           style="fill:#d4aa00;stroke-width:0.093749"
           d="m 117.81576,162.8541 c -0.0893,1.22778 -0.4927,3.38892 -0.8385,4.49185 -1.15769,3.69256 -3.04897,6.73518 -5.99582,9.64583 -1.86628,1.84335 -4.5679,3.97849 -5.7376,4.53451 -1.06519,0.50633 -1.442,0.53623 -2.71698,0.21561 -11.782561,-2.84961 -17.94044,-16.75639 -17.105148,-25.63155 0.176447,-1.55084 0.947337,-4.85274 1.359332,-5.82232 0.04917,-0.11572 0.264453,-0.64185 0.478405,-1.16915 0.682162,-1.6813 1.561438,-3.27416 2.63699,-4.77706 0.471041,-0.6582 0.70673,-0.93782 2.222761,-2.63708 0.732168,-0.82064 1.046603,-1.50091 1.052994,-2.27807 0.0059,-0.71197 -0.271216,-1.30676 -1.02031,-2.19027 -0.32494,-0.38326 -1.273679,-1.50738 -2.108313,-2.49804 -0.834631,-0.99067 -1.731133,-2.05475 -1.992225,-2.36463 -0.26109,-0.30987 -0.768325,-0.90555 -1.127188,-1.32374 -2.76586,-3.22305 -3.003244,-3.58413 -2.676795,-4.07173 0.130394,-0.19475 0.221441,-0.22226 0.719495,-0.21731 0.313616,0.003 0.828742,0.0755 1.144724,0.1609 0.315982,0.0853 0.848173,0.21243 1.182648,0.28234 0.334475,0.0699 1.660421,0.37336 2.946545,0.67434 1.286121,0.30097 2.822461,0.66015 3.414082,0.79816 0.59162,0.13802 1.425512,0.3386 1.853093,0.44572 1.416223,0.35482 2.521564,0.47761 3.586822,0.39846 1.889348,-0.14036 2.471918,-0.29603 4.317978,-1.15375 0.64509,-0.29972 2.04176,-0.94788 3.10373,-1.44037 2.22502,-1.03184 3.57571,-1.65908 5.03905,-2.34006 2.69761,-1.25534 3.02483,-1.35202 3.43317,-1.0144 0.33526,0.2772 0.29843,0.89331 -0.10748,1.7981 -0.17273,0.38502 -0.63789,1.41404 -1.0337,2.2867 -0.3958,0.87267 -0.8603,1.90169 -1.03223,2.28671 -0.63958,1.43233 -2.39059,5.31468 -2.93716,6.5123 -0.71629,1.56948 -0.852,2.26773 -0.64473,3.31728 0.19706,0.99789 0.57657,1.71601 1.42074,2.68839 0.39517,0.45519 0.91021,1.06158 1.14456,1.34757 0.44545,0.54361 1.99733,2.84544 2.0937,3.1055 0.0306,0.0826 0.2347,0.46027 0.4535,0.83918 0.6589,1.14108 1.86214,4.00684 2.30034,5.47872 1.03706,3.48342 1.39921,6.4627 1.16952,9.62136 z"
           id="path364"
           sodipodi:nodetypes="ssssccsssscssscsccssssssssssssssssssss" /></g><g
         id="g1218"
         transform="matrix(0.60185183,0,0,0.42363332,-6.3006297,110.86281)"
         inkscape:export-filename="fishCoin2.png"
         inkscape:export-xdpi="96"
         inkscape:export-ydpi="96"><circle
           style="fill:#ffcc00;stroke-width:0.264999"
           id="circle1210"
           cx="102.18887"
           cy="153.06589"
           r="46.963394" /><circle
           style="fill:#d4aa00;stroke-width:0.358107"
           id="circle1212"
           cx="101.75402"
           cy="153.0659"
           r="43.484627" /><circle
           style="fill:#ffcc00;stroke-width:0.322296"
           id="circle1214"
           cx="101.75402"
           cy="153.0659"
           r="39.136166" /><path
           style="fill:#d4aa00;stroke-width:0.093749"
           d="m 117.81576,162.8541 c -0.0893,1.22778 -0.4927,3.38892 -0.8385,4.49185 -1.15769,3.69256 -3.04897,6.73518 -5.99582,9.64583 -1.86628,1.84335 -4.5679,3.97849 -5.7376,4.53451 -1.06519,0.50633 -1.442,0.53623 -2.71698,0.21561 -11.782561,-2.84961 -17.94044,-16.75639 -17.105148,-25.63155 0.176447,-1.55084 0.947337,-4.85274 1.359332,-5.82232 0.04917,-0.11572 0.264453,-0.64185 0.478405,-1.16915 0.682162,-1.6813 1.561438,-3.27416 2.63699,-4.77706 0.471041,-0.6582 0.70673,-0.93782 2.222761,-2.63708 0.732168,-0.82064 1.046603,-1.50091 1.052994,-2.27807 0.0059,-0.71197 -0.271216,-1.30676 -1.02031,-2.19027 -0.32494,-0.38326 -1.273679,-1.50738 -2.108313,-2.49804 -0.834631,-0.99067 -1.731133,-2.05475 -1.992225,-2.36463 -0.26109,-0.30987 -0.768325,-0.90555 -1.127188,-1.32374 -2.76586,-3.22305 -3.003244,-3.58413 -2.676795,-4.07173 0.130394,-0.19475 0.221441,-0.22226 0.719495,-0.21731 0.313616,0.003 0.828742,0.0755 1.144724,0.1609 0.315982,0.0853 0.848173,0.21243 1.182648,0.28234 0.334475,0.0699 1.660421,0.37336 2.946545,0.67434 1.286121,0.30097 2.822461,0.66015 3.414082,0.79816 0.59162,0.13802 1.425512,0.3386 1.853093,0.44572 1.416223,0.35482 2.521564,0.47761 3.586822,0.39846 1.889348,-0.14036 2.471918,-0.29603 4.317978,-1.15375 0.64509,-0.29972 2.04176,-0.94788 3.10373,-1.44037 2.22502,-1.03184 3.57571,-1.65908 5.03905,-2.34006 2.69761,-1.25534 3.02483,-1.35202 3.43317,-1.0144 0.33526,0.2772 0.29843,0.89331 -0.10748,1.7981 -0.17273,0.38502 -0.63789,1.41404 -1.0337,2.2867 -0.3958,0.87267 -0.8603,1.90169 -1.03223,2.28671 -0.63958,1.43233 -2.39059,5.31468 -2.93716,6.5123 -0.71629,1.56948 -0.852,2.26773 -0.64473,3.31728 0.19706,0.99789 0.57657,1.71601 1.42074,2.68839 0.39517,0.45519 0.91021,1.06158 1.14456,1.34757 0.44545,0.54361 1.99733,2.84544 2.0937,3.1055 0.0306,0.0826 0.2347,0.46027 0.4535,0.83918 0.6589,1.14108 1.86214,4.00684 2.30034,5.47872 1.03706,3.48342 1.39921,6.4627 1.16952,9.62136 z"
           id="path1216"
           sodipodi:nodetypes="ssssccsssscssscsccssssssssssssssssssss" /></g><g
         id="g1228"
         transform="matrix(0.60185183,0,0,0.26999667,-6.3006297,79.25446)"
         inkscape:export-filename="fishCoin3.png"
         inkscape:export-xdpi="96"
         inkscape:export-ydpi="96"><circle
           style="fill:#ffcc00;stroke-width:0.264999"
           id="circle1220"
           cx="102.18887"
           cy="153.06589"
           r="46.963394" /><circle
           style="fill:#d4aa00;stroke-width:0.358107"
           id="circle1222"
           cx="101.75402"
           cy="153.0659"
           r="43.484627" /><circle
           style="fill:#ffcc00;stroke-width:0.322296"
           id="circle1224"
           cx="101.75402"
           cy="153.0659"
           r="39.136166" /><path
           style="fill:#d4aa00;stroke-width:0.093749"
           d="m 117.81576,162.8541 c -0.0893,1.22778 -0.4927,3.38892 -0.8385,4.49185 -1.15769,3.69256 -3.04897,6.73518 -5.99582,9.64583 -1.86628,1.84335 -4.5679,3.97849 -5.7376,4.53451 -1.06519,0.50633 -1.442,0.53623 -2.71698,0.21561 -11.782561,-2.84961 -17.94044,-16.75639 -17.105148,-25.63155 0.176447,-1.55084 0.947337,-4.85274 1.359332,-5.82232 0.04917,-0.11572 0.264453,-0.64185 0.478405,-1.16915 0.682162,-1.6813 1.561438,-3.27416 2.63699,-4.77706 0.471041,-0.6582 0.70673,-0.93782 2.222761,-2.63708 0.732168,-0.82064 1.046603,-1.50091 1.052994,-2.27807 0.0059,-0.71197 -0.271216,-1.30676 -1.02031,-2.19027 -0.32494,-0.38326 -1.273679,-1.50738 -2.108313,-2.49804 -0.834631,-0.99067 -1.731133,-2.05475 -1.992225,-2.36463 -0.26109,-0.30987 -0.768325,-0.90555 -1.127188,-1.32374 -2.76586,-3.22305 -3.003244,-3.58413 -2.676795,-4.07173 0.130394,-0.19475 0.221441,-0.22226 0.719495,-0.21731 0.313616,0.003 0.828742,0.0755 1.144724,0.1609 0.315982,0.0853 0.848173,0.21243 1.182648,0.28234 0.334475,0.0699 1.660421,0.37336 2.946545,0.67434 1.286121,0.30097 2.822461,0.66015 3.414082,0.79816 0.59162,0.13802 1.425512,0.3386 1.853093,0.44572 1.416223,0.35482 2.521564,0.47761 3.586822,0.39846 1.889348,-0.14036 2.471918,-0.29603 4.317978,-1.15375 0.64509,-0.29972 2.04176,-0.94788 3.10373,-1.44037 2.22502,-1.03184 3.57571,-1.65908 5.03905,-2.34006 2.69761,-1.25534 3.02483,-1.35202 3.43317,-1.0144 0.33526,0.2772 0.29843,0.89331 -0.10748,1.7981 -0.17273,0.38502 -0.63789,1.41404 -1.0337,2.2867 -0.3958,0.87267 -0.8603,1.90169 -1.03223,2.28671 -0.63958,1.43233 -2.39059,5.31468 -2.93716,6.5123 -0.71629,1.56948 -0.852,2.26773 -0.64473,3.31728 0.19706,0.99789 0.57657,1.71601 1.42074,2.68839 0.39517,0.45519 0.91021,1.06158 1.14456,1.34757 0.44545,0.54361 1.99733,2.84544 2.0937,3.1055 0.0306,0.0826 0.2347,0.46027 0.4535,0.83918 0.6589,1.14108 1.86214,4.00684 2.30034,5.47872 1.03706,3.48342 1.39921,6.4627 1.16952,9.62136 z"
           id="path1226"
           sodipodi:nodetypes="ssssccsssscssscsccssssssssssssssssssss" /></g><g
         id="g1238"
         transform="matrix(0.60185183,0,0,0.19010561,-6.3006297,41.841802)"
         inkscape:export-filename="fishCoin4.png"
         inkscape:export-xdpi="96"
         inkscape:export-ydpi="96"><circle
           style="fill:#ffcc00;stroke-width:0.264999"
           id="circle1230"
           cx="102.18887"
           cy="153.06589"
           r="46.963394" /><circle
           style="fill:#d4aa00;stroke-width:0.358107"
           id="circle1232"
           cx="101.75402"
           cy="153.0659"
           r="43.484627" /><circle
           style="fill:#ffcc00;stroke-width:0.322296"
           id="circle1234"
           cx="101.75402"
           cy="153.0659"
           r="39.136166" /><path
           style="fill:#d4aa00;stroke-width:0.093749"
           d="m 117.81576,162.8541 c -0.0893,1.22778 -0.4927,3.38892 -0.8385,4.49185 -1.15769,3.69256 -3.04897,6.73518 -5.99582,9.64583 -1.86628,1.84335 -4.5679,3.97849 -5.7376,4.53451 -1.06519,0.50633 -1.442,0.53623 -2.71698,0.21561 -11.782561,-2.84961 -17.94044,-16.75639 -17.105148,-25.63155 0.176447,-1.55084 0.947337,-4.85274 1.359332,-5.82232 0.04917,-0.11572 0.264453,-0.64185 0.478405,-1.16915 0.682162,-1.6813 1.561438,-3.27416 2.63699,-4.77706 0.471041,-0.6582 0.70673,-0.93782 2.222761,-2.63708 0.732168,-0.82064 1.046603,-1.50091 1.052994,-2.27807 0.0059,-0.71197 -0.271216,-1.30676 -1.02031,-2.19027 -0.32494,-0.38326 -1.273679,-1.50738 -2.108313,-2.49804 -0.834631,-0.99067 -1.731133,-2.05475 -1.992225,-2.36463 -0.26109,-0.30987 -0.768325,-0.90555 -1.127188,-1.32374 -2.76586,-3.22305 -3.003244,-3.58413 -2.676795,-4.07173 0.130394,-0.19475 0.221441,-0.22226 0.719495,-0.21731 0.313616,0.003 0.828742,0.0755 1.144724,0.1609 0.315982,0.0853 0.848173,0.21243 1.182648,0.28234 0.334475,0.0699 1.660421,0.37336 2.946545,0.67434 1.286121,0.30097 2.822461,0.66015 3.414082,0.79816 0.59162,0.13802 1.425512,0.3386 1.853093,0.44572 1.416223,0.35482 2.521564,0.47761 3.586822,0.39846 1.889348,-0.14036 2.471918,-0.29603 4.317978,-1.15375 0.64509,-0.29972 2.04176,-0.94788 3.10373,-1.44037 2.22502,-1.03184 3.57571,-1.65908 5.03905,-2.34006 2.69761,-1.25534 3.02483,-1.35202 3.43317,-1.0144 0.33526,0.2772 0.29843,0.89331 -0.10748,1.7981 -0.17273,0.38502 -0.63789,1.41404 -1.0337,2.2867 -0.3958,0.87267 -0.8603,1.90169 -1.03223,2.28671 -0.63958,1.43233 -2.39059,5.31468 -2.93716,6.5123 -0.71629,1.56948 -0.852,2.26773 -0.64473,3.31728 0.19706,0.99789 0.57657,1.71601 1.42074,2.68839 0.39517,0.45519 0.91021,1.06158 1.14456,1.34757 0.44545,0.54361 1.99733,2.84544 2.0937,3.1055 0.0306,0.0826 0.2347,0.46027 0.4535,0.83918 0.6589,1.14108 1.86214,4.00684 2.30034,5.47872 1.03706,3.48342 1.39921,6.4627 1.16952,9.62136 z"
           id="path1236"
           sodipodi:nodetypes="ssssccsssscssscsccssssssssssssssssssss" /></g><g
         id="g1248"
         transform="matrix(0.60185183,0,0,0.08255996,-6.3006297,24.968694)"
         inkscape:export-filename="fishCoin5.png"
         inkscape:export-xdpi="96"
         inkscape:export-ydpi="96"><circle
           style="fill:#ffcc00;stroke-width:0.264999"
           id="circle1240"
           cx="102.18887"
           cy="153.06589"
           r="46.963394" /><circle
           style="fill:#d4aa00;stroke-width:0.358107"
           id="circle1242"
           cx="101.75402"
           cy="153.0659"
           r="43.484627" /><circle
           style="fill:#ffcc00;stroke-width:0.322296"
           id="circle1244"
           cx="101.75402"
           cy="153.0659"
           r="39.136166" /><path
           style="fill:#d4aa00;stroke-width:0.093749"
           d="m 117.81576,162.8541 c -0.0893,1.22778 -0.4927,3.38892 -0.8385,4.49185 -1.15769,3.69256 -3.04897,6.73518 -5.99582,9.64583 -1.86628,1.84335 -4.5679,3.97849 -5.7376,4.53451 -1.06519,0.50633 -1.442,0.53623 -2.71698,0.21561 -11.782561,-2.84961 -17.94044,-16.75639 -17.105148,-25.63155 0.176447,-1.55084 0.947337,-4.85274 1.359332,-5.82232 0.04917,-0.11572 0.264453,-0.64185 0.478405,-1.16915 0.682162,-1.6813 1.561438,-3.27416 2.63699,-4.77706 0.471041,-0.6582 0.70673,-0.93782 2.222761,-2.63708 0.732168,-0.82064 1.046603,-1.50091 1.052994,-2.27807 0.0059,-0.71197 -0.271216,-1.30676 -1.02031,-2.19027 -0.32494,-0.38326 -1.273679,-1.50738 -2.108313,-2.49804 -0.834631,-0.99067 -1.731133,-2.05475 -1.992225,-2.36463 -0.26109,-0.30987 -0.768325,-0.90555 -1.127188,-1.32374 -2.76586,-3.22305 -3.003244,-3.58413 -2.676795,-4.07173 0.130394,-0.19475 0.221441,-0.22226 0.719495,-0.21731 0.313616,0.003 0.828742,0.0755 1.144724,0.1609 0.315982,0.0853 0.848173,0.21243 1.182648,0.28234 0.334475,0.0699 1.660421,0.37336 2.946545,0.67434 1.286121,0.30097 2.822461,0.66015 3.414082,0.79816 0.59162,0.13802 1.425512,0.3386 1.853093,0.44572 1.416223,0.35482 2.521564,0.47761 3.586822,0.39846 1.889348,-0.14036 2.471918,-0.29603 4.317978,-1.15375 0.64509,-0.29972 2.04176,-0.94788 3.10373,-1.44037 2.22502,-1.03184 3.57571,-1.65908 5.03905,-2.34006 2.69761,-1.25534 3.02483,-1.35202 3.43317,-1.0144 0.33526,0.2772 0.29843,0.89331 -0.10748,1.7981 -0.17273,0.38502 -0.63789,1.41404 -1.0337,2.2867 -0.3958,0.87267 -0.8603,1.90169 -1.03223,2.28671 -0.63958,1.43233 -2.39059,5.31468 -2.93716,6.5123 -0.71629,1.56948 -0.852,2.26773 -0.64473,3.31728 0.19706,0.99789 0.57657,1.71601 1.42074,2.68839 0.39517,0.45519 0.91021,1.06158 1.14456,1.34757 0.44545,0.54361 1.99733,2.84544 2.0937,3.1055 0.0306,0.0826 0.2347,0.46027 0.4535,0.83918 0.6589,1.14108 1.86214,4.00684 2.30034,5.47872 1.03706,3.48342 1.39921,6.4627 1.16952,9.62136 z"
           id="path1246"
           sodipodi:nodetypes="ssssccsssscssscsccssssssssssssssssssss" /></g><g
         id="g1258"
         transform="matrix(0.60185183,0,0,-0.01884023,-6.3006297,17.256343)"
         inkscape:export-filename="fishCoin6.png"
         inkscape:export-xdpi="96"
         inkscape:export-ydpi="96"><circle
           style="fill:#ffcc00;stroke-width:0.264999"
           id="circle1250"
           cx="102.18887"
           cy="153.06589"
           r="46.963394" /><circle
           style="fill:#d4aa00;stroke-width:0.358107"
           id="circle1252"
           cx="101.75402"
           cy="153.0659"
           r="43.484627" /><circle
           style="fill:#ffcc00;stroke-width:0.322296"
           id="circle1254"
           cx="101.75402"
           cy="153.0659"
           r="39.136166" /><path
           style="fill:#d4aa00;stroke-width:0.093749"
           d="m 117.81576,162.8541 c -0.0893,1.22778 -0.4927,3.38892 -0.8385,4.49185 -1.15769,3.69256 -3.04897,6.73518 -5.99582,9.64583 -1.86628,1.84335 -4.5679,3.97849 -5.7376,4.53451 -1.06519,0.50633 -1.442,0.53623 -2.71698,0.21561 -11.782561,-2.84961 -17.94044,-16.75639 -17.105148,-25.63155 0.176447,-1.55084 0.947337,-4.85274 1.359332,-5.82232 0.04917,-0.11572 0.264453,-0.64185 0.478405,-1.16915 0.682162,-1.6813 1.561438,-3.27416 2.63699,-4.77706 0.471041,-0.6582 0.70673,-0.93782 2.222761,-2.63708 0.732168,-0.82064 1.046603,-1.50091 1.052994,-2.27807 0.0059,-0.71197 -0.271216,-1.30676 -1.02031,-2.19027 -0.32494,-0.38326 -1.273679,-1.50738 -2.108313,-2.49804 -0.834631,-0.99067 -1.731133,-2.05475 -1.992225,-2.36463 -0.26109,-0.30987 -0.768325,-0.90555 -1.127188,-1.32374 -2.76586,-3.22305 -3.003244,-3.58413 -2.676795,-4.07173 0.130394,-0.19475 0.221441,-0.22226 0.719495,-0.21731 0.313616,0.003 0.828742,0.0755 1.144724,0.1609 0.315982,0.0853 0.848173,0.21243 1.182648,0.28234 0.334475,0.0699 1.660421,0.37336 2.946545,0.67434 1.286121,0.30097 2.822461,0.66015 3.414082,0.79816 0.59162,0.13802 1.425512,0.3386 1.853093,0.44572 1.416223,0.35482 2.521564,0.47761 3.586822,0.39846 1.889348,-0.14036 2.471918,-0.29603 4.317978,-1.15375 0.64509,-0.29972 2.04176,-0.94788 3.10373,-1.44037 2.22502,-1.03184 3.57571,-1.65908 5.03905,-2.34006 2.69761,-1.25534 3.02483,-1.35202 3.43317,-1.0144 0.33526,0.2772 0.29843,0.89331 -0.10748,1.7981 -0.17273,0.38502 -0.63789,1.41404 -1.0337,2.2867 -0.3958,0.87267 -0.8603,1.90169 -1.03223,2.28671 -0.63958,1.43233 -2.39059,5.31468 -2.93716,6.5123 -0.71629,1.56948 -0.852,2.26773 -0.64473,3.31728 0.19706,0.99789 0.57657,1.71601 1.42074,2.68839 0.39517,0.45519 0.91021,1.06158 1.14456,1.34757 0.44545,0.54361 1.99733,2.84544 2.0937,3.1055 0.0306,0.0826 0.2347,0.46027 0.4535,0.83918 0.6589,1.14108 1.86214,4.00684 2.30034,5.47872 1.03706,3.48342 1.39921,6.4627 1.16952,9.62136 z"
           id="path1256"
           sodipodi:nodetypes="ssssccsssscssscsccssssssssssssssssssss" /></g><g
         id="g1348"
         transform="matrix(0.60185183,0,0,-0.02913932,94.136323,286.7582)"
         inkscape:export-filename="fishCoin7.png"
         inkscape:export-xdpi="96"
         inkscape:export-ydpi="96"><circle
           style="fill:#ffcc00;stroke-width:0.264999"
           id="circle1340"
           cx="102.18887"
           cy="153.06589"
           r="46.963394" /><circle
           style="fill:#d4aa00;stroke-width:0.358107"
           id="circle1342"
           cx="101.75402"
           cy="153.0659"
           r="43.484627" /><circle
           style="fill:#ffcc00;stroke-width:0.322296"
           id="circle1344"
           cx="101.75402"
           cy="153.0659"
           r="39.136166" /><path
           style="fill:#d4aa00;stroke-width:0.093749"
           d="m 117.81576,162.8541 c -0.0893,1.22778 -0.4927,3.38892 -0.8385,4.49185 -1.15769,3.69256 -3.04897,6.73518 -5.99582,9.64583 -1.86628,1.84335 -4.5679,3.97849 -5.7376,4.53451 -1.06519,0.50633 -1.442,0.53623 -2.71698,0.21561 -11.782561,-2.84961 -17.94044,-16.75639 -17.105148,-25.63155 0.176447,-1.55084 0.947337,-4.85274 1.359332,-5.82232 0.04917,-0.11572 0.264453,-0.64185 0.478405,-1.16915 0.682162,-1.6813 1.561438,-3.27416 2.63699,-4.77706 0.471041,-0.6582 0.70673,-0.93782 2.222761,-2.63708 0.732168,-0.82064 1.046603,-1.50091 1.052994,-2.27807 0.0059,-0.71197 -0.271216,-1.30676 -1.02031,-2.19027 -0.32494,-0.38326 -1.273679,-1.50738 -2.108313,-2.49804 -0.834631,-0.99067 -1.731133,-2.05475 -1.992225,-2.36463 -0.26109,-0.30987 -0.768325,-0.90555 -1.127188,-1.32374 -2.76586,-3.22305 -3.003244,-3.58413 -2.676795,-4.07173 0.130394,-0.19475 0.221441,-0.22226 0.719495,-0.21731 0.313616,0.003 0.828742,0.0755 1.144724,0.1609 0.315982,0.0853 0.848173,0.21243 1.182648,0.28234 0.334475,0.0699 1.660421,0.37336 2.946545,0.67434 1.286121,0.30097 2.822461,0.66015 3.414082,0.79816 0.59162,0.13802 1.425512,0.3386 1.853093,0.44572 1.416223,0.35482 2.521564,0.47761 3.586822,0.39846 1.889348,-0.14036 2.471918,-0.29603 4.317978,-1.15375 0.64509,-0.29972 2.04176,-0.94788 3.10373,-1.44037 2.22502,-1.03184 3.57571,-1.65908 5.03905,-2.34006 2.69761,-1.25534 3.02483,-1.35202 3.43317,-1.0144 0.33526,0.2772 0.29843,0.89331 -0.10748,1.7981 -0.17273,0.38502 -0.63789,1.41404 -1.0337,2.2867 -0.3958,0.87267 -0.8603,1.90169 -1.03223,2.28671 -0.63958,1.43233 -2.39059,5.31468 -2.93716,6.5123 -0.71629,1.56948 -0.852,2.26773 -0.64473,3.31728 0.19706,0.99789 0.57657,1.71601 1.42074,2.68839 0.39517,0.45519 0.91021,1.06158 1.14456,1.34757 0.44545,0.54361 1.99733,2.84544 2.0937,3.1055 0.0306,0.0826 0.2347,0.46027 0.4535,0.83918 0.6589,1.14108 1.86214,4.00684 2.30034,5.47872 1.03706,3.48342 1.39921,6.4627 1.16952,9.62136 z"
           id="path1346"
           sodipodi:nodetypes="ssssccsssscssscsccssssssssssssssssssss" /></g><g
         id="g1358"
         transform="matrix(0.60185183,0,0,-0.11170383,94.136323,271.02897)"
         inkscape:export-filename="fishCoin8.png"
         inkscape:export-xdpi="96"
         inkscape:export-ydpi="96"><circle
           style="fill:#ffcc00;stroke-width:0.264999"
           id="circle1350"
           cx="102.18887"
           cy="153.06589"
           r="46.963394" /><circle
           style="fill:#d4aa00;stroke-width:0.358107"
           id="circle1352"
           cx="101.75402"
           cy="153.0659"
           r="43.484627" /><circle
           style="fill:#ffcc00;stroke-width:0.322296"
           id="circle1354"
           cx="101.75402"
           cy="153.0659"
           r="39.136166" /><path
           style="fill:#d4aa00;stroke-width:0.093749"
           d="m 117.81576,162.8541 c -0.0893,1.22778 -0.4927,3.38892 -0.8385,4.49185 -1.15769,3.69256 -3.04897,6.73518 -5.99582,9.64583 -1.86628,1.84335 -4.5679,3.97849 -5.7376,4.53451 -1.06519,0.50633 -1.442,0.53623 -2.71698,0.21561 -11.782561,-2.84961 -17.94044,-16.75639 -17.105148,-25.63155 0.176447,-1.55084 0.947337,-4.85274 1.359332,-5.82232 0.04917,-0.11572 0.264453,-0.64185 0.478405,-1.16915 0.682162,-1.6813 1.561438,-3.27416 2.63699,-4.77706 0.471041,-0.6582 0.70673,-0.93782 2.222761,-2.63708 0.732168,-0.82064 1.046603,-1.50091 1.052994,-2.27807 0.0059,-0.71197 -0.271216,-1.30676 -1.02031,-2.19027 -0.32494,-0.38326 -1.273679,-1.50738 -2.108313,-2.49804 -0.834631,-0.99067 -1.731133,-2.05475 -1.992225,-2.36463 -0.26109,-0.30987 -0.768325,-0.90555 -1.127188,-1.32374 -2.76586,-3.22305 -3.003244,-3.58413 -2.676795,-4.07173 0.130394,-0.19475 0.221441,-0.22226 0.719495,-0.21731 0.313616,0.003 0.828742,0.0755 1.144724,0.1609 0.315982,0.0853 0.848173,0.21243 1.182648,0.28234 0.334475,0.0699 1.660421,0.37336 2.946545,0.67434 1.286121,0.30097 2.822461,0.66015 3.414082,0.79816 0.59162,0.13802 1.425512,0.3386 1.853093,0.44572 1.416223,0.35482 2.521564,0.47761 3.586822,0.39846 1.889348,-0.14036 2.471918,-0.29603 4.317978,-1.15375 0.64509,-0.29972 2.04176,-0.94788 3.10373,-1.44037 2.22502,-1.03184 3.57571,-1.65908 5.03905,-2.34006 2.69761,-1.25534 3.02483,-1.35202 3.43317,-1.0144 0.33526,0.2772 0.29843,0.89331 -0.10748,1.7981 -0.17273,0.38502 -0.63789,1.41404 -1.0337,2.2867 -0.3958,0.87267 -0.8603,1.90169 -1.03223,2.28671 -0.63958,1.43233 -2.39059,5.31468 -2.93716,6.5123 -0.71629,1.56948 -0.852,2.26773 -0.64473,3.31728 0.19706,0.99789 0.57657,1.71601 1.42074,2.68839 0.39517,0.45519 0.91021,1.06158 1.14456,1.34757 0.44545,0.54361 1.99733,2.84544 2.0937,3.1055 0.0306,0.0826 0.2347,0.46027 0.4535,0.83918 0.6589,1.14108 1.86214,4.00684 2.30034,5.47872 1.03706,3.48342 1.39921,6.4627 1.16952,9.62136 z"
           id="path1356"
           sodipodi:nodetypes="ssssccsssscssscsccssssssssssssssssssss" /></g><g
         id="g1368"
         transform="matrix(0.60185183,0,0,-0.22251409,94.136323,252.99062)"
         inkscape:export-filename="fishCoin9.png"
         inkscape:export-xdpi="96"
         inkscape:export-ydpi="96"><circle
           style="fill:#ffcc00;stroke-width:0.264999"
           id="circle1360"
           cx="102.18887"
           cy="153.06589"
           r="46.963394" /><circle
           style="fill:#d4aa00;stroke-width:0.358107"
           id="circle1362"
           cx="101.75402"
           cy="153.0659"
           r="43.484627" /><circle
           style="fill:#ffcc00;stroke-width:0.322296"
           id="circle1364"
           cx="101.75402"
           cy="153.0659"
           r="39.136166" /><path
           style="fill:#d4aa00;stroke-width:0.093749"
           d="m 117.81576,162.8541 c -0.0893,1.22778 -0.4927,3.38892 -0.8385,4.49185 -1.15769,3.69256 -3.04897,6.73518 -5.99582,9.64583 -1.86628,1.84335 -4.5679,3.97849 -5.7376,4.53451 -1.06519,0.50633 -1.442,0.53623 -2.71698,0.21561 -11.782561,-2.84961 -17.94044,-16.75639 -17.105148,-25.63155 0.176447,-1.55084 0.947337,-4.85274 1.359332,-5.82232 0.04917,-0.11572 0.264453,-0.64185 0.478405,-1.16915 0.682162,-1.6813 1.561438,-3.27416 2.63699,-4.77706 0.471041,-0.6582 0.70673,-0.93782 2.222761,-2.63708 0.732168,-0.82064 1.046603,-1.50091 1.052994,-2.27807 0.0059,-0.71197 -0.271216,-1.30676 -1.02031,-2.19027 -0.32494,-0.38326 -1.273679,-1.50738 -2.108313,-2.49804 -0.834631,-0.99067 -1.731133,-2.05475 -1.992225,-2.36463 -0.26109,-0.30987 -0.768325,-0.90555 -1.127188,-1.32374 -2.76586,-3.22305 -3.003244,-3.58413 -2.676795,-4.07173 0.130394,-0.19475 0.221441,-0.22226 0.719495,-0.21731 0.313616,0.003 0.828742,0.0755 1.144724,0.1609 0.315982,0.0853 0.848173,0.21243 1.182648,0.28234 0.334475,0.0699 1.660421,0.37336 2.946545,0.67434 1.286121,0.30097 2.822461,0.66015 3.414082,0.79816 0.59162,0.13802 1.425512,0.3386 1.853093,0.44572 1.416223,0.35482 2.521564,0.47761 3.586822,0.39846 1.889348,-0.14036 2.471918,-0.29603 4.317978,-1.15375 0.64509,-0.29972 2.04176,-0.94788 3.10373,-1.44037 2.22502,-1.03184 3.57571,-1.65908 5.03905,-2.34006 2.69761,-1.25534 3.02483,-1.35202 3.43317,-1.0144 0.33526,0.2772 0.29843,0.89331 -0.10748,1.7981 -0.17273,0.38502 -0.63789,1.41404 -1.0337,2.2867 -0.3958,0.87267 -0.8603,1.90169 -1.03223,2.28671 -0.63958,1.43233 -2.39059,5.31468 -2.93716,6.5123 -0.71629,1.56948 -0.852,2.26773 -0.64473,3.31728 0.19706,0.99789 0.57657,1.71601 1.42074,2.68839 0.39517,0.45519 0.91021,1.06158 1.14456,1.34757 0.44545,0.54361 1.99733,2.84544 2.0937,3.1055 0.0306,0.0826 0.2347,0.46027 0.4535,0.83918 0.6589,1.14108 1.86214,4.00684 2.30034,5.47872 1.03706,3.48342 1.39921,6.4627 1.16952,9.62136 z"
           id="path1366"
           sodipodi:nodetypes="ssssccsssscssscsccssssssssssssssssssss" /></g><g
         id="g1378"
         transform="matrix(0.60185183,0,0,-0.2876966,94.136323,223.17235)"
         inkscape:export-filename="fishCoin10.png"
         inkscape:export-xdpi="96"
         inkscape:export-ydpi="96"><circle
           style="fill:#ffcc00;stroke-width:0.264999"
           id="circle1370"
           cx="102.18887"
           cy="153.06589"
           r="46.963394" /><circle
           style="fill:#d4aa00;stroke-width:0.358107"
           id="circle1372"
           cx="101.75402"
           cy="153.0659"
           r="43.484627" /><circle
           style="fill:#ffcc00;stroke-width:0.322296"
           id="circle1374"
           cx="101.75402"
           cy="153.0659"
           r="39.136166" /><path
           style="fill:#d4aa00;stroke-width:0.093749"
           d="m 117.81576,162.8541 c -0.0893,1.22778 -0.4927,3.38892 -0.8385,4.49185 -1.15769,3.69256 -3.04897,6.73518 -5.99582,9.64583 -1.86628,1.84335 -4.5679,3.97849 -5.7376,4.53451 -1.06519,0.50633 -1.442,0.53623 -2.71698,0.21561 -11.782561,-2.84961 -17.94044,-16.75639 -17.105148,-25.63155 0.176447,-1.55084 0.947337,-4.85274 1.359332,-5.82232 0.04917,-0.11572 0.264453,-0.64185 0.478405,-1.16915 0.682162,-1.6813 1.561438,-3.27416 2.63699,-4.77706 0.471041,-0.6582 0.70673,-0.93782 2.222761,-2.63708 0.732168,-0.82064 1.046603,-1.50091 1.052994,-2.27807 0.0059,-0.71197 -0.271216,-1.30676 -1.02031,-2.19027 -0.32494,-0.38326 -1.273679,-1.50738 -2.108313,-2.49804 -0.834631,-0.99067 -1.731133,-2.05475 -1.992225,-2.36463 -0.26109,-0.30987 -0.768325,-0.90555 -1.127188,-1.32374 -2.76586,-3.22305 -3.003244,-3.58413 -2.676795,-4.07173 0.130394,-0.19475 0.221441,-0.22226 0.719495,-0.21731 0.313616,0.003 0.828742,0.0755 1.144724,0.1609 0.315982,0.0853 0.848173,0.21243 1.182648,0.28234 0.334475,0.0699 1.660421,0.37336 2.946545,0.67434 1.286121,0.30097 2.822461,0.66015 3.414082,0.79816 0.59162,0.13802 1.425512,0.3386 1.853093,0.44572 1.416223,0.35482 2.521564,0.47761 3.586822,0.39846 1.889348,-0.14036 2.471918,-0.29603 4.317978,-1.15375 0.64509,-0.29972 2.04176,-0.94788 3.10373,-1.44037 2.22502,-1.03184 3.57571,-1.65908 5.03905,-2.34006 2.69761,-1.25534 3.02483,-1.35202 3.43317,-1.0144 0.33526,0.2772 0.29843,0.89331 -0.10748,1.7981 -0.17273,0.38502 -0.63789,1.41404 -1.0337,2.2867 -0.3958,0.87267 -0.8603,1.90169 -1.03223,2.28671 -0.63958,1.43233 -2.39059,5.31468 -2.93716,6.5123 -0.71629,1.56948 -0.852,2.26773 -0.64473,3.31728 0.19706,0.99789 0.57657,1.71601 1.42074,2.68839 0.39517,0.45519 0.91021,1.06158 1.14456,1.34757 0.44545,0.54361 1.99733,2.84544 2.0937,3.1055 0.0306,0.0826 0.2347,0.46027 0.4535,0.83918 0.6589,1.14108 1.86214,4.00684 2.30034,5.47872 1.03706,3.48342 1.39921,6.4627 1.16952,9.62136 z"
           id="path1376"
           sodipodi:nodetypes="ssssccsssscssscsccssssssssssssssssssss" /></g><g
         id="g1388"
         transform="matrix(0.60185183,0,0,-0.37026111,94.136323,184.58622)"
         inkscape:export-filename="fishCoin11.png"
         inkscape:export-xdpi="96"
         inkscape:export-ydpi="96"><circle
           style="fill:#ffcc00;stroke-width:0.264999"
           id="circle1380"
           cx="102.18887"
           cy="153.06589"
           r="46.963394" /><circle
           style="fill:#d4aa00;stroke-width:0.358107"
           id="circle1382"
           cx="101.75402"
           cy="153.0659"
           r="43.484627" /><circle
           style="fill:#ffcc00;stroke-width:0.322296"
           id="circle1384"
           cx="101.75402"
           cy="153.0659"
           r="39.136166" /><path
           style="fill:#d4aa00;stroke-width:0.093749"
           d="m 117.81576,162.8541 c -0.0893,1.22778 -0.4927,3.38892 -0.8385,4.49185 -1.15769,3.69256 -3.04897,6.73518 -5.99582,9.64583 -1.86628,1.84335 -4.5679,3.97849 -5.7376,4.53451 -1.06519,0.50633 -1.442,0.53623 -2.71698,0.21561 -11.782561,-2.84961 -17.94044,-16.75639 -17.105148,-25.63155 0.176447,-1.55084 0.947337,-4.85274 1.359332,-5.82232 0.04917,-0.11572 0.264453,-0.64185 0.478405,-1.16915 0.682162,-1.6813 1.561438,-3.27416 2.63699,-4.77706 0.471041,-0.6582 0.70673,-0.93782 2.222761,-2.63708 0.732168,-0.82064 1.046603,-1.50091 1.052994,-2.27807 0.0059,-0.71197 -0.271216,-1.30676 -1.02031,-2.19027 -0.32494,-0.38326 -1.273679,-1.50738 -2.108313,-2.49804 -0.834631,-0.99067 -1.731133,-2.05475 -1.992225,-2.36463 -0.26109,-0.30987 -0.768325,-0.90555 -1.127188,-1.32374 -2.76586,-3.22305 -3.003244,-3.58413 -2.676795,-4.07173 0.130394,-0.19475 0.221441,-0.22226 0.719495,-0.21731 0.313616,0.003 0.828742,0.0755 1.144724,0.1609 0.315982,0.0853 0.848173,0.21243 1.182648,0.28234 0.334475,0.0699 1.660421,0.37336 2.946545,0.67434 1.286121,0.30097 2.822461,0.66015 3.414082,0.79816 0.59162,0.13802 1.425512,0.3386 1.853093,0.44572 1.416223,0.35482 2.521564,0.47761 3.586822,0.39846 1.889348,-0.14036 2.471918,-0.29603 4.317978,-1.15375 0.64509,-0.29972 2.04176,-0.94788 3.10373,-1.44037 2.22502,-1.03184 3.57571,-1.65908 5.03905,-2.34006 2.69761,-1.25534 3.02483,-1.35202 3.43317,-1.0144 0.33526,0.2772 0.29843,0.89331 -0.10748,1.7981 -0.17273,0.38502 -0.63789,1.41404 -1.0337,2.2867 -0.3958,0.87267 -0.8603,1.90169 -1.03223,2.28671 -0.63958,1.43233 -2.39059,5.31468 -2.93716,6.5123 -0.71629,1.56948 -0.852,2.26773 -0.64473,3.31728 0.19706,0.99789 0.57657,1.71601 1.42074,2.68839 0.39517,0.45519 0.91021,1.06158 1.14456,1.34757 0.44545,0.54361 1.99733,2.84544 2.0937,3.1055 0.0306,0.0826 0.2347,0.46027 0.4535,0.83918 0.6589,1.14108 1.86214,4.00684 2.30034,5.47872 1.03706,3.48342 1.39921,6.4627 1.16952,9.62136 z"
           id="path1386"
           sodipodi:nodetypes="ssssccsssscssscsccssssssssssssssssssss" /></g><g
         id="g1398"
         transform="matrix(0.60185183,0,0,-0.45065287,98.83015,141.27981)"
         inkscape:export-filename="fishCoin12.png"
         inkscape:export-xdpi="96"
         inkscape:export-ydpi="96"><circle
           style="fill:#ffcc00;stroke-width:0.264999"
           id="circle1390"
           cx="102.18887"
           cy="153.06589"
           r="46.963394" /><circle
           style="fill:#d4aa00;stroke-width:0.358107"
           id="circle1392"
           cx="101.75402"
           cy="153.0659"
           r="43.484627" /><circle
           style="fill:#ffcc00;stroke-width:0.322296"
           id="circle1394"
           cx="101.75402"
           cy="153.0659"
           r="39.136166" /><path
           style="fill:#d4aa00;stroke-width:0.093749"
           d="m 117.81576,162.8541 c -0.0893,1.22778 -0.4927,3.38892 -0.8385,4.49185 -1.15769,3.69256 -3.04897,6.73518 -5.99582,9.64583 -1.86628,1.84335 -4.5679,3.97849 -5.7376,4.53451 -1.06519,0.50633 -1.442,0.53623 -2.71698,0.21561 -11.782561,-2.84961 -17.94044,-16.75639 -17.105148,-25.63155 0.176447,-1.55084 0.947337,-4.85274 1.359332,-5.82232 0.04917,-0.11572 0.264453,-0.64185 0.478405,-1.16915 0.682162,-1.6813 1.561438,-3.27416 2.63699,-4.77706 0.471041,-0.6582 0.70673,-0.93782 2.222761,-2.63708 0.732168,-0.82064 1.046603,-1.50091 1.052994,-2.27807 0.0059,-0.71197 -0.271216,-1.30676 -1.02031,-2.19027 -0.32494,-0.38326 -1.273679,-1.50738 -2.108313,-2.49804 -0.834631,-0.99067 -1.731133,-2.05475 -1.992225,-2.36463 -0.26109,-0.30987 -0.768325,-0.90555 -1.127188,-1.32374 -2.76586,-3.22305 -3.003244,-3.58413 -2.676795,-4.07173 0.130394,-0.19475 0.221441,-0.22226 0.719495,-0.21731 0.313616,0.003 0.828742,0.0755 1.144724,0.1609 0.315982,0.0853 0.848173,0.21243 1.182648,0.28234 0.334475,0.0699 1.660421,0.37336 2.946545,0.67434 1.286121,0.30097 2.822461,0.66015 3.414082,0.79816 0.59162,0.13802 1.425512,0.3386 1.853093,0.44572 1.416223,0.35482 2.521564,0.47761 3.586822,0.39846 1.889348,-0.14036 2.471918,-0.29603 4.317978,-1.15375 0.64509,-0.29972 2.04176,-0.94788 3.10373,-1.44037 2.22502,-1.03184 3.57571,-1.65908 5.03905,-2.34006 2.69761,-1.25534 3.02483,-1.35202 3.43317,-1.0144 0.33526,0.2772 0.29843,0.89331 -0.10748,1.7981 -0.17273,0.38502 -0.63789,1.41404 -1.0337,2.2867 -0.3958,0.87267 -0.8603,1.90169 -1.03223,2.28671 -0.63958,1.43233 -2.39059,5.31468 -2.93716,6.5123 -0.71629,1.56948 -0.852,2.26773 -0.64473,3.31728 0.19706,0.99789 0.57657,1.71601 1.42074,2.68839 0.39517,0.45519 0.91021,1.06158 1.14456,1.34757 0.44545,0.54361 1.99733,2.84544 2.0937,3.1055 0.0306,0.0826 0.2347,0.46027 0.4535,0.83918 0.6589,1.14108 1.86214,4.00684 2.30034,5.47872 1.03706,3.48342 1.39921,6.4627 1.16952,9.62136 z"
           id="path1396"
           sodipodi:nodetypes="ssssccsssscssscsccssssssssssssssssssss" /></g><g
         id="g1408"
         transform="matrix(0.60185183,0,0,-0.59827197,95.716348,106.08981)"
         inkscape:export-filename="fishCoin13.png"
         inkscape:export-xdpi="96"
         inkscape:export-ydpi="96"><circle
           style="fill:#ffcc00;stroke-width:0.264999"
           id="circle1400"
           cx="102.18887"
           cy="153.06589"
           r="46.963394" /><circle
           style="fill:#d4aa00;stroke-width:0.358107"
           id="circle1402"
           cx="101.75402"
           cy="153.0659"
           r="43.484627" /><circle
           style="fill:#ffcc00;stroke-width:0.322296"
           id="circle1404"
           cx="101.75402"
           cy="153.0659"
           r="39.136166" /><path
           style="fill:#d4aa00;stroke-width:0.093749"
           d="m 117.81576,162.8541 c -0.0893,1.22778 -0.4927,3.38892 -0.8385,4.49185 -1.15769,3.69256 -3.04897,6.73518 -5.99582,9.64583 -1.86628,1.84335 -4.5679,3.97849 -5.7376,4.53451 -1.06519,0.50633 -1.442,0.53623 -2.71698,0.21561 -11.782561,-2.84961 -17.94044,-16.75639 -17.105148,-25.63155 0.176447,-1.55084 0.947337,-4.85274 1.359332,-5.82232 0.04917,-0.11572 0.264453,-0.64185 0.478405,-1.16915 0.682162,-1.6813 1.561438,-3.27416 2.63699,-4.77706 0.471041,-0.6582 0.70673,-0.93782 2.222761,-2.63708 0.732168,-0.82064 1.046603,-1.50091 1.052994,-2.27807 0.0059,-0.71197 -0.271216,-1.30676 -1.02031,-2.19027 -0.32494,-0.38326 -1.273679,-1.50738 -2.108313,-2.49804 -0.834631,-0.99067 -1.731133,-2.05475 -1.992225,-2.36463 -0.26109,-0.30987 -0.768325,-0.90555 -1.127188,-1.32374 -2.76586,-3.22305 -3.003244,-3.58413 -2.676795,-4.07173 0.130394,-0.19475 0.221441,-0.22226 0.719495,-0.21731 0.313616,0.003 0.828742,0.0755 1.144724,0.1609 0.315982,0.0853 0.848173,0.21243 1.182648,0.28234 0.334475,0.0699 1.660421,0.37336 2.946545,0.67434 1.286121,0.30097 2.822461,0.66015 3.414082,0.79816 0.59162,0.13802 1.425512,0.3386 1.853093,0.44572 1.416223,0.35482 2.521564,0.47761 3.586822,0.39846 1.889348,-0.14036 2.471918,-0.29603 4.317978,-1.15375 0.64509,-0.29972 2.04176,-0.94788 3.10373,-1.44037 2.22502,-1.03184 3.57571,-1.65908 5.03905,-2.34006 2.69761,-1.25534 3.02483,-1.35202 3.43317,-1.0144 0.33526,0.2772 0.29843,0.89331 -0.10748,1.7981 -0.17273,0.38502 -0.63789,1.41404 -1.0337,2.2867 -0.3958,0.87267 -0.8603,1.90169 -1.03223,2.28671 -0.63958,1.43233 -2.39059,5.31468 -2.93716,6.5123 -0.71629,1.56948 -0.852,2.26773 -0.64473,3.31728 0.19706,0.99789 0.57657,1.71601 1.42074,2.68839 0.39517,0.45519 0.91021,1.06158 1.14456,1.34757 0.44545,0.54361 1.99733,2.84544 2.0937,3.1055 0.0306,0.0826 0.2347,0.46027 0.4535,0.83918 0.6589,1.14108 1.86214,4.00684 2.30034,5.47872 1.03706,3.48342 1.39921,6.4627 1.16952,9.62136 z"
           id="path1406"
           sodipodi:nodetypes="ssssccsssscssscsccssssssssssssssssssss" /></g></g></g></svg>
